<?xml version="1.0" encoding="UTF-8" standalone="no"?>
<!DOCTYPE svg PUBLIC "-//W3C//DTD SVG 1.1//EN" "http://www.w3.org/Graphics/SVG/1.1/DTD/svg11.dtd">
<svg width="100%" height="100%" viewBox="0 0 139 98" version="1.1" xmlns="http://www.w3.org/2000/svg" xmlns:xlink="http://www.w3.org/1999/xlink" xml:space="preserve" xmlns:serif="http://www.serif.com/" style="fill-rule:evenodd;clip-rule:evenodd;stroke-linejoin:round;stroke-miterlimit:2;">
    <g fill="#C80082"  transform="matrix(1,0,0,1,-676.151,-309.865)">
        <g transform="matrix(1,0,0,1,-27.243,-41.89)">
            <path d="M808.633,389.432C808.02,389.239 807.512,390.766 806.593,390.272C806.393,389.192 807.251,389.17 807.433,388.472C803.093,384.912 803.76,375.845 800.833,370.832C799.718,368.923 796.982,366.663 794.113,368.432C791.452,370.072 790.571,375.341 790.873,379.832C791.546,389.863 796.926,395.483 802.513,400.952C806.573,404.926 810.216,408.689 812.833,414.391C814.553,418.139 816.231,423.111 815.232,427.952C818.964,428.561 822.634,429.391 825.913,430.952C826.966,431.453 827.967,432.48 828.793,432.632C829.539,432.769 830.515,432.428 831.313,432.392C835.521,432.202 840.093,432.649 842.353,434.552C838.855,434.863 835.182,434.866 831.673,435.032C830.512,435.087 829.11,435.41 828.194,435.271C827.313,435.138 826.381,434.025 825.313,433.471C822.191,431.851 818.443,431.126 814.633,430.351C813.118,433.047 812.181,435.401 810.194,437.071C804.013,442.264 792.061,442.659 781.034,443.071C777.329,443.211 773.427,443.471 769.634,443.311C756.256,442.748 745.572,440.458 737.114,434.912C736.013,434.19 734.715,432.756 733.754,432.512C731.676,431.986 729.236,432.995 727.514,433.472C726.63,433.716 725.649,433.927 724.754,434.312C723.907,434.676 723.077,435.47 722.474,435.512C721.703,435.566 721.062,434.855 720.314,434.672C715.046,433.386 708.435,436.183 703.394,435.752C703.599,434.35 705.417,433.885 706.874,433.472C711.071,432.282 717.742,431.053 722.353,432.752C724.896,431.574 727.654,430.612 731.114,430.352C730.493,429.027 729.154,428.25 728.114,427.232C721.919,421.169 716.253,413.711 712.513,404.793C711.947,403.44 710.894,401.23 711.194,399.873C711.569,398.174 715.926,397.097 718.154,397.232C719.798,397.333 721.431,397.841 722.834,398.312C725.279,399.133 726.989,400.417 730.273,399.752C733.515,399.095 736.058,396.904 738.794,395.552C741.531,394.198 744.529,392.704 748.273,392.432C757.831,391.737 765.25,395.365 771.673,398.792C775.152,400.648 778.097,402.374 780.913,404.432C783.772,406.521 786.342,408.893 789.312,411.033C789.41,411.055 789.432,411.153 789.552,411.152C784.434,402.832 778.437,394.281 777.312,381.873C776.384,371.634 779.693,363.659 784.512,358.112C787.417,354.768 790.23,352.6 795.792,351.873C796.881,351.73 797.86,351.702 798.912,351.873C807.832,353.317 814.6,360.248 818.832,367.473C821.569,372.147 823.525,380.452 819.672,385.713C820.093,387.515 819.938,389.151 819.312,390.633C818.891,391.632 817.945,392.395 817.752,393.153C817.375,394.636 817.68,396.671 817.632,398.193C817.521,401.736 817.259,404.076 815.952,406.834C815.431,407.933 814.544,409.621 813.552,409.594C812.239,409.558 811.843,406.217 811.632,405.154C810.563,399.758 809.716,394.579 808.633,389.432ZM815.473,395.792C815.527,394.458 815.137,393.151 815.473,392.072C815.619,391.605 816.075,391.218 816.313,390.872C816.928,389.978 817.496,389.15 817.513,387.752C817.526,386.742 816.98,386.286 817.034,385.352C817.097,384.233 818.132,383.084 818.473,382.112C821.156,374.494 815.945,366.944 812.114,362.793C810.26,360.784 808.413,358.953 806.114,357.513C804.2,356.315 800.005,354.558 797.353,354.753C792.257,355.128 788.527,357.332 786.194,360.033C783.272,363.413 781.348,368.075 780.433,373.472C779.459,379.223 780.191,385.201 781.753,390.512C783.91,397.844 788.329,403.318 791.833,409.232C793.333,411.764 795.822,416.046 793.393,418.352C792.259,417.287 791.7,415.645 791.114,414.033C788.39,413.372 786.968,411.858 784.874,410.553C783.412,409.642 782.059,408.577 780.674,407.553C777.899,405.5 774.965,403.651 771.674,402.033C765.175,398.838 758.46,394.816 749.474,395.312C745.701,395.521 742.468,396.892 739.754,398.312C737.116,399.693 734.497,401.876 731.233,402.632C726.346,403.765 723.101,400.318 718.754,399.872C717.4,399.733 714.96,399.545 714.434,401.311C720.634,402.512 724.196,406.349 727.514,410.431C727.884,409.874 728.461,409.553 728.594,408.631C728.702,407.883 727.985,406.645 728.954,406.351C729.968,406.767 730.037,408.039 730.393,408.872C732.336,413.396 735.397,417.651 738.914,420.512C740.362,421.691 742.247,423.031 744.554,422.792C744.798,421.637 744.252,420.709 743.834,419.432C743.6,418.714 742.792,416.338 744.194,416.312C744.912,416.298 745.597,418.026 746.114,418.592C748.086,420.756 752.75,424.498 756.194,425.432C759.078,426.213 760.424,424.698 760.034,421.712C759.883,420.559 758.795,419.796 759.433,418.712C760.273,418.672 760.629,419.9 761.233,420.512C762.601,421.9 764.803,423.695 766.994,425.192C768.285,426.076 772.265,428.767 774.074,428.552C777.138,428.188 774.956,424.228 775.273,422.672C776.452,422.695 776.571,423.868 777.194,424.472C778.208,425.456 780.092,426.714 781.633,427.712C783.287,428.782 785.218,430.224 787.154,429.992C788.515,429.828 788.878,428.069 790.154,428.072C791.31,428.074 792.536,429.756 793.273,430.351C794.161,431.069 795.66,432.032 796.633,432.511C798.826,433.591 802.157,434.604 805.873,434.191C810.092,433.723 812.437,430.409 812.833,426.271C813.205,422.376 811.766,418.661 810.433,415.591C809.115,412.555 807.275,409.833 805.273,407.551C802.126,403.962 798.296,401.267 795.433,397.831C791.178,392.725 787.557,385.69 788.353,375.871C788.597,372.863 789.615,368.642 792.433,366.511C796.412,363.503 801.16,366.231 803.114,369.511C806.031,374.408 805.506,382.606 809.233,386.671C810.478,386.331 813.302,383.289 815.233,383.911C817.082,384.506 815.541,386.909 814.034,386.791C814.282,387.651 814.597,388.475 814.393,389.671C814.288,390.288 813.63,390.869 813.553,391.591C813.46,392.464 813.929,393.807 814.033,394.951C814.363,398.568 814.168,402.327 814.272,405.991C815.314,403 815.338,399.172 815.473,395.792Z"/>
            <path d="M817.152,374.432C817.56,375.913 816.33,376.705 815.953,377.792C816.657,378.487 817.767,378.777 817.633,380.312C816.713,381.432 815.547,380.139 814.753,379.712C814.09,380.368 813.942,381.542 812.713,381.632C811.536,380.958 812.567,379.259 813.073,378.512C812.696,377.609 811.657,377.367 811.512,376.232C811.629,376.229 811.605,376.086 811.632,375.993C812.415,375.382 813.511,376.179 814.032,376.593C814.975,375.876 815.496,373.654 817.152,374.432Z"/>
            <path d="M731.353,436.352C733.247,435.647 733.291,438.579 731.833,438.632C730.58,438.678 730.108,436.815 731.353,436.352Z"/>
            <path d="M717.313,437.792C719.207,437.087 719.251,440.019 717.793,440.071C716.541,440.118 716.068,438.255 717.313,437.792Z"/>
            <path d="M817.633,438.151C819.134,437.994 821.813,439.111 823.993,439.952C825.511,440.537 828.568,441.751 828.793,443.071C828.929,443.87 828.199,445.107 827.713,445.712C825.897,447.969 823.597,448.486 819.673,448.832C818.269,448.955 815.694,449.222 814.753,448.952C813.668,448.64 812.186,446.344 811.753,445.351C811.611,445.027 811.023,443.459 811.033,443.191C811.082,441.974 812.564,441.21 813.793,440.311C815.084,439.367 816.224,438.299 817.633,438.151ZM817.873,440.191C816.327,440.686 814.494,441.932 813.193,443.071C813.818,444.405 814.543,445.641 815.352,446.792C816.418,446.778 817.577,446.856 818.472,446.672C818.286,446.018 818.004,445.459 818.113,444.512C819.536,442.896 823.237,443.556 825.673,442.952C823.318,441.786 820.636,440.949 817.873,440.191Z"/>
            <path d="M830.353,438.151C832.249,437.446 832.287,440.364 830.833,440.431C829.585,440.49 829.112,438.613 830.353,438.151Z"/>
            <path d="M737.833,441.032C739.727,440.327 739.771,443.258 738.312,443.311C737.061,443.357 736.588,441.495 737.833,441.032Z"/>
            <path d="M802.873,444.271C804.767,443.566 804.811,446.498 803.352,446.551C802.103,446.598 801.627,444.735 802.873,444.271Z"/>
        </g>
    </g>
</svg>
