<?xml version="1.0" encoding="UTF-8" standalone="no"?>
<!DOCTYPE svg PUBLIC "-//W3C//DTD SVG 1.1//EN" "http://www.w3.org/Graphics/SVG/1.1/DTD/svg11.dtd">
<svg width="100%" height="100%" viewBox="0 0 135 90" version="1.1" xmlns="http://www.w3.org/2000/svg" xmlns:xlink="http://www.w3.org/1999/xlink" xml:space="preserve" xmlns:serif="http://www.serif.com/" style="fill-rule:evenodd;clip-rule:evenodd;stroke-linejoin:round;stroke-miterlimit:2;">
    <g transform="matrix(1,0,0,1,-527.833,-369.269)">
        <g fill="#DC4F00" >
            <path d="M574.873,369.512C577.122,368.031 576.686,373.704 576.553,376.112C576.49,377.245 576.29,379.232 575.473,379.232C574.891,379.232 574.587,378.076 574.513,377.432C574.247,375.121 574.528,371.341 574.873,369.512Z"/>
            <path d="M560.113,385.111C558.583,385.277 557.813,384.132 556.753,383.072C556.264,382.582 552.557,379.339 555.073,378.992C556.269,378.826 557.447,380.7 558.312,381.632C559.349,382.747 560.728,383.821 560.113,385.111Z"/>
            <path d="M590.713,387.512C589.964,386.327 591.509,385.104 592.393,384.152C593.38,383.09 594.568,381.434 595.633,381.392C596.274,381.368 596.755,381.788 596.833,382.112C597.143,383.405 594.895,384.715 594.193,385.352C593.067,386.374 592.372,387.767 590.713,387.512Z"/>
            <path d="M573.913,384.032C580.34,383.504 585.199,386.625 587.833,390.151C589.791,392.774 591.285,396.355 590.953,401.311C590.38,409.855 583.681,415.813 576.073,416.311C568.903,416.781 563.398,412.115 561.073,407.551C558.435,402.377 559.132,394.679 562.512,390.151C564.755,387.148 568.9,384.443 573.913,384.032ZM565.273,389.912C563.08,392.128 561.318,395.484 561.312,399.632C561.306,404.443 564.211,408.402 567.193,410.432C576.196,416.563 588.909,410.095 589.033,399.632C589.083,395.431 586.892,391.618 584.713,389.552C582.413,387.371 578.42,385.511 573.913,385.952C570.069,386.328 567.217,387.947 565.273,389.912Z"/>
            <path d="M610.273,397.472C605.53,397.111 606.656,402.11 606.432,407.192C606.34,409.29 605.986,411.195 606.312,412.352C606.561,413.232 607.455,413.579 607.512,414.272C606.482,414.102 605.571,413.814 604.872,413.312C604.846,411.086 604.615,408.03 604.752,404.913C604.863,402.38 604.636,398.813 605.592,397.473C606.339,396.425 609.301,395.813 610.273,397.472Z" style="fill:#f7ee6a;"/>
            <path d="M551.953,399.032C552.719,399.054 553.774,398.895 553.873,399.872C554.071,401.833 545.987,401.867 546.433,399.752C546.681,398.573 550.599,398.991 551.953,399.032Z"/>
            <path d="M610.513,407.312C611.615,408.828 613.989,408.632 616.274,408.752L616.274,409.832C614.352,409.224 612.45,410.242 610.393,409.832C610.411,408.971 610.321,408 610.513,407.312Z" style="fill:#f7ee6a;"/>
            <path d="M558.073,416.072C558.418,416.924 557.933,417.776 557.472,418.351C556.489,419.579 554.696,421.013 553.033,420.992C552.753,419.2 555.78,416.706 557.233,415.832C557.401,415.73 557.835,415.929 558.073,416.072Z"/>
            <path d="M583.873,441.752L584.113,441.752C584.091,441.854 584.16,441.865 584.233,441.872L584.233,442.111C584.13,442.09 584.12,442.158 584.113,442.231L583.873,442.231C583.894,442.129 583.826,442.118 583.753,442.111L583.753,441.872C583.855,441.894 583.866,441.825 583.873,441.752Z"/>
            <path d="M626.232,447.632C627.996,447.121 628.014,449.686 626.833,449.912C625.593,450.148 624.617,448.1 626.232,447.632Z"/>
            <path d="M639.433,449.912C638.915,450.467 637.911,450.467 637.393,449.912C636.297,447.462 640.528,447.462 639.433,449.912Z"/>
            <path d="M647.113,450.032C649.086,449.235 649.129,452.197 647.713,452.311C646.456,452.413 645.87,450.533 647.113,450.032Z"/>
            <path d="M604.273,450.512C604.726,450.294 605.306,450.354 605.592,450.512C607.821,451.748 603.914,454.352 603.552,451.952C603.451,451.276 603.655,450.915 604.273,450.512Z"/>
            <path d="M651.073,453.872C649.81,453.147 650.71,450.984 652.272,451.472C653.576,451.879 653.294,454.477 651.073,453.872Z"/>
            <path d="M641.713,451.832C643.776,453.249 640.435,455.31 640.033,453.271C639.854,452.366 640.42,451.659 641.713,451.832Z"/>
            <path d="M647.353,453.992C649.212,453.471 649.175,456.46 647.473,456.271C646.33,456.146 646.104,454.341 647.353,453.992Z"/>
            <path d="M633.193,454.231C635.192,453.419 635.435,456.263 634.153,456.631C632.803,457.019 631.681,454.846 633.193,454.231Z"/>
            <path d="M600.553,440.552C605.677,439.156 611.809,438.768 618.433,438.872C618.262,432.283 618.204,424.54 618.074,417.512C612.91,417.826 605.345,418.49 603.194,414.872C602.016,412.893 602.256,409.027 602.233,405.632C602.197,400.025 601.873,394.751 606.673,393.872C609.043,393.437 611.126,394.372 611.833,396.271C612.62,398.385 612.117,402.643 612.793,405.631C614.056,406.248 616.343,405.841 617.713,406.351C619.01,401.244 616.495,394.938 618.793,390.631C619.851,388.65 622.531,386.208 625.273,385.831C627.794,385.483 631.016,386.488 632.352,388.23C634.266,390.725 633.792,395.983 633.792,400.35C633.792,407.521 634.096,415.355 634.152,422.55C636.982,422.197 638.49,421.336 639.672,419.43C641.804,415.991 640.066,411.532 640.512,407.43C640.754,405.206 642.161,403.467 644.352,402.87C646.679,402.235 649.083,402.672 649.993,404.43C651.444,407.237 650.836,413.207 650.472,416.91C649.913,422.61 648.744,426.651 644.592,428.91C641.684,430.492 638.529,430.854 634.153,430.95C633.98,434.244 634.477,437.502 634.153,440.55C644.556,442.865 656.563,444.22 662.833,450.27C653.885,448.921 646.874,446.349 638.232,444.51C629.894,442.736 620.767,441.465 610.512,442.11C601.123,442.701 593.9,445.537 587.352,449.31C584.337,451.048 581.25,453.217 577.873,455.07C573.761,457.327 567.735,459.948 562.633,457.711C561.73,457.315 560.467,456.697 560.593,455.551C561.767,454.87 563.279,455.681 564.793,455.791C568.983,456.096 572.163,454.585 575.233,452.911C582.208,449.106 588.694,444.021 596.712,441.631C592.202,438.529 586.017,436.778 579.312,436.231C572.288,435.658 565.568,437.039 559.873,438.992C548.644,442.842 538.636,448.564 527.953,452.552C527.85,452.53 527.84,452.599 527.833,452.672C536.789,445.965 548.011,439.256 560.593,435.392C567.251,433.347 574.996,432.386 582.553,433.472C589.736,434.504 596.164,436.755 600.553,440.552ZM620.353,393.151C619.715,395.25 619.749,398.402 619.753,401.311C619.761,406.676 620.812,412.215 620.953,416.551C621.657,415.738 621.719,414.459 621.793,412.831C621.952,409.31 621.861,401.964 622.033,398.071C622.103,396.476 621.782,392.383 623.113,392.55C624.217,392.689 623.802,395.88 623.953,397.71C624.052,398.913 624.032,400.563 624.193,401.67C624.398,399.875 624.959,398.436 626.713,398.19C626.67,396.068 626.715,394.033 627.073,392.31C628.104,391.502 628.233,389.79 629.232,388.951C625.401,386.961 621.297,390.05 620.353,393.151ZM605.593,397.472C604.637,398.813 604.864,402.379 604.753,404.912C604.616,408.029 604.847,411.086 604.873,413.311C605.571,413.813 606.482,414.101 607.513,414.271C607.455,413.578 606.562,413.231 606.313,412.351C605.987,411.194 606.341,409.288 606.433,407.191C606.657,402.109 605.531,397.11 610.274,397.471C609.301,395.813 606.339,396.425 605.593,397.472ZM643.633,412.111C643.931,418.869 642.04,422.711 638.233,424.712C640.237,424.971 641.131,424.219 642.313,423.392C644.379,421.948 645.292,419.863 645.313,416.312C645.334,412.661 644.012,406.788 647.834,407.432C647.676,406.75 647.627,405.959 647.233,405.512C642.79,404.834 643.474,408.506 643.633,412.111ZM610.393,409.832C612.45,410.242 614.352,409.224 616.274,409.832L616.274,408.752C613.989,408.632 611.615,408.827 610.513,407.312C610.321,408 610.411,408.971 610.393,409.832Z"/>
        </g>
    </g>
</svg>
