<?xml version="1.0" encoding="UTF-8" standalone="no"?>
<!DOCTYPE svg PUBLIC "-//W3C//DTD SVG 1.1//EN" "http://www.w3.org/Graphics/SVG/1.1/DTD/svg11.dtd">
<svg width="100%" height="100%" viewBox="0 0 128 89" version="1.1" xmlns="http://www.w3.org/2000/svg" xmlns:xlink="http://www.w3.org/1999/xlink" xml:space="preserve" xmlns:serif="http://www.serif.com/" style="fill-rule:evenodd;clip-rule:evenodd;stroke-linejoin:round;stroke-miterlimit:2;">
    <g fill="#985c9b"  transform="matrix(1,0,0,1,-633.707,-59.6385)">
        <g transform="matrix(1,0,0,1,-100.603,-110.074)">
            <path d="M847.033,179.792C848.687,180.897 850.445,181.899 851.713,183.392C849.179,185.218 846.185,186.583 842.593,187.352C842.487,186.722 843.194,186.297 843.553,185.792C844.768,184.085 846.057,181.843 847.033,179.792Z" style="fill:#BED276;"/>
            <path d="M745.633,186.392C748.899,185.903 749.174,192.32 745.633,191.792C742.959,191.393 742.783,186.818 745.633,186.392Z"/>
            <path d="M755.953,200.312C755.758,203.077 755.853,206.132 755.833,209.072C754.52,208.948 753.043,209.621 751.753,209.912C752.454,206.533 753.686,203.685 754.393,200.312L755.953,200.312Z" style="fill:#BED276;"/>
            <path d="M764.232,202.112C765.429,202.395 766.601,202.704 767.712,203.072C768.023,205.162 768.189,207.395 768.912,209.072C767.687,209.848 765.805,209.965 764.712,210.872C764.563,207.942 764.428,204.997 764.232,202.112Z" style="fill:#BED276;"/>
            <path d="M804.793,243.032C806.325,245.9 808.689,247.936 809.953,251.072C809.786,251.266 809.613,251.452 809.473,251.672C807.329,249.496 805.852,246.654 803.833,244.352C803.979,243.738 804.738,243.738 804.793,243.032Z" style="fill:#BED276;"/>
            <path d="M799.513,228.032C800.181,229.589 800.112,231.131 800.713,232.472C801.038,233.196 801.798,233.693 802.273,234.392C803.65,236.419 804.905,238.693 805.633,241.472C808.208,244.177 810.454,247.211 812.233,250.712C813.043,251.016 813.641,251.949 814.513,252.872C815.19,253.587 816.548,254.346 816.433,255.392C816.252,257.036 813.461,256.168 812.353,255.512C811.961,256.168 812.274,257.928 811.273,258.152C809.453,258.56 809.362,255.226 808.753,254.072C808.395,253.392 807.502,252.738 806.833,251.912C805.211,249.911 803.123,247.046 802.033,244.832C801.726,244.658 801.228,244.676 800.953,244.472C799.057,242.087 797.087,239.778 796.392,236.192C795.721,235.903 795.067,235.597 794.352,235.352C792.089,231.055 790.042,226.541 788.592,221.432C785.404,223.133 780.9,228.459 776.592,224.912C776.037,224.455 775.548,223.624 775.153,222.992C774.788,222.41 774.59,221.247 773.352,221.672C773.292,225.267 772.707,230.197 772.033,234.152C771.784,235.608 771.239,237.091 771.312,238.112C771.388,239.164 772.237,240.547 772.752,241.832C773.057,242.593 774.242,244.993 772.752,245.432C770.853,245.992 770.247,243.385 769.152,243.032C768.463,244.44 767.665,247.176 765.551,246.512C763.397,245.836 766.007,241.027 766.391,240.032C766.09,239.386 765.368,239.247 765.192,238.592C764.685,236.709 765.768,233.093 766.032,231.152C766.644,226.633 767.467,223.122 765.792,219.512C763.427,220.629 760.92,222.97 757.632,222.032C755.652,225.852 753.773,229.772 752.352,234.152C752.613,235.1 753.912,241.914 751.993,242.192C750.453,242.415 750.097,239.896 749.472,238.832C748.459,239.32 743.233,242.409 742.872,239.432C742.63,237.432 745.491,236.761 746.472,235.592C747.776,230.615 749.982,226.541 751.632,221.912C751.122,220.742 750.845,219.339 750.672,217.832C748.077,218.379 745.125,220.369 742.152,219.032C741.761,215.458 742.84,211.926 743.471,208.472C744.107,204.992 744.735,201.509 745.631,198.272C743.414,198.128 741.518,197.665 740.591,196.232C739.988,196.549 739.57,197.051 739.031,197.432C739.197,199.386 738.938,201.442 737.35,201.752C735.729,202.068 734.54,200.694 734.35,199.112C733.987,196.082 736.218,193.827 737.83,192.752C735.182,188.77 738.629,184.057 741.309,181.832C743.676,179.868 746.341,179.188 749.95,178.832C753.423,178.489 757.054,177.779 760.75,177.392C764.571,176.991 768.474,176.815 772.03,176.432C775.645,176.043 779.298,175.3 782.95,174.752C786.586,174.207 790.283,173.653 793.87,173.072C801.192,171.886 808.22,170.274 815.83,169.832C835.595,168.686 850.01,175.918 858.67,186.872C859.372,187.759 861.964,190.723 862.03,192.032C862.078,192.991 860.563,195.269 859.87,196.472C857.444,200.681 854.774,204.65 852.07,208.232C848.2,213.358 844.414,218.288 840.19,222.512C835.947,226.755 829.328,229.464 822.07,230.552C814.013,231.76 805.539,230.988 799.513,228.032ZM813.553,172.472C813.996,177.789 814.103,183.442 814.393,188.912C816.338,188.334 818.788,187.229 821.713,187.232C821.121,181.709 821.523,175.668 823.873,172.352C820.474,172.137 816.839,172.23 813.553,172.472ZM797.953,174.872C799.269,181.116 800.52,187.424 801.673,193.832C803.131,192.887 805.716,191.398 808.513,191.792C808.756,187.764 809.227,184.649 810.313,181.832C810.667,180.915 811.445,180.049 811.633,179.192C812.097,177.081 811.223,175.027 811.753,172.712C806.778,173.057 802.544,174.144 797.953,174.872ZM829.993,185.912C831.581,185.755 833.571,185.721 835.152,185.912C836.253,181.732 838.965,179.164 841.993,176.912C838.475,175.349 834.747,173.997 830.472,173.192C830.357,177.477 830.066,181.585 829.993,185.912ZM796.633,180.152C796.476,179.422 795.886,175.182 795.073,175.352C792.066,175.979 788.01,176.518 784.392,177.032C785.857,185.208 787.516,193.188 789.913,200.432C790.978,199.337 791.839,198.038 794.232,198.272C794.29,192.849 795.417,188.496 797.712,185.312C797.304,183.658 797.061,182.137 796.633,180.152ZM771.553,178.712C771.741,182.969 772.785,187.632 772.633,191.432C771.026,190.354 770.824,187.972 770.353,185.912C769.847,183.699 769.544,181.327 769.273,179.072C765.71,179.308 762.323,179.721 758.834,180.032C758.834,181.896 758.833,184.08 758.834,186.152C758.834,188.186 759.213,190.417 758.233,191.672C757.137,191.085 757.068,189.359 756.914,187.952C756.644,185.496 756.621,182.706 756.434,180.272C747.924,180.651 738.18,183.047 739.394,192.392C738.613,194.475 734.35,197.473 736.874,200.072C737.827,198.873 737.109,197.398 737.474,196.232C737.809,195.161 738.988,194.095 739.874,193.832C741.755,193.274 741.835,194.864 743.353,195.392C744.332,195.732 745.012,195.488 746.233,195.752C746.864,194.742 746.63,192.869 747.914,192.512C748.631,193.368 748.196,194.572 748.034,195.512C746.771,202.835 744.866,209.883 743.954,217.472C746.761,217.16 748.717,215.488 751.634,215.672C753.317,216.79 752.685,220.221 753.434,222.272C751.998,226.716 750.144,230.742 748.634,235.112C749.085,234.935 749.983,234.935 750.434,235.112C750.812,231.152 752.492,227.618 753.914,224.672C754.432,223.599 755.224,222.77 755.714,221.792C756.546,220.132 756.295,219.194 755.834,217.592C755.227,215.483 754.67,213.654 754.874,211.232C753.5,211.818 752.113,212.391 750.074,212.312C748.298,211.058 749.951,207.644 750.553,205.592C751.219,203.324 751.834,201.386 752.114,199.592C750.959,199.427 749.805,199.26 749.834,197.912C751.092,197.007 754.814,197.048 756.074,197.912C756.099,197.307 756.076,195.924 756.914,195.992C757.89,196.072 757.512,198.475 757.514,199.592C757.518,201.734 757.728,205.247 757.874,207.032C758.215,211.206 757.922,216.625 758.834,219.752C760.44,220.096 761.691,218.916 763.394,217.832C764.22,217.306 767.661,215.175 767.955,217.232C768.064,218 767.422,218 767.234,218.672C769.531,221.932 768.744,227.094 768.075,231.872C767.819,233.698 766.229,239.802 769.035,238.712C769.772,234.791 770.531,230.717 770.955,226.472C771.101,225.009 771.465,223.272 771.195,221.912C771.062,221.247 770.452,220.387 770.115,219.632C769.032,217.213 767.998,214.538 767.115,212.192C765.658,212.334 765.191,214.284 763.514,213.872C762.33,213.58 762.575,210.94 762.434,208.712C762.214,205.227 762.136,202.312 761.955,199.832C763.26,198.838 765.695,200.139 767.354,200.312C767.747,200.437 768.051,199.786 768.794,199.952C769.787,200.174 770.026,202.626 770.354,204.152C771.118,207.702 771.845,210.042 772.875,213.152C773.378,214.673 774.176,215.977 774.675,217.112C775.441,218.852 776.071,221.052 776.955,222.152C779.132,224.858 781.559,222.706 783.555,221.312C784.932,220.351 785.95,219.736 787.275,218.792C788.195,218.977 788.308,218.702 789.196,218.672C792.031,222.917 793.342,228.686 795.796,233.312C796.384,233.019 798.113,232.8 798.316,231.872C798.423,231.381 797.878,230.583 797.716,230.072C795.929,224.414 793.917,216.139 791.956,210.632C790.394,211.426 789.128,212.313 787.516,213.392C786.835,213.849 783.917,216.371 782.836,216.032C782.263,215.853 781.617,213.704 781.275,212.912C779.797,209.482 778.739,205.777 777.796,202.232C775.955,202.458 773.792,202.589 773.836,201.032C773.891,199.098 776.98,200.332 778.275,199.352C780.232,200.996 780.634,204.192 781.515,206.912C783.203,205.841 784.845,204.722 786.196,203.312C785.439,200.165 784.366,196.506 784.996,193.112C785.09,192.606 785.475,192.065 785.475,191.552C785.478,190.599 784.905,189.205 784.635,188.072C783.921,185.072 783.26,181.972 782.715,179.072C782.615,178.543 782.765,177.671 782.115,177.392C778.652,177.892 775.346,178.545 771.553,178.712ZM851.713,183.392C850.445,181.899 848.688,180.897 847.033,179.792C846.056,181.843 844.767,184.085 843.553,185.792C843.194,186.297 842.487,186.722 842.593,187.352M754.393,200.312C753.686,203.685 752.455,206.533 751.753,209.912C753.043,209.621 754.52,208.948 755.833,209.072C755.854,206.133 755.758,203.077 755.953,200.312L754.393,200.312ZM764.713,210.872C765.806,209.964 767.689,209.848 768.913,209.072C768.189,207.395 768.023,205.162 767.713,203.072C766.602,202.704 765.43,202.395 764.233,202.112C764.428,204.997 764.563,207.942 764.713,210.872ZM798.193,235.592C798.902,237.883 800.653,240.172 801.672,242.552C805.409,241.442 800.024,236.051 799.632,234.512C799.687,235.405 798.618,235.177 798.193,235.592ZM809.473,251.672C809.614,251.452 809.786,251.266 809.953,251.072C808.688,247.936 806.325,245.9 804.793,243.032C804.738,243.738 803.979,243.738 803.833,244.352"/>
        </g>
    </g>
</svg>
