<?xml version="1.0" encoding="UTF-8" standalone="no"?>
<!DOCTYPE svg PUBLIC "-//W3C//DTD SVG 1.1//EN" "http://www.w3.org/Graphics/SVG/1.1/DTD/svg11.dtd">
<svg width="100%" height="100%" viewBox="0 0 105 140" version="1.1" xmlns="http://www.w3.org/2000/svg" xmlns:xlink="http://www.w3.org/1999/xlink" xml:space="preserve" xmlns:serif="http://www.serif.com/" style="fill-rule:evenodd;clip-rule:evenodd;stroke-linejoin:round;stroke-miterlimit:2;">
    <g transform="matrix(1,0,0,1,-274.134,-317.302)">
        <g fill="#3860AA" >
            <path d="M341.953,322.592C341.841,322.354 341.562,322.021 341.833,321.752C341.746,321.454 341.472,322.148 341.233,321.752C340.508,319.444 342.539,316.199 344.833,317.672C345.67,319.055 343.73,322.297 342.793,322.592C342.475,322.692 342.184,322.514 341.953,322.592ZM341.953,321.512C342.245,320.475 343.767,319.418 343.393,318.512C342.521,319.04 341.683,320.24 341.953,321.512Z"/>
            <path d="M349.633,326.912C348.956,325.176 352.66,324.288 352.633,325.832C352.617,326.768 350.626,327.053 349.633,326.912Z"/>
            <path d="M338.473,328.472C337.548,329.796 337.681,333.035 338.713,334.112C339.557,333.221 339.886,330.519 341.473,330.753C341.972,330.826 341.838,331.22 342.313,331.713C342.705,332.12 343.095,332.28 343.273,332.553C344.578,334.548 345.05,339.792 344.833,343.713C344.571,348.454 343.06,352.468 342.433,355.473C343.019,356.266 343.613,357.141 344.113,358.473C344.713,360.072 345.21,361.773 345.073,364.233C350.104,363.923 353.881,361.305 356.953,358.233C357.68,357.506 359.364,355.135 360.313,355.233C361.313,355.337 361.521,358.383 361.873,359.313C363.343,363.202 367.387,365.086 370.513,367.233C364.72,367.186 360.621,364.405 358.993,359.794C355.71,364.231 348.672,367.818 340.513,367.233C335.512,366.876 330.91,364.586 330.433,359.433C328.559,360.753 326.262,362.728 323.353,364.113C318.868,366.249 311.352,368.701 306.553,364.954C304.622,363.445 303.613,361.097 303.073,357.994C302.344,358.276 302.055,359.185 301.513,359.794C298.43,363.248 291.222,368.573 284.473,368.193C281.788,368.043 279.299,366.706 279.073,364.233C280.426,364.062 281.085,365.216 282.193,365.553C282.9,365.768 283.877,365.859 284.953,365.793C290.78,365.439 295.503,361.194 299.113,358.473C298.667,357.919 297.831,357.755 297.313,357.273C296.634,357.904 296.419,359.539 294.913,358.954C294.367,357.91 295.343,357.107 295.753,356.313C294.706,354.927 290.943,353.051 291.073,350.793C291.163,349.22 293.422,348.828 295.033,348.152C299.489,346.284 304.64,343.951 309.313,342.993C312.067,339.725 315.646,336.264 319.993,333.392C324.049,330.714 328.775,327.526 333.913,327.033C336.038,326.828 337.392,327.336 338.473,328.472ZM303.793,354.032C305.001,354.159 305.052,357.234 305.473,358.471C306.114,360.354 306.751,361.68 307.633,362.191C306.836,359.625 308.468,357.65 310.993,357.631C309.789,355.09 310.978,352.05 313.273,351.271C313.797,351.093 314.487,351.327 314.953,350.792C314.419,348.153 316.01,344.699 319.273,345.872C319.519,345.518 319.806,345.205 320.233,345.032C320.027,343.026 321.144,342.342 322.153,341.552C321.769,340.824 320.661,339.649 321.313,338.672C322.675,339.257 323.445,340.657 324.313,341.792C326.9,345.173 330.759,347.919 336.313,348.151C338.372,348.238 341.84,347.41 342.073,345.752C342.602,341.984 341.733,336.887 341.353,333.512C340.428,334.454 340.848,336.663 339.433,336.872C336.918,337.243 334.737,332.15 335.833,329.311C328.877,330.914 323.153,334.171 318.313,337.952C315.919,339.821 313.481,341.98 311.593,344.311C310.05,346.216 308.967,348.125 307.873,350.311C307.564,350.928 307.236,352.024 306.313,352.111C305.09,350.242 306.963,347.761 307.513,346.111C302.643,347.362 298.611,349.45 294.073,351.032C294.493,352.218 295.954,353.385 297.193,354.151C297.515,353.874 297.963,353.72 298.513,353.672C298.893,354.062 298.706,354.771 298.633,355.352C299.475,355.71 300.021,356.365 300.793,356.792C301.937,356.262 302.329,353.878 303.793,354.032ZM340.633,360.872C340.688,361.415 341.31,361.84 341.593,362.432C341.967,363.214 341.782,364.195 342.553,364.472C342.446,362.739 342.151,360.154 341.233,358.832C341.184,359.652 340.561,360.151 340.633,360.872Z"/>
            <path d="M328.513,339.032C326.877,337.282 327.84,333.204 330.673,333.872C332.174,334.226 332.837,336.965 331.633,338.311C330.826,339.215 329.906,338.905 328.513,339.032ZM329.473,337.111C330.114,337.255 330.578,335.913 329.833,335.792C329.566,336.085 329.394,336.472 329.473,337.111Z"/>
            <path d="M338.833,413.672C338.132,417.784 339.194,421.174 337.873,424.111C337.378,425.213 334.873,428.049 333.793,428.672C331.867,429.782 327.529,430.995 324.673,431.312C321.839,431.627 317.971,431.048 316.393,429.632C315.915,429.203 315.524,428.07 315.073,427.472C313.957,425.992 311.889,424.866 311.233,423.272C310.135,420.606 311.038,417.319 310.633,413.672C309.15,412.571 306.461,411.042 304.873,409.232C304.072,408.319 302.753,406.516 302.833,405.392C302.925,404.103 304.312,403.491 305.353,402.872C303.095,400.771 302.416,397.104 302.713,392.672C303.248,384.699 309.128,378.194 315.553,375.752C318.15,374.765 321.42,374.279 324.433,374.191C331.699,373.98 336.922,376.462 340.513,380.311C345.067,385.194 347.883,395.903 344.353,402.872C344.292,402.993 343.391,404.257 343.393,404.311C343.404,404.566 344.438,405.418 344.713,405.751C346.274,407.639 345.484,408.879 343.633,410.311C341.977,411.594 340.873,412.851 338.833,413.672ZM322.273,376.952C311.527,377.859 303.803,386.578 305.833,398.431C305.966,398.545 306.743,398.097 307.153,398.431C308.167,399.275 307.49,401.032 307.633,402.151C307.687,402.573 308.045,402.827 307.993,403.231C307.822,404.571 305.865,404.909 305.713,406.231C306.58,407.833 308.491,408.758 310.393,409.952C311.1,410.394 311.689,411.109 312.433,411.512C313.949,412.333 316.193,413.221 316.153,415.112C316.136,415.913 315.255,416.539 315.673,417.512C315.82,417.866 316.661,417.457 316.753,418.112C316.705,418.68 316.967,418.938 316.873,419.552C317.559,419.638 317.945,419.424 318.553,419.432C318.84,418.119 318.255,415.934 319.153,415.232C320.738,415.328 319.69,418.055 319.993,419.432C320.973,419.372 321.973,419.332 322.873,419.192C323.117,417.796 322.297,415.336 323.473,414.873C324.716,415.31 324.193,417.513 324.313,419.073C325.107,419.027 325.799,418.879 326.593,418.833C326.713,417.214 326.07,415.457 327.193,414.753C328.808,414.858 328.325,417.061 328.513,418.593L330.673,418.593C330.872,417.162 329.877,414.587 331.273,414.513C332.618,414.442 332.233,417.281 332.593,418.713C332.955,418.83 333.308,418.958 333.673,419.073C333.491,417.229 334.113,415.313 333.433,414.033C333.756,412.968 334.997,412.758 335.833,412.352C338.622,411.002 341.246,409.474 343.153,407.312C342.729,406.085 340.262,405.628 340.033,403.592C340.013,403.415 340.236,402.829 340.273,402.512C340.636,399.411 340.29,392.949 343.273,394.472C342.383,382.478 335.457,375.838 322.273,376.952ZM328.393,420.512C328.012,421.811 328.772,424.25 326.833,423.992C326.773,422.811 326.732,421.612 326.473,420.632C325.857,420.817 325.083,420.842 324.313,420.872C324.316,422.115 324.27,423.309 324.073,424.351C323.434,424.39 323.243,423.981 322.873,423.751C322.794,422.87 323.032,421.672 322.753,420.991C322.072,421.269 320.874,421.032 319.993,421.11C319.968,422.215 320.203,423.06 320.113,424.23C319.718,424.235 319.515,424.433 319.033,424.35C318.647,423.455 318.762,422.062 318.553,420.991C317.878,421.026 317.339,420.925 316.873,420.751C316.773,421.451 316.778,422.255 316.273,422.551C315.968,422.682 315.808,421.989 315.793,422.551C315.396,425.251 317.72,425.884 318.313,427.951C322.059,429.326 329.255,429.031 331.993,426.511C332.49,426.054 333.551,424.695 333.673,424.111C333.899,423.034 333.239,421.843 333.433,420.511L332.473,420.511C332.315,421.633 332.382,422.98 331.513,423.391C330.909,422.755 330.962,421.462 330.793,420.391C329.87,420.309 329.233,420.512 328.393,420.512Z"/>
            <path d="M295.393,398.072C289.972,398.133 286.734,394.97 283.393,392.551C283.158,392.106 282.873,391.71 282.673,391.231C280.694,394.131 278.618,396.936 274.153,397.351C274.007,396.833 274.723,396.64 274.993,396.391C277.505,394.073 279.991,390.66 282.073,387.871C282.102,387.74 282.311,387.789 282.313,387.631C283.843,387.513 284.615,389.39 285.553,390.511C288.225,393.705 291.532,396.317 295.393,398.072Z"/>
            <path d="M315.793,393.032C314.265,391.735 311.604,392.31 309.913,393.032C310.263,391.115 312.142,390.59 313.993,390.752C317.167,391.029 319.856,393.677 322.033,394.352C326.246,400.94 314.203,408.846 309.313,403.352C307.359,401.158 308.146,397.146 309.913,395.312C311.256,393.918 313.231,393.216 315.793,393.032Z"/>
            <path d="M336.793,392.191C334.554,392.312 332.285,392.403 330.673,393.151C334.926,393.404 338.543,394.437 339.793,397.351C341.472,401.266 337.702,405.353 333.073,404.671C331.839,404.489 329.44,403.527 328.513,402.751C326.904,401.403 324.498,397.85 325.513,395.311C325.743,394.736 326.825,393.626 327.433,393.151C329.088,391.859 332.831,390.461 335.233,390.872C335.816,390.972 336.819,391.321 336.793,392.191Z"/>
            <path d="M323.953,404.312C325.719,403.9 327.181,405.936 327.793,407.312C328.463,408.818 328.846,411.251 327.313,411.752C326.898,411.888 326.241,411.578 325.753,411.632C325.24,411.688 324.681,412.153 324.073,412.232C321.103,412.615 319.366,410.695 320.833,407.913C321.131,407.348 321.757,407.07 322.153,406.473C322.791,405.51 322.558,404.638 323.953,404.312Z"/>
            <path d="M363.193,406.111C365.037,410.028 368.185,413.28 370.753,416.072C367.22,414.844 364.461,412.843 362.713,409.832C360.847,411.881 358.057,414.928 355.033,416.072C354.24,416.372 350.614,417.161 350.953,415.231C351.115,414.308 353.497,414.135 354.433,413.671C356.424,412.684 358.53,410.682 359.833,409.231C361.018,407.913 361.259,406.116 363.193,406.111Z"/>
            <path d="M337.993,428.792C338.588,426.924 339.251,425.216 340.753,423.752C343.053,421.509 348.294,420.436 350.233,423.151C351.586,425.047 350.111,427.887 348.913,429.391C349.875,430.648 350.676,432.708 350.113,434.671C349.745,435.953 348.107,437.204 346.393,437.431C345.476,437.552 344.611,437.201 343.633,437.191C340.916,437.166 338.529,438.686 336.673,438.992C337.863,439.377 339.7,440.677 341.353,440.672C343.321,440.666 345.647,438.876 348.193,438.872C352.174,438.865 355.117,441.577 354.793,444.992C354.593,447.096 353.172,447.779 351.433,448.952C353.448,455.92 344.017,459.929 340.513,455.071C339.502,453.671 339.357,452.262 338.473,450.511C333.686,448.338 328.157,446.907 323.233,444.871C319.523,445.921 316.043,447.201 312.073,447.991C310.424,450.299 308.58,454.313 304.153,454.47C300.002,454.618 296.616,452.026 299.113,447.991C295.849,448.154 295.172,444.622 295.993,442.951C296.751,441.407 299.056,440.388 301.033,440.43C302.48,440.462 303.872,441.534 305.353,441.51C306.931,441.486 309.17,439.679 310.993,439.71C308.469,438.355 305.803,437.14 303.313,435.75C302.618,436.438 302.238,437.108 301.393,437.43C295.535,439.657 291.109,429.685 297.673,428.43C295.477,421.515 303.713,418.42 306.793,423.15C307.495,424.227 307.486,426.231 308.353,427.23C309.033,428.014 310.993,428.597 312.313,429.15C315.313,430.409 317.527,431.328 320.593,432.51C321.865,433.001 323.862,434.063 324.793,434.07C325.783,434.078 327.201,433.138 328.153,432.751C331.427,431.418 334.802,430.17 337.993,428.792ZM352.033,445.472C353.14,442.88 350.063,441.258 347.593,441.512C345.381,441.74 343.405,443.438 340.633,443.072C337.869,442.708 334.919,441.058 332.113,439.953C329.467,438.909 326.932,437.567 323.953,436.473C321.039,435.403 318.221,434.286 315.553,433.233C312.98,432.217 309.533,431.147 307.393,429.754C305.763,428.692 305.036,425.986 304.753,424.233C303.563,422.835 301.455,422.934 300.433,424.113C298.958,425.816 299.979,428.249 299.953,430.353C299.373,430.614 298.401,430.482 297.793,430.713C295.615,432.179 297.503,434.901 299.353,435.152C300.639,435.328 301.436,434.511 302.473,434.192C303.301,434.792 303.824,433.975 304.873,433.953C306.281,433.923 307.113,434.852 308.353,435.633C310.341,436.885 313.058,437.753 315.553,438.873C320.394,441.046 325.383,443.046 330.433,444.873C333.384,445.94 336.254,447.075 339.193,447.873C339.761,448.185 340.212,448.614 340.633,449.072C342.896,447.683 345.819,449.797 345.313,452.432C345.145,453.31 344.217,453.839 343.993,454.472C347.51,455.061 349.339,453.052 349.033,449.432C348.25,449.661 347.162,449.57 346.873,448.953C347.008,446.458 351.091,447.676 352.033,445.472ZM340.753,428.191C340.453,428.957 340.643,429.827 340.153,430.471C339.76,430.99 338.471,431.398 337.513,431.791C334.408,433.063 331.791,433.909 328.993,435.15C329.843,435.621 330.671,436.112 331.513,436.59C333.146,435.839 334.964,435.346 337.033,434.67C338.632,434.148 340.344,433.999 341.593,433.59C342.216,433.386 342.641,432.783 343.273,432.87C344.086,432.981 344.499,433.97 344.233,434.79C345.982,435.106 347.638,434.807 348.313,433.71C348.97,432.028 347.296,431.078 347.113,429.75C346.859,427.906 348.386,426.965 348.433,424.95C345.026,422.505 341.671,425.851 340.753,428.191ZM313.273,441.392C311.491,441.836 308.245,443.009 306.313,443.672C303.443,444.656 300.298,440.824 298.033,444.151C297.73,445.854 299.003,445.981 299.833,446.551C299.951,447.515 300.82,447.47 300.913,448.231C301.012,449.037 299.833,449.947 300.313,451.351C301.203,452.182 304.221,452.392 305.473,451.711C301.369,450.277 305.23,444.812 308.953,445.831C309.685,445.102 311.453,444.916 312.313,445.591C313.204,445.161 314.261,444.899 315.313,444.631C315.004,444.104 314.594,441.063 313.273,441.392Z"/>
            <path d="M370.873,379.952C366.858,383.396 362.065,389.158 354.193,388.351C352.422,388.169 350.613,387.553 350.233,385.711C351.241,385.019 352.35,385.912 353.593,385.951C359.974,386.147 366.043,381.297 369.073,377.791C369.737,377.022 370.044,375.587 371.473,375.991C372.072,376.437 371.984,377.199 372.193,377.791C373.27,380.846 375.671,383.364 378.193,385.11C378.447,385.286 378.981,385.298 378.913,385.711C375.838,384.187 372.618,382.807 370.873,379.952Z"/>
        </g>
    </g>
</svg>
