<?xml version="1.0" encoding="UTF-8" standalone="no"?>
<!DOCTYPE svg PUBLIC "-//W3C//DTD SVG 1.1//EN" "http://www.w3.org/Graphics/SVG/1.1/DTD/svg11.dtd">
<svg width="100%" height="100%" viewBox="0 0 175 101" version="1.1" xmlns="http://www.w3.org/2000/svg" xmlns:xlink="http://www.w3.org/1999/xlink" xml:space="preserve" xmlns:serif="http://www.serif.com/" style="fill-rule:evenodd;clip-rule:evenodd;stroke-linejoin:round;stroke-miterlimit:2;">
    <g fill="#c80082"  transform="matrix(1,0,0,1,-613.331,-169.369)">
        <g transform="matrix(1,0,0,1,182.811,-3.22255)">
            <path d="M497.953,173.552C498.737,172.473 501.611,172.282 501.793,174.032C503.371,173.126 505.211,174.13 505.873,175.232C507.257,174.408 509.206,175.383 509.233,177.032C511.314,177.443 512.431,179.783 511.753,182.192C512.146,183.062 513.417,184.113 513.433,185.672C513.445,186.783 512.86,187.442 512.353,188.312C512.82,191.284 511.23,193.585 508.513,193.352C508.478,195.744 505.493,197.122 503.713,195.632C503.491,196.417 503.285,196.97 502.873,197.552C502.286,198.381 500.929,198.731 501.312,200.072C505.382,200.779 509.275,200.548 510.792,203.672C511.427,204.978 511.916,206.595 512.592,208.112C514.363,212.09 516.397,217.188 518.352,220.832C520.271,216.73 522.941,211.274 525.432,207.032C526.26,205.623 527.275,203.817 528.312,203.072C529.072,202.527 530.274,202.27 531.552,201.752C532.192,201.493 534.409,201.131 534.312,200.072C534.237,199.255 533.534,199.734 533.233,198.992C532.952,197.873 532.67,196.755 532.753,195.272C530.361,195.506 529.835,191.183 531.673,190.352C527.847,179.028 549.111,178.019 546.553,189.512C548.286,190.37 548.236,194.65 545.713,194.552C545.708,196.547 546.029,198.868 544.393,199.232C544.549,199.58 544.549,200.084 544.393,200.432C547.527,200.739 549.723,201.982 552.074,203.072C555.691,209.294 558.778,216.048 562.634,222.032C566.271,215.589 568.448,207.686 572.714,201.872C570.541,201.34 569.036,199.583 569.354,196.952C569.685,196.31 570.624,196.697 571.035,196.352C572.121,194.772 571.274,192.248 571.275,190.232C571.275,186.849 572.78,183.614 574.754,181.712C576.215,180.305 578.317,179.256 581.354,179.432C584.614,176.121 590.304,179.205 592.035,181.832C593.117,183.476 593.668,185.651 593.835,187.712C594.02,189.988 593.377,192.545 594.314,194.912C594.904,195.459 595.87,194.886 596.354,195.512C596.824,198.106 595.108,199.542 593.594,200.552C594.341,201.165 595.032,201.835 595.634,202.592C597.316,208.407 600.672,214.952 602.354,221.672C602.504,222.271 602.394,222.907 602.594,223.472C602.975,224.548 604.34,225.684 604.514,227.432C604.68,229.093 603.757,231.156 602.234,231.512C600.238,231.979 599.284,230.651 598.755,229.352C598.238,229.324 597.306,229.569 596.835,228.992C596.452,228.405 596.489,226.709 596.835,226.112C595.221,222.646 593.842,218.945 592.035,215.672C590.59,219.998 592.237,224.12 593.115,228.032C595.705,239.583 592.291,252.714 591.434,264.272C593.079,265.587 595.109,266.518 595.035,269.552C593.301,271.323 588.792,272.249 585.675,271.112C585.459,270.394 584.747,269.853 584.595,269.192C584.321,268.003 584.854,266.715 584.835,265.472C584.803,263.27 584.267,260.829 584.115,258.392C583.802,253.35 584.086,248.055 583.514,243.512C582.796,246.765 582.799,250.42 582.434,254.192C582.085,257.795 581.262,261.731 581.594,265.112C581.654,265.713 581.996,266.331 582.074,266.912C582.236,268.123 581.886,269.349 582.433,270.392C582.093,271.941 576.412,272.304 574.274,271.952C569.844,271.225 572.905,266.086 574.874,264.512C573.909,252.139 571.075,236.329 574.754,225.032C574.02,222.611 574.996,218.071 574.275,215.312C572.224,220.382 568.982,224.26 567.075,229.472C567.228,230.18 567.647,230.09 567.675,230.792C567.727,232.137 565.571,234.5 564.196,234.632C563.704,234.679 563.429,234.37 562.756,234.272C561.817,234.135 561.137,234.345 560.476,233.792C559.96,233.36 559.539,232.356 559.396,231.632C559.31,231.198 559.552,230.584 559.396,230.072C559.166,229.312 557.929,228.315 557.117,227.312C555,224.699 552.428,221.162 550.877,218.552C550.628,221.623 550.642,224.957 550.157,227.792C550.084,228.265 550.426,228.323 550.757,228.392C550.702,229.017 550.143,229.138 549.917,229.592C550.35,241.245 550.281,254.724 549.917,266.192C551.529,267.553 553.58,271.21 550.517,272.192C550.169,272.303 549.796,272.133 549.317,272.192C548.838,272.251 548.355,272.606 547.878,272.672C545.062,273.06 541.278,272.498 540.558,271.352C539.85,270.226 540.214,268.029 540.438,266.432C539.88,258.27 540.357,249.074 540.199,240.512C539.803,240.517 539.601,240.715 539.119,240.632C538.81,247.063 539.237,253.765 538.999,260.552C538.928,262.572 538.775,264.769 538.999,266.552C539.162,267.855 539.807,269.977 538.759,271.472C536.03,272.824 529.274,273.508 527.359,270.632C526.674,268.436 529.274,267.404 529.639,266.072C530.177,264.113 529.639,259.209 529.639,256.952L529.639,238.832C529.639,235.74 529.932,232.633 529.639,229.832C529.317,226.746 528.704,223.558 528.559,220.352C528.498,219.019 528.594,217.649 528.439,216.392C526.76,220.24 525.15,224.171 523.04,227.552C522.767,227.99 522.555,228.467 522.08,228.752C522.068,229.733 521.615,231.164 520.64,231.752C520.329,231.939 519.873,231.815 519.44,231.992C518.541,232.361 518.132,233.052 517.4,233.072C515.062,233.136 513.624,230.524 514.88,228.032C512.115,223.837 509.295,219.697 507.2,214.832C507.189,217.253 507.953,221.049 507.8,223.232C508.482,226.624 509.325,229.902 510.2,233.072C511.071,236.231 512.326,239.065 513.559,241.832C512.09,243.083 509.942,243.655 508.039,244.472C508.44,250.098 507.829,256.172 507.559,261.992C507.496,263.333 507.242,264.832 507.439,265.832C507.842,267.874 509.982,269.161 509.599,271.592C509.033,272.553 507.932,272.777 506.359,272.792C503.993,272.815 501.384,273.65 499.88,272.072C498.711,270.717 498.61,267.348 499.64,265.712C498.685,259.667 499.256,252.096 498.92,245.432L497.72,245.432C497.366,249.984 497.327,255.025 497.12,259.952C497.04,261.843 496.683,263.946 496.88,265.712C497.054,267.274 498.409,269.673 497.6,272.192C496.939,272.704 495.787,272.984 494.72,273.032C491.659,273.171 487.992,273.346 486.68,271.232C486.875,268.748 487.958,267.15 489.44,265.952C488.613,258.98 488.514,251.278 488.241,243.752C486.9,242.585 483.881,242.374 483.56,240.512C483.389,239.514 484.289,237.681 484.76,236.432C486.114,232.843 487.718,228.286 488.84,224.912C488.411,222.217 488.505,218.145 488.84,215.432C486.356,219.508 483.938,223.65 481.28,227.552C482.886,228.877 483.134,234.924 479.719,233.192C477.656,235.021 474.316,233.169 474.199,230.792C469.66,226.97 466.67,221.601 463.159,216.752C462.831,232.006 463.525,250.367 462.558,266.072C464.08,267.23 465.387,268.604 465.438,271.232C462.759,272.398 457.788,273.478 455.119,271.592C454.757,271.754 454.161,271.754 453.799,271.592C452.601,270.265 453.253,268.198 453.439,266.072C454.136,258.105 452.912,248.028 453.439,240.272L452.839,240.272C452.361,248.772 453.378,258.429 452.479,267.032C452.465,268.525 453.032,270.314 452.359,271.352C451.97,271.953 448.917,272.901 447.92,273.032C445.399,273.362 442.357,272.691 440.84,271.832C439.549,269.429 441.49,267.157 443.36,266.432C443.136,265.784 443.037,264.89 443.001,264.272C442.41,254.088 443.146,243.051 443.121,232.952C440.48,235.399 435.4,231.499 438.44,228.272C435.998,225.937 430.563,222.987 430.52,218.552C430.497,216.086 433.059,214.557 433.88,212.552C433.75,210.447 434.853,209.235 435.92,207.752C437.768,205.185 439.415,204.101 442.64,202.832C444.25,202.198 445.985,201.498 447.68,201.512C448.614,199.223 445.411,197.932 445.52,195.032C445.316,195.023 444.741,194.918 444.44,194.672C443.631,193.644 442.885,190.891 444.32,189.992C444.579,188.416 443.646,187.215 443.48,186.032C443.106,183.367 444.752,180.474 447.68,180.632C448.347,175.288 457.328,176.987 458.241,180.992C461.115,181.099 462.878,185.498 460.4,187.112C460.695,187.937 460.093,188.528 460.161,189.392C460.211,190.036 460.733,190.58 460.761,191.192C460.824,192.585 460.104,194.606 458.481,194.552C458.426,197.017 457.553,198.664 456.801,200.432C458.842,202.065 462.334,202.4 464.841,203.712C466.632,204.649 467.761,206.106 469.161,208.112C470.396,209.883 472.616,212.111 470.241,213.752C472.362,216.59 474.382,219.531 476.48,222.392C478.629,217.892 481.389,211.543 484.161,206.672C485.157,204.921 485.933,202.884 487.52,201.872C489.435,200.651 491.703,200.453 494.36,199.952C494.781,198.654 493.399,198.553 492.8,197.912C492.223,197.295 492.041,196.626 491.6,195.872C490.916,196.851 487.931,196.841 487.52,195.272C485.391,195.48 484.204,194.109 484.64,192.152C482.569,192.133 481.863,189.639 482.6,187.592C481.782,186.224 481.396,183.103 482.48,181.592C482.95,180.938 483.675,181.028 484.161,180.512C483.723,177.911 485.202,176.197 487.64,176.072C488.677,174.808 490.17,173.43 492.56,173.912C493.261,173.579 494.389,172.564 495.8,172.592C496.72,172.61 497.344,173.02 497.953,173.552ZM493.873,175.712C494.567,175.522 495.871,174.679 496.993,174.872C496.045,174.039 493.56,174.353 493.873,175.712ZM498.673,174.992C499.213,175.107 500.07,175.103 500.473,174.752C500.052,174.581 498.763,174.445 498.673,174.992ZM489.073,177.752C488.745,177.665 488.831,177.99 488.593,177.992C486.682,177.271 484.814,179.371 485.473,181.232C483.317,181.402 482.363,184.922 483.793,186.512C483.861,184.394 484.134,181.943 486.313,181.592C486.556,179.835 487.804,179.083 489.313,178.592C489.448,176.84 490.822,175.845 492.673,176.192C491.76,174.383 488.517,175.905 489.073,177.752ZM448.753,181.952C446.016,181.892 443.916,184.631 445.033,186.872C445.504,184.783 446.262,182.981 448.153,182.312C448.882,182.863 448.817,184.207 449.592,184.712C449.472,183.392 449.898,182.617 450.312,181.832C449.831,179.862 451.69,179.215 453.312,178.952C450.675,178.378 448.714,179.455 448.753,181.952ZM585.673,180.032C582.733,179.707 582.812,181.896 580.993,182.312C580.5,182.033 580.759,181.603 580.753,180.992C576.072,182.023 573.139,185.292 573.193,190.832C573.221,193.761 573.872,197.481 571.392,198.392C572.927,200.98 577.663,199.823 577.033,196.472C576.457,197.376 576.009,198.409 574.753,198.632C574.739,198.405 574.357,198.549 574.393,198.272C574.683,196.801 575.684,196.042 576.194,194.792C573.255,195.185 572.736,189.075 576.074,189.512C577.133,188.251 576.975,185.774 578.353,184.832C579.63,185.376 579.605,187.258 581.114,186.992C582.21,186.799 581.712,185.358 582.914,185.072C583.738,185.447 583.6,186.787 584.594,186.992C585.493,186.851 585.422,185.741 586.155,185.432C587.391,186.476 588.102,188.044 589.634,188.792C589.882,187.527 588.904,186.905 589.275,185.912C590.066,186.321 590.373,187.214 590.354,188.432C591.069,188.234 591.615,189.363 591.794,188.912C591.684,184.563 589.616,180.468 585.673,180.032ZM544.993,186.992C544.484,184.605 541.738,183.254 539.233,183.032C534.688,182.63 531.756,186.606 532.993,191.552C532.687,192.092 532.209,191.998 532.033,192.152C531.726,192.624 532.027,193.514 532.392,193.712C532.929,192.213 534.83,193.249 535.632,193.832C536.385,193.028 538.105,192.784 539.112,193.472C539.974,192.569 541.713,193.142 542.471,193.712C543.172,193.373 543.448,192.608 544.272,192.392C544.774,192.847 545.585,192.523 545.351,193.232C546.01,193.049 546.407,191.969 546.072,191.192C545.898,191.473 545.357,191.116 545.112,191.072C544.601,189.905 545.225,188.08 544.993,186.992ZM446.113,188.432C446.107,189.541 446.881,190.851 446.113,191.672C445.438,191.884 445.156,191.277 444.793,191.552C444.825,192.28 444.984,192.881 445.153,193.472C445.632,193.49 445.975,192.942 446.352,193.232C447.19,195.594 447.8,198.184 449.592,199.592C450.644,199.981 452.185,199.88 453.432,200.072C454.466,199.346 455.306,198.426 456.312,197.672C456.992,196.311 456.648,193.927 457.752,192.992C458.305,192.88 458.248,193.376 458.472,193.592C458.728,192.648 459.179,191.899 459.312,190.832C458.469,190.913 458.835,191.53 458.113,191.552C456.087,191.612 457.816,188.799 457.153,187.592C455.644,188.22 454.404,187.253 453.793,186.272C451.98,188.986 448.117,186.298 447.553,184.112C446.89,185.277 446.123,186.638 446.113,188.432ZM495.793,185.072C495.41,185.369 495.092,185.731 494.353,185.672C494.501,186.922 493.657,188.051 492.194,188.072C492.794,188.807 492.783,191.152 491.593,191.192C490.918,191.347 491.069,190.676 490.393,190.832C489.921,191.606 489.844,193.245 490.873,193.472C491.263,193.302 491.194,192.674 491.833,192.752C492.909,194.174 492.827,195.927 494.113,197.072C495.396,198.215 497.682,198.457 499.512,198.032C501.783,197.505 502.815,195.052 502.992,192.632C503.474,192.549 503.677,192.747 504.072,192.752C504.752,192.231 505.127,191.406 505.032,190.112C504.297,190.216 504.379,191.139 503.232,190.832C503.101,190.193 503.101,189.67 503.232,189.032C502.234,188.714 501.335,187.414 502.032,186.152C501.001,186.063 500.497,185.447 499.992,184.832C499.385,186.026 496.556,186.362 495.793,185.072ZM576.313,191.432C575.962,191.464 575.945,191.161 575.593,191.192C575.373,191.817 575.544,192.435 575.713,192.992C576.215,193.244 576.355,192.23 577.033,192.272C578.299,194.136 578.437,196.928 580.633,197.792C584.168,199.183 587.95,196.509 588.073,192.752C588.349,192.789 588.206,192.405 588.432,192.392C588.917,192.13 589.384,192.164 589.993,192.272C590.349,191.826 590.794,190.835 590.472,190.112C590.162,190.443 590.144,191.064 589.512,191.072C588.606,189.618 586.902,188.962 586.033,187.472C585.216,188.81 583.299,188.166 582.673,187.112C582.065,188.995 579.167,188.273 578.593,186.872C578.374,188.933 577.354,190.193 576.313,191.432ZM590.353,199.112C592.528,199.478 593.927,198.483 594.553,196.952C592.197,196.749 591.96,194.426 591.793,192.032C591.426,193.025 590.832,193.791 589.633,193.952C589.393,195.546 590.889,196.136 591.433,197.312C590.94,198.495 589.537,197.158 589.274,197.072C589.587,197.798 589.79,198.635 590.353,199.112ZM538.873,194.672C537.879,193.974 536.443,194.52 535.753,195.152C535.554,195.432 535.817,196.176 535.274,196.112C534.775,196.038 534.878,195.178 535.034,194.792C534.603,194.862 534.453,194.652 534.194,194.552C534.077,195.644 534.105,196.638 534.313,197.672C536.2,197.624 535.634,199.654 537.194,199.592C537.798,199.568 538.098,198.821 538.754,198.872C539.569,198.935 539.496,199.813 540.434,199.952C541.509,198.87 542.103,196.792 544.394,197.312C544.297,196.289 544.623,194.843 544.155,194.192C543.584,194.541 543.093,194.97 542.594,195.392C541.678,194.486 540.312,193.8 538.873,194.672ZM581.473,199.712C581.494,200.737 581.793,201.815 580.753,201.992C580.167,201.938 580.275,201.19 579.553,201.272C579.91,202.747 582.133,203.913 584.353,203.552C585.641,203.343 586.422,202.318 587.114,201.632C585.864,201.536 584.635,201.5 585.074,199.472C583.831,199.627 582.728,200.22 581.473,199.712ZM496.273,199.952C496.132,200.772 496.186,201.785 495.432,201.992C494.535,201.502 493.418,201.991 492.312,201.992C492.304,206.402 494.335,209.606 498.193,209.072C500.819,208.708 503.672,205.831 503.352,202.352C502.211,202.259 501.275,201.999 500.352,201.992C499.751,201.594 499.979,200.366 499.512,199.832C498.531,200.189 497.447,199.998 496.273,199.952ZM538.393,200.792C538.012,201.363 537.134,201.254 536.353,201.152C536.889,202.976 537.988,204.237 539.473,205.112C539.98,203.578 541.411,202.33 541.873,201.152C541.063,202.068 538.932,201.575 538.393,200.792ZM454.873,200.912C453.633,201.959 450.862,201.946 449.352,201.152C449.31,202.149 449.596,203.476 448.632,203.552C448.05,203.574 448.213,202.852 447.672,202.832C447.57,203.01 447.37,203.09 447.072,203.072C447.971,204.919 448.736,207.354 450.792,207.752C453.046,208.189 454.377,206.529 455.352,205.352C456.117,204.429 457.055,203.403 456.913,202.712C456.524,202.37 456.499,203.413 455.833,203.192C454.818,203.004 455.283,201.407 454.873,200.912ZM577.873,201.632C576.746,202.025 575.291,202.075 574.393,202.712C573.479,203.36 572.734,204.871 572.114,206.072C570.219,209.74 568.31,214.126 566.834,217.712C567.946,218.24 569.405,218.421 570.194,219.272C570.604,217.443 572.802,215.317 573.074,213.512C573.193,212.717 572.841,211.888 572.954,211.112C573.222,209.27 574.754,207.745 575.114,205.832C575.232,205.204 574.75,204.659 575.593,204.152C578.534,207.323 572.395,212.017 576.194,214.712C577.882,214.641 577.935,216.453 576.553,216.752C576.753,218.983 576.781,221.78 576.313,223.712C580.432,225.031 585.938,224.129 590.234,223.592C589.865,221.401 589.834,218.872 589.874,216.272C589.042,215.912 589.215,216.087 589.154,215.432C589.033,214.146 590.167,214.49 590.714,214.112C591.014,213.905 591.709,213.016 591.794,212.792C592.58,210.732 590.939,209.33 590.474,207.992C590.138,207.025 589.163,202.939 590.834,203.192C591.667,203.318 591.668,206.255 591.914,206.912C592.354,208.088 593.498,209.234 593.714,210.272C594.051,211.893 593.568,213.029 593.234,214.232C593.836,215.151 594.453,216.054 594.915,217.112C596.044,216.481 596.701,215.379 598.155,215.072C596.791,210.956 595.229,207.037 593.835,202.952C592.685,202.063 590.131,202.576 588.795,201.872C587.206,205.868 578.986,206.453 577.873,201.632ZM490.633,202.352C490.748,204.201 491.415,205.235 491.234,206.792C490.957,209.153 489.007,210.478 489.313,212.792C489.445,213.783 491.16,214.002 491.234,214.952C491.269,215.407 490.749,215.697 490.633,216.152C490.167,217.99 490.977,220.779 490.633,223.232C495.921,223.528 501.543,223.42 505.873,222.392C505.306,220.439 505.097,218.129 504.913,215.792C504.319,215.666 503.695,215.569 503.593,214.952C504.706,213.599 506.245,212.419 506.114,210.392C506.048,209.373 504.872,208.412 504.674,207.152C504.401,205.412 505.31,203.911 504.314,202.472C504.531,207.381 501.922,210.752 497.835,210.752C493.245,210.752 491.471,206.857 491.115,202.232C490.951,202.27 490.884,202.403 490.633,202.352ZM540.193,207.632C540.699,207.656 541.164,206.605 541.632,206.192C542.86,206.045 543.295,206.69 544.153,206.912C544.482,205.199 544.131,203.191 543.312,202.232C542.32,204.079 540.61,205.209 540.193,207.632ZM506.233,206.432C506.708,208.024 509.192,209.65 507.913,212.192C510.447,217.178 513.233,221.911 515.713,226.952C517.922,226.106 519.309,227.937 519.913,229.472C520.947,227.575 519.5,225.939 518.593,224.432C518.014,223.47 517.545,222.411 517.033,221.432C516.024,219.505 514.624,217.72 513.673,215.792C511.6,211.592 510,207.495 508.274,203.192C507.488,202.978 506.848,202.617 505.874,202.592C506.396,203.976 505.872,205.222 506.233,206.432ZM535.633,202.952C533.673,202.086 534.925,205.246 534.433,206.552C536.506,204.454 537.666,206.727 538.994,207.992C538.941,207.579 539.041,207.32 539.114,207.032C537.638,205.987 536.331,204.774 535.633,202.952ZM544.873,208.832C543.774,209.135 543.15,207.946 542.113,207.752C541.583,208.542 540.863,209.142 540.193,209.792C539.764,214.938 540.207,221.136 539.953,226.472C539.915,227.265 540.072,228.454 539.352,228.992C538.515,223.276 538.714,215.996 538.873,209.672C537.536,209.369 537.041,208.224 536.113,207.512C535.178,207.898 534.887,208.927 533.713,209.072C532.55,208.276 533.349,205.517 533.113,203.792C531.764,204.204 530.492,204.691 528.913,204.872C525.492,210.531 522.635,216.754 519.312,222.512C520.193,223.632 520.819,225.006 521.592,226.232C522.96,223.058 524.621,220.003 526.512,217.112C527.097,216.218 528.278,215.111 528.432,214.352C528.876,212.166 527.704,208.936 529.273,207.152C530.425,209.672 530.087,213.074 530.233,216.272C530.431,220.643 530.706,225.164 531.193,228.992C536.745,230.279 543.055,229.119 548.233,228.272C548.642,224.105 548.75,218.97 548.953,214.352C549.067,211.74 548.533,208.638 549.913,207.272C551.485,208.905 550.421,212.308 550.873,214.592C551.075,215.612 552.08,217.052 552.793,218.192C555.017,221.748 557.54,225.09 559.993,227.912C560.398,226.318 561.318,225.238 561.913,223.832C559.144,219.963 556.604,215.35 554.352,210.872C553.649,209.473 552.901,207.4 552.073,206.192C550.656,204.126 547.749,203.878 545.472,202.712C545.879,204.269 546.505,208.381 544.873,208.832ZM485.113,208.352C482.686,213.732 479.723,219.332 477.552,224.312C478.273,225.08 479.323,226.128 480.193,226.352C481.773,223.273 483.614,219.623 485.592,216.512C486.238,215.497 487.452,214.304 487.632,213.392C487.701,213.043 487.503,212.577 487.512,212.192C487.597,208.737 491.277,206.179 489.193,202.832C487.046,203.697 486.118,206.123 485.113,208.352ZM452.953,219.152C456.435,218.418 456.416,211.749 451.873,212.432C448.02,213.011 448.596,220.07 452.953,219.152ZM432.073,218.072C431.919,219.181 432.984,220.502 433.753,221.552C434.465,222.525 435.309,223.621 436.153,224.432C437.72,225.938 439.566,226.601 440.113,228.512C439.365,228.964 439.142,229.941 439.153,231.152C439.685,232.173 441.44,232.128 442.392,231.512C442.755,231.373 443.085,232.193 443.113,231.632C443.199,230.185 442.915,229.11 442.993,227.672C441.7,226.818 440.911,225.5 439.873,224.192C438.884,222.946 435.963,220.457 436.273,218.672C436.456,217.619 437.759,217.33 438.073,216.152C436.589,215.756 435.862,214.603 434.713,213.872C434.33,215.245 432.227,216.967 432.073,218.072ZM440.953,216.632C440.543,216.684 439.874,216.905 439.513,216.632C438.996,217.435 438.294,218.052 437.833,218.912C439.414,220.891 441,222.865 442.513,224.912C442.026,221.657 441.577,218.075 441.913,214.352C441.888,214.217 441.779,214.165 441.673,214.112C441.398,214.917 441.355,215.954 440.953,216.632ZM465.913,217.112C468.612,221.453 471.837,225.268 474.673,229.472C477.064,227.704 479.872,229.975 480.673,231.992C481.277,229.381 478.979,227.896 477.553,226.352C474.227,222.748 471.373,218.817 468.913,214.832C468.906,214.759 468.895,214.69 468.793,214.712C467.937,215.616 466.742,216.181 465.913,217.112ZM595.633,218.792C596.912,221.033 597.826,223.638 598.753,226.232C598.836,226.835 598.271,226.79 598.393,227.432C600.586,227.098 599.737,229.758 601.393,229.712C601.996,229.695 602.495,229.025 602.593,228.632C603.011,226.966 601.13,225.595 601.633,223.952C600.53,221.495 599.753,218.712 598.633,216.272C597.711,217.189 596.278,217.598 595.633,218.792ZM563.713,224.672C562.813,226.631 561.276,228.75 561.433,230.792C561.471,231.29 561.732,232.391 562.393,232.112C561.169,230.005 563.207,226.305 565.994,227.432C566.934,224.812 568.575,222.893 569.594,220.352C568.201,220.104 567.166,219.5 566.235,218.792C565.359,220.406 564.709,222.505 563.713,224.672ZM517.633,231.152C519.063,230.719 517.566,228.356 516.793,228.512C515.114,228.852 516.414,231.521 517.633,231.152ZM563.953,232.112C564.739,231.779 565.069,230.988 565.513,230.312C565.209,229.936 565.353,229.112 564.793,228.992C563.845,229.574 563.076,231.021 563.953,232.112ZM475.513,231.272C476.408,231.582 477.722,232.831 478.753,231.872C478.231,230.828 476.084,229.557 475.513,231.272ZM444.553,233.072C444.769,243.748 445.2,255.035 444.673,265.712C446.878,266.129 450.004,267.116 451.153,265.112C451.169,256.549 451.085,246.671 451.273,239.072C452.07,238.714 453.465,238.435 454.392,238.592C455.168,240.359 454.993,242.601 454.993,244.712L454.993,264.872C456.446,266.246 459.478,266.54 461.352,265.352C460.576,255.088 460.966,243.658 460.752,232.832C456.08,233.777 449.919,233.033 444.792,232.712C444.624,232.743 444.656,232.975 444.553,233.072ZM490.993,265.592C492.575,265.701 494.005,265.756 495.432,265.472C495.033,258.663 495.575,251.781 495.792,245.192C493.778,245.046 491.955,244.709 490.272,244.232C490.604,251.262 491.001,258.224 490.993,265.592ZM505.993,244.832C504.421,245.22 502.705,245.464 500.713,245.432C500.914,252.032 500.847,258.898 500.953,265.592C503.027,265.875 504.598,265.121 505.753,264.872C505.585,258.478 506.333,251.391 505.993,244.832ZM576.673,265.112C575.422,266.501 573.867,267.586 573.433,269.792C575.519,270.417 577.95,269.581 580.274,269.672C580.456,267.81 579.638,266.947 579.553,265.352C578.683,265.182 577.633,265.192 576.673,265.112ZM591.673,266.672C591.084,266.122 590.192,265.204 589.513,265.112C588.699,265.002 587.922,265.652 586.873,265.592C586.875,266.99 586.827,268.438 586.993,269.672C589.411,269.69 591.488,269.367 593.232,268.712C593.135,268.013 592.312,267.268 591.673,266.672ZM547.753,267.032C546.019,266.516 543.691,267.408 541.993,267.032C541.97,268.061 541.74,269.068 541.993,270.032C544.087,270.714 548.013,270.808 549.793,269.792C549.224,268.865 548.955,267.39 547.753,267.032ZM455.833,270.272C455.593,269.355 455.845,268.207 456.312,267.632C455.905,267.48 455.619,267.206 455.233,267.032C455.207,267.902 454.583,270.289 455.833,270.272ZM531.553,267.032C530.485,267.883 529.285,268.605 529.033,270.272C531.455,271.043 534.867,270.687 537.193,270.032C537.56,269.359 537.399,268.159 537.432,267.152C535.376,267.209 533.492,267.093 531.553,267.032ZM444.673,267.392C443.913,268.552 442.608,269.167 442.153,270.632C442.751,270.674 443.102,270.962 443.833,270.872C444.344,269.582 445.271,268.71 446.233,267.872C445.683,267.743 445.259,267.486 444.673,267.392Z"/>
            <path d="M453.553,191.072C453.726,191.139 453.846,191.26 453.913,191.432C455.24,191.428 456.426,190.453 455.833,189.272C454.515,188.874 453.529,189.739 453.553,191.072ZM448.393,190.112C448.338,190.931 449.395,191.78 450.553,191.312C451.573,189.744 448.514,188.314 448.393,190.112ZM454.633,195.392C453.363,195.097 452.76,196.451 451.633,196.352C450.574,196.259 450.606,195.079 449.353,195.032C449.204,198.005 454.824,198.133 454.633,195.392Z" style="fill:#83d5f2;"/>
            <path d="M539.113,190.112C538.112,189.834 538.253,191.042 537.793,191.552C535.928,193.623 533.052,191.375 533.593,189.032C533.919,187.622 536.985,186.575 538.154,188.672C540.101,188.907 540.203,186.921 542.353,187.352C544.96,187.875 544.326,193.337 540.673,191.912C539.9,191.61 539.773,190.748 539.113,190.112ZM534.673,189.992C534.869,192.221 538.11,190.536 536.833,189.032C536.779,188.969 536.329,188.51 535.513,188.792C534.912,189 534.631,189.514 534.673,189.992ZM542.233,190.952C542.951,190.718 543.178,189.417 542.472,188.792C539.882,187.751 540.082,191.654 542.233,190.952Z"/>
            <path d="M500.593,189.032C501.1,189.994 500.645,191.688 499.274,191.072C498.28,190.145 499.313,187.715 500.593,189.032Z"/>
            <path d="M496.153,189.152C496.414,189.864 496.307,191.002 495.793,191.312L494.833,191.312C493.596,190.475 494.782,187.713 496.153,189.152Z"/>
            <path d="M580.753,188.912C582.48,188.552 582,191.5 580.873,191.552C579.505,191.615 579.428,189.188 580.753,188.912Z"/>
            <path d="M585.433,188.912C586.388,189.552 586.178,191.381 585.074,191.432C583.696,191.495 583.131,188.595 585.433,188.912Z"/>
            <path d="M455.833,189.272C456.426,190.452 455.24,191.427 453.913,191.432C453.846,191.26 453.725,191.14 453.553,191.072C453.529,189.739 454.515,188.874 455.833,189.272Z"/>
            <path d="M450.553,191.312C449.395,191.78 448.338,190.931 448.393,190.112C448.514,188.314 451.573,189.744 450.553,191.312Z"/>
            <path d="M585.673,193.592C586.375,195.845 581.338,196.969 581.234,194.312C581.697,194.03 582.098,194.683 582.553,194.792C583.92,194.719 584.338,193.697 585.673,193.592Z"/>
            <path d="M500.233,193.712C500.744,196.267 495.491,197.35 495.312,194.312C496.242,193.947 496.561,194.977 497.352,195.032C498.476,195.11 499.039,193.893 500.233,193.712Z"/>
            <path d="M538.873,196.112C537.887,196.127 537.462,195.334 536.473,195.512C536.099,198.303 542.143,198.125 542.114,195.392C541.023,194.703 540.037,196.094 538.873,196.112Z" style="fill:#83d5f2;"/>
            <path d="M449.353,195.032C450.606,195.079 450.575,196.259 451.633,196.352C452.76,196.451 453.363,195.097 454.633,195.392C454.824,198.133 449.204,198.005 449.353,195.032Z"/>
            <path d="M542.113,195.392C542.142,198.125 536.098,198.302 536.472,195.512C537.461,195.334 537.886,196.127 538.872,196.112C540.037,196.094 541.023,194.703 542.113,195.392Z"/>
            <path d="M455.833,203.192C456.499,203.413 456.524,202.37 456.913,202.712C457.056,203.403 456.117,204.429 455.352,205.352C454.377,206.529 453.046,208.188 450.792,207.752C448.736,207.354 447.972,204.919 447.072,203.072C447.37,203.09 447.57,203.01 447.672,202.832C448.213,202.852 448.05,203.574 448.632,203.552C449.596,203.476 449.31,202.149 449.352,201.152C450.862,201.945 453.632,201.959 454.873,200.912C455.283,201.407 454.818,203.004 455.833,203.192Z" style="fill:#83d5f2;"/>
            <path d="M547.633,211.232C547.379,212.998 543.239,213.324 542.353,211.952C543.218,210.901 546.469,210.49 547.633,211.232Z"/>
            <path d="M583.273,213.512C584.462,213.345 586.058,213.359 585.552,214.952C585.287,215.788 581.049,216.416 580.872,214.952C580.739,213.847 582.326,213.646 583.273,213.512Z"/>
            <path d="M441.673,214.112C441.779,214.165 441.888,214.217 441.913,214.352C441.577,218.075 442.025,221.657 442.513,224.912C441,222.865 439.414,220.891 437.833,218.912C438.294,218.053 438.996,217.435 439.513,216.632C439.874,216.905 440.543,216.684 440.953,216.632C441.355,215.954 441.398,214.917 441.673,214.112Z" style="fill:#83d5f2;"/>
        </g>
    </g>
</svg>
