<?xml version="1.0" encoding="UTF-8" standalone="no"?>
<!DOCTYPE svg PUBLIC "-//W3C//DTD SVG 1.1//EN" "http://www.w3.org/Graphics/SVG/1.1/DTD/svg11.dtd">
<svg width="100%" height="100%" viewBox="0 0 137 129" version="1.1" xmlns="http://www.w3.org/2000/svg" xmlns:xlink="http://www.w3.org/1999/xlink" xml:space="preserve" xmlns:serif="http://www.serif.com/" style="fill-rule:evenodd;clip-rule:evenodd;stroke-linejoin:round;stroke-miterlimit:2;">
    <g fill="#f7ee6a"  transform="matrix(1,0,0,1,-234.913,-63.1041)">
        <g transform="matrix(1,0,0,1,104.178,-94.7249)">
            <path d="M159.193,158.072C161.442,156.591 161.006,162.264 160.873,164.672C160.81,165.804 160.61,167.792 159.793,167.792C159.211,167.792 158.907,166.635 158.833,165.992C158.567,163.681 158.849,159.901 159.193,158.072Z"/>
            <path d="M225.913,168.032C224.916,167.282 224.507,165.891 223.873,164.792C223.222,163.665 222.704,162.439 221.593,161.792C221.802,164.302 223.422,165.402 224.473,167.072C222.622,167.501 220.102,163.664 220.513,161.552C220.656,160.817 221.134,160.419 221.953,160.592C222.936,160.8 224.032,163.016 224.593,163.952C225.374,165.253 226.421,166.589 225.913,168.032Z"/>
            <path d="M247.153,167.792C247.309,165.908 248.925,165.485 249.193,163.712C246.87,163.712 246.4,166.595 245.113,168.032C244.376,165.756 247.062,161.584 249.673,162.392C251.902,163.082 249.276,168.836 247.153,167.792Z"/>
            <path d="M144.433,173.672C142.903,173.838 142.134,172.693 141.073,171.632C140.583,171.142 136.877,167.899 139.393,167.552C140.59,167.387 141.767,169.26 142.633,170.192C143.669,171.307 145.047,172.381 144.433,173.672Z"/>
            <path d="M175.033,176.072C174.284,174.887 175.829,173.663 176.713,172.712C177.7,171.65 178.887,169.994 179.953,169.952C180.593,169.927 181.076,170.348 181.153,170.672C181.462,171.964 179.215,173.274 178.513,173.912C177.387,174.934 176.692,176.326 175.033,176.072Z"/>
            <path d="M157.873,173.552C162.738,173.032 166.765,174.375 169.633,176.552C173.05,179.146 176.16,183.902 176.113,189.752C176.055,196.91 171.392,202.074 166.873,204.272C155.509,209.798 143.518,200.974 143.473,189.752C143.453,184.708 145.497,181.215 147.793,178.832C150.212,176.32 153.175,174.054 157.873,173.552ZM149.953,179.792C147.898,182.03 146.239,185.115 146.233,189.152C146.227,193.742 149.04,197.859 152.113,199.952C160.162,205.433 171.782,200.414 173.353,192.512C175.344,182.491 168.027,174.572 158.833,175.472C154.747,175.872 151.969,177.596 149.953,179.792Z"/>
            <path d="M249.673,179.792C249.37,179.474 249.37,178.79 249.673,178.472C247.625,178.703 246.759,180.118 245.953,181.592C244.614,180.761 246.129,178.583 247.393,177.752C248.452,177.055 250.026,176.773 250.873,177.392C251.351,178.336 251.117,180.037 249.673,179.792Z"/>
            <path d="M238.513,181.472C237.381,181.764 237.132,180.46 236.233,180.272C234.403,179.889 233.814,181.576 232.273,181.952C231.085,178.356 239.272,176.873 238.513,181.472Z"/>
            <path d="M267.193,178.952C268.519,180.963 263.766,184.508 261.673,183.032C262.78,181.779 264.804,181.443 265.753,180.032C263.884,180.364 262.802,181.481 261.313,182.192C261.688,180.072 264.438,178.693 267.193,178.952Z"/>
            <path d="M241.873,180.392L242.233,180.392C244.31,183.78 239.946,186.883 241.513,189.752C243.501,189.258 242.819,186.313 242.953,184.232C244.729,186.067 244.444,191.263 241.633,191.072C240.724,191.01 240.013,190.282 239.833,189.512C239.018,186.035 242.513,184.314 241.753,180.752C241.719,180.558 241.867,180.545 241.873,180.392Z"/>
            <path d="M136.273,187.592C137.039,187.615 138.094,187.455 138.193,188.432C138.391,190.394 130.308,190.428 130.753,188.312C131.001,187.133 134.919,187.551 136.273,187.592Z"/>
            <path d="M182.113,188.912C183.94,188.717 188.313,188.328 188.233,189.992C188.154,191.633 180.276,191.284 180.313,189.752C180.34,188.628 181.591,188.967 182.113,188.912Z"/>
            <path d="M237.553,195.512C238.055,195.225 238.183,196.201 238.513,196.472C239.305,195.893 238.425,193.176 239.833,193.592C240.735,194.84 240.299,197.87 238.273,197.672C237.779,197.266 237.196,196.377 237.553,195.512Z"/>
            <path d="M142.393,204.632C142.738,205.484 142.254,206.337 141.793,206.912C140.81,208.14 139.016,209.575 137.353,209.552C137.073,207.761 140.101,205.267 141.553,204.392C141.721,204.291 142.155,204.488 142.393,204.632Z"/>
            <path d="M180.433,209.792C178.907,210.55 177.668,209.111 176.833,208.352C175.916,207.518 174.679,206.564 174.673,205.112C174.918,205.077 174.908,204.787 175.153,204.752C176.299,204.798 177.346,206.09 178.393,206.912C179.344,207.659 180.968,208.404 180.433,209.792Z"/>
            <path d="M159.913,217.352C158.352,217.311 157.635,209.688 159.673,209.912C160.735,210.029 160.469,211.679 160.513,212.552C160.596,214.214 161.049,216.826 159.913,217.352Z"/>
            <path d="M172.273,223.352C176.199,225.386 176.803,231.553 174.793,236.072C174.244,237.308 173.351,238.447 172.633,239.672C171.425,241.731 169.858,243.74 169.753,246.992C169.686,249.08 170.328,250.726 170.953,252.152C171.591,253.607 172.598,254.724 173.233,256.112C173.626,256.971 174.165,258.489 173.233,259.592C172.232,259.35 171.937,258.182 171.433,257.432C169.736,254.909 167.647,251.831 167.353,247.952C167.066,244.168 168.89,241.025 170.353,238.472C171.098,237.173 172.168,235.98 172.633,234.752C174.083,230.917 173.063,226.948 172.273,223.352Z"/>
            <path d="M160.873,226.952C160.851,226.85 160.92,226.839 160.993,226.832C162.552,228.245 163.069,230.321 162.913,232.232C162.375,238.834 155.566,245.947 158.473,253.952C159.059,255.567 160.768,256.782 160.273,258.872C159.067,258.876 158.615,257.748 158.113,257.072C156.797,255.301 155.615,252.541 155.593,249.512C155.542,242.504 160.211,237.947 160.753,230.912C160.862,229.499 160.747,227.962 160.873,226.952Z"/>
            <path d="M245.833,174.392C249.173,171.938 253.97,173.603 254.353,177.632C254.527,179.459 253.687,180.81 252.913,182.192C254.52,187.819 253.822,195.394 250.513,198.512C253.732,202.894 252.495,208.358 250.633,213.152C249.477,216.128 247.713,218.245 248.113,222.152C248.472,225.656 250.263,228.618 251.233,231.992C251.946,234.473 252.527,237.212 252.913,240.032C253.051,241.043 252.872,242.166 253.153,243.032C253.749,244.869 257.639,247.368 257.113,250.472C256.926,251.571 255.608,252.53 254.113,251.672C255.114,254.946 254.39,258.289 254.713,261.752C254.831,263.013 255.276,264.481 255.673,265.832C256.086,267.235 256.293,268.724 256.633,269.912C256.967,271.079 257.593,271.91 257.593,273.152C257.593,275.332 256.57,277.871 254.953,279.512C254.149,280.328 252.921,280.833 251.953,281.432C249.977,282.654 248.173,284.011 245.713,284.792C244.443,285.195 243.171,285.032 241.513,285.392C240.16,285.685 238.324,286.967 236.593,286.352C235.85,285.055 237.033,283.915 237.433,282.992C236.329,282.931 236,284.139 234.913,283.712C234.306,282.286 235.705,281.163 236.353,280.232C233.568,280.539 234.552,278.241 235.753,277.232C237.433,275.821 241.343,275.063 243.313,274.592C240.253,269.291 235.589,265.596 232.633,260.192C225.798,262.997 223.34,270.179 220.393,276.872C220.297,279.567 218.355,282.201 214.993,281.912C213.254,281.763 211.49,280.981 209.713,280.352C206.414,279.185 203.454,277.833 200.113,276.272C198.977,275.741 195.632,274.788 195.433,274.112C195.038,272.769 196.732,272.066 197.473,271.952C197.237,271.348 196.338,271.408 196.393,270.512C196.721,269.8 197.853,269.892 198.433,269.432C197.543,268.882 197.083,267.902 196.153,267.392C200,265.357 206.506,267.199 209.593,268.952C209.441,266.164 208.602,264.21 208.753,261.272C209.003,256.407 211.293,251.663 214.033,248.312C216.904,244.801 220.801,242.23 224.473,240.512C222.907,237.799 221.638,234.788 220.873,231.272C216.333,232.43 210.562,235.431 205.033,233.792C201.38,234.092 198.494,230.89 196.393,228.872C195.168,227.695 194.254,226.767 193.393,225.632C191.797,223.529 190.898,221.617 189.193,219.512C188.544,218.711 187.63,217.665 187.873,216.872C188.153,215.955 189.854,216.024 190.633,216.032C190.79,215.552 190.067,214.92 190.273,213.992C191.075,212.961 192.678,213.653 193.633,214.112C193.554,213.316 193.121,212.628 193.393,211.832C195.085,210.735 196.74,211.656 197.953,212.672C199.097,213.63 200.161,215.459 201.313,216.872C202.288,218.067 203.779,220.369 205.033,220.592C206.942,220.932 209.544,219.033 211.153,218.312C213.295,217.352 214.898,216.51 216.553,215.432C211.453,212.274 206.565,209.924 202.153,206.192C199.911,204.296 198.773,201.873 197.593,199.232C196.405,196.572 195.878,193.513 194.593,190.712C193.822,189.031 192.175,187.935 192.433,185.912C193.183,185.366 194.388,185.894 195.433,185.792C195.599,185.141 194.467,184.396 194.953,183.392C195.94,182.478 197.525,183.455 198.313,183.872C198.224,183.138 197.779,182.198 198.073,181.472C198.998,180.736 200.249,181.293 200.833,181.712C204.785,184.547 204.558,192.911 208.873,195.632C212.787,198.1 218.57,198.568 222.913,200.792C224.099,199.953 225.559,199.262 227.113,198.632C228.575,198.039 230.481,197.803 231.073,196.232C229.388,195.299 226.816,195.699 225.673,194.432C223.211,191.703 228.106,189.415 231.553,190.232C231.68,189.98 231.012,189.496 230.833,189.152C228.11,189.088 225.019,190.615 222.913,189.032C221.735,188.146 220.489,185.719 221.833,183.992C222.765,184.29 222.467,185.449 222.673,186.032C223.983,189.733 228.44,186.051 231.793,187.232C230.296,185.555 227.97,186.797 226.153,186.152C224.418,185.536 223.548,183.575 222.793,181.832C222.116,180.268 220.724,177.152 222.433,175.952C223.173,175.432 225.016,175.705 226.393,175.592C230.675,175.24 234.618,172.419 239.233,172.472C241.909,172.503 243.947,173.548 245.833,174.392ZM226.513,177.872C226.638,179.581 225.214,180.34 225.193,181.592C225.175,182.628 226.518,184.229 227.473,184.352C229.918,184.666 231.968,184.096 233.233,186.512C233.955,187.891 234.252,189.962 233.233,191.552C231.169,192.008 228.444,191.803 227.113,192.992C228.609,194.579 235.059,193.289 234.673,196.352C234.56,197.249 233.735,197.747 232.393,197.672C230.32,200.478 225.809,201.128 223.033,203.672C220.778,205.739 218.813,209.375 220.513,213.272C221.305,212.804 222.412,211.573 223.513,212.192C223.343,214.017 221.505,214.91 220.153,215.792C218.762,216.699 217.309,217.7 215.833,218.552C212.688,220.367 208.64,222.671 204.313,222.872C203.436,221.808 202.245,221.267 201.313,220.232C199.311,218.006 197.714,214.364 194.953,213.152C195.368,214.487 195.254,216.021 194.113,216.152C193.128,216.265 192.857,215.037 191.953,215.192C192.189,216.013 193.051,216.693 192.793,217.472C192.402,218.652 191.171,217.624 189.913,217.712C192.008,220.057 194.086,223.459 196.393,225.992C197.842,223.873 200.337,225.889 201.913,226.832C203.173,227.585 204.704,228.551 206.353,228.272C207.136,228.14 208.247,227.229 209.233,226.712C216.22,223.05 223.408,219.486 229.993,216.032C226.934,211.905 232.523,208.363 235.393,206.792C234.41,201.489 239.306,200.094 243.433,199.112C242.662,198.443 242.193,196.238 242.713,194.912C242.975,194.244 244.068,193.739 244.753,193.112C246.263,191.729 249.232,188.704 249.673,186.752C249.813,186.133 249.791,185.564 249.673,184.832C249.017,184.984 247.469,185.016 247.513,183.632C247.563,182.05 249.851,181.819 251.113,180.632C252.895,178.956 252.096,175.721 249.793,175.472C247.986,175.277 247.74,176.403 245.833,176.552C245.265,179.28 241.57,177.968 241.393,175.952C241.348,175.433 241.752,175.012 241.513,174.872C235.488,173.919 231.67,177.166 226.513,177.872ZM199.513,185.192C198.478,186.292 197.287,184.584 196.513,184.712C196.876,185.308 197.161,185.984 197.113,186.992C196.654,187.719 195.195,187.444 194.353,187.232C197.981,191.644 198.6,199.065 202.393,203.312C201.57,201.379 202.06,198.046 204.073,198.512C204.562,198.625 204.608,199.202 205.033,199.712C206.264,201.191 208.948,204.392 211.033,205.352C211.938,205.769 212.908,205.694 214.153,205.712C215.51,203.79 216.734,201.733 219.673,201.392C215.593,200.235 212.192,199.434 209.353,198.152C206.291,196.769 204.497,194.171 203.113,190.712C202.075,188.117 201.447,185.018 199.753,183.272C199.6,183.265 199.587,183.118 199.393,183.152C199.443,183.825 199.74,184.608 199.513,185.192ZM238.393,284.432C240.086,283.685 242.199,283.358 244.153,282.872C243.961,278.68 246.893,277.612 248.713,275.432C246.801,270.424 244.848,265.457 242.833,260.552C239.6,258.464 238.463,251.76 240.193,247.232C236.842,242.503 233.738,237.527 232.993,230.192C229.001,230.38 225.512,228.636 222.913,230.672C224.276,235.909 227.052,239.734 228.553,244.832C227.231,244.313 226.621,243.083 225.553,242.312C221.747,244.066 218.661,246.295 216.073,249.392C213.68,252.255 211.249,256.221 210.913,260.912C210.741,263.32 211.36,265.788 211.273,268.472C211.25,269.184 211.147,270.445 210.553,270.872C206.924,269.901 204.23,267.995 199.753,267.872C200.048,268.45 202.104,269.34 201.193,270.752C200.438,271.029 199.357,270.306 198.433,270.752C198.706,271.211 200.251,272.038 199.993,273.032C199.92,273.719 198.591,273.15 198.193,273.512C200.963,274.502 203.537,275.688 206.353,276.632C206.744,272.719 213.063,273.947 215.473,274.832C214.15,265.346 216.527,254.575 223.633,251.792C224.311,251.526 225.199,251.361 226.033,251.432C226.285,249.208 227.294,246.28 229.633,246.872C230.593,247.115 230.74,248.296 231.073,249.632C231.494,251.327 232.285,252.289 232.273,253.832C233.699,257.513 235.906,260.827 238.513,264.392C239.57,265.838 240.807,267.424 241.993,269.312C242.647,270.354 245.077,273.37 244.633,275.072C244.327,276.241 241.55,276.486 240.193,276.872C239.357,277.11 238.566,277.391 237.913,277.712C237.225,278.05 236.41,278.395 236.473,279.032C237.621,279.187 238.615,279.067 238.633,279.992C238.649,280.785 237.097,280.98 237.433,281.552C238.478,281.467 239.303,281.602 239.473,282.392C239.298,283.178 238.31,283.787 238.393,284.432Z"/>
            <path d="M149.713,223.232C152.516,223.589 153.985,226.795 153.433,230.432C152.914,233.853 151.182,236.721 149.473,239.672C147.907,242.378 145.915,245.571 145.273,248.672C144.685,251.517 145.56,254.372 146.713,256.232C147.618,257.692 149.419,258.661 149.473,260.912C147.879,260.536 146.03,258.733 145.033,257.312C142.547,253.77 142.373,248.848 144.193,244.592C146.253,239.773 150.1,235.448 151.033,230.312C151.557,227.43 150.736,225.137 149.713,223.232Z"/>
        </g>
    </g>
</svg>
