<?xml version="1.0" encoding="UTF-8" standalone="no"?>
<!DOCTYPE svg PUBLIC "-//W3C//DTD SVG 1.1//EN" "http://www.w3.org/Graphics/SVG/1.1/DTD/svg11.dtd">
<svg width="100%" height="100%" viewBox="0 0 137 130" version="1.1" xmlns="http://www.w3.org/2000/svg" xmlns:xlink="http://www.w3.org/1999/xlink" xml:space="preserve" xmlns:serif="http://www.serif.com/" style="fill-rule:evenodd;clip-rule:evenodd;stroke-linejoin:round;stroke-miterlimit:2;">
    <g fill="#3860aa"  transform="matrix(1,0,0,1,-438.406,-142.397)">
        <g transform="matrix(1,0,0,1,170.853,3.64548)">
            <path d="M335.953,198.992C335.599,199.158 335.467,199.546 335.113,199.712C330.723,195.582 326.482,191.303 322.273,186.992C322.447,186.286 323.024,185.984 323.353,185.432C327.393,190.112 331.69,194.535 335.953,198.992Z" style="fill:#75d0f1;"/>
            <path d="M302.713,212.552C307.746,215.153 312.095,218.925 316.633,222.392C325.644,229.278 334.001,237.008 342.673,244.352C345.924,247.105 349.335,249.606 352.633,252.392C353.132,252.813 353.692,253.331 354.193,253.832C354.575,254.213 355.24,254.756 355.153,255.392C350.275,252.386 345.803,248.83 341.353,245.312C328.161,234.883 315.731,223.328 302.713,212.552Z"/>
            <path d="M398.593,252.632C398.883,252.876 399.658,252.353 400.033,252.632C400.184,254.049 398.036,253.804 397.153,253.472C396.195,253.8 396.332,254.819 395.353,254.912C392.717,255.164 394.549,251.184 395.953,250.712C395.678,249.096 393.997,243.78 396.793,244.472C398.409,244.872 398.126,250.747 398.593,252.632Z"/>
            <path d="M399.553,264.272C398.686,264.766 398.169,265.608 397.393,266.192C396.268,265.754 398.45,263.032 396.673,262.592C397.668,261.039 398.996,263.243 399.553,264.272Z" style="fill:#75d0f1;"/>
            <path d="M330.553,138.752C338.205,150.291 344.415,164.309 352.153,176.192C352.614,176.899 353.581,177.685 353.233,178.712C351.308,178.238 350.272,176.242 349.273,174.752C342.041,163.967 336.241,151.09 330.553,138.752Z"/>
            <path d="M351.313,144.152C359.301,156.793 366.047,171.184 372.793,185.552C373.741,187.571 375.095,189.585 375.193,191.912C373.284,190.682 372.598,188.389 371.593,186.512C364.404,173.08 357.552,158.622 351.313,144.152Z"/>
            <path d="M387.553,216.752C386.642,216.934 386.097,215.974 385.633,215.432C377.959,206.468 371.046,196.025 364.273,186.032C364.558,185.793 365.282,187.075 365.713,187.592C372.333,195.536 378.897,203.999 385.153,212.552C386.083,213.822 387.473,215.076 387.553,216.752Z"/>
            <path d="M267.553,201.512C284.514,210.205 300.821,220.733 317.233,230.552C318.377,231.237 319.668,231.908 320.833,232.592C321.895,233.216 323.492,233.691 323.833,235.112C322.386,235.474 321.039,234.41 319.873,233.792C311.483,229.348 303.197,224.113 295.033,219.152C285.674,213.464 276.446,207.566 267.553,201.512Z"/>
            <path d="M342.553,193.592C344.134,195.451 346.396,196.629 347.353,199.112C347.931,198.928 348.902,198.102 349.633,197.672C349.78,198.301 348.848,198.885 348.673,199.592C354.301,200.844 361.121,200.904 366.673,202.232C367.068,202.227 367.271,202.029 367.753,202.112C369.487,203.098 370.396,204.909 371.953,206.072C372.844,205.523 373.628,204.867 374.593,204.392C374.024,205.263 373.257,205.936 372.553,206.672C380.255,214.369 387.962,222.064 394.873,230.552C395.244,230.363 395.58,230.138 395.833,229.832C396.086,230.171 395.351,230.545 395.113,230.792C399.105,234.913 402.899,239.635 403.513,247.232C403.821,251.041 402.351,255.351 400.873,257.912C400.554,258.465 399.184,259.819 399.193,260.072C399.2,260.272 400.666,261.557 400.993,261.992C401.517,262.688 402.244,263.731 402.073,264.632C401.898,265.549 400.548,266.425 400.033,266.912C399.318,267.588 398.727,268.651 397.513,268.712C395.235,268.826 394.711,265.899 393.313,264.992C388.323,267.702 380.548,267.976 374.953,265.472C372.653,264.443 370.264,263.577 368.953,262.592C368.464,262.224 368.308,261.604 367.873,261.152C366.892,260.131 365.483,259.618 364.753,258.632C363.855,259.014 363.247,260.324 362.473,260.432C362.798,259.438 363.465,258.784 364.033,258.032C356.308,249.988 347.937,242.514 340.393,233.912C339.373,232.75 337.959,231.568 337.633,230.552C337.525,230.214 337.676,229.828 337.633,229.472C337.282,226.571 336.491,223.553 336.313,219.992C336.178,217.28 336.155,214.309 336.193,211.352C333.893,209.893 331.745,208.28 330.433,205.832C328.903,206.551 327.336,207.189 325.633,207.872C323.029,208.915 320.415,210.31 317.713,208.592C316.516,207.831 315.296,206.414 314.233,205.352C311.938,203.056 310.07,201.289 307.633,198.752C306.725,197.807 304.723,195.985 304.753,195.032C304.789,193.9 306.886,193.079 307.993,192.512C311.851,190.537 315.523,188.43 319.753,186.992C319.262,185.803 317.812,185.573 317.473,184.232C318.609,184.493 319.606,184.685 320.353,185.552C320.985,184.951 321.557,183.761 322.873,184.232C324.009,180.196 325.906,175.818 327.673,171.632C328.469,169.746 328.857,166.485 331.513,167.792C332.808,168.429 334.262,170.301 335.353,171.392C338.976,175.015 342.741,179.405 345.793,183.272C345.7,187.699 343.923,190.441 342.553,193.592ZM324.313,184.712C326.122,185.503 327.056,187.169 328.513,188.312C329.27,186.568 329.548,183.823 330.913,182.672C332.121,181.653 333.642,182.633 335.353,183.152C338.385,184.071 341.602,185.081 342.553,187.472C342.627,186.437 343.601,185.287 343.393,184.112C343.247,183.292 341.091,181.296 340.393,180.512C337.269,177.002 333.214,172.941 330.673,170.192C328.568,174.971 326.74,180.652 324.313,184.712ZM323.353,185.432C323.024,185.984 322.447,186.286 322.273,186.992C326.482,191.303 330.723,195.582 335.113,199.712C335.467,199.546 335.598,199.158 335.953,198.992M321.073,188.552C316.512,190.751 311.939,192.939 307.633,195.392C308.728,196.014 309.775,197.312 310.633,198.152C310.905,198.418 311.316,198.972 311.593,198.752C311.965,197.932 310.738,197.73 310.753,196.832C310.774,195.561 312.853,195.548 313.993,195.152C314.793,194.874 315.582,194.482 316.513,194.192C318.93,193.44 322.929,192.345 323.953,194.192C323.838,193.277 324.393,193.032 324.793,192.632C323.447,191.378 322.316,189.909 321.073,188.552ZM343.273,202.712C343.869,202.128 345.263,201.157 345.313,200.552C345.42,199.248 341.862,196.565 340.873,195.752C340.351,196.79 339.232,197.231 338.713,198.272C340.438,201.838 338.544,207.047 335.713,208.352C336.261,208.524 336.453,209.052 337.153,209.072C338.782,207.24 341.236,204.708 343.273,202.712ZM346.993,201.872C345.015,203.494 343.292,205.372 341.593,207.272C344.716,210.709 347.775,214.21 351.073,217.472C355.738,212.618 360.681,208.04 366.193,204.032C359.386,204.175 353.119,202.804 346.993,201.872ZM366.793,204.512C361.314,209.593 355.615,214.454 350.713,220.112C351.598,220.947 352.209,222.057 353.233,222.752C358.711,217.709 363.898,212.377 369.793,207.752C368.897,206.568 367.877,205.507 366.793,204.512ZM370.633,208.472C365.8,212.999 360.855,217.414 356.113,222.032C359.788,225.097 362.264,229.645 365.713,233.192C366.44,233.939 367.378,234.492 368.113,235.232C368.867,235.991 369.57,236.823 370.273,237.632C371.672,239.242 372.877,241.205 374.353,242.552C375.358,243.47 376.865,243.941 377.113,245.432C382.334,240.813 387.524,236.163 393.073,231.872C385.705,223.96 378.553,215.832 370.633,208.472ZM393.433,232.352C387.994,237.873 381.925,242.764 376.153,247.952C376.622,248.883 377.374,249.531 377.953,250.352C381.037,247.843 383.662,244.853 386.593,242.192C389.535,239.521 392.611,237.029 395.593,234.392C395.054,233.531 394.377,232.808 393.433,232.352ZM400.753,245.672C400.042,241.196 398.088,237.996 395.953,234.992C395.832,234.992 395.81,234.895 395.713,234.872C391.244,240.042 386.296,244.734 381.313,249.392C383.305,251.518 386.177,255.29 386.593,259.352C386.882,262.174 385.639,263.205 384.433,264.632C394.65,264.304 402.444,256.323 400.753,245.672ZM396.673,262.592C398.45,263.032 396.268,265.754 397.393,266.192"/>
        </g>
    </g>
</svg>
