<?xml version="1.0" encoding="UTF-8" standalone="no"?>
<!DOCTYPE svg PUBLIC "-//W3C//DTD SVG 1.1//EN" "http://www.w3.org/Graphics/SVG/1.1/DTD/svg11.dtd">
<svg width="100%" height="100%" viewBox="0 0 111 123" version="1.1" xmlns="http://www.w3.org/2000/svg" xmlns:xlink="http://www.w3.org/1999/xlink" xml:space="preserve" xmlns:serif="http://www.serif.com/" style="fill-rule:evenodd;clip-rule:evenodd;stroke-linejoin:round;stroke-miterlimit:2;">
    <g transform="matrix(1,0,0,1,-403.804,-346.106)">
        <g fill="#129932" >
            <path d="M450.313,362.792C451.785,361.303 453.139,359.697 454.393,357.992C452.36,355.696 450.871,352.344 448.873,349.712C448.284,348.936 446.909,348.012 448.033,346.952C450.225,347.354 451.395,349.455 452.472,351.032C453.621,352.712 454.612,354.654 455.592,356.431C456.451,355.076 458.186,353.797 459.193,352.471C459.717,351.78 459.953,350.474 461.352,350.911C463.649,351.628 460.336,354.826 459.672,355.591C456.807,358.889 453.492,363.419 451.273,366.271C451.95,371.315 452.62,376.365 453.432,381.271C456.034,376.353 459.302,372.101 462.432,367.711C464.685,367.203 466.959,366.718 469.512,366.511C469.344,365.983 468.574,365.444 468.193,364.591C467.67,363.422 467.299,360.825 468.552,360.751C469.564,360.69 470.096,363.364 470.712,364.11C471.525,365.093 472.376,365.273 473.233,365.911C475.452,363.912 477.159,361.55 479.833,359.551C480.489,359.061 482.211,357.871 482.593,359.191C482.918,360.314 479.901,362.295 479.234,362.912C477.892,364.15 476.39,365.381 475.754,366.512C475.539,366.893 475.601,367.583 475.275,367.952C474.415,368.921 471.572,368.942 469.875,369.151C467.715,369.418 465.783,369.749 463.995,369.872C461.721,373.03 458.911,376.568 456.675,380.432C456.109,381.411 454.742,383.292 454.635,384.272C454.498,385.516 455.362,387.256 455.715,388.712C456.072,390.182 456.403,391.631 456.675,393.151C459.139,392.293 460.638,389.838 463.395,389.672C463.561,391.398 462.013,392.438 460.996,393.392C459.936,394.385 458.679,395.423 457.276,395.913C458.038,398.179 457.694,400.637 458.475,402.633C459.095,404.215 460.937,404.791 461.835,405.993C464.544,404.342 467.169,402.607 469.995,401.073C470.075,396.473 470.613,392.331 471.075,388.112C469.583,385.76 467.229,383.643 466.875,380.552C469.684,380.218 470.595,383.766 472.155,385.472C473.236,383.744 473.614,380.2 476.115,380.672C476.752,383.34 474.415,385.028 473.594,387.032C473.667,391.705 472.974,395.611 472.754,399.992C476.644,397.68 480.773,394.57 484.754,391.952C485.194,388.653 483.491,384.15 484.754,381.752C485.549,380.243 487.991,379.11 489.314,378.032C491.334,376.385 493.428,374.208 495.554,372.271C497.751,370.271 499.867,368.302 501.794,366.631C501.944,364.235 502.194,362.138 502.754,359.671C502.865,359.179 503.031,357.971 503.714,357.991C504.806,358.022 504.529,361.251 504.434,362.791C504.341,364.283 504.033,365.156 503.955,366.391C506.96,365.745 511.351,364.424 514.515,365.791C512.087,367.538 508.225,368.452 504.915,368.791C504.179,368.866 503.576,368.537 502.995,368.671C502.003,368.899 500.394,371.113 499.394,372.031C495.739,375.385 492.026,378.643 488.474,381.871C492.059,383.685 496.025,385.12 500.235,386.31C501.315,385.014 502.452,383.586 503.714,382.35C504.88,381.209 506.249,379.711 508.275,379.83C507.47,383.346 504.284,384.478 502.275,386.79C505.55,387.914 510.188,387.676 511.514,390.75C507.559,391.404 501.662,389.552 497.954,388.47C493.992,387.314 490.345,385.998 487.514,384.27C487.337,387.087 487.562,390.543 487.754,393.39C486.301,395.167 484.087,396.066 482.234,397.35C480.376,398.638 478.586,400.03 476.713,401.31C472.997,403.851 469.031,406.175 466.033,409.47C467.476,408.953 468.582,408.099 469.873,407.43C471.927,408.336 474.643,408.58 476.352,409.83C479.793,409.471 482.8,409.007 486.312,408.63C487.455,408.507 488.718,408.66 489.792,408.39C490.917,408.107 492.125,407.049 493.272,406.35C495.661,404.894 497.757,403.593 500.112,402.15C501.177,401.498 502.452,400.429 503.832,400.831C503.669,402.721 501.328,403.436 499.992,404.551C501.93,406.252 505.746,406.077 506.351,409.111C503.429,409.912 500.518,407.804 498.551,406.471C497.405,408.045 495.648,409.007 493.991,410.072C495.869,412.316 498.707,415.16 501.31,417.632C502.081,418.363 505.032,420.663 502.39,421.111C503.718,424.254 501.758,428.318 499.87,429.872C499.534,430.148 498.048,431.207 497.59,431.191C496.415,431.152 495.094,427.894 495.07,426.032C495.028,422.691 496.725,420.05 498.67,418.832C496.029,416.512 493.737,413.845 491.231,411.392C488.962,412.645 485.503,412.705 481.871,412.592C482.29,413.85 483.63,415.343 482.831,417.032C480.895,416.447 480.43,414.393 479.471,412.832C477.1,413.354 474.514,413.363 472.152,413.672C471.682,413.734 471.183,414.027 470.712,414.032C469.247,414.044 467.967,412.902 466.512,413.072C465.372,415.462 465.04,418.477 466.392,420.752C467.465,420.027 468.377,417.49 470.233,417.632C470.811,417.676 471.422,418.133 471.552,418.712C471.852,420.047 470.353,421.088 469.632,421.952C468.721,423.044 468.13,423.943 467.352,424.832C467.564,429.779 467.025,435.023 467.113,439.832C467.165,442.707 467.571,445.914 467.713,448.952C468.001,455.141 468.56,459.632 470.353,464.071C472.524,464.017 475.88,463.706 477.793,464.551C475.98,466.598 471.377,466.547 467.473,466.831C462.554,467.188 459.791,464.271 454.873,464.791C452.277,465.065 449.935,466.783 447.433,467.791C446.715,468.08 445.472,468.663 445.034,467.791C444.501,466.73 446.648,465.936 447.433,465.511C448.646,464.856 449.521,464.379 450.673,463.831C453.497,456.108 453.94,445.387 454.393,435.391C454.445,434.263 454.557,433.089 454.513,432.032C454.401,429.272 452.834,426.953 453.313,424.231C454.543,424.162 455.423,424.442 456.673,424.351C449.568,422.176 441.056,421.409 434.353,418.831C432.051,419.928 429.414,421.396 426.673,422.431C425.875,422.732 424.638,423.393 424.033,422.311C425.215,420.009 428.985,419.034 431.352,417.631C432.745,416.807 432.895,416.46 434.712,416.671C436.689,416.9 438.517,416.574 440.112,417.271C440.393,416.313 440.097,414.777 440.832,414.271C442.13,414.374 441.852,416.051 441.912,417.391C444.235,418.69 448.501,417.886 451.272,417.871C450.742,410.12 445.286,407.297 441.792,402.511C437.731,402.888 433.717,403.417 429.552,403.951C428.172,404.128 426.521,403.952 425.352,404.31C424.305,404.631 423.05,406.316 422.233,407.071C421.118,408.099 420.227,408.967 419.353,409.951C420.067,411.083 421.07,413.214 420.073,414.631C418.662,414.321 418.603,412.66 418.033,411.511C416.382,411.985 415.873,414.628 413.593,414.871C412.745,413.624 414.062,412.483 414.673,411.631C416.666,408.85 419.337,406.127 421.753,403.831C417.952,402.912 414.423,401.721 412.153,399.27C412.322,403.731 408.215,407.955 404.113,405.51C403.056,402.754 404.912,400.796 406.633,399.27C407.826,398.212 409.116,396.813 411.193,397.11C411.668,397.178 411.936,397.543 412.393,397.711C413.351,398.063 414.393,398.329 415.513,398.791C418.192,399.895 422.295,400.684 424.873,401.791C429.46,400.857 434.488,400.366 439.393,399.751C438.789,398.596 437.345,397.24 436.633,395.791C431.598,393.706 426.414,391.77 422.113,388.951C417.931,389.104 412.07,391.326 407.473,390.631C406.783,390.527 405.683,390.089 405.793,389.431C405.906,388.751 408.593,388.403 409.393,388.231C411.023,387.882 412.147,387.804 413.473,387.511C413.139,385.975 412.492,384.729 411.793,383.551C411.127,382.43 410.01,381.411 410.113,379.951C411.822,380.182 412.787,381.639 413.593,382.831C414.432,384.072 415.131,385.618 415.633,387.15C417.938,387.253 420.488,385.833 422.593,386.071C423.775,386.204 424.509,387.162 425.593,387.39C426.384,384.702 426.948,381.786 427.993,379.35C427.053,377.079 424.417,375.263 424.873,372.39C427.564,372.979 428.043,375.78 429.673,377.43C430.914,376.237 432.275,375.019 433.633,373.83C434.871,372.747 436.192,371.085 438.313,371.309C438.512,373.524 436.376,374.745 435.074,375.87C433.632,377.114 432.182,378.415 430.634,379.349C429.714,382.429 428.922,385.638 427.754,388.469C431.08,390.503 434.939,392.005 438.674,393.629C439.071,392.588 439.267,391.288 439.514,389.789C439.673,388.827 439.623,386.312 440.594,386.309C441.725,386.305 441.532,389.502 441.434,390.87C441.312,392.577 440.991,393.746 440.594,394.83C445.046,399.786 449.089,405.06 454.634,408.63C454.131,407.132 452.401,405.824 451.394,404.43C451.404,402.687 452.614,400.951 452.714,399.031C452.77,397.973 452.252,396.446 451.994,395.071C451.318,391.472 450.716,387.017 450.194,383.19C449.404,377.401 448.511,372.131 448.274,366.751C448.244,366.073 448.385,365.394 448.274,364.951C447.822,363.17 443.751,360.118 442.393,358.951C440.005,356.895 438.044,355.389 436.154,353.31C434.149,355.18 428.017,356.101 427.513,352.23C428.517,351.641 429.203,352.605 430.154,352.71C432.54,352.975 434.29,351.168 435.914,350.31C435.647,349.044 435.343,346.725 436.393,346.11C436.496,346.089 436.506,346.157 436.513,346.23L436.753,346.23C437.573,348.099 437.26,350.219 438.313,351.63C439.049,352.615 440.492,353.367 441.553,354.27C444.576,356.843 448.063,359.597 450.313,362.792ZM405.193,404.432C408.369,404.287 409.756,402.355 409.993,399.272C407.735,400.334 406.172,402.092 405.193,404.432ZM497.833,429.032C500.457,427.789 502.264,422.774 499.633,420.391C497.552,421.756 495.976,426.29 497.833,429.032Z"/>
        </g>
    </g>
</svg>
