<?xml version="1.0" encoding="UTF-8" standalone="no"?>
<!DOCTYPE svg PUBLIC "-//W3C//DTD SVG 1.1//EN" "http://www.w3.org/Graphics/SVG/1.1/DTD/svg11.dtd">
<svg width="100%" height="100%" viewBox="0 0 116 116" version="1.1" xmlns="http://www.w3.org/2000/svg" xmlns:xlink="http://www.w3.org/1999/xlink" xml:space="preserve" xmlns:serif="http://www.serif.com/" style="fill-rule:evenodd;clip-rule:evenodd;stroke-linejoin:round;stroke-miterlimit:2;">
    <g transform="matrix(1,0,0,1,-618.328,-211.196)">
        <g fill="#DC4F00" >
            <path d="M676.873,213.872C676.916,217.002 676.837,221.031 676.753,224.432C684.569,224.936 691.028,226.797 696.553,229.592C698.276,226.194 700.018,222.817 702.194,219.872C701.309,218.966 699.038,218.996 699.313,217.472C699.612,215.824 702.672,217.451 703.994,218.072C705.549,218.803 708.084,219.769 707.714,221.072C707.314,222.481 704.812,221.166 704.114,220.712C702.055,223.854 700.281,227.279 698.353,230.552C704.484,234.382 709.685,239.141 713.593,245.192C716.497,243.377 718.892,241.051 722.353,239.792C722.087,238.663 720.649,237.681 721.393,236.312C722.814,235.745 723.617,237.419 724.273,238.472C725.361,240.215 726.855,242.169 726.553,244.472C724.735,244.09 724.252,242.373 723.194,241.232C720.214,242.972 717.506,244.984 714.673,246.872C717.787,252.597 720.342,258.883 720.673,267.392C724.23,267.229 727.993,267.273 731.713,267.272C731.76,265.814 730.942,262.85 732.433,262.712C733.948,262.571 733.884,265.949 733.994,268.352C734.093,270.528 734.37,273.8 733.034,273.872C731.427,273.958 731.939,271.46 731.834,269.552C728.33,269.296 724.352,269.515 720.794,269.312C720.759,277.837 718.811,284.449 715.874,290.072C718.96,291.547 721.972,293.094 724.634,294.992C725.412,294.215 725.499,293.486 726.074,292.472C726.105,292.416 727.036,290.51 727.994,290.792C729.819,291.329 727.031,294.824 726.554,295.712C726.127,296.506 724.84,300.503 723.434,300.272C721.783,300.001 723.522,297.651 723.794,296.793C720.95,295.077 717.86,293.606 715.273,291.633C711.436,298.116 706.662,303.661 700.513,307.833C702.115,310.551 703.874,313.111 705.553,315.753C706.094,315.351 709.415,312.376 709.633,314.793C709.746,316.052 707.121,317.377 705.913,318.152C704.39,319.131 702.609,320.686 701.232,319.472C701.251,317.77 702.959,317.758 703.873,316.952C701.968,314.496 700.24,311.865 698.713,309.032C692.873,312.312 686.368,314.927 677.833,315.511L677.833,324.271C678.826,324.208 679.354,324.119 680.353,324.032C680.453,324.023 682.043,323.477 682.513,324.391C683.371,326.059 679.358,326.346 677.473,326.431C675.414,326.525 671.817,326.704 671.953,325.231C672.079,323.875 674.463,324.664 675.793,324.271C675.785,321.383 675.763,318.481 675.913,315.751C667.293,315.331 660.133,313.451 654.312,310.23C652.539,312.096 651.762,314.959 650.232,317.071C650.586,317.893 654.371,318.512 653.953,320.071C653.463,321.898 649.997,319.573 648.913,318.991C647.376,318.164 644.364,317.603 644.352,316.35C644.335,314.38 647.949,315.923 648.792,316.35C649.605,313.604 650.886,311.324 652.392,309.27C645.933,305.169 640.591,299.952 636.552,293.43C633.711,294.59 631.929,296.807 629.232,298.11C629.391,299.067 631.896,301.221 630.552,302.07C629.482,302.747 627.127,299.027 626.712,298.349C625.533,296.424 624.266,294.818 624.672,293.189C626.936,292.78 627.28,295.289 628.273,296.549C630.57,294.806 632.633,292.83 635.352,291.509C632.354,285.748 630.042,279.299 629.592,270.989C627.063,270.98 623.519,270.996 620.592,270.989C620.565,272.542 621.012,274.604 620.113,275.549C618.481,275.79 618.509,273.378 618.432,271.709C618.312,269.061 617.962,264.604 619.872,264.869C621.213,265.055 620.662,267.529 620.592,268.949C623.554,269.028 626.83,268.791 629.592,269.069C629.888,260.364 632.107,253.584 635.352,247.829C632.706,246.194 630.155,244.467 627.312,243.029C626.15,243.698 625.732,245.646 624.073,245.429C623.023,243.57 625.662,242.632 625.753,240.749C627.31,240.134 627.389,236.634 629.232,236.909C631.348,237.224 628.771,240.326 628.392,241.109C631.167,242.614 633.83,244.231 636.312,246.029C640.328,239.844 645.353,234.67 651.792,230.909C649.793,228.029 648.256,224.685 646.512,221.549C645.274,221.884 643.952,223.602 642.552,222.629C642.747,221.163 644.452,220.128 646.273,218.909C646.956,218.452 651.691,214.75 651.793,217.469C651.856,219.163 649.28,219.243 648.433,220.349C650.08,223.542 651.916,226.546 653.473,229.829C659.378,226.933 665.952,224.707 674.593,224.549C674.732,220.882 674.228,217.248 674.593,213.749C672.77,213.704 670.813,213.86 670.753,212.549C670.69,211.136 673.359,211.138 675.433,211.229C677.807,211.333 680.845,211.111 680.954,212.549C681.087,214.339 678.613,214.063 676.873,213.872ZM663.913,228.032C655.415,230.372 649.036,235.043 643.993,240.392C637.483,247.296 631.731,258.085 632.472,271.952C633.178,285.137 638.877,294.355 646.153,301.232C653.465,308.145 664.561,313.032 678.073,312.392C691.048,311.779 700.52,305.94 707.352,298.712C714.093,291.581 719.648,281.241 718.752,267.272C717.919,254.273 712.274,244.774 705.072,237.992C698.064,231.394 687.007,225.787 673.391,226.592C670.307,226.774 666.862,227.22 663.913,228.032Z"/>
            <path d="M678.673,259.832C679.25,260.107 679.685,259.462 680.473,259.472C680.878,259.477 681.532,259.947 682.034,260.072C685.081,260.835 687.746,261.524 691.874,261.872C696.463,262.259 702.574,262.95 705.794,261.632C707.139,261.081 709.046,259.995 709.034,258.272C709.011,255.013 703.969,254.755 700.393,254.912C694.659,255.164 689.164,256.409 684.313,257.912C682.728,258.404 681.207,259.49 679.633,258.992C680.089,257.321 682.37,256.995 684.073,256.472C689.167,254.908 695.741,253.232 702.193,253.232C704.503,253.232 707.376,253.659 708.913,254.792C710.854,256.223 711.103,259.468 709.392,261.272C705.175,265.721 691.496,263.935 684.792,262.832C687.009,266.446 689.939,269.898 692.712,273.632C693.543,274.752 694.373,276.493 695.352,277.232C696.057,277.764 697.211,278.194 698.113,278.672C700.886,280.143 703.807,280.953 706.033,283.232C703.764,283.222 701.772,282.598 699.913,281.792C697.021,280.538 695.001,279.356 692.953,277.352C689.237,273.715 685.774,269.05 682.873,264.512C682.408,263.785 682.092,262.845 681.312,262.352C680.825,262.784 681.042,263.921 680.352,264.152C682.111,265.781 683.134,267.832 684.672,270.272C685.516,271.61 687.107,273.726 687.312,275.072C687.685,277.512 685.794,280.403 684.913,282.392C684.594,283.111 683.98,284.087 683.953,284.672C683.902,285.762 684.896,287.567 685.392,288.752C687.086,292.791 689.361,295.844 690.672,300.032C688.407,299.146 686.824,296.521 685.392,293.911C684.011,291.393 682.538,288.587 682.033,285.871C681.28,281.823 684.244,279.079 685.272,275.911C683.245,273.179 681.554,270.11 679.752,267.151C679.259,272.898 680.023,279.902 676.272,282.391C674.373,281.486 673.994,278.812 673.632,276.511C673.248,274.068 672.974,271.361 672.912,268.831C672.202,269.055 671.947,269.896 671.472,270.511C670.11,272.273 668.347,274.238 667.153,276.271C667.591,279.031 669.003,280.835 669.913,283.351C670.187,284.109 670.66,285.211 670.633,285.872C670.589,286.924 669.101,288.924 668.473,289.952C666.743,292.787 665.487,295.102 664.034,297.992C663.395,299.262 663.042,301.141 661.513,301.472C662.163,296.917 663.991,293.467 666.194,289.712C666.836,288.618 668.133,287.215 668.233,286.232C668.35,285.094 667.343,283.431 666.794,282.152C665.996,280.295 664.457,278.385 664.754,275.912C664.957,274.218 667.575,271.364 668.594,270.032C669.205,269.233 670.046,268.31 670.754,267.392C671.838,265.985 672.83,265.216 672.914,263.192C672.079,263.225 670.651,262.978 669.674,263.192C665.881,268.679 661.542,273.62 657.794,279.152C653.932,280.45 650.503,282.819 646.154,283.232C646.725,281.407 649.117,280.779 650.954,279.992C652.905,279.155 654.804,278.187 656.474,277.352C659.908,272.305 663.424,267.342 667.995,263.432C663.78,263.265 658.17,263.649 653.234,263.432C651.053,263.336 648.73,263.341 646.995,262.832C645.014,262.251 642.115,260.806 641.835,258.752C641.287,254.746 646.798,253.787 649.875,253.472C651.315,253.325 652.899,253.406 654.314,253.592C660.956,254.466 667.286,257.128 673.035,257.672C672.744,256.81 671.498,256.767 670.635,256.352C668.262,255.212 665.989,253.602 664.275,251.672C663.546,249.085 664.331,246.393 663.555,244.232C663.17,243.16 661.119,241.395 660.315,240.392C659.248,239.062 657.822,237.879 658.156,235.952C659.17,236.058 659.769,236.995 660.315,237.632C660.873,238.282 661.474,238.94 662.116,239.672C662.87,240.533 665.289,242.391 665.716,243.632C666.041,244.578 666.009,245.951 666.076,246.992C666.143,248.038 665.847,249.43 666.196,250.472C666.554,251.548 668.906,252.889 669.916,253.472C670.588,253.86 671.439,254.213 672.196,254.552C672.996,254.91 673.625,255.303 674.235,254.552C674.264,253.9 673.124,253.441 673.275,252.272C670.871,251.129 671.763,246.881 674.715,247.352C675.061,244.488 675.42,241.419 675.675,238.232C675.746,237.339 675.571,236.195 676.275,235.592C677.356,235.767 677.046,237.229 677.116,238.112C677.331,240.812 677.272,244.61 677.956,246.992C680.413,246.844 682.07,249.911 679.636,251.432C679.856,252.911 678.524,253.918 678.796,254.672C679.428,255 679.981,254.286 680.476,253.952C682.057,252.885 683.956,251.538 685.636,250.472C686.075,249.114 686.069,247.683 686.236,246.272C686.397,244.917 686.353,243.113 686.837,242.072C687.303,241.069 689.431,239.592 690.316,238.832C691.588,237.742 692.547,236.37 694.037,235.952C693.795,237.41 692.691,238.321 691.637,239.432C690.783,240.331 689.218,241.57 688.877,242.552C688.378,243.99 688.586,245.914 688.397,247.472C688.207,249.044 687.845,250.385 687.317,251.792C684.778,253.132 682.761,254.996 680.237,256.352C680.155,256.741 680.136,257.718 679.517,257.912C678.525,256.745 677.619,255.491 675.917,255.032C675.234,255.39 674.708,255.904 674.477,256.712C676.273,255.302 680.707,257.082 678.673,259.832ZM675.553,248.072C676.175,249.585 675.624,251.543 674.473,252.032C675.09,253.107 675.599,254.186 677.353,253.832C677.681,253.24 678.082,252.72 678.194,251.912C676.173,250.666 677.304,246.99 676.154,244.952C676.092,246.13 675.894,247.172 675.553,248.072ZM679.513,249.152C679.206,247.897 677.009,249.08 678.313,250.232C679.365,250.396 679.65,249.712 679.513,249.152ZM674.473,249.152C671.373,248.244 674.717,252.479 674.473,249.152ZM654.313,255.512C652.741,255.237 650.555,255.264 648.914,255.392C646.435,255.585 642.947,256.182 643.994,259.112C646.256,260.716 649.587,261.337 653.233,261.272C659.65,261.158 667.22,261.253 673.154,261.032C673.238,260.356 673.973,260.331 674.114,259.712C668.071,258.864 661.001,256.683 654.313,255.512Z"/>
        </g>
    </g>
</svg>
