<?xml version="1.0" encoding="UTF-8" standalone="no"?>
<!DOCTYPE svg PUBLIC "-//W3C//DTD SVG 1.1//EN" "http://www.w3.org/Graphics/SVG/1.1/DTD/svg11.dtd">
<svg width="100%" height="100%" viewBox="0 0 116 102" version="1.1" xmlns="http://www.w3.org/2000/svg" xmlns:xlink="http://www.w3.org/1999/xlink" xml:space="preserve" xmlns:serif="http://www.serif.com/" style="fill-rule:evenodd;clip-rule:evenodd;stroke-linejoin:round;stroke-miterlimit:2;">
    <g fill="#DC4F00"  transform="matrix(1,0,0,1,-215.468,-205.147)">
        <g transform="matrix(1,0,0,1,224.755,-142.647)">
            <path d="M56.233,364.952C57.143,365.441 56.909,367.076 56.953,368.431C56.369,367.286 54.188,366.538 52.753,367.351C52.942,366.06 54.839,365.438 56.233,364.952Z" style="fill:#f7ee6a;"/>
            <path d="M59.713,378.271C60.032,375.274 55.965,374.593 54.793,376.711C55.074,374.951 57.324,374.121 59.113,373.471C60.29,374.249 60.191,376.831 59.713,378.271Z" style="fill:#f7ee6a;"/>
            <path d="M84.313,387.032C83.757,385.222 79.287,382.357 78.913,385.592C78.769,386.836 79.581,387.52 79.753,388.712C78.312,387.192 77.952,384.593 77.713,381.872C81.136,381.818 84.995,382.979 84.313,387.032Z" style="fill:#f7ee6a;"/>
            <path d="M62.953,386.552C62.863,383.499 58.496,383.982 57.793,386.192C57.755,383.794 60.491,383.13 62.353,382.232C62.9,383.324 62.979,384.887 62.953,386.552Z" style="fill:#f7ee6a;"/>
            <path d="M93.913,394.472C93.79,396.669 92.96,398.16 91.513,399.033C92.109,396.876 90.774,395.006 88.153,395.312C89.298,394.161 92.089,393.545 93.913,394.472Z" style="fill:#f7ee6a;"/>
            <path d="M49.153,395.792C50.683,395.741 52.07,395.834 53.353,396.032C51.733,396.426 50.7,398 50.953,399.872C49.882,398.983 49.521,397.384 49.153,395.792Z" style="fill:#f7ee6a;"/>
            <path d="M57.193,402.992C57.427,403.437 57.518,404.026 57.553,404.672C57.302,404.741 57.21,404.97 56.833,404.912C56.6,404.545 56.559,403.986 56.593,403.351C56.9,403.338 57.013,403.132 57.193,402.992Z" style="fill:#f7ee6a;"/>
            <path d="M80.113,410.072L80.113,411.992C79.337,411.807 79.013,411.172 79.033,410.191C79.527,410.286 79.649,410.008 80.113,410.072Z" style="fill:#f7ee6a;"/>
            <path d="M84.313,411.151C84.693,411.131 84.714,411.47 85.153,411.391C85.211,411.929 84.729,411.927 84.673,412.351C84.332,412.173 84.339,411.646 84.313,411.151Z" style="fill:#f7ee6a;"/>
            <path d="M40.153,413.792C39.791,414.11 39.187,414.186 38.713,414.392C38.946,413.942 39.556,413.146 40.153,413.792Z" style="fill:#f7ee6a;"/>
            <path d="M7.273,429.872C7.068,430.501 7.142,431.289 7.633,431.552C7.057,431.659 5.974,431.981 5.593,431.552C5.941,430.78 6.294,430.013 7.273,429.872Z" style="fill:#f7ee6a;"/>
            <path d="M102.673,357.752C100.027,362.626 95.784,366.943 93.553,372.632C95.608,372.482 98.72,372.431 99.673,374.072C99.435,374.554 98.683,374.522 97.993,374.551C98.355,375.585 98.651,376.784 98.593,377.911C101.39,375.788 103.493,371.931 106.273,369.39C104.807,375.684 100.219,378.856 96.073,382.47C96.413,382.93 97.111,383.032 97.033,383.91C97.044,384.281 96.671,384.267 96.313,384.269C97.66,385.083 97.657,388.175 96.793,389.549C99.496,387.571 101.339,383.695 103.873,381.149C103.025,386.702 99.425,390.541 94.873,392.79C95.451,395.069 96.067,397.839 94.393,399.39C98.32,397.198 100.874,393.631 104.233,390.87C102.246,396.402 97.953,399.629 92.473,401.67C92.985,402.141 93.359,402.612 93.793,402.27C96.241,405.899 92.243,411.42 87.673,411.27C86.947,412.584 86.334,414.012 84.673,414.39C82.947,421.809 83.766,432.176 82.993,440.31C81.316,437.314 81.39,432.564 81.193,428.071C81.054,424.91 81.306,421.125 81.553,418.11C80.895,418.419 81.064,419.744 80.953,420.631C80.389,425.134 80.246,430.702 80.473,435.871C80.54,437.403 81.066,439.364 79.993,440.31C78.383,438.894 78.505,435.564 78.313,432.63C77.916,426.567 78.304,418.721 79.993,414.15C78.516,413.495 76.904,412.376 77.353,410.19C73.821,409.479 71.26,403.977 73.873,400.47C74.932,400.4 75.127,399.703 76.033,399.27C72.099,395.983 69.931,389.493 70.993,382.35C72.118,387.865 72.678,393.946 75.913,397.35C74.915,395.891 74.264,390.408 77.233,391.47C76.217,392.987 77.036,395.478 77.713,396.75C78.209,395.978 77.794,395.242 78.193,394.59C79.148,393.027 82.073,393.789 82.753,395.07C81.711,392.551 79.344,391.359 76.273,390.87C76.341,390.098 77.029,389.946 77.833,389.91C76.464,387.893 75.028,382.133 77.833,380.189C75.507,376.049 74.343,369.328 75.313,363.03C76.06,369.163 76.32,375.782 79.033,379.95C77.994,377.579 77.055,371.157 80.953,370.83C80.441,372.827 79.395,374.918 80.113,377.43C80.62,376.458 81.12,375.202 82.153,375.031C84.212,374.687 85.262,377.466 85.633,379.35C86.378,378.095 86.196,376.075 85.753,375.031C84.91,373.044 82.128,372.477 81.313,370.711C82.553,370.169 83.816,371.31 84.793,371.791C85.377,366.414 85.278,360.356 86.353,355.471C87.185,361.168 86.218,367.581 85.873,372.751C86.282,371.019 88.317,369.827 88.993,368.19C89.647,366.609 89.738,364.502 90.193,362.67C91.492,357.436 93.41,352.385 95.593,348.149C94.671,352.541 92.939,358.107 91.753,363.03C90.856,366.754 90.079,369.923 91.633,373.469C92.363,372.923 92.428,371.926 92.713,371.189C94.79,365.818 98.369,361.083 102.673,357.752ZM89.353,378.271C88.791,379.075 87.973,380.156 88.273,381.151C88.054,377.699 95.413,375.812 95.113,380.191C96.443,378.976 97.63,376.608 96.433,374.551C92.864,374.392 90.763,376.257 89.353,378.271ZM77.713,381.872C77.951,384.593 78.312,387.192 79.753,388.712C79.581,387.52 78.769,386.836 78.913,385.592C79.287,382.358 83.757,385.223 84.313,387.032C84.995,382.979 81.136,381.818 77.713,381.872ZM87.553,387.392C89.062,385.684 93.662,385.128 93.793,388.112C93.838,389.145 93.216,389.85 92.833,390.392C92.557,390.785 92.088,391.163 92.233,391.472C94.899,390.497 95.706,387.664 95.953,384.272C92.095,383.792 88.881,384.946 87.553,387.392ZM88.153,395.312C90.774,395.005 92.109,396.875 91.513,399.033C92.96,398.16 93.79,396.67 93.913,394.472C92.089,393.545 89.298,394.161 88.153,395.312ZM75.073,401.072C73.848,403.646 75.008,407.052 77.233,407.672C76.201,405.905 75.753,401.754 78.433,401.552C77.726,400.784 76.174,400.486 75.073,401.072ZM89.233,408.752C89.187,408.882 89.089,409.04 89.233,408.872C90.355,407.92 92.232,406.889 92.233,405.151C92.235,402.551 87.541,403.308 86.713,404.551C89.265,402.852 91.07,407.163 89.233,408.752ZM79.033,410.191C79.013,411.171 79.337,411.807 80.113,411.992L80.113,410.072C79.649,410.008 79.527,410.286 79.033,410.191ZM84.673,412.352C84.729,411.928 85.211,411.93 85.153,411.392C84.714,411.471 84.693,411.132 84.313,411.152C84.339,411.646 84.332,412.173 84.673,412.352Z"/>
            <path d="M44.353,378.392C45.31,377.616 47.464,377.646 48.553,378.272C46.567,378.456 45.721,381.189 47.113,382.712C45.906,382.038 45.273,379.752 44.353,378.392Z" style="fill:#f7ee6a;"/>
            <path d="M92.233,405.151C92.232,406.888 90.355,407.92 89.233,408.872C89.089,409.04 89.187,408.882 89.233,408.752" style="fill:#f7ee6a;"/>
            <path d="M4.753,429.271C0.322,429.534 -5.091,429.78 -7.487,427.351C-4.497,428.001 -0.848,427.993 2.833,427.952C2.676,427.171 1.742,426.112 1.513,424.712C1.37,423.842 1.216,421.653 2.233,421.592C3.172,421.534 2.924,422.677 3.073,423.392C3.454,425.23 4.477,427.714 6.913,427.592C5.944,426.834 5.161,422.968 7.993,423.272C7.452,422.157 5.214,421.529 3.553,421.472C4.408,418.246 8.926,420.511 10.153,421.832C9.998,420.866 9.271,418.738 10.273,418.111C11.574,418.872 11.237,420.944 12.073,422.191C12.581,422.949 13.178,423.345 14.473,423.391C13.717,422.16 12.765,418.641 15.193,418.111C14.261,417.054 12.524,417.888 11.473,417.872C11.051,416.103 13.265,415.367 15.073,415.832C13.448,413.736 9.835,412.59 7.273,411.032C11.68,410.756 15.479,413.432 17.593,416.311C17.347,415.646 17.641,414.749 17.953,414.271C19.917,415.108 19.206,418.834 21.553,419.431C21.376,416.145 25.853,415.368 27.793,417.271C27.108,415.002 24.755,413.667 21.793,414.032C20.733,414.162 19.922,414.962 18.913,414.752C18.042,412.319 22.99,411.926 25.273,412.472C23.17,410.055 18.789,408.237 16.753,405.752C20.561,406.904 23.738,408.687 26.233,411.151C26.478,410.837 26.382,410.18 26.953,410.191C27.767,410.339 27.578,411.225 27.793,411.752C28.435,413.321 29.466,414.631 31.153,415.111C29.283,412.065 34.292,409.723 36.193,412.351C35.883,411.538 35.624,410.778 34.993,410.311C33.169,408.962 29.889,409.919 27.913,410.072C27.774,408.062 31.25,407.344 33.913,407.672C36.397,407.977 37.929,410.073 38.353,412.111C39.432,411.365 41.291,411.851 41.833,412.712C43.331,411.636 44.369,410.808 46.033,409.832C47.031,409.247 49.493,407.483 50.953,407.672C53.661,408.022 53.274,413.729 53.113,417.392C52.904,422.155 52.812,427.505 53.113,431.913C53.23,433.632 53.364,436.415 52.873,437.913C52.731,438.345 52.391,438.951 52.033,438.993C50.056,439.222 50.725,432.483 50.833,430.112C51.037,425.621 50.632,419.557 50.833,414.993C50.918,413.067 51.521,411.596 50.473,410.312C48.374,411.035 46.27,412.462 44.353,413.672C43.859,413.984 42.619,414.284 43.153,415.111C44.299,414.403 45.884,413.821 47.233,412.952C48.003,412.455 48.656,411.16 49.873,411.752C50.087,412.167 49.908,412.583 49.633,412.832C49.62,413.204 50.01,413.174 49.873,413.672C49.931,414.049 49.702,414.141 49.633,414.392C49.704,421.054 50.483,428.204 50.113,435.632C50.054,436.807 49.895,438.132 49.273,438.152C48.215,438.187 48.127,432.997 48.073,431.913C47.809,426.636 47.68,420.927 47.713,415.473C46.338,416.098 45.149,416.909 43.873,417.633C43.754,419.034 43.149,419.948 41.593,419.913C41.644,424.244 39.253,426.133 36.313,427.473C34.802,430.177 32.929,433.087 30.673,435.273C30.455,435.485 30.225,436.121 29.833,435.874C30.93,432.77 32.311,429.951 34.153,427.594C33.954,426.913 33.208,426.779 33.073,426.034C32.148,429.328 28.849,432.334 24.793,430.954C25.077,435.832 24.833,440.912 22.393,443.433C22.465,439.91 23.218,436.34 22.993,432.153C21.882,433.525 20.117,435.914 16.993,435.273C16.369,439.303 15.748,443.993 13.513,446.673C13.303,446.925 12.867,447.435 12.553,447.273C13.85,443.85 14.782,440.063 15.433,435.994C14.29,438.011 12.845,439.724 9.553,439.594C8.162,438.504 6.786,437.401 6.793,434.914C3.919,438.059 0.76,441.889 -1.487,446.193C-2.056,447.285 -2.163,448.628 -3.047,449.553C-2.682,442.357 1.672,438.114 5.473,433.953C4.944,433.562 4.25,433.336 3.913,432.753C-0.892,434.787 -4.824,437.695 -9.287,440.072C-6.379,436.22 -1.577,433.223 3.433,431.073C3.917,430.516 4.184,429.742 4.753,429.271ZM38.713,414.392C39.187,414.186 39.791,414.111 40.153,413.792C39.556,413.146 38.946,413.942 38.713,414.392ZM39.073,421.832C38.215,423.857 34.817,423.683 33.913,421.832C33.783,423.842 34.371,425.134 35.233,426.151C37.302,424.981 39.777,423.576 39.313,420.271C39.002,420.819 39.192,421.231 39.073,421.832ZM25.273,424.472C24.686,426.614 25.188,429.221 26.353,430.352C28.939,429.138 31.874,427.633 31.273,423.632C31.083,426.687 25.247,429.092 25.273,424.472ZM17.233,434.071C20.061,433.689 22.303,431.476 21.793,428.551C21.655,430.692 17.483,431.48 17.113,429.151C16.935,428.034 17.871,427.199 17.833,426.151C15.531,427.592 16.915,431.539 17.233,434.071ZM5.593,431.552C5.974,431.981 7.057,431.659 7.633,431.552C7.142,431.289 7.068,430.501 7.273,429.872C6.294,430.013 5.941,430.78 5.593,431.552ZM9.433,432.392C8.451,433.768 7.886,437.13 9.793,437.913C11.691,437.49 13.231,436.07 13.393,434.312C12.148,436.611 8.479,435.455 9.433,432.392Z"/>
            <path d="M50.713,387.032C49.365,386.021 46.595,386.308 46.153,387.872C45.328,387.466 45.39,387.275 45.433,386.552C45.477,385.809 46.409,385.442 46.393,385.112C46.366,384.556 44.005,383.596 43.393,383.192C39.095,380.354 35.897,375.637 34.513,370.112C36.838,374.788 39.718,378.908 43.993,381.633C43.736,380.61 43.328,379.737 43.273,378.513C43.858,377.938 44.037,376.956 44.713,376.473C42.98,375.926 41.103,373.531 40.873,371.193C40.808,370.526 40.673,369.29 41.713,369.153C43.047,370.539 42.934,373.373 44.833,374.193C43.746,372.68 44.264,368.836 47.113,369.633C46.603,368.582 44.585,368.001 43.273,367.353C43.321,366.18 44.762,366.106 45.793,366.273C42.94,361.166 39.665,355.442 36.073,350.673C37.711,351.022 38.488,352.71 39.313,353.913C41.895,357.679 44.888,361.298 47.113,365.433C47.288,364.688 47.217,363.697 47.713,363.273C46.484,359.102 45.503,354.684 45.193,349.593C45.97,351.605 46.781,353.846 47.473,356.313C48.398,359.616 48.465,363.538 50.833,365.193C51.414,358.214 52.946,352.187 56.113,347.794C54.6,353.161 52.788,358.229 52.153,364.474C53.32,363.899 55.988,362.682 57.673,363.394C60.233,364.477 59.173,370.482 57.673,371.794C60.203,369.762 61.318,366.24 62.473,362.914C63.661,359.49 64.546,355.788 65.593,352.353C66.541,360.146 63.169,366.509 60.073,371.433C62.829,372.924 62.879,378.632 60.913,381.034C62.491,379.669 63.592,377.653 64.513,375.634C65.472,373.53 66.024,371.213 66.913,369.034C68.432,372.917 64.96,378.986 62.233,381.034C65.463,381.526 65.847,387.547 64.033,389.914C65.619,390.618 67.724,391.407 67.393,393.634C66.001,393.102 64.129,391.914 61.993,392.194C60.047,392.449 59.069,394.07 58.753,396.035C59.376,393.191 65.96,392.397 65.473,396.755C65.917,395.799 66.413,394.895 66.673,393.755C69.603,396.086 66.663,400.554 63.913,401.194C64.824,402.538 63.638,403.955 63.073,404.915C66.925,411.717 68.689,421.863 67.873,432.515C67.713,434.606 68.179,437.346 66.673,438.155C66.018,437.868 66.118,437.126 66.073,436.595C65.79,433.262 66.225,429.144 66.073,425.675C65.794,419.338 64.707,413.341 62.833,408.875C62.4,408.59 62.311,409.503 61.633,409.354C63.549,413.895 64.346,420.003 64.633,426.514C64.801,430.342 65.104,435.077 63.433,437.914C62.75,435.328 62.722,431.98 62.593,429.153C62.217,420.871 61.276,412.906 58.513,406.954C56.385,408.008 54.318,406.216 54.793,403.954C49.627,404.51 45.274,397.621 49.033,394.113C46.038,393.869 43.489,392.967 41.473,391.593C39.554,390.284 37.715,388.506 37.153,386.193C38.063,386.487 38.6,387.361 39.193,387.994C40.968,389.888 43.021,391.598 46.393,392.074C46.296,391.269 44.844,388.98 46.033,387.994C47.443,388.824 47.63,390.877 49.153,391.594C48.08,389.857 49.243,387.649 50.713,387.032ZM52.753,367.352C54.189,366.539 56.369,367.288 56.953,368.432C56.909,367.077 57.143,365.442 56.233,364.953C54.839,365.438 52.942,366.06 52.753,367.352ZM59.113,373.472C57.323,374.122 55.073,374.952 54.793,376.712C55.965,374.594 60.033,375.274 59.713,378.272C60.191,376.831 60.29,374.249 59.113,373.472ZM47.113,382.712C45.721,381.189 46.567,378.455 48.553,378.272C47.464,377.646 45.309,377.616 44.353,378.392C45.273,379.752 45.906,382.038 47.113,382.712ZM62.353,382.231C60.491,383.129 57.755,383.793 57.793,386.191C58.496,383.981 62.863,383.499 62.953,386.551C62.979,384.887 62.9,383.324 62.353,382.231ZM50.953,399.872C50.7,398 51.733,396.426 53.353,396.032C52.07,395.834 50.684,395.741 49.153,395.792C49.521,397.384 49.882,398.983 50.953,399.872ZM56.593,403.352C56.559,403.987 56.599,404.545 56.833,404.913C57.21,404.971 57.302,404.742 57.553,404.673C57.518,404.027 57.427,403.439 57.193,402.993C57.013,403.132 56.9,403.338 56.593,403.352Z"/>
        </g>
    </g>
</svg>
