<?xml version="1.0" encoding="UTF-8" standalone="no"?>
<!DOCTYPE svg PUBLIC "-//W3C//DTD SVG 1.1//EN" "http://www.w3.org/Graphics/SVG/1.1/DTD/svg11.dtd">
<svg width="100%" height="100%" viewBox="0 0 120 126" version="1.1" xmlns="http://www.w3.org/2000/svg" xmlns:xlink="http://www.w3.org/1999/xlink" xml:space="preserve" xmlns:serif="http://www.serif.com/" style="fill-rule:evenodd;clip-rule:evenodd;stroke-linejoin:round;stroke-miterlimit:2;">
    <g transform="matrix(1,0,0,1,-124.873,-320.26)">
        <g fill="#3860AA" >
            <path d="M228.433,326.552C230.052,326.055 231.315,324.821 231.313,323.073C234.041,324.987 230.493,328.158 228.673,328.593C231.034,329.381 233.324,330.261 234.433,332.193C235.134,333.416 236.019,335.324 235.873,337.113C235.772,338.354 234.904,339.272 234.793,340.473C234.663,341.888 235.45,343.502 234.193,344.553C233.816,344.722 233.431,345.018 232.993,344.793C232.407,346.223 232.621,347.797 232.033,348.993C231.396,350.287 230.091,350.982 229.153,351.873C229.319,352.267 229.436,352.71 229.393,353.312C233.67,354.15 239.435,353.539 241.393,356.792C242.039,357.865 242.449,359.954 242.953,361.472C243.45,362.969 243.966,364.698 244.273,366.392C244.913,369.922 245.297,374.83 243.793,377.312C243.209,378.277 242.244,379.334 241.513,379.953C240.346,380.939 238.812,381.511 236.953,381.633C236.914,382.192 237.192,382.434 237.193,382.953C237.429,383.397 238.368,383.138 238.753,383.432C238.474,383.832 237.812,383.851 237.553,384.272C238.946,392.12 241.15,399.155 243.673,405.873C243.762,406.144 244.346,405.92 244.633,405.993C242.287,408.007 238.867,408.947 234.913,409.352C235.122,416.806 235.58,427.169 235.033,434.072C234.974,434.814 234.678,435.525 234.793,436.112C235.178,438.083 238.238,438.661 238.513,440.192C238.95,442.623 236.458,444.039 234.193,444.272C231.899,444.509 228.719,444.435 227.113,443.552C226.768,443.363 226.502,442.95 226.153,442.712C225.387,442.188 224.903,442.235 224.713,441.272C224.431,439.842 225.027,438.169 225.793,436.953C225.573,428.051 224.778,419.092 225.073,410.073C224.71,409.796 223.835,410.03 223.273,409.953C222.942,417.423 223.141,424.976 222.793,432.873C222.724,434.444 222.526,435.835 222.673,436.593C222.756,437.02 223.118,437.374 223.273,437.913C223.667,439.275 223.931,441.981 223.153,442.833C222.848,443.166 221.453,443.923 220.873,444.152C218.015,445.283 212.667,445.582 211.033,444.152C208.469,441.909 212.404,437.687 214.273,436.833C213.549,428.077 213.445,418.7 213.433,409.232C210.852,408.533 208.297,407.808 206.713,406.112C208.612,397.089 212.174,388.466 213.073,377.673C213.272,375.279 214.106,372.905 212.593,371.673C210.172,378.571 208.135,385.856 205.393,392.433C206.494,395.972 205.286,400.911 202.513,402.153C200.908,402.873 198.256,402.338 197.713,400.714C197.583,400.322 197.923,400.017 197.833,399.514C197.66,398.54 196.502,397.744 196.753,396.035C196.919,394.907 198.191,394.243 197.953,392.675C197.468,392.672 196.83,393.551 196.393,393.995C196.241,407.028 196.595,420.829 196.393,434.074C196.376,435.183 196.601,436.388 196.273,437.434C197.933,438.383 201.482,440.841 199.993,444.154C199.661,444.893 198.252,445.609 197.113,444.995C194.537,445.7 190.863,446.141 188.113,445.234C187.175,444.925 186.504,444.185 185.593,444.154C184.527,442.702 184.675,438.958 185.473,437.314C185.182,426.895 185.114,414.657 185.353,403.714C183.514,402.873 184.153,406.894 184.153,409.234C184.153,416.04 184.449,425.029 184.153,431.554C184.038,434.076 184.539,437.015 183.433,438.394C184.291,439.665 184.377,443.414 183.313,444.514C182.912,444.685 182.155,444.685 181.753,444.514C178.76,446.881 172.281,445.636 169.153,444.274C168.445,443.007 168.983,441.147 169.633,440.194C167.061,440.061 164.153,440.074 161.233,440.074C157.827,440.075 153.837,439.731 151.513,440.554C150.856,440.652 150.928,440.019 150.313,440.074C142.851,439.852 134.544,440.12 126.913,439.715C126.303,439.683 125.241,439.788 124.873,439.114C125.612,438.314 127.34,438.46 128.833,438.394C129.702,438.356 130.573,438.423 131.353,438.394C131.078,430.83 131.31,422.758 131.233,414.995C130.203,414.658 129.01,415.38 128.473,414.394C127.224,412.104 131.26,411.084 131.953,409.834C127.722,408.422 125.245,404.38 125.233,399.394C125.224,395.733 126.736,392.306 127.513,388.955C127.767,387.856 127.732,386.566 128.473,385.715C130.129,386.298 129.566,389.103 130.513,390.395C131.444,386.6 133.843,383.143 134.113,378.395C134.359,374.062 133.678,369.791 132.913,365.916C133.074,365.382 133.521,366.459 133.633,366.756C133.786,366.469 133.887,366.13 134.473,366.276C135.624,372.006 141.319,373.829 141.073,380.556C142.219,379.97 144.078,378.456 146.113,378.756C146.34,379.735 145.274,380.155 144.913,381.155C143.771,384.315 144.35,388.839 145.633,391.355C146.813,390.205 147.6,388.056 149.713,388.235C150.145,389.437 149.06,390.173 149.353,391.715C149.488,392.422 150.181,392.847 150.433,393.515C151.219,395.598 150.592,399.084 149.113,399.995C150.421,399.927 150.987,400.6 151.153,401.675C153.505,403.68 156.017,405.495 158.713,407.195C161.358,408.863 164.236,410.267 166.513,412.355C166.634,413.636 166.394,414.556 165.793,415.115C165.283,415.325 164.442,415.205 163.753,415.235C164.015,422.574 163.807,430.382 163.873,437.916C165.961,438.413 169.456,437.228 171.073,438.395C171.656,438.058 172.16,437.642 172.753,437.315C172.474,426.315 172.713,414.795 172.633,403.595C172.054,404.409 171.214,405.773 169.393,405.515C167.135,405.196 165.603,401.539 165.553,398.435C165.534,397.275 166.007,396.11 166.033,395.076C166.071,393.574 165.469,391.756 165.193,389.916C164.528,385.484 164.341,379.07 164.833,374.195C163.954,373.656 163.008,372.428 161.953,373.115C161.42,370.688 162.12,367.824 162.913,365.315C163.503,363.45 164.064,361.176 164.953,360.036C166.098,358.565 168.549,357.494 170.473,356.435C173.026,355.03 175.31,353.609 178.273,353.435C178.245,352.728 177.435,352.727 177.073,352.355C176.16,351.419 175.665,349.634 175.513,347.675C172.814,347.131 172.039,341.688 174.673,340.475C174.192,338.755 174.29,336.588 174.913,335.076C172.714,331.648 175.747,327.974 179.473,327.876C179.145,325.566 181.797,322.551 184.273,322.355C185.097,322.291 186.506,322.487 186.673,323.195C186.964,324.425 184.964,324.751 185.353,326.435C186.031,326.244 186.968,325.378 188.353,325.355C190.224,325.324 192.451,326.759 190.993,328.355C192.808,328.601 194.065,330.845 193.153,332.675C194.435,334.26 193.561,336.694 192.433,337.835C192.435,338.985 192.592,339.818 192.313,340.835C195.484,340.731 194.445,347.506 191.593,346.114C190.967,348.414 191.753,353.252 188.833,352.474C188.948,352.839 189.075,353.192 189.193,353.554C193.628,354.879 198.415,355.853 202.153,357.874C202.397,358.311 202.174,358.591 202.033,358.954C203.335,360.731 204.278,362.868 204.913,365.313C206.38,362.153 206.308,359.821 208.873,357.513C210.895,355.694 214.236,354.853 217.393,353.793C218.266,353.5 220.041,353.061 220.153,352.593C220.369,351.687 218.597,351.109 218.113,350.673C216.918,349.598 216.029,347.907 215.593,346.233C213.919,345.907 213.111,344.715 213.073,342.754C211.103,342.737 210.823,339.89 211.033,337.834C211.467,333.602 215.244,330.175 217.993,328.714C216.891,327.932 215.937,326.607 216.673,324.754C218.409,320.379 227.636,317.492 228.553,324.394C228.64,325.043 228.576,325.752 228.433,326.552ZM226.273,323.191C223.853,319.744 215.558,325.119 219.193,327.631C219.059,327.094 219.003,326.585 219.073,326.191C219.47,323.962 222.212,323.935 224.353,323.431C225.496,324.008 225.984,325.24 226.393,326.551C227.369,325.57 226.783,323.918 226.273,323.191ZM180.913,328.952C178.318,329.608 175.419,330.563 175.513,333.512C176.522,332.693 177.93,330.632 179.593,331.952C179.623,331.542 179.849,331.328 180.313,331.351C180.77,333.284 182.241,337.416 184.273,335.072C183.637,334.279 183.429,333.256 184.393,333.151C185.255,333.058 186.103,334.859 187.033,334.712C187.315,334.274 186.894,333.133 187.513,333.032C188.99,333.274 189.716,334.268 191.353,334.351C191.726,334.738 191.831,335.394 192.073,335.912C192.915,334.203 191.416,333.366 190.993,332.191C191.153,331.831 191.463,331.622 192.073,331.712C191.822,330.968 191.907,330.502 191.233,330.032C190.199,329.311 188.318,330.175 188.233,328.952C188.158,327.872 189.862,328.135 190.273,327.271C189.053,326.894 188.11,326.427 186.913,327.151C186.043,327.677 186.032,329.191 184.993,329.072C183.6,328.911 183.628,325.378 184.513,324.151C184.499,324.005 184.477,323.867 184.273,323.912C182.189,324.724 180.69,326.149 180.913,328.952ZM220.393,329.072C217.413,331.408 210.573,335.074 213.193,341.551C213.373,340.891 213.704,340.382 214.393,340.231C211.784,336.332 217.117,332.077 219.673,331.111C220.219,330.371 221.013,329.732 222.193,329.551C222.923,329.44 223.81,329.798 224.113,329.072C223.022,329.002 221.757,329.019 220.393,329.072ZM177.553,334.592C175.923,336.745 176.294,340.203 176.713,343.472C176.482,343.521 176.618,343.938 176.233,343.832C175.248,343.776 175.364,342.621 175.033,341.912C174.338,343.022 174.667,345.326 175.393,346.111C175.793,345.952 175.908,345.507 176.353,345.391C176.13,345.174 175.914,344.951 175.993,344.431C176.231,344.43 176.145,344.104 176.473,344.191C177.374,344.211 178.221,346.145 178.873,346.111C179.531,346.078 179.786,344.392 181.153,344.912C182.275,343.758 185.077,343.888 185.953,345.151C186.791,344.546 187.972,345.158 188.473,345.631C188.973,344.573 189.686,343.136 191.233,343.831C191.509,344.155 191.501,344.763 191.713,345.15C192.194,344.513 193.03,343.72 192.553,342.51C192.099,342.496 192.374,343.212 191.953,343.23C191.786,343.157 191.935,342.768 191.713,342.751C191.647,343.244 191.266,343.424 190.633,343.351C190.11,341.074 190.382,338.002 189.673,335.912C189.28,335.664 188.841,335.464 188.353,335.311C188.258,336.718 186.128,336.287 185.353,335.791C183.527,339.029 179.395,335.811 179.353,332.911C179.029,333.67 178.084,333.891 177.553,334.592ZM216.553,340.712C216.127,340.772 215.862,340.052 215.473,340.472C215.86,340.606 215.852,341.132 215.833,341.672C215.664,342.206 214.758,341.539 214.753,342.032C214.417,342.929 214.734,344.209 215.353,344.552C216.425,342.265 216.994,344.692 217.393,345.992C218.241,348.758 220.041,350.472 223.153,350.792C228.284,351.317 229.732,348.915 231.193,345.512C230.815,344.718 231.057,343.877 231.673,343.472C232.165,343.484 232.657,343.495 232.993,343.352C233.158,342.951 233.793,342.034 233.233,341.672C232.92,342.039 232.965,342.764 232.393,342.872C231.873,342.311 231.289,341.815 231.193,340.832C229.678,338.946 227.942,337.283 226.153,335.672C225.788,336.467 225.627,337.466 225.073,338.072C222.81,338.202 221.925,335.949 221.353,333.992C218.948,335.427 216.935,337.254 216.553,340.712ZM188.113,347.912C187.914,346.739 187.093,345.723 185.593,346.231C184.775,345.013 182.194,344.986 181.393,346.231C181.169,346.135 180.954,346.031 180.673,345.992C179.752,346.31 179.632,347.431 178.873,347.912C178.488,347.204 177.22,346.141 176.833,346.231C177.085,348.019 177.087,350.057 178.153,351.032C179.435,349.084 180.429,352.117 181.153,352.952C181.824,352.625 181.701,352.144 182.353,352.111C183.43,352.057 184.529,354.567 185.593,352.591C187.257,352.175 187.805,350.644 188.713,349.471C189.093,349.306 189.114,349.445 189.553,349.471C189.884,348.201 190.386,346.464 190.153,345.032C189.464,345.983 189.245,347.404 188.113,347.912ZM222.193,352.952C222.175,353.854 222.336,355.973 221.233,356.191C220.791,355.954 220.57,355.494 220.513,354.872C219.476,355.155 218.549,355.548 217.513,355.832C217.623,360.081 219.401,362.663 221.953,364.472C223.096,363.655 224.456,363.055 226.033,362.672C226.581,360.58 228.376,359.734 230.233,358.952C230.6,357.759 231.25,356.848 231.553,355.592C230.567,355.418 229.793,355.031 229.153,354.512C228.632,354.883 228.595,355.364 227.953,355.232C226.909,355.018 227.519,353.33 227.113,352.712C225.764,353.555 223.565,352.877 222.193,352.952ZM178.993,357.271C178.313,357.112 178.507,356.078 178.273,355.471C177.987,355.825 177.187,355.665 177.073,356.191C178.158,358.307 179.837,361.139 182.473,360.992C184.927,360.854 185.853,358.164 187.393,356.792C187.033,356.112 186.827,355.278 186.913,354.151C185.813,354.149 185.7,354.765 184.873,354.872C183.025,355.109 183.039,353.822 181.993,354.392C181.189,354.83 180.647,354.559 180.073,354.033C180.067,355.466 180.22,357.059 178.993,357.271ZM189.313,356.072C188.534,356.405 188.351,357.898 187.873,358.712C186.952,360.278 185.036,362.036 182.953,362.312C179.266,362.801 177.175,359.587 175.873,356.432C172.795,357.914 169.708,359.387 166.753,360.993C165.624,364.344 164.466,367.666 163.393,371.073C165.806,371.9 167.777,373.168 170.473,373.713C170.409,372.115 170.112,370.513 169.993,368.673C169.92,367.534 169.544,363.774 170.833,363.873C171.867,363.952 171.92,367.552 172.033,368.793C172.504,373.98 173.184,377.389 173.473,382.473C173.645,385.503 173.83,388.51 173.953,390.994C180.937,391.229 188.916,391.945 195.673,390.754C195.245,384.127 195.131,375.274 196.033,368.674C196.233,367.212 196.191,363.716 197.473,363.754C198.931,363.797 198.449,367.115 198.313,368.434C198.118,370.328 197.636,372.075 198.073,373.474C199.638,372.679 201.742,371.384 203.713,370.594C203.047,366.26 201.271,363.035 200.113,359.194C196.131,358.534 192.914,357.11 189.313,356.072ZM215.713,356.552C215.98,358.083 216.373,361.201 216.193,363.152C215.981,365.451 213.219,368.221 214.753,370.953C215.024,371.433 215.972,371.553 216.073,372.152C216.192,372.853 215.503,372.816 215.473,373.472C215.703,377.028 215.089,380.764 214.633,384.033C221.367,384.957 228.594,383.929 234.913,383.312C234.725,382.86 234.9,382.045 234.673,381.632C231.69,381.335 228.904,380.841 226.633,379.832C225.229,380.396 223.933,381.642 222.073,381.752C217.167,382.042 213.664,376.773 217.033,373.352C215.475,369.699 218.792,367.129 220.513,365.192C217.757,363.64 215.883,360.661 216.313,356.312L215.953,356.312C215.952,356.471 215.743,356.422 215.713,356.552ZM234.553,358.352C237.017,358.728 238.976,359.609 239.113,362.312C241.434,364.194 241.139,369.705 238.993,371.552C239.974,371.592 241.009,372.053 240.913,372.872C240.809,373.759 239.064,373.706 237.673,373.712C233.717,373.73 228.103,374.42 225.073,374.072C224.147,373.965 223.279,373.169 222.553,373.111C220.469,372.948 217.824,375.287 217.993,377.191C218.096,378.357 220.331,379.722 221.833,379.591C222.973,379.491 224.152,378.06 225.433,377.911C230.749,377.292 236.816,380.53 241.513,377.911C243.652,371.737 241.426,364.592 240.073,359.071C239.467,358.636 239.068,357.995 238.753,357.27C237.378,356.925 236.011,356.573 234.553,356.31C234.493,357.126 234.659,357.821 234.553,358.352ZM232.033,358.472C232.453,358.493 232.801,358.44 232.993,358.232C232.639,357.986 233.107,356.919 232.753,356.672C232.572,357.331 232.251,357.851 232.033,358.472ZM211.033,357.992C209.982,359.475 209.036,361.148 208.153,363.032C207.433,364.567 205.911,367.035 205.753,368.672C205.679,369.439 206.117,370.205 205.993,370.952C205.843,371.859 204.883,372.39 204.433,373.111C205.309,377.717 204.904,383.88 204.913,388.712C207.069,380.228 210.259,372.777 212.953,364.832C212.599,364.11 211.35,363.397 212.113,362.311C213.363,362.014 213.717,363.444 214.513,362.551C214.483,361.06 214.576,358.408 214.033,357.031C213.048,357.367 212.119,357.758 211.033,357.992ZM227.953,364.231C224.921,365.616 221.158,366.899 219.193,369.391C218.625,370.112 218.047,371.219 218.353,372.391C218.661,372.059 219.136,371.894 219.553,371.671C219.623,369.381 221.639,369.037 223.273,368.311C224.028,369.156 223.34,371.444 224.833,371.551C225.21,370.208 226.608,369.886 227.473,369.031C227.312,367.789 227.244,365.602 228.553,365.43C229.397,367.913 231.23,371.26 234.433,369.87C231.608,368.863 232.43,363.696 235.393,363.149C235.96,363.045 236.623,363.342 237.193,363.03C236.015,359.781 228.103,360.548 227.953,364.231ZM133.873,385.952C132.985,387.89 131.67,390.105 131.713,391.952C131.729,392.601 132.208,393.245 131.953,393.872C131.14,394.101 130.626,393.057 130.513,392.191C129.655,391.97 129.34,391.205 128.833,390.631C128.577,393.169 127.343,395.659 127.153,398.311C126.798,403.274 129.266,408.147 133.993,408.391C137.03,406.228 140.052,404.05 143.473,402.271C142.301,400.504 140.142,398.416 141.193,395.551C140.051,396.369 140.038,398.317 138.553,398.791C137.974,396.766 139.521,393.923 138.553,391.951C138.289,393.281 137.719,394.726 136.993,396.27C136.344,397.651 135.125,399.366 135.433,400.71C135.637,401.6 136.616,401.473 136.993,402.39C135.573,403.41 134.246,401.636 134.113,400.47C133.904,398.634 135.283,396.583 136.033,394.71C136.903,392.536 137.038,390.475 137.713,388.59C139.957,389.187 139.296,392.687 139.753,395.07C140.319,394.392 141.684,393.853 142.993,393.75C143.518,395.165 142.412,396.422 142.633,397.95C142.859,399.515 144.151,400.425 144.793,401.55C145.536,401.093 146.318,400.675 147.433,400.59C147.523,398.522 149.284,397.189 148.753,394.11C148.13,393.293 147.594,392.389 147.433,391.11C146.732,391.57 146.701,392.698 146.353,393.51C142.34,392.192 142.014,384.832 143.353,380.67C141.872,381.429 141.114,382.911 139.273,383.31C138.726,382.365 139.53,381.692 139.633,380.79C140.113,376.576 136.672,373.807 135.073,371.31C136.718,376.52 135.679,382.01 133.873,385.952ZM198.793,375.872C199.183,381.322 198.907,387.437 199.633,392.552C203.339,390.95 203.759,398.987 201.073,399.992C200.456,400.222 199.898,399.865 199.273,400.351C202.181,402.944 205.175,396.374 203.713,393.391C203.427,392.806 202.789,392.687 202.753,392.191C202.726,391.814 203.34,391.361 203.233,391.111C202.721,385.845 203.58,378.859 202.633,373.712C201.468,374.547 199.827,374.905 198.793,375.872ZM166.633,385.352C166.677,388.277 166.597,391.291 166.993,393.632C167.088,394.192 167.425,394.769 167.473,395.312C167.597,396.705 167.206,398.197 167.353,399.512C167.579,401.534 168.462,403.056 169.873,403.832C170.838,403.311 171.039,401.93 171.193,400.712C171.36,399.401 171.748,397.813 171.673,396.632C171.61,395.633 170.898,394.756 170.713,393.872C170.168,391.267 171.144,389.714 171.313,387.512C171.449,385.736 171.054,383.674 170.953,381.752C170.849,379.758 170.671,377.772 170.713,375.752C169.082,375.703 167.793,375.312 166.633,374.792C166.438,378.39 166.576,381.629 166.633,385.352ZM199.273,398.312L200.593,398.312C201.018,397.344 201.213,395.035 200.593,394.112C198.574,394.486 197.968,396.748 199.273,398.312ZM215.593,409.472C215.453,409.493 215.463,409.661 215.473,409.832C215.617,418.769 215.741,427.724 216.193,436.352C216.409,436.928 215.86,436.739 215.713,436.953C217.617,437.449 218.955,436.36 220.753,436.352C220.649,427.208 220.987,418.506 221.353,409.832C219.298,409.848 217.514,409.591 215.593,409.472ZM226.993,409.832C226.996,418.748 227.608,427.057 227.593,435.992C228.695,437.311 231.282,436.691 232.633,435.992C233.147,427.164 232.52,417.821 232.753,409.592L232.513,409.592C230.832,409.831 228.929,409.848 226.993,409.832ZM133.033,438.271C136.624,438.347 139.441,438.168 142.753,438.151C142.787,437.278 142.558,436.441 142.513,435.631C142.399,433.572 142.162,427.989 143.473,427.471C144.017,427.255 144.486,427.701 145.153,427.711C147.045,427.737 150.704,426.9 152.233,428.19C152.925,430.938 152.455,434.848 152.593,438.15C155.574,438.092 158.803,438.281 161.593,438.031C161.573,430.45 161.583,422.261 161.713,415.23C152.272,415.152 142.515,415.388 133.273,415.11C133.068,422.36 133.611,431.035 133.033,438.271ZM145.033,429.632C144.619,432.302 144.953,435.494 144.793,438.152L150.553,438.152C150.605,435.18 150.514,432.351 150.313,429.632C148.592,429.417 146.791,429.556 145.033,429.632ZM187.033,438.872C186.932,440.131 186.876,441.435 186.913,442.832C189.326,444.434 193.894,443.186 197.113,443.552C197.34,443.179 197.944,443.183 198.313,442.952C197.574,441.052 195.822,440.163 194.953,438.391C193.344,440.479 189.375,438.959 187.033,438.872ZM174.553,438.752C172.795,439.634 171.512,440.991 170.833,442.952C174.012,443.762 179.033,444.321 181.873,442.832L181.873,439.111C179.846,439.894 176.215,439.745 174.553,438.752Z"/>
            <path d="M186.433,338.912C186.931,339.686 187.022,341.544 186.193,341.792C184.388,342.331 184.238,338.005 186.433,338.912Z"/>
            <path d="M180.433,339.032C181.923,338.404 182.129,342.081 180.673,342.032C179.518,341.993 179.563,339.398 180.433,339.032Z"/>
            <path d="M221.953,339.151C222.313,339.896 222.349,341.683 221.833,342.271C219.741,342.763 219.938,338.177 221.953,339.151Z"/>
            <path d="M227.353,339.151C227.67,339.812 228,341.345 227.353,341.912C225.473,342.858 225.29,338.146 227.353,339.151Z"/>
            <path d="M227.713,347.552C226.187,345.985 223.227,347.285 221.353,347.312C220.997,344.597 229.425,343.884 227.713,347.552Z"/>
            <path d="M186.673,348.392C185.733,348.705 184.799,348.159 183.793,348.152C182.377,348.143 181.323,348.899 180.313,348.993C180.121,346.162 186.285,345.791 186.673,348.392Z"/>
            <path d="M145.153,360.992C145.25,362.346 145.276,364.045 145.513,365.792C145.755,367.577 146.451,369.918 145.393,371.792C145.026,372.44 144.263,372.77 143.593,373.472C139.794,371.598 139.738,364.531 142.873,362.073C143.518,361.567 144.267,361.563 144.913,360.993C144.993,360.992 145.073,360.992 145.153,360.992ZM143.833,371.912C144.44,370.239 145.136,368.655 145.033,366.271C144.326,365.619 144.146,364.438 143.593,363.631C141.715,365.531 141.773,370.261 143.833,371.912Z"/>
            <path d="M183.433,372.032C184.434,371.449 185.037,369.059 186.673,369.632C188.515,370.277 185.91,373.287 185.113,373.832C185.739,375.142 187.963,376.448 186.913,378.271C184.995,378.269 184.604,376.741 183.433,375.992C182.329,376.638 181.882,378.786 180.433,378.752C177.738,378.689 181.157,374.639 181.753,374.072C181.513,372.957 179.547,371.721 179.713,370.231C179.783,369.602 180.246,369.062 181.153,369.271C182.227,369.52 182.466,371.377 183.433,372.032Z"/>
            <path d="M142.873,418.352C143.228,419.801 144.209,421.36 143.473,422.913C142.895,424.133 139.289,424.498 138.433,423.633C137.52,422.71 138.108,419.292 138.553,418.233C140.02,417.923 141.731,417.469 142.873,418.352Z"/>
            <path d="M155.953,418.111C156.463,419.34 156.581,421.54 156.313,423.151C155.43,424.125 153.41,423.812 151.873,423.752C151.288,422.677 151.023,420.332 151.513,419.072C152.11,417.536 154.429,417.437 155.953,418.111Z"/>
        </g>
    </g>
</svg>
