<?xml version="1.0" encoding="UTF-8" standalone="no"?>
<!DOCTYPE svg PUBLIC "-//W3C//DTD SVG 1.1//EN" "http://www.w3.org/Graphics/SVG/1.1/DTD/svg11.dtd">
<svg width="100%" height="100%" viewBox="0 0 116 187" version="1.1" xmlns="http://www.w3.org/2000/svg" xmlns:xlink="http://www.w3.org/1999/xlink" xml:space="preserve" xmlns:serif="http://www.serif.com/" style="fill-rule:evenodd;clip-rule:evenodd;stroke-linejoin:round;stroke-miterlimit:2;">
    <g fill="#dc4f00"  transform="matrix(1,0,0,1,-79.0321,-63.1041)">
        <g transform="matrix(1,0,0,1,82.1992,-46.8479)">
            <path d="M74.953,109.952C74.955,111.229 74.756,112.759 75.313,114.152C75.852,115.498 76.824,116.224 77.233,117.272C78.304,120.015 78.155,124.793 77.833,128.312C77.552,128.073 77.043,128.062 76.633,127.952C76.697,125.448 74.988,124.386 74.113,122.432C73.366,120.765 72.713,118.386 72.913,115.592C73.046,113.74 73.879,112.565 74.113,110.432C74.605,110.929 74.667,110.292 74.953,109.952ZM76.393,123.632C76.181,120.164 75.846,116.819 74.353,114.632C74.015,118.267 74.69,121.666 76.393,123.632Z"/>
        </g>
        <g transform="matrix(1,0,0,1,82.1992,-46.8479)">
            <path d="M74.353,114.632C75.846,116.819 76.181,120.164 76.393,123.632C74.69,121.666 74.015,118.267 74.353,114.632Z" style="fill:white;"/>
        </g>
        <g transform="matrix(1,0,0,1,82.1992,-46.8479)">
            <path d="M24.913,117.392C25.015,117.37 25.026,117.438 25.033,117.512C26.498,120.717 27.15,125.173 28.273,128.912C30.085,134.943 30.617,143.457 28.033,149.072C26.276,152.89 23.457,157.104 25.033,162.872C25.325,163.938 26.277,164.98 26.113,166.112C24.687,165.618 24.119,164.266 23.593,162.872C21.007,159.996 18.908,156.827 18.553,151.952C18.095,145.657 20.525,140.6 22.273,135.392C24.058,130.075 24.729,124.342 24.913,117.752L24.913,117.392ZM24.673,132.512C23.711,138.386 20.623,143.497 20.233,149.312C19.896,154.335 21.198,157.28 23.113,160.352C22.555,153.221 26.255,150.218 27.313,144.272C28.383,138.26 27.144,131.308 25.993,126.512C25.986,126.439 25.975,126.37 25.873,126.392C25.729,128.535 25.018,130.409 24.673,132.512Z"/>
        </g>
        <g transform="matrix(1,0,0,1,82.1992,-46.8479)">
            <path d="M89.833,129.032C89.93,129.055 89.953,129.153 90.073,129.152C90.69,131.362 90.136,135.104 91.153,137.432C91.557,138.357 92.507,139.12 93.193,139.952C95.253,142.454 97.126,144.974 97.633,148.952C97.991,151.765 97.898,154.515 97.393,157.232C96.949,159.621 95.942,161.928 95.593,164.312C95.404,165.606 95.83,166.66 94.873,167.552C94.13,166.82 94.522,165.696 94.393,164.672C93.946,161.137 91.524,157.45 89.953,154.712C88.203,151.663 86.371,148.5 86.353,144.032C86.332,138.668 88.11,133.603 89.833,129.032ZM87.913,139.232C87.334,148.202 92.733,154.676 95.233,161.072C96.47,155.107 96.685,149.084 94.033,144.632C92.194,141.545 89.36,139.397 88.993,135.152C88.467,136.396 88,137.876 87.913,139.232Z"/>
        </g>
        <g transform="matrix(1,0,0,1,82.1992,-46.8479)">
            <path d="M2.833,194.672C1.511,189.274 -3.154,187.704 -3.167,180.872C-3.176,175.71 -1.238,170.813 1.993,167.312C2.085,167.212 2.154,166.967 2.353,166.952C3.176,170.809 1.009,175.172 2.113,179.432C2.698,181.688 4.193,183.628 4.393,186.032C4.53,187.672 4.306,189.254 4.033,190.832C3.828,192.018 3.73,193.502 2.833,194.672ZM0.073,178.232C0.006,177.302 -0.017,176.156 0.073,174.992C0.103,174.604 0.51,172.823 0.313,173.192C-0.782,175.825 -1.733,178.809 -1.487,182.192C-1.188,186.3 1.684,188.784 2.833,191.792C4.025,185.782 0.402,182.824 0.073,178.232Z"/>
        </g>
        <g transform="matrix(1,0,0,1,82.1992,-46.8479)">
            <path d="M109.753,173.432C110.237,174.155 109.078,174.755 109.033,175.592C108.954,177.061 110.638,178.437 111.313,179.672C112.248,181.384 112.829,183.774 112.633,186.512C112.306,191.072 109.148,193.65 107.833,197.432C107.413,198.64 107.285,200.033 106.393,201.152C106.066,199.48 106.984,197.276 106.993,195.872C106.998,195.018 106.49,193.948 106.273,192.992C104.744,186.249 104.027,176.518 109.753,173.432ZM107.953,193.952C109.572,191.569 110.952,188.927 110.833,185.312C110.723,181.954 108.756,179.604 108.193,176.912C105.761,181.309 106.749,188.946 107.953,193.952Z"/>
        </g>
        <g transform="matrix(1,0,0,1,82.1992,-46.8479)">
            <path d="M80.233,206.552C82.156,209.313 84.893,214.871 84.553,219.632C86.262,217.661 87.591,214.27 88.993,211.592C89.656,219.299 92.097,226.423 92.233,234.512C90.122,229.384 89.085,223.181 88.273,216.752C86.89,217.865 86.093,222.334 83.113,221.072C83.927,217.472 81.92,215.221 81.313,212.312C80.195,213.287 80.032,215.813 78.073,215.552C78.774,213.693 79.909,212.268 80.713,210.512C80.423,209.322 80.14,208.125 80.233,206.552Z"/>
        </g>
        <g transform="matrix(1,0,0,1,82.1992,-46.8479)">
            <path d="M51.913,209.312C64.559,209.998 73.327,214.286 79.993,220.952C86.438,227.398 91.513,236.541 91.513,249.032C91.513,261.661 86.36,270.505 79.873,276.992C73.386,283.48 64.414,288.669 52.033,288.752C39.673,288.835 30.38,283.659 23.953,277.232C17.344,270.623 12.313,261.94 12.313,249.272C12.313,237.014 17.369,227.641 23.713,221.072C28.384,216.236 34.918,212.341 42.913,210.512C45.675,209.88 49.298,209.355 51.913,209.312ZM42.793,222.272C40.759,223.71 39.389,221.123 38.713,220.712C38.717,221.596 38.627,222.386 38.233,222.872C32.427,222.785 30.939,227.119 25.993,227.912C25.201,228.741 24.265,229.37 23.713,230.552C23.482,231.046 23.552,231.783 23.233,232.232C22.678,233.011 21.552,232.833 21.193,233.792C21.225,234.427 22.504,234.512 22.393,235.472C22.338,235.944 21.473,236.543 20.953,236.552C19.838,236.573 18.921,235.124 18.673,234.272C19.314,233.057 20.842,232.143 20.833,230.672C20.057,230.761 19.735,231.802 19.273,232.592C18.835,233.342 18.119,234.187 17.953,235.112C17.681,236.628 18.403,238.146 18.073,239.792C21.408,242.096 26.747,242.398 30.193,244.592C30.425,245.36 30.724,246.06 30.673,247.112C31.578,247.696 34.237,248.772 34.513,249.872C34.643,250.393 34.249,252.205 33.913,252.992C33.399,254.195 32.355,254.817 31.273,255.152C30.676,257.423 30.147,261.034 26.713,259.232C25.824,260.348 25.272,261.272 24.553,262.592C24.068,263.483 22.833,265.168 22.873,266.432C22.947,268.789 27.742,272.765 23.953,273.992C26.69,277.295 30.26,279.765 34.153,281.912C35.444,281.882 36.346,281.392 38.113,281.312C38.273,280.741 38.672,280.04 39.433,280.112C40.164,280.181 40.269,281.31 40.873,281.672C42.027,282.364 44.112,281.353 45.793,281.672C46.541,281.814 47.105,282.501 47.833,282.632C50.04,283.028 51.497,281.757 53.593,281.672C54.293,281.978 54.034,282.697 54.673,282.872C55.688,283.149 56.796,281.608 58.393,282.152C59.402,283.943 63.009,283.136 64.873,284.072C74.252,280.691 80.815,274.494 85.033,265.952C83.637,265.707 82.717,265.865 81.673,265.952C81.22,265.725 81.61,264.656 81.313,264.272C80.468,263.957 78.86,264.404 78.433,263.672C78.615,261.17 78.076,259.389 78.073,257.072C77.978,256.647 77.175,256.93 77.233,256.352C77.355,255.793 77.36,255.119 77.833,254.912C78.126,254.617 78.354,255.001 78.793,254.912C78.679,253.958 79.623,254.062 80.473,254.072C81.014,254.411 80.44,255.865 81.553,255.632C81.861,254.033 84.54,254.359 84.553,255.992C86.47,256.109 87.267,255.106 88.633,254.672C88.927,251.905 89.924,247.471 87.673,246.152C87.318,247.395 86.491,248.258 86.833,249.872C86.016,250.398 85.881,251.807 84.793,252.152C83.686,252.504 81.68,251.819 81.073,250.832C80.588,250.043 80.31,248.256 81.193,247.352C82.095,246.833 83.409,246.975 83.713,247.952C83.834,248.351 83.447,249.258 83.953,249.272C84.285,248.402 84.281,246.16 85.513,245.792C85.542,245.002 85.499,244.286 85.273,243.752C83.282,243.8 83.403,245.962 81.913,246.512C81.129,246.028 80.392,245.852 80.233,244.952C80.014,243.707 81.346,242.184 80.953,241.352C80.445,241.048 80.599,242.434 79.993,242.432C79.473,242.271 79.282,241.783 78.673,241.712C78.54,243.546 76.132,242.454 74.953,242.792C73.929,242.175 73.428,240.397 72.553,240.032C73.071,241.114 73.697,242.089 74.233,243.152C75.648,243.056 76.711,243.284 78.193,243.152C79.919,243.559 80.135,246.073 79.873,248.072C79.413,248.508 78.1,248.54 77.353,248.312C76.963,248.022 77.115,247.19 76.873,246.752C76.07,247.638 75.213,248.392 74.473,249.272C73.81,250.061 72.832,251.1 72.433,252.152C72.222,252.708 72.454,253.488 72.193,254.072C71.813,254.922 70.568,254.934 69.433,255.392C67.996,255.973 66.795,257.219 66.673,258.392C67.59,257.86 68.767,256.978 69.793,256.952C69.257,259.152 68.138,261.765 65.833,262.592C65.725,262.381 65.392,262.394 65.353,262.112C65.403,261.16 66.041,260.162 65.953,259.472C65.169,260.609 64.845,262.259 63.553,263.192C62.984,263.603 61.333,263.977 60.313,264.152C56.855,264.746 57.359,260.463 55.873,258.152C55.34,257.324 54.593,256.917 54.313,255.872C54.08,255.001 54.264,254.101 54.193,253.232C53.97,250.479 53.003,247.933 52.513,245.672C51.358,246.103 49.893,245.628 48.673,245.792C47.706,245.922 47.146,246.468 46.153,246.152C45.172,245.839 42.741,243.417 41.593,241.832C40.971,240.973 40.365,239.956 40.033,239.192C38.94,236.683 40.949,235.025 42.073,234.272C43.974,232.999 46.133,232.454 47.833,231.152C48.206,230.35 47.696,229.538 47.833,228.752C48.006,227.76 48.899,227.559 49.393,226.832C49.363,226.422 49.09,226.255 49.153,225.752C49.471,225.03 50.144,224.663 51.313,224.792C51.132,223.452 48.926,222.239 49.153,220.832C49.27,220.105 50.013,220.227 50.353,219.512C50.104,219.041 50.088,218.337 50.113,217.592C50.542,216.667 51.728,216.807 52.753,216.272C53.273,216.001 53.879,215.477 54.433,215.072C55.808,214.066 56.143,213.95 55.393,212.672C53.908,212.443 53.12,211.61 51.673,211.832C48.886,212.259 47.506,215.516 44.833,216.032C43.337,214.742 44.762,212.25 45.433,210.992C44.346,211.27 44.008,212.548 43.513,213.392C42.962,214.331 42.302,215.215 41.833,216.152C42.025,216.32 42.14,216.566 42.193,216.872C43.961,217.508 48.84,216.809 49.273,218.552C49.489,219.421 48.61,220.955 47.713,221.192C46.095,221.619 43.398,220.761 42.193,220.712C42.653,220.972 42.818,221.527 42.793,222.272ZM37.393,214.952C38.113,215.032 38.564,214.844 39.193,214.832C39.496,213.614 41.043,213.003 40.993,211.832C39.242,212.32 37.482,212.801 37.393,214.952ZM65.833,228.632C65.998,228.899 66.74,228.985 67.033,228.752C67.06,228.659 67.036,228.515 67.153,228.512C67.248,227.645 65.527,227.437 65.833,228.632ZM52.753,230.192C54.332,230.051 56.153,230.152 57.433,229.712C56.45,227.554 52.481,228.913 52.753,230.192ZM59.473,231.152C60.057,231.487 60.837,231.629 61.753,231.632C61.85,230.821 62.998,230.789 63.793,231.032C63.554,229.162 65.78,230.158 66.673,229.952C64.7,228.896 62.233,230.79 60.553,229.592C60.163,230.082 59.828,230.626 59.473,231.152ZM14.233,242.312C14.519,241.838 14.86,241.419 15.313,241.112C15.197,240.629 14.789,240.436 14.473,240.152C14.489,240.89 14.004,241.759 14.233,242.312Z"/>
        </g>
        <g transform="matrix(1,0,0,1,82.1992,-46.8479)">
            <path d="M51.313,216.512C50.604,216.057 50.07,215.852 49.873,215.312C48.92,212.696 52.751,211.995 52.513,214.952C52.452,215.716 51.978,216.116 51.313,216.512Z"/>
        </g>
        <g transform="matrix(1,0,0,1,82.1992,-46.8479)">
            <path d="M13.633,219.752C13.831,221.184 13.228,222.517 13.273,223.952C13.331,225.823 14.238,227.499 14.353,229.232C13.95,229.476 13.608,228.749 13.273,228.272C12.709,227.469 12.105,226.453 11.833,225.272C9.555,230.354 9.936,238.095 9.193,244.712C7.284,237.514 8.76,227.635 11.833,222.752C12.076,221.435 12.307,220.106 13.393,219.632C13.49,219.655 13.513,219.752 13.633,219.752Z"/>
        </g>
        <g transform="matrix(1,0,0,1,82.1992,-46.8479)">
            <path d="M78.673,253.712C78.099,253.406 78.11,252.515 78.073,251.672C78.508,250.957 79.449,250.346 80.473,250.592C81.225,251.845 80.323,253.752 78.673,253.712Z"/>
        </g>
        <g transform="matrix(1,0,0,1,82.1992,-46.8479)">
            <path d="M74.593,261.272C74.973,262.047 75.793,262.644 75.913,263.432C76.114,264.75 74.521,265.435 74.953,266.912C74.474,267.353 73.98,267.779 72.913,267.632C72.435,266.949 72.281,265.944 72.313,264.752C73.447,264.085 73.862,262.7 74.233,261.272L74.593,261.272Z"/>
        </g>
        <g transform="matrix(1,0,0,1,82.1992,-46.8479)">
            <path d="M87.793,200.312C91.646,195.844 95.107,189.946 97.753,183.872C97.69,185.006 98.423,185.074 98.833,185.792C100.02,187.871 100.862,191.888 101.353,194.672C103.289,205.635 98.126,214.197 96.073,222.392C98.128,218.794 100.972,214.648 104.713,212.072C104.938,211.917 105.296,211.776 105.553,211.592C105.66,211.515 105.82,211.012 105.913,211.352C106.595,211.528 105.83,211.942 105.553,212.192C102.243,219.082 101.718,230.127 102.433,239.792C102.721,243.687 102.808,247.769 102.193,251.552C101.917,253.25 101.366,254.914 100.993,256.592C100.597,258.369 100.379,260.124 99.793,261.632C99.499,262.391 98.933,263.086 98.593,263.912C96.401,269.251 93.269,274.797 89.713,278.912C86.706,282.392 82.387,285.862 78.313,288.512C76.915,289.421 75.414,290.503 73.993,291.152C72.398,291.881 70.688,292.393 69.073,293.192C61.165,297.103 46.476,296.89 36.913,294.272C34.649,293.652 32.24,292.655 30.073,291.752C23.201,288.888 18.395,285.217 13.633,280.112C4.68,270.515 -3.153,258.89 -2.447,240.032C-2.003,228.161 1.948,219.663 5.473,210.512C6.324,208.304 7.222,206.019 8.113,203.792C8.993,201.592 10.174,199.332 10.753,197.192C11.574,194.158 10.892,190.195 11.713,187.352C12.241,187.505 12.42,188.237 12.673,188.672C14.703,192.159 17.355,195.897 17.713,201.152C17.864,203.376 17.238,206.741 18.313,208.592C19.663,199.756 25.542,194.748 28.993,187.352C30.311,184.527 31.514,182.093 31.273,178.112C31.004,173.67 30.287,169.951 30.673,166.352C31.067,162.685 32.25,159.607 33.913,156.752C36.945,151.545 41.22,147.479 47.593,144.752C47.255,145.368 47.244,145.983 46.993,146.672C46.767,147.292 46.397,147.838 46.153,148.472C43.496,155.382 44.462,166.013 46.993,172.112C47.855,167.254 50.339,163.144 52.033,158.672C55.921,148.407 58.757,132.859 56.473,118.352C56.261,117.002 56.007,115.788 55.633,114.632C55.284,113.554 54.574,112.517 54.793,111.392C56.634,111.397 57.225,113.697 58.273,114.872C61.623,118.625 65.265,122.17 68.353,126.392C72.406,131.933 76.356,137.86 76.993,146.432C77.685,155.741 75.164,163.559 73.033,171.032C70.917,178.451 67.732,185.65 68.593,195.032C71.588,183.68 79.695,176.847 82.513,165.152C82.803,163.948 83.061,162.666 83.353,161.432C83.626,160.276 83.641,158.992 84.313,157.952C85.333,158.545 84.944,159.605 85.153,160.832C85.672,163.884 87.363,166.66 88.633,169.592C92.329,178.129 92.835,191.73 87.793,200.192L87.793,200.312ZM98.953,219.752C97.454,222.041 95.333,224.987 96.553,227.432C94.987,226.664 94.955,224.41 94.873,222.752C94.771,220.71 95.137,218.797 95.713,217.232C96.873,214.082 97.944,210.55 98.833,207.512C100.816,200.73 100.301,191.929 97.753,185.672C96.726,192.422 92.93,197.238 89.233,201.392C88,202.777 86.733,204.691 84.553,204.632C84.143,204.058 85.503,203.696 85.273,203.312C84.95,203.591 84.373,204.247 84.073,204.152C87.669,199.33 89.447,191.754 89.593,183.872C89.749,175.487 86.801,168.885 84.313,163.232C83.789,170.195 80.719,175.533 77.593,180.872C76.132,183.367 74.651,185.931 73.273,188.672C71.872,191.459 70.377,194.462 70.153,197.792C69.992,200.189 70.82,202.003 70.273,203.552C69.281,203.493 69.018,202.253 68.713,201.512C66.201,195.395 66.672,186.08 68.593,179.552C70.831,171.942 73.242,164.002 74.473,156.272C76.101,146.045 74.007,138.963 70.273,132.632C66.91,126.929 62.621,121.915 58.393,117.272C58.139,116.992 57.631,116.403 57.553,116.672C61.2,132.066 58.162,149.575 53.353,160.952C51.674,164.925 49.007,168.892 48.673,173.552C48.574,174.924 49.013,176.362 48.313,177.152C47.175,176.34 46.399,174.731 45.673,173.312C42.371,166.862 41.427,153.679 45.193,147.272C39.733,152.372 33.257,157.603 32.713,167.432C32.519,170.937 33.444,174.917 33.433,178.832C33.432,179.329 33.38,180 33.313,180.512C32.591,186.035 29.057,191.182 26.233,195.512C24.899,197.558 23.254,199.67 21.913,202.232C20.681,204.586 19.308,208.107 19.753,211.112C19.885,212.001 20.74,212.761 20.593,213.632C19.062,213.242 18.423,211.962 18.313,210.152C16.174,207.886 16.426,203.133 16.033,199.112C15.723,195.941 14.596,193.601 13.153,191.792C13.036,196.759 11.377,201.201 9.913,205.352C5.525,217.795 -0.975,228.599 0.073,245.672C0.718,256.187 4.091,263.606 8.833,270.512C13.317,277.043 18.926,283.177 25.753,287.192C27.398,288.159 29.563,288.909 31.513,289.712C36.902,291.929 44.022,293.912 51.313,293.912C63.092,293.912 71.206,290.738 77.833,285.632C80.079,283.902 82.458,282.445 84.433,280.592C86.446,278.704 88.111,276.698 89.833,274.472C93.199,270.12 96.152,265.205 97.993,259.352C98.447,257.91 98.64,256.252 99.073,254.672C99.531,252.999 100.052,251.374 100.153,249.872C100.536,244.157 99.793,238.58 99.793,232.832C99.793,226.142 101.123,219.842 102.793,215.072C102.86,215.072 102.929,214.975 102.793,214.952C101.602,216.145 100.209,217.833 98.953,219.752Z"/>
        </g>
        <g transform="matrix(1,0,0,1,82.1992,-46.8479)">
            <path d="M53.233,174.872L53.473,174.872C54.047,182.281 58.175,189.341 55.393,197.552C56.056,196.385 56.654,195.083 57.193,193.712C57.713,192.39 58.052,190.853 58.993,189.872C59.968,190.269 59.27,191.607 59.233,192.272C59.082,194.988 59.883,197.48 60.793,199.472C61.717,201.495 63.466,202.983 63.913,205.112C61.7,204.796 60.728,202.761 59.953,201.032C59.124,199.183 58.526,196.925 58.513,194.432C56.708,197.387 55.922,201.361 52.753,202.952C52.645,201.266 53.41,199.517 53.953,197.672C55.405,192.744 55.132,186.367 53.473,181.592C51.748,190.342 46.591,195.695 41.473,201.152C40.631,202.049 39.632,202.865 38.833,203.792C38.02,204.735 37.652,205.978 36.553,206.672C36.321,203.866 38.775,201.665 40.393,199.832C43.808,195.964 47.443,192.026 49.873,186.992C51.403,183.822 52.697,179.952 52.153,175.712C52.325,175.244 52.974,175.252 53.233,174.872Z"/>
        </g>
    </g>
</svg>
