<?xml version="1.0" encoding="UTF-8" standalone="no"?>
<svg
   xmlns:dc="http://purl.org/dc/elements/1.1/"
   xmlns:cc="http://creativecommons.org/ns#"
   xmlns:rdf="http://www.w3.org/1999/02/22-rdf-syntax-ns#"
   xmlns:svg="http://www.w3.org/2000/svg"
   xmlns="http://www.w3.org/2000/svg"
   id="svg3592"
   version="1.1"
   viewBox="0 0 193.85101 93.511116"
   height="93.511116mm"
   width="193.85101mm">
  <defs
     id="defs3586" />
  <metadata
     id="metadata3589">
    <rdf:RDF>
      <cc:Work
         rdf:about="">
        <dc:format>image/svg+xml</dc:format>
        <dc:type
           rdf:resource="http://purl.org/dc/dcmitype/StillImage" />
        <dc:title></dc:title>
      </cc:Work>
    </rdf:RDF>
  </metadata>
  <g
     transform="translate(523.28265,-2.2920594)"
     id="layer1">
    <g
       transform="matrix(0.26458333,0,0,0.26458333,-746.07037,-3.3064656)"
       id="g2376">
      <path
         style="fill:#010c04;stroke-width:0.31999999"
         d="m 1287.5201,374.51491 c -6.7766,-0.74643 -14.6078,-2.56217 -30.88,-7.15977 -5.544,-1.5664 -20.664,-5.50468 -33.6,-8.75172 -12.936,-3.24707 -28.344,-7.2046 -34.24,-8.79456 -13.1058,-3.5342 -33.0775,-8.42441 -43.2,-10.57782 -29.6371,-6.30477 -51.7542,-11.73933 -75.8401,-18.63523 -13.0297,-3.7305 -24.3009,-7.55678 -25.4297,-8.63276 -0.8643,-0.82394 -0.7894,-3.06458 0.245,-7.32305 0.9074,-3.73528 1.6827,-5.7369 3.1969,-8.25301 0.8416,-1.39852 1.1564,-1.67683 1.8099,-1.6 0.9356,0.11001 0.7579,0.76009 2.5552,-9.34699 0.7041,-3.96 1.3753,-7.668 1.4915,-8.24 0.1923,-0.94653 0.1412,-1.04 -0.5683,-1.04 -0.4287,0 -5.9547,1.37977 -12.28,3.06615 -6.3252,1.68639 -18.5565,4.77268 -27.1805,6.85844 -8.624,2.08575 -18.70396,4.5288 -22.39996,5.429 -3.696,0.90021 -9.888,2.35856 -13.76,3.24079 -8.33328,1.89873 -17.9975,4.30334 -29.44,7.32513 -4.576,1.20846 -13.432,3.51179 -19.68,5.11851 -6.248,1.60673 -13.88,3.62884 -16.96,4.4936 -6.47594,1.81822 -11.3327,2.86838 -13.26563,2.86838 -2.12791,0 -3.04503,-1.40733 -1.85437,-2.84552 1.10048,-1.32927 21.58672,-8.65005 40.08,-14.32264 15.93258,-4.88712 23.58003,-7.01782 43.04,-11.99162 8.976,-2.29419 20.24228,-5.23596 25.03616,-6.53727 12.5745,-3.41338 48.0559,-12.17597 53.0013,-13.08934 2.3156,-0.42769 6.3686,-1.00669 9.0064,-1.28666 9.9983,-1.06117 15.32,-1.78481 17.8551,-2.4279 2.8843,-0.73167 16.2891,-4.74043 16.4758,-4.92717 0.064,-0.0643 -0.6172,-1.33694 -1.5146,-2.82801 -5.9687,-9.91726 -13.3218,-29.84894 -23.221,-62.94387 -2.8872,-9.6524 -4.6124,-15.18065 -8.6382,-27.68 -3.037,-9.42967 -10.0789,-31.53713 -13.7748,-43.24529 -1.1191,-3.54491 -3.3283,-10.74491 -4.9094,-16 -1.581,-5.255091 -4.4795,-14.52271 -6.4409,-20.59471 -5.8883,-18.228781 -7.8706,-25.734816 -8.6042,-32.580058 -0.1568,-1.46303 -0.3538,-2.728723 -0.4377,-2.812652 -0.084,-0.08393 -1.0225,0.08926 -2.0857,0.384864 -2.1548,0.599068 -2.9483,0.463929 -2.9483,-0.502112 0,-0.357524 -0.1989,-0.650042 -0.4421,-0.650042 -0.2432,0 -5.5352,1.572029 -11.76,3.493398 -6.2248,1.92137 -18.15786,5.513847 -26.51786,7.98328 -41.14902,12.15489 -87.81094,27.135207 -123.04,39.500708 -8.272,2.903494 -16.3,5.670344 -17.84,6.148564 -1.54,0.47821 -2.8,1.0184 -2.8,1.20041 0,0.18201 1.06739,3.58504 2.372,7.56229 5.21417,15.89609 19.04099,61.35976 25.31302,83.23135 8.08509,28.19385 16.40868,63.98244 20.28074,87.2 2.06253,12.36725 3.46339,26.4 2.63549,26.4 -0.20624,0 -0.5136,-0.324 -0.68301,-0.72 -0.86845,-2.02985 -7.7856,-29.07769 -13.56432,-53.04 -8.01501,-33.23541 -13.63047,-53.91907 -28.19168,-103.84 -1.80117,-14.5356 -19.6598,-45.37692 -7.9193,-52.13023 2.19882,-1.267716 11.98074,-6.00194 16.33725,-7.90688 20.13661,-8.804951 64.35767,-24.068167 94.41005,-32.586317 17.59309,-4.986643 36.15888,-9.728125 45.00972,-11.49496 11.9997,-2.395383 28.0334,-4.203546 30.4561,-3.434605 0.5109,0.162144 0.9811,-0.03477 1.8,-0.753766 1.312,-1.151978 1.5908,-1.182829 2.8145,-0.311453 0.6918,0.492579 0.9298,0.922134 0.9307,1.68 0,2.202365 2.2003,8.56031 10.8048,31.258211 7.3146,19.295146 15.4827,42.91238 22.1902,64.16 5.1618,16.35113 7.956,24.75742 8.2999,24.97001 0.4169,0.25766 0.6788,-1.1386 4.4426,-23.69001 3.5344,-21.17639 4.3123,-24.96672 8.8641,-43.188435 1.4932,-5.977639 2.7679,-11.305639 2.8326,-11.84 0.1677,-1.385024 1.3307,-4.453629 1.7397,-4.589933 0.2076,-0.06921 0.3448,0.386986 0.3448,1.146349 v 1.261312 l 6.64,0.183683 c 6.4276,0.177805 12.8558,0.809114 21.8401,2.144886 50.8258,7.556784 116.0026,18.190888 143.36,23.390328 8.0223,1.52469 26.595,5.39198 29.2073,6.08169 0.6641,0.17532 1.3305,0.2427 1.4809,0.14972 0.1505,-0.093 -0.7027,-2.36742 -1.896,-5.05432 -2.9893,-6.73116 -5.9749,-14.877456 -8.4281,-22.996512 -2.1893,-7.245885 -4.1892,-15.065434 -4.5343,-17.728768 -0.1139,-0.88 -0.5031,-2.018253 -0.8647,-2.52945 -0.6228,-0.880534 -0.63,-0.981577 -0.1356,-1.92 0.287,-0.544803 0.6808,-1.751785 0.8751,-2.682182 0.5622,-2.691235 2.6921,-3.51513 3.452,-1.335293 0.1815,0.52081 0.473,0.946925 0.6476,0.946925 0.1747,0 1.2982,-0.353002 2.4967,-0.784448 9.6457,-3.47239 29.379,-8.779341 60.7391,-16.334819 20.6276,-4.96976 30.3646,-7.51704 46.72,-12.222368 25.8775,-7.44481 36.399,-10.188521 48.924,-12.757982 4.5411,-0.931597 5.2697,-0.960567 5.5424,-0.220383 0.1135,0.308 0.721,1.158392 1.35,1.88976 3.2895,3.82504 15.5445,27.482742 35.862,69.23024 9.7859,20.10753 16.5211,32.81508 24.423,46.08 10.639,17.85967 28.799,44.16 30.4918,44.16 0.2758,0 0.9056,0.468 1.3997,1.04 7.674,8.88494 10.5406,12.45646 15.8283,19.72062 2.1854,3.0023 4.3569,5.63211 5.0878,6.16156 1.6028,1.16106 6.1589,6.80348 6.6364,8.21868 1.2499,3.70441 -1.3503,5.96517 -17.4654,15.18528 -13.7846,7.8867 -18.8209,10.5712 -30.56,16.28923 -13.1179,6.38962 -18.4887,9.12326 -37.76,19.21917 -16.5583,8.67456 -38.5602,19.73434 -56.7052,28.50415 -18.6078,8.99348 -22.039,10.43495 -26.1014,10.96532 l -1.6867,0.22019 0.2023,1.0779 c 0.3042,1.62179 -0.422,1.38067 -2.2953,-0.7621 -6.6109,-7.56161 -20.1679,-28.16658 -29.6342,-45.04 -6.9242,-12.34246 -19.005,-34.4656 -23.1166,-42.33292 -4.8074,-9.19864 -6.7673,-13.26244 -9.2149,-19.10708 -2.0036,-4.78439 -2.1653,-5.09279 -2.4931,-4.75436 -0.3903,0.40293 -3.4454,10.61316 -4.3429,14.51436 -0.4252,1.848 -1.1341,6.168 -1.5754,9.6 -0.9463,7.35973 -4.5849,28.27318 -5.8737,33.76 -0.9025,3.84228 -3.6166,13.73353 -7.7269,28.16 -4.0548,14.23169 -5.6107,21.00025 -8.3262,36.22109 -0.6967,3.9056 -1.5441,8.2976 -1.883,9.76 -0.3389,1.4624 -0.9285,4.74691 -1.3103,7.29891 -0.3817,2.552 -1.1782,7.664 -1.7699,11.36 -0.5918,3.696 -1.2352,8.232 -1.4299,10.08 -0.1946,1.848 -0.5686,4.19994 -0.8309,5.22653 -0.2942,1.15072 -0.3975,2.39721 -0.2696,3.25046 0.3043,2.02922 -0.091,3.28429 -1.5216,4.8368 -1.838,1.99405 -3.9758,2.71613 -8.4146,2.84218 -1.936,0.055 -4.096,0.0365 -4.8,-0.0411 z m 6.24,-8.70758 2.08,-1.17597 0.3904,-2.87568 c 0.2148,-1.58163 0.6084,-4.96368 0.8747,-7.51568 0.2664,-2.552 0.6991,-5.864 0.9617,-7.36 0.2626,-1.496 0.6973,-5.024 0.966,-7.84 0.2687,-2.816 0.7672,-6.704 1.1076,-8.64 0.3404,-1.936 1.2039,-6.88006 1.9189,-10.98682 2.0693,-11.88602 4.3423,-22.73367 6.2469,-29.81318 2.2455,-8.34629 6.6965,-24.27117 8.6018,-30.77516 0.808,-2.75834 1.8983,-7.15034 2.4228,-9.76 3.1669,-15.75599 4.8611,-24.72777 5.3072,-28.10484 1.106,-8.3717 2.2581,-12.8347 6.4021,-24.8 1.3105,-3.784 3.4595,-10.264 4.7756,-14.4 1.316,-4.136 3.3927,-10.33761 4.6149,-13.78135 1.2221,-3.44374 3.0964,-9.27574 4.1652,-12.96 2.3644,-8.15039 3.7973,-12.12314 5.734,-15.89668 0.067,-0.13092 -0.2495,-0.37936 -0.7038,-0.55208 -0.9116,-0.34657 -1.0202,-0.64776 -0.442,-1.22589 0.5915,-0.59154 0.052,-0.90053 -3.104,-1.77764 -3.3904,-0.94226 -36.9686,-8.84636 -37.581,-8.84636 -0.2937,0 -0.3624,0.28343 -0.2295,0.94759 0.3693,1.8466 -0.3912,1.54757 -2.2703,-0.89269 -0.7148,-0.92826 -0.5732,-0.89436 -20.2392,-4.84357 -27.0164,-5.42523 -40.4668,-7.87729 -79.04,-14.40924 -40.4123,-6.84336 -63.4192,-11.056096 -81.28,-14.882954 -13.1297,-2.813162 -18.6715,-3.845501 -23.8401,-4.441011 -4.2559,-0.490365 -4.9588,-0.346861 -4.962,1.013133 0,1.489216 -1.177,8.866041 -4.3374,27.268742 -1.6775,9.768 -3.8393,22.368 -4.804,28 -2.1599,12.61027 -3.7523,21.12895 -4.9518,26.48906 l -0.915,4.08906 0.9617,3.11094 c 1.9869,6.42771 13.5299,47.1959 15.0323,53.09203 0.8607,3.3776 2.2177,9.6416 3.0154,13.92 0.7978,4.2784 1.5243,8.108 1.6146,8.51023 0.095,0.42202 0.5325,0.8628 1.0352,1.04219 4.5812,1.635 6.9903,5.60127 5.1928,8.54941 -1.0617,1.74125 -2.3555,2.31232 -5.2818,2.33125 -1.7429,0.0113 -3.6323,0.30192 -5.92,0.9107 -17.1648,4.56778 -21.4068,5.58546 -26.24,6.29502 -6.8591,1.00699 -12.8264,2.0732 -13.473,2.40728 -0.3854,0.19912 -0.5672,0.98238 -0.7306,3.14778 -0.2814,3.72704 -1.5488,10.95617 -2.8094,16.02505 -1.1587,4.65844 -3.5506,11.84341 -4.4611,13.40033 -0.3475,0.59418 -0.59,1.1167 -0.5388,1.16115 0.051,0.0444 1.3169,0.32322 2.8129,0.61948 1.496,0.29627 8.408,2.03227 15.36,3.85778 21.093,5.53876 38.2857,9.65032 58.8977,14.08507 26.8551,5.77795 41.0391,9.21808 56.9424,13.81049 5.192,1.49933 13.544,3.77776 18.56,5.06324 5.016,1.28544 15.24,3.92153 22.72,5.85795 7.48,1.93641 17.776,4.54189 22.88,5.78992 5.104,1.24803 13.744,3.42502 19.2,4.83776 12.9115,3.3432 18.9131,4.47673 22.56,4.26102 2.3832,-0.14099 2.9775,-0.30649 4.8,-1.33686 z m -25.0858,-36.71351 c -0.1069,-0.2784 -0.1924,-0.8184 -0.1901,-1.2 0.01,-0.98672 2.522,-8.34983 4.3378,-12.69382 2.1034,-5.03178 8.1975,-17.10194 9.565,-18.94431 1.312,-1.76769 2.3287,-2.44793 2.6004,-1.73986 0.3785,0.9863 -11.9644,30.62334 -14.0936,33.84075 -0.8552,1.29235 -1.8763,1.63152 -2.2195,0.73724 z m 7.8245,-1.87388 c -1.0046,-1.06928 -1.2251,-3.28253 -0.5129,-5.14736 0.6074,-1.5906 1.2395,-2.07258 2.7178,-2.07258 1.9641,0 2.8838,3.21898 1.7379,6.08285 -0.8212,2.05222 -2.6009,2.56547 -3.9428,1.13709 z m 2.5413,-3.37264 c 0,-0.88858 -0.3488,-1.6273 -0.6736,-1.42656 -0.3275,0.20243 -0.39,1.84905 -0.082,2.15721 0.3283,0.32839 0.7554,-0.0847 0.7554,-0.73065 z m -28.6757,0.98316 c -2.4093,-1.46915 -3.155,-3.68432 -2.9117,-8.64967 0.4907,-10.0179 5.2658,-20.73562 10.6419,-23.88626 0.7323,-0.42913 1.5884,-1.06414 1.9024,-1.41113 1.9899,-2.19888 6.474,-0.23163 8.204,3.59928 0.6702,1.48398 0.7534,2.11995 0.7224,5.51732 -0.029,3.17978 -0.1835,4.33516 -0.8989,6.72 -1.7366,5.78864 -5.5832,12.61726 -8.8051,15.63094 -3.0219,2.82669 -6.6292,3.83677 -8.855,2.47952 z m 5.3049,-7.15046 c 1.4065,-1.42679 4.2508,-6.2767 5.4522,-9.29661 2,-5.02722 2.6422,-8.84283 1.8742,-11.13564 -0.4222,-1.26068 -1.4747,-2.52775 -2.0995,-2.52775 -0.6766,0 -2.8675,3.72256 -3.9549,6.71956 -1.1648,3.21042 -2.3419,8.48724 -2.8961,12.98358 -0.5524,4.48194 -0.2269,5.13465 1.6241,3.25686 z m -21.9161,4.28138 c -1.8121,-0.8232 -4.0852,-3.48202 -5.0612,-5.92009 -1.2065,-3.01381 -1.6043,-5.8503 -1.3932,-9.93528 0.2181,-4.22151 0.7863,-6.50125 2.4829,-9.96255 2.218,-4.52507 5.5429,-7.84037 10.1832,-10.15394 2.2875,-1.14048 2.9825,-1.33941 4.6955,-1.34406 1.5473,-0.004 2.2189,0.14927 2.9151,0.66618 1.1807,0.87666 1.3511,2.34709 0.4232,3.65029 -0.8427,1.18351 -1.5986,1.2535 -1.5986,0.14803 0,-1.13717 -0.717,-1.2847 -2.3655,-0.48671 -3.7991,1.83911 -7.8655,7.48095 -8.6613,12.01675 l -0.2245,1.28 1.1328,-1.31585 c 1.4253,-1.65568 2.6391,-2.1678 4.6743,-1.97224 2.0159,0.1937 3.8784,1.40265 4.6518,3.01953 0.8553,1.78779 1.0023,5.85381 0.3222,8.91068 -1.0464,4.70318 -4.4187,9.92924 -7.3106,11.32921 -1.6905,0.81837 -3.1719,0.83968 -4.8661,0.0701 z m 4.6094,-7.03415 c 2.2129,-2.79394 3.4828,-6.57592 3.0892,-9.20023 -0.2603,-1.73612 -1.0228,-2.31279 -3.4113,-2.58015 -0.9462,-0.10592 -1.9581,-0.39867 -2.2487,-0.65056 -0.7476,-0.6482 -0.9451,-0.17714 -1.1421,2.72441 -0.2967,4.37022 1.1941,10.9393 2.4826,10.9393 0.1397,0 0.6934,-0.55475 1.2303,-1.23277 z m 35.2607,-13.69039 c -0.8713,-1.10768 -0.8503,-2.81018 0.057,-4.60904 0.5938,-1.17769 0.9371,-1.48143 1.9596,-1.73392 1.1397,-0.28145 1.3009,-0.23488 2,0.57784 0.9149,1.06362 1.0128,2.93953 0.2386,4.57099 -1.0158,2.1407 -3.0593,2.7142 -4.255,1.19413 z m 2.5432,-2.68893 c 0.4064,-0.75924 0.111,-1.9995 -0.4336,-1.82079 -0.4654,0.15274 -0.6938,2.47288 -0.2434,2.47288 0.1804,0 0.4851,-0.29344 0.677,-0.65209 z m -100.6464,-5.00527 c -10.2069,-0.51217 -12.8994,-1.09293 -18.3581,-3.95973 -4.8443,-2.54418 -8.0689,-4.87686 -11.8073,-8.5415 -3.819,-3.74381 -5.3009,-5.74842 -7.5114,-10.16141 -3.7814,-7.54905 -5.0432,-12.79926 -5.0432,-20.98405 0,-8.1929 0.5656,-10.63499 3.1175,-13.45965 1.3759,-1.52294 4.5584,-3.84784 6.197,-4.52708 1.0033,-0.41588 1.3873,-0.93402 2.9304,-3.9539 4.3338,-8.4815 11.1233,-26.01286 14.4726,-37.36991 1.4245,-4.83035 4.6425,-17.66162 4.6425,-18.51138 0,-0.36999 -0.7218,-0.42422 -4.08,-0.3065 -11.6275,0.40757 -22.3549,-4.33335 -32.4191,-14.32753 -6.4194,-6.37474 -9.3596,-10.8605 -8.7391,-13.33287 0.3268,-1.30182 1.2343,-0.84909 2.9659,1.47945 0.9106,1.22462 3.4864,3.94987 5.724,6.05612 10.5085,9.89182 17.0542,13.76622 26.5147,15.69417 5.731,1.16788 10.8047,1.20627 17.9962,0.13614 2.6949,-0.40102 0.8418,1.10412 -3.8026,3.08847 l -1.12,0.47852 -0.3843,5.21504 c -2.0527,27.85952 -11.2717,49.25978 -25.0557,58.16241 -2.8724,1.85515 -4.8039,3.43349 -5.4063,4.41769 -0.5648,0.92276 -0.592,1.33166 -0.3329,5.00486 0.4108,5.82379 0.8609,9.50205 1.4292,11.68 1.2179,4.66685 5.4052,12.94257 8.6416,17.07882 3.5014,4.4749 10.5515,9.96086 16.4939,12.83456 1.8759,0.90713 3.2368,1.3114 5.327,1.58245 1.5441,0.20022 5.0175,0.67522 7.7187,1.05555 4.4214,0.62253 5.2831,0.65424 8.64,0.318 2.1554,-0.2159 6.2204,-0.98962 9.6339,-1.83367 4.7722,-1.18002 7.136,-1.9823 12.32,-4.18144 6.6936,-2.8395 11.4188,-5.41479 13.2545,-7.22377 0.5938,-0.58517 1.476,-1.88219 1.9604,-2.88227 0.4845,-1.00008 1.1684,-2.22556 1.5199,-2.72328 1.1765,-1.66618 2.5522,-4.71941 3.433,-7.6195 0.4802,-1.581 1.2896,-3.69953 1.7985,-4.70784 0.9072,-1.79715 0.9185,-1.88243 0.57,-4.32545 -0.4677,-3.27876 -0.1648,-10.112 0.6638,-14.97216 1.9725,-11.57032 5.7837,-22.71403 11.8747,-34.72 3.0669,-6.04526 4.6791,-8.54521 7.0924,-10.99775 1.0162,-1.03277 1.8477,-2.07677 1.8477,-2.32 0,-0.88428 1.0556,-0.40717 2.5113,1.13494 2.611,2.76618 8.2947,5.91345 16.6887,9.24105 9.5524,3.78685 14.0362,4.86442 20.2102,4.85703 5.9414,-0.007 8.747,-0.82775 14.8229,-4.33575 1.7426,-1.00608 3.789,-2.10379 4.5476,-2.43935 0.7586,-0.33557 1.3793,-0.80778 1.3793,-1.04936 0,-1.18633 -7.9502,-8.36497 -13.0622,-11.79442 -7.5765,-5.08294 -17.2089,-8.52297 -26.5268,-9.47365 -3.3171,-0.33843 -4.8707,-0.27112 -8.1631,0.35366 -1.561,0.29623 -1.9515,0.26934 -2.64,-0.18174 -0.8897,-0.58299 -1.0383,-1.57891 -0.4336,-2.90607 0.3097,-0.67967 0.2436,-1.23823 -0.3826,-3.23482 -0.4162,-1.32732 -0.8945,-2.49836 -1.0627,-2.60233 -0.1682,-0.10396 -0.6033,0.22893 -0.9668,0.73977 -2.0321,2.85525 -5.2695,4.66447 -9.6887,5.41457 -2.6205,0.44477 -3.1684,0.44631 -5.2383,0.0147 -2.5421,-0.53004 -2.794,-0.46439 -4.3152,1.1249 -3.1621,3.30338 -7.2255,4.48683 -9.929,2.89173 -0.6312,-0.37241 -1.2962,-0.67712 -1.4777,-0.67712 -0.1815,0 -1.044,0.62451 -1.9165,1.38779 -1.9735,1.72632 -6.0697,4.17603 -7.8778,4.71124 -1.6354,0.48409 -2.7742,0.0968 -3.3351,-1.13431 -0.4423,-0.97077 -0.5831,-0.98139 -2.1839,-0.16472 -0.69,0.352 -1.8507,0.64 -2.5793,0.64 -1.6895,0 -3.2587,-1.45218 -3.8209,-3.53597 -0.7376,-2.7343 -0.847,-2.89108 -1.7718,-2.5395 -2.2615,0.85983 -4.6122,-0.12162 -5.5879,-2.33306 -0.5955,-1.34975 -1.2007,-4.37656 -1.3573,-6.78775 -0.079,-1.2086 -0.1468,-1.28659 -1.2898,-1.47075 -1.5844,-0.2553 -2.595,-1.25213 -3.8468,-3.79459 -0.948,-1.92527 -1.035,-2.37361 -1.1408,-5.8807 -0.078,-2.57536 0,-3.91487 0.2533,-4.16443 0.5493,-0.54932 0.8656,0.16019 1.1026,2.47388 0.407,3.97245 2.4078,9.46696 3.6162,9.93066 0.2508,0.0962 0.8158,-0.0608 1.2556,-0.34896 0.5686,-0.37253 0.8988,-0.42489 1.1425,-0.18118 0.1885,0.18853 0.6805,2.04593 1.0932,4.12757 0.8438,4.2552 1.5666,6.14453 2.48,6.48242 0.3416,0.12635 1.4002,0.0955 2.3526,-0.0686 2.1007,-0.36193 2.6962,0.0356 3.4493,2.30302 1.0672,3.21322 2.1671,3.61566 5.2893,1.93533 0.968,-0.52098 2.0017,-0.94727 2.2971,-0.9473 0.7779,-1.1e-4 1.5429,0.88379 1.5429,1.78278 0,0.44553 0.1874,0.77714 0.4393,0.77714 0.7393,0 8.6121,-4.00797 9.7429,-4.95996 1.0619,-0.89407 1.0628,-0.8942 3.2347,-0.48439 1.7275,0.32595 2.5054,0.33005 3.7979,0.02 2.1365,-0.51253 4.4031,-1.97831 5.2322,-3.38357 0.9247,-1.56723 1.5033,-1.79088 4.0263,-1.55639 2.8808,0.26774 6.0927,-0.59719 10.8862,-2.93152 3.1552,-1.5365 3.6688,-1.90048 4.1606,-2.94851 0.7906,-1.68489 1.8894,-1.77039 3.2236,-0.25085 1.073,1.22209 1.8023,3.38629 2.1348,6.3353 l 0.2075,1.84009 1.817,-0.24009 c 0.9993,-0.13205 4.697,-0.22909 8.217,-0.21566 5.3378,0.0203 6.9576,0.14286 9.76,0.7381 8.7118,1.85046 16.0982,5.39421 22.555,10.82125 4.6704,3.92558 7.2233,8.12665 7.4478,12.25623 0.1228,2.25793 0.077,2.46447 -0.7762,3.48915 -3.5519,4.26679 -6.6673,6.75724 -11.051,8.83412 -7.8524,3.72024 -17.6389,3.49518 -27.9356,-0.64246 -7.6427,-3.07111 -16.1835,-8.13309 -19.7643,-11.7139 -1.0572,-1.05721 -2.0992,-1.85427 -2.3156,-1.77125 -1.4498,0.55636 -8.9811,18.93215 -12.4776,30.44434 -2.6919,8.86331 -5.2389,21.21103 -6.4027,31.04 -0.4191,3.53945 -0.6543,4.58077 -1.1203,4.96 -0.3243,0.264 -0.7528,1.128 -0.952,1.92 -1.6668,6.62566 -5.1942,14.18935 -7.6285,16.35783 -2.5446,2.26676 -6.4535,4.63207 -13.2319,8.00676 -7.3978,3.68301 -9.1858,4.40931 -13.6262,5.53488 -7.1705,1.81763 -11.9638,2.27442 -19.7609,1.88317 z m 7.04,-19.04502 c -1.5998,-0.90718 -1.5463,-2.4667 0.1426,-4.15562 1.0939,-1.09388 1.4255,-1.24928 2.48,-1.16235 0.9816,0.0809 1.2372,0.23981 1.3196,0.82035 0.1279,0.90035 0.1218,0.90081 1.9929,-0.15101 1.7141,-0.96353 2.0899,-0.86988 1.7614,0.43895 -0.29,1.15539 -1.9798,2.71718 -4.0633,3.75544 -1.8266,0.91023 -2.648,1.01292 -3.6332,0.45424 z m -31.2028,-13.15905 c -1.0953,-0.54606 -1.8672,-2.05349 -2.4275,-4.74041 -0.4736,-2.2716 -0.3992,-4.76442 0.1697,-5.68495 0.1415,-0.2289 0.528,-0.36421 0.8589,-0.3007 0.4934,0.0947 0.642,0.51897 0.8258,2.35798 0.2599,2.59962 0.8827,4.68377 1.4559,4.87169 0.2843,0.0932 0.4,-0.33379 0.4,-1.47663 0,-1.76258 0.4828,-2.42856 0.9169,-1.2648 1.3345,3.57721 0.01,7.33855 -2.1997,6.23782 z m 34.8007,-6.00733 c -1.5268,-1.57094 -2.5676,-2.24769 -6.08,-3.95305 -7.7979,-3.78608 -20.5088,-7.34078 -27.2592,-7.62325 -2.5848,-0.10816 -3.0672,-0.63666 -1.2675,-1.3886 1.5143,-0.63274 8.7626,-0.71547 12.2888,-0.14026 7.3026,1.19125 14.8758,3.87239 19.04,6.74068 1.96,1.3501 3.9728,3.51076 4.8279,5.1826 0.7409,1.44848 1.0342,3.15977 0.5321,3.10397 -0.132,-0.0147 -1.069,-0.87961 -2.0821,-1.92209 z m 33.5717,-34.67801 c -2.6336,-0.93902 -3.9415,-3.29694 -3.6447,-6.57071 0.2229,-2.45746 1.2332,-4.5288 3.2563,-6.67571 2.8864,-3.06307 5.5258,-3.77909 7.2251,-1.95999 0.4968,0.53174 1.2363,1.64774 1.6434,2.48 0.9907,2.02508 1.2086,5.91971 0.4433,7.92346 -0.7307,1.9135 -3.5016,4.42496 -5.413,4.90625 -1.7801,0.44823 -1.98,0.44235 -3.5104,-0.1033 z m 4.1104,-9.93761 c 0,-1.97143 -0.5739,-2.11234 -1.5531,-0.38135 -0.6829,1.20716 -0.6832,1.21704 -0.053,1.68925 1.1271,0.8447 1.6062,0.45464 1.6062,-1.3079 z m -52.48,-7.85513 c -1.3839,-0.40619 -3.2678,-2.07303 -4.0819,-3.61144 -0.5408,-1.02195 -0.705,-1.88362 -0.7107,-3.72905 -0.01,-2.06843 0.1234,-2.63605 0.939,-4.1086 1.1757,-2.12256 3.9652,-4.71535 5.6001,-5.20519 1.7307,-0.51851 3.4114,-0.13653 4.0865,0.92874 0.3015,0.47578 0.9327,1.36905 1.4027,1.98505 0.9714,1.27336 1.4485,2.63742 1.7476,4.99626 0.697,5.49728 -4.1087,10.17508 -8.9833,8.74423 z m 3.9393,-10.94315 c 0.1203,-1.45104 -0.3767,-1.5575 -1.0642,-0.22794 -0.5535,1.0703 -0.3798,1.67987 0.4347,1.52566 0.358,-0.0678 0.5624,-0.48913 0.6295,-1.29772 z m 118.9716,5.69204 c -0.3748,-1.49325 -5.7132,-4.56989 -10.0115,-5.76988 -1.8309,-0.51114 -2.0935,-0.51442 -3.4761,-0.0433 -3.9632,1.35038 -10.3586,1.44804 -14.2233,0.21719 -3.0283,-0.96445 -5.6,-2.31679 -5.6,-2.94476 0,-0.81253 2.2937,-2.45586 4.2916,-3.07468 1.4467,-0.44809 3.0112,-0.55295 8.1884,-0.54878 5.545,0.004 6.7751,0.10009 9.2077,0.71585 7.6935,1.94736 13.6723,6.13073 13.6723,9.56659 0,2.23523 -1.5932,3.69832 -2.0491,1.88179 z m -18.9299,-7.19636 c -0.4183,-0.41829 -6.9492,-1.01114 -7.2987,-0.66255 -0.4177,0.4165 2.1798,0.89644 5.0617,0.93526 1.6241,0.0219 2.4329,-0.0767 2.237,-0.27271 z m -19.2094,-29.09812 c -1.2204,-0.74418 -1.7835,-1.48551 -3.8076,-5.01294 -1.3151,-2.29175 -1.9205,-3.00169 -3.44,-4.03354 -1.5432,-1.04797 -1.844,-1.40574 -1.844,-2.19297 0,-0.62439 -0.2421,-1.09708 -0.72,-1.4058 -0.7883,-0.50919 -4.6498,-1.53872 -7.92,-2.11158 -1.144,-0.2004 -2.4127,-0.57896 -2.8194,-0.84125 -1.0606,-0.68418 -0.8336,-2.00447 0.487,-2.8325 1.228,-0.76993 1.284,-0.98212 0.3324,-1.25961 -1.3039,-0.38017 -10.5886,-0.56257 -13.2,-0.25931 -2.7977,0.32488 -4.2953,0.0374 -4.358,-0.83671 -0.078,-1.08594 0.1168,-1.51722 1.1836,-2.62218 0.6019,-0.62342 1.0944,-1.25234 1.0944,-1.3976 0,-0.46364 -4.8363,0.16373 -8.64,1.12081 -2.3618,0.59426 -4.8352,1.49986 -6.9049,2.52811 -3.4294,1.70379 -4.3913,1.90395 -5.2808,1.09891 -0.5062,-0.45805 -0.6481,-0.45571 -1.5799,0.0261 -1.8336,0.94822 -4.5159,2.75623 -5.7705,3.88973 -1.0415,0.94094 -1.3277,1.05582 -1.8859,0.75708 -0.3619,-0.1937 -0.658,-0.55462 -0.658,-0.80204 0,-0.91092 -0.7303,-0.85173 -2.1865,0.17722 -3.8176,2.6975 -6.4199,4.73661 -7.8346,6.13911 -1.5556,1.54211 -2.1389,1.68513 -2.1389,0.52441 0,-2.08647 -4.1517,-6.72118 -8.3828,-9.35821 -7.0341,-4.38399 -14.9232,-6.22532 -25.1679,-5.87427 -9.3226,0.31946 -18.2981,2.92287 -21.1073,6.12233 -1.7041,1.94088 -2.2256,1.22807 -0.9816,-1.34168 2.3397,-4.83323 12.8036,-8.51842 24.1196,-8.49448 7.5635,0.016 13.7669,1.56151 20.9157,5.21089 5.5473,2.83182 10.1236,6.78402 11.5873,10.00705 0.2198,0.484 0.5592,0.88 0.7542,0.88 0.1949,0 1.0718,-0.59364 1.9486,-1.31921 2.5943,-2.14689 5.2962,-3.9762 7.5142,-5.08746 1.144,-0.57318 2.8,-1.64792 3.68,-2.38832 3.573,-3.00624 8.4221,-5.74814 10.8674,-6.14496 0.9158,-0.1486 1.3885,-0.0312 2.1547,0.53529 l 0.9815,0.72567 3.2382,-1.00353 c 4.1995,-1.30146 6.1085,-1.63787 9.2818,-1.63569 2.8332,0.002 4.8437,0.42386 5.7164,1.19962 0.8344,0.74171 0.7089,2.41252 -0.2685,3.57404 -0.4556,0.5415 -0.7796,0.98649 -0.72,0.98885 0.06,0.002 2.8445,0.0575 6.1885,0.12252 6.4968,0.12633 10.2377,0.6897 11.68,1.75897 0.6068,0.44988 0.8,0.88424 0.8,1.79866 0,1.20056 0.01,1.20776 1.92,1.74147 3.477,0.97056 5.3305,2.22821 5.9211,4.01765 0.2789,0.8449 0.766,1.24009 2.7174,2.20452 3.1324,1.54812 5.3889,4.3265 6.0676,7.47081 0.2821,1.30727 -0.2999,3.12839 -1.2018,3.76011 -0.8831,0.61853 -1.137,0.60502 -2.3327,-0.12411 z m -95.3543,-3.48838 c -1.7725,-1.70858 -3.7331,-3.38079 -4.3568,-3.716 -1.1305,-0.60758 -1.1388,-0.60718 -2.6638,0.13104 -5.1415,2.48896 -13.8215,-0.29759 -16.0041,-5.13782 -0.7327,-1.62482 -0.3971,-2.34243 1.1596,-2.47956 0.7609,-0.067 1.3455,-0.40354 1.9455,-1.12 0.8319,-0.99336 0.933,-1.02396 3.36,-1.01671 2.2392,0.007 2.8864,0.16532 6.1564,1.50882 6.5978,2.71079 11.157,5.98311 13.7536,9.87152 1.9039,2.8511 2.0797,5.12235 0.3931,5.07871 -0.2865,-0.007 -1.9711,-1.4114 -3.7435,-3.12 z m -15.3373,-9.52161 c -2.1939,-1.05786 -3.68,-1.38851 -3.68,-0.81878 0,0.43432 3.8677,1.92432 4.96,1.91078 0.8232,-0.0102 0.6408,-0.16577 -1.28,-1.092 z m 259.1684,153.61527 c 3.2255,-0.9347 7.5671,-3.06785 19.8716,-9.76333 4.928,-2.68158 13.496,-7.32422 19.04,-10.31699 5.544,-2.99277 14.76,-7.99532 20.48,-11.11678 27.4035,-14.95439 48.4225,-25.74872 64.8,-33.27811 4.752,-2.18469 11.304,-5.31761 14.56,-6.96205 6.1887,-3.1256 19.6213,-10.65964 20.9723,-11.76292 l 0.7837,-0.64 -0.9956,-2.88 c -0.8334,-2.41039 -1.394,-3.37402 -3.4381,-5.90974 -1.3433,-1.66635 -3.7217,-4.61835 -5.2853,-6.56 -1.5636,-1.94164 -4.2159,-5.61826 -5.894,-8.17026 -2.3906,-3.63557 -3.9593,-5.57516 -7.2469,-8.96 -16.0713,-16.54645 -32.4133,-40.28012 -49.4663,-71.84 -11.0413,-20.434205 -35.7897,-73.997754 -39.8199,-86.183157 -0.6591,-1.992736 -1.3699,-3.689015 -1.5797,-3.769508 -0.2097,-0.08049 -3.0384,1.14021 -6.2858,2.712674 -12.9408,6.266138 -24.8176,11.170817 -37.2957,15.401799 -17.0048,5.765846 -33.8613,10.482557 -51.3287,14.362544 -20.633,4.583165 -56.2099,11.285318 -64.0472,12.065539 -1.17,0.116471 -2.3014,0.31944 -2.5143,0.451043 -0.4294,0.265319 0.1917,2.602292 4.3791,16.479066 1.3277,4.4 3.612,12.032 5.0761,16.96 2.9655,9.98096 4.8072,15.48812 5.3712,16.06101 0.2063,0.20956 3.3271,1.11825 6.9351,2.01932 11.656,2.91099 20.0154,5.38339 26.2833,7.77366 l 2.1233,0.80974 1.1396,-0.81078 c 0.6812,-0.4847 4.3837,-1.83337 9.2062,-3.35344 4.4367,-1.39846 14.6844,-4.83896 22.7726,-7.64556 33.1689,-11.50958 71.5938,-23.835134 78.8661,-25.297851 1.7857,-0.359155 2.7449,-0.265469 2.2588,0.220611 -0.8297,0.829773 -29.5747,11.83801 -50.4899,19.33574 -8.7543,3.13825 -30.2188,10.26702 -38.56,12.8065 -7.9739,2.42763 -15.8664,4.37668 -19.6,4.84018 -1.804,0.22395 -3.28,0.50182 -3.28,0.61749 0,0.11567 1.5029,0.94105 3.3399,1.83417 1.8369,0.89311 4.1437,2.13805 5.1262,2.76653 0.9825,0.62847 2.1142,1.14268 2.5151,1.14268 0.9363,0 4.4054,-1.18219 24.8074,-8.45377 19.6889,-7.01746 39.9227,-13.93349 50.1773,-17.15091 4.0227,-1.26214 9.9781,-3.15456 13.2341,-4.20536 6.6518,-2.14672 13.0256,-3.78996 14.7005,-3.78996 2.5865,0 0.01,1.18418 -15.8205,7.25819 -16.2848,6.25013 -20.6068,7.85538 -36.48,13.54925 -33.2221,11.917 -40.1606,14.19037 -48.4232,15.8657 -0.997,0.20215 -2.0035,2.45818 -3.2427,7.26849 -1.0166,3.94633 -1.1645,5.01837 -0.6925,5.01837 0.1549,0 1.4149,-0.57233 2.8,-1.27184 1.3851,-0.69951 6.3344,-2.55513 10.9984,-4.1236 4.664,-1.56848 12.08,-4.17734 16.48,-5.79747 17.9319,-6.60276 45.5139,-15.99419 54.88,-18.6862 7.1589,-2.05764 15.2599,-4.03425 15.5099,-3.78435 0.3772,0.37726 0.1192,0.7169 -0.8699,1.14487 -15.4994,6.70649 -16.5949,7.14193 -34.48,13.70533 -27.9529,10.25795 -47.0492,16.58241 -55.68,18.44047 -1.672,0.35995 -4.624,0.82213 -6.56,1.02707 -1.936,0.20494 -3.571,0.42052 -3.6333,0.47907 -0.062,0.0585 -0.6643,2.38349 -1.3379,5.16655 -1.2736,5.26215 -1.84,7.1937 -6.675,22.7626 -1.6026,5.16037 -2.9138,9.5589 -2.9138,9.77452 0,0.21561 1.4183,2.90548 3.1518,5.9775 1.7336,3.07201 5.6742,10.04948 8.757,15.50548 14.2795,25.27215 22.1879,40.05212 36.8128,68.8 11.3217,22.25493 11.6602,22.88 12.3904,22.88 0.317,0 1.8184,-0.35992 3.3364,-0.79982 z m 13.5743,-16.54153 c -0.5248,-0.56175 -1.2998,-1.70356 -1.7224,-2.53736 -0.9081,-1.7922 -1.276,-2.07949 -1.9481,-1.52166 -0.3957,0.32837 -0.4567,0.79494 -0.2931,2.24072 0.1336,1.1813 0.084,1.90169 -0.1404,2.0404 -0.4077,0.25199 -1.8564,-0.60228 -2.5994,-1.53283 -0.4841,-0.60626 -0.651,-0.6259 -2.3755,-0.27957 -1.5645,0.31419 -1.9714,0.29614 -2.5994,-0.1153 -1.2281,-0.8047 -0.9073,-2.26299 0.9239,-4.19922 1.139,-1.20433 1.102,-2.2255 -0.077,-2.12924 -0.4352,0.0355 -1.2605,0.16007 -1.8342,0.27675 -2.3869,0.48555 -2.6676,-1.41186 -0.5447,-3.68144 l 1.4524,-1.55269 -0.2113,-2.06196 c -0.2483,-2.42322 0.1633,-3.53913 1.2482,-3.38467 0.4579,0.0652 0.9738,0.62237 1.4984,1.6185 0.5739,1.0897 0.9938,1.51933 1.4857,1.52 0.9753,0.001 1.0484,-0.47767 0.5013,-3.28484 -0.3722,-1.90943 -0.4006,-2.66991 -0.1226,-3.28 0.7916,-1.73737 2.3409,-0.5925 4.0328,2.97996 0.5154,1.08844 1.1634,2.03914 1.44,2.11265 0.2765,0.0735 0.8988,0.22179 1.3828,0.32951 1.1292,0.25129 1.1411,1.07142 0.028,1.95868 l -0.8516,0.67908 0.6116,1.25294 c 0.4799,0.98307 0.8185,1.27547 1.5717,1.35756 1.4452,0.1575 1.5852,0.50987 0.7753,1.95087 -0.7294,1.2978 -0.7315,1.33331 -0.2082,3.46787 0.7566,3.08629 0.9573,4.72392 0.7144,5.82969 -0.2743,1.24912 -0.9369,1.23227 -2.1388,-0.0544 z m -5.1273,-10.39172 c 0.053,-0.35361 -0.1084,-0.81211 -0.3575,-1.01888 -0.6631,-0.55025 -1.1899,0.20573 -0.8215,1.17875 0.3292,0.86948 1.0405,0.77303 1.179,-0.15987 z m 15.5056,5.99495 c -1.9564,-1.41718 -3.0101,-3.02034 -4.0877,-6.21932 -0.9184,-2.72624 -1.0392,-2.91388 -2.0034,-3.11107 -2.2156,-0.45316 -2.569,-1.71485 -1.0245,-3.65832 0.531,-0.66816 0.8982,-1.44396 0.816,-1.72401 -0.4337,-1.47795 -1.1414,-6.05734 -1.1414,-7.38533 0,-1.74024 0.5478,-2.41666 1.7191,-2.12268 0.8821,0.22139 1.587,1.57274 2.907,5.57305 0.7992,2.42188 0.9596,2.67095 1.8324,2.8455 1.1928,0.23857 1.4429,0.83474 0.7767,1.85151 -0.7118,1.0863 -0.6651,1.51832 0.557,5.14592 1.3432,3.9871 2.2484,5.7754 3.1688,6.26008 0.8981,0.47292 1.1878,0.89834 1.1941,1.75319 0.013,1.85308 -2.6348,2.29772 -4.7141,0.79148 z m 5.994,-6.37353 c -0.812,-0.43084 -1.4195,-1.18313 -2.235,-2.76764 -1.0386,-2.01777 -1.12,-2.38773 -1.12,-5.08835 0,-3.18984 0.7095,-5.71016 1.7668,-6.27601 1.1366,-0.6083 2.2617,-0.35184 3.3852,0.77165 0.9674,0.96745 1.0876,1.27769 1.0848,2.8 0,1.89237 -1.0359,4.49376 -2.1915,5.5216 -0.9455,0.84102 -0.8583,1.58797 0.2992,2.56196 1.1824,0.99489 1.4064,1.00987 2.9257,0.19558 1.4183,-0.76014 1.6876,-0.48541 0.9556,0.97493 -0.9397,1.87485 -2.8393,2.38428 -4.8708,1.30628 z m -0.1794,-8.95445 c 0.6577,-1.45832 0.5713,-3.36575 -0.1586,-3.50376 -0.6739,-0.12743 -1.257,1.23243 -1.257,2.93158 0,2.18062 0.5839,2.41664 1.4156,0.57218 z m 8.6919,6.68722 c -2.0519,-1.35271 -3.573,-4.59911 -4.6911,-10.01192 -0.995,-4.81731 -0.5705,-9.42995 0.9204,-10.00209 0.2696,-0.10345 0.6406,-0.0377 0.8245,0.1462 0.1838,0.18385 1.3508,3.32057 2.5933,6.97049 2.3227,6.82314 2.8716,7.71632 3.4668,5.64114 0.2209,-0.77012 0.099,-1.55063 -0.5401,-3.45286 -1.7554,-5.22654 -2.4954,-12.11328 -1.4174,-13.19251 0.459,-0.45953 0.6243,-0.47789 1.0585,-0.11755 0.6531,0.54203 1.0775,1.53787 3.3589,7.88227 2.5677,7.14038 3.0255,8.11571 3.8094,8.11571 1.331,0 1.8027,2.70653 0.6693,3.84 -0.8749,0.87482 -2.3108,0.80845 -3.4617,-0.16 -1.2659,-1.06519 -1.658,-1.00851 -1.6601,0.24 0,1.5307 -0.5932,3.39494 -1.299,4.10078 -0.7952,0.7952 -2.4257,0.79535 -3.6317,3.2e-4 z m 14.1531,-8.9591 c -0.6932,-0.54534 -2.1548,-3.29534 -3.1154,-5.86202 -0.2525,-0.67458 -0.5404,-0.88 -1.2333,-0.88 -1.644,0 -2.2154,-1.32898 -1.0319,-2.4 0.7714,-0.69809 0.7853,-1.13882 0.1373,-4.33666 -0.5854,-2.88947 -0.5114,-4.42479 0.2358,-4.89251 0.8358,-0.52311 1.5039,0.25875 3.0603,3.58149 l 1.4017,2.99232 1.0775,-0.20214 c 1.4186,-0.26614 1.6349,0.18554 0.6495,1.3566 -1.0097,1.19991 -1.0019,1.45399 0.1615,5.313 0.9498,3.15025 1.1347,4.47078 0.7621,5.44173 -0.2627,0.68471 -1.1525,0.63745 -2.1051,-0.11181 z m 7.1256,-3.40903 c -2.5497,-2.14548 -6.4312,-12.55052 -6.4215,-17.21431 0.01,-2.54085 0.4829,-3.8312 1.4713,-3.97412 0.9444,-0.13658 1.1771,0.28807 2.5079,4.57544 0.6556,2.112 1.3215,3.97489 1.4798,4.13976 0.1766,0.18395 0.5756,0.0294 1.0326,-0.4 0.4619,-0.43385 1.1546,-0.69976 1.8231,-0.69976 2.1287,0 5.5528,4.71074 5.9671,8.20948 0.1883,1.58974 -0.2131,2.99052 -0.8569,2.99052 -0.7549,0 -2.8823,-2.43479 -4.176,-4.77943 -0.7775,-1.409 -1.5839,-2.56603 -1.7921,-2.57119 -0.83,-0.0206 -0.7576,1.38076 0.2234,4.32532 0.557,1.67193 1.0357,3.72059 1.0639,4.55258 0.045,1.31524 -0.037,1.52532 -0.6247,1.60919 -0.3791,0.0541 -1.1246,-0.2811 -1.6979,-0.76348 z m 10.014,-6.08075 c -1.9319,-0.95307 -2.7858,-2.18448 -2.9339,-4.23119 -0.1645,-2.27474 0.4346,-6.36121 1.0763,-7.34045 0.6908,-1.05439 2.4386,-0.99046 3.313,0.12118 1.4624,1.85907 1.5976,4.86004 0.331,7.34451 -0.3447,0.67597 -0.6266,1.34993 -0.6266,1.4977 0,0.27661 2.0357,1.23105 2.4742,1.16002 1.1731,-0.19001 1.3472,0.37456 0.4058,1.31599 -0.7784,0.77833 -2.6086,0.83824 -4.0398,0.13224 z m -0.2639,-7.00196 c 0.5907,-1.41375 0.5933,-2.86434 0.01,-3.35176 -0.3638,-0.30191 -0.5193,-0.2607 -0.7579,0.20082 -0.4585,0.88676 -0.7625,2.93351 -0.54,3.63465 0.2973,0.93677 0.7727,0.75876 1.2919,-0.48371 z m 11.0106,2.93954 c -1.1245,-0.88917 -2.2901,-2.85945 -3.2779,-5.54105 l -1.0494,-2.84877 -1.4298,-0.16 c -1.3145,-0.1471 -1.4375,-0.23788 -1.5246,-1.12585 -0.07,-0.71435 0.1662,-1.25597 0.9073,-2.08 0.8765,-0.97455 0.9784,-1.27453 0.8139,-2.39415 -0.1035,-0.704 -0.2777,-2.432 -0.387,-3.84 -0.1743,-2.24447 -0.1217,-2.65469 0.4269,-3.32824 1.3973,-1.71568 3.0193,0.0626 4.3984,4.82221 0.4403,1.51976 0.6811,1.86821 1.4847,2.14833 0.9469,0.3301 0.9528,0.34649 0.4648,1.29013 -0.6501,1.25715 -0.6314,1.62549 0.2807,5.5192 1.4424,6.15767 1.4648,7.95766 0.099,7.93819 -0.3927,-0.006 -0.9358,-0.1856 -1.207,-0.4 z m 5.0531,-6.62308 c -1.4595,-1.70504 -2.4496,-4.35014 -2.6892,-7.18395 -0.1597,-1.88939 -0.1019,-2.3518 0.3393,-2.718 0.4387,-0.36407 0.6663,-0.36922 1.3012,-0.0294 0.7069,0.37833 0.8587,0.3172 1.8668,-0.75176 1.9654,-2.0839 2.4297,-1.48184 1.3363,1.73286 -0.9634,2.8323 -0.9747,3.30876 -0.1375,5.7938 1.3353,3.96368 0.1978,5.74387 -2.0169,3.1565 z m 8.8699,-2.23085 c -0.9227,-0.37405 -2.9169,-2.66382 -3.561,-4.08876 -0.7925,-1.75315 -0.7938,-7.00261 0,-8.21093 0.4288,-0.6545 0.7878,-0.84983 1.4251,-0.77552 0.7764,0.0905 0.9117,0.32654 1.5239,2.65932 1.0048,3.82803 1.8026,6.23837 2.1324,6.44221 0.624,0.38565 0.6084,-0.22722 -0.051,-1.98897 -1.4126,-3.77542 -1.1322,-8.7271 0.5186,-9.15879 1.6419,-0.42937 2.5359,0.69678 3.5992,4.53406 1.3184,4.75742 1.1599,8.33149 -0.3693,8.33149 -0.3653,0 -1.1961,0.576 -1.846,1.28 -1.1973,1.29689 -2.0028,1.53016 -3.3701,0.97589 z m 13.6101,-4.72188 c -1.5584,-0.56969 -2.8748,-2.72827 -4.3017,-7.05401 -0.8043,-2.4383 -0.9368,-2.64 -1.7334,-2.64 -2.2664,0 -2.9757,-1.97685 -1.3216,-3.68345 0.9351,-0.96473 0.9539,-1.04399 0.64,-2.69891 -0.4589,-2.41991 -0.4076,-5.86014 0.098,-6.55128 0.9035,-1.23555 1.5961,-0.50031 3.124,3.31597 1.4891,3.7194 1.6981,3.99716 3.2549,4.32471 1.0966,0.23073 1.1003,0.50206 0.024,1.78108 l -0.856,1.01724 0.5729,2.28732 c 0.3151,1.25802 0.8803,3.15132 1.2559,4.20732 0.5843,1.64217 0.8082,1.93444 1.5478,2.01978 0.9785,0.11291 1.346,0.86814 1.0317,2.12047 -0.3511,1.39865 -1.8505,2.09693 -3.3364,1.55376 z m 5.5301,-5.29401 c -0.8519,-0.92726 -2.784,-4.79961 -3.7622,-7.53999 -2.1475,-6.01607 -2.2708,-11.87481 -0.2561,-12.16119 0.9449,-0.13432 1.563,0.92076 2.9382,5.01561 0.5995,1.78506 1.1944,3.24557 1.322,3.24557 0.1276,0 0.6164,-0.504 1.0863,-1.12 0.6734,-0.88287 1.0788,-1.12 1.9148,-1.12 1.4248,0 2.44,0.86897 3.6209,3.09961 2.327,4.3953 2.7219,9.38039 0.7432,9.38039 -0.9473,0 -2.0538,-1.598 -3.4066,-4.91986 -0.6878,-1.68916 -1.4122,-3.07321 -1.6096,-3.07567 -0.1975,-0.003 -0.5656,0.73787 -0.818,1.64518 -0.4004,1.43933 -0.3985,2.00329 0.015,4.4234 0.2607,1.52555 0.3813,3.01521 0.268,3.31034 -0.2896,0.75477 -1.2747,0.66689 -2.0559,-0.18339 z m -130.7301,-10.3386 c -1.411,-1.45843 4.1972,-4.72377 14.96,-8.71027 9.8637,-3.65351 24.0568,-7.98229 24.5512,-7.48793 1.2642,1.26422 -20.7036,11.6017 -31.9112,15.01659 -3.5442,1.07989 -7.1553,1.64132 -7.6,1.18161 z m -9.2169,-12.33287 c -0.3154,-0.58937 -0.1838,-0.83491 1.0763,-2.00837 1.6005,-1.49046 6.781,-4.54051 12.4034,-7.30255 4.8732,-2.394 11.1715,-4.99767 24.6172,-10.17653 6.072,-2.33875 18.456,-7.34304 27.52,-11.12064 34.4303,-14.34954 51.7012,-21.07964 55.36,-21.57264 2.7182,-0.36627 -1.3083,3.09171 -8.0643,6.92573 -3.9976,2.26862 -26.2661,12.94213 -37.0557,17.76112 -13.3706,5.97175 -31.3781,13.05017 -50.24,19.74843 -6.6684,2.36808 -24.6145,8.41692 -24.9718,8.41692 -0.1572,0 -0.4474,-0.30216 -0.6451,-0.67147 z m -4.4631,-15.45517 c 0,-0.53588 2.1137,-1.91585 5.6,-3.65598 4.8365,-2.41415 11.2513,-4.94094 28.32,-11.15534 14.6229,-5.32395 21.5185,-8.12469 43.3464,-17.60568 20.7274,-9.003 24.9822,-10.77965 33.166,-13.84896 5.1966,-1.94896 6.0476,-2.17683 6.0476,-1.61932 0,0.63774 -8.7586,6.0538 -15.68,9.69612 -8.5598,4.50448 -30.2107,14.53997 -41.6496,19.30516 -12.1181,5.04816 -19.33,7.51827 -41.5504,14.23131 -7.656,2.31296 -14.568,4.40496 -15.36,4.64889 -1.82,0.56055 -2.24,0.56126 -2.24,0.004 z m -14.2137,-11.17451 c -0.9772,-0.71453 -0.4802,-1.59463 1.4137,-2.50337 0.968,-0.46448 6.224,-2.38807 11.68,-4.27464 22.554,-7.79872 37.5158,-13.42567 58.72,-22.08392 15.7292,-6.42268 41.2247,-16.36159 44.96,-17.52677 5.9334,-1.85087 7.6102,-1.87231 6.4373,-0.0823 -0.8119,1.23912 -3.1988,2.87371 -6.7573,4.62747 -4.0565,1.99917 -48.6195,20.55346 -59.04,24.58198 -13.8828,5.36695 -34.3265,11.94062 -47.68,15.33143 -3.784,0.96086 -6.928,1.88298 -6.9867,2.04915 -0.1585,0.44901 -2.0843,0.36557 -2.747,-0.11903 z m -6.8263,-14.83078 c -0.7332,-0.29582 -0.4288,-1.62699 0.5628,-2.46132 0.5295,-0.44559 3.2295,-1.9546 6,-3.35337 10.3116,-5.20624 24.6754,-10.14471 37.2608,-12.81079 4.1904,-0.88769 4.7364,-0.92251 4.7364,-0.3021 0,0.74216 -28.0059,13.39427 -36.4665,16.47434 -5.7184,2.08178 -10.5734,3.06664 -12.0935,2.45324 z m -21.8176,-52.93934 c -0.6828,-0.27283 -0.7205,-0.36783 -0.309,-0.77933 0.6354,-0.63534 7.376,-2.98358 14.2115,-4.95081 3.0904,-0.88944 9.2777,-2.76 13.7494,-4.15681 7.8248,-2.44422 19.4971,-5.76178 20.2719,-5.76178 2.1216,0 -4.6285,3.59577 -13.5063,7.19472 -9.3931,3.80784 -20.5079,7.40176 -25.7,8.30996 -3.1361,0.54857 -7.5237,0.62107 -8.7175,0.14405 z m -8.9824,-8.70679 c -0.8766,-0.29891 -1.12,-0.55458 -1.12,-1.17606 0,-0.74887 0.1458,-0.81492 2.56,-1.15936 4.941,-0.70498 12.6449,-3.041752 33.44,-10.143096 14.2727,-4.874022 23.002,-7.750131 37.6,-12.388394 6.16,-1.957235 16.456,-5.267904 22.88,-7.357043 14.8483,-4.828809 17.9221,-5.746848 25.7508,-7.69095 6.7833,-1.684493 7.6494,-1.822147 7.4687,-1.187037 -0.1727,0.607363 -8.6877,4.778614 -14.1407,6.927146 -11.1966,4.411571 -43.9371,15.924902 -59.0788,20.775324 -25.8067,8.26674 -39.5071,12.06481 -48.0411,13.31807 -3.9895,0.58587 -5.7812,0.6058 -7.3189,0.0814 z m -5.6568,-10.023233 c -1.5762,-0.355459 -1.8489,-2.217373 -0.4232,-2.890374 0.44,-0.207712 2.96,-0.689027 5.6,-1.069584 8.7949,-1.267792 14.0616,-2.894154 41.76,-12.895424 18.897,-6.823309 26.3865,-9.597271 38.9516,-14.426871 23.0617,-8.864128 27.5165,-10.412329 33.6884,-11.70816 5.6379,-1.183715 5.9143,-0.730406 1.04,1.705354 -3.6981,1.847939 -8.6374,3.96552 -34.48,14.782067 -21.1263,8.842525 -29.4968,12.185712 -39.0721,15.605431 -13.232,4.725686 -27.6515,8.916121 -35.4879,10.313078 -2.867,0.511088 -10.2495,0.883811 -11.5768,0.584483 z m -6.3778,-10.813494 c -0.1157,-0.301527 -0.083,-0.673027 0.072,-0.825555 0.1553,-0.152525 3.0905,-0.998797 6.5225,-1.880599 8.4923,-2.181984 14.2354,-4.010374 46.88,-14.924973 35.8479,-11.985609 53.2616,-17.53974 65.7512,-20.97152 4.4563,-1.224435 6.9808,-1.778524 7.1828,-1.576489 0.4697,0.46967 -0.3849,1.008253 -6.054,3.815437 -6.1726,3.05648 -6.0306,3.003555 -33.28,12.402694 -45.3617,15.646621 -59.2702,19.964144 -74.56,23.145152 -6.0525,1.259194 -12.191,1.659373 -12.5146,0.815853 z M 937.87003,262.77097 c -9.024,-5.50196 -19.02353,-15.10501 -25.21057,-24.21097 -9.24457,-13.60598 -14.21664,-27.91956 -16.21049,-46.66676 -0.88871,-8.35619 -0.34227,-19.48629 1.31971,-26.88126 0.70042,-3.11646 2.26496,-7.87784 3.41235,-10.38476 0.54048,-1.18097 1.30605,-3.08322 1.70119,-4.22722 0.69078,-1.99979 0.75958,-2.08 1.78416,-2.08 0.91728,0 1.28102,0.26733 2.61244,1.92 0.85076,1.056 1.70461,1.92 1.89751,1.92 0.19289,0 0.55325,-0.792 0.80077,-1.76 0.72464,-2.83372 1.73459,-4.67368 5.30512,-9.6651 5.05657,-7.06886 6.78976,-11.89946 6.75069,-18.8149 -0.0195,-3.42691 -0.12532,-4.03212 -1.54052,-8.8 -0.83584,-2.816 -1.54054,-5.552 -1.56601,-6.08 -0.0441,-0.91296 0.0221,-0.96491 1.34924,-1.06014 1.99405,-0.14308 4.43757,1.1555 7.31188,3.88581 2.42448,2.30303 5.3255,6.30155 6.50269,8.96271 0.36288,0.82039 0.76873,1.49162 0.90185,1.49162 0.13312,0 0.57635,-1.044 0.98499,-2.32 0.95917,-2.99512 1.84644,-4.73723 4.58535,-9.00295 2.24797,-3.50115 3.43766,-6.18077 3.43766,-7.74291 0,-0.46301 -0.81664,-3.238607 -1.81472,-6.16799 -1.71216,-5.025123 -1.81616,-5.507011 -1.84,-8.52615 -0.0214,-2.694342 0.0506,-3.180368 0.45472,-3.075766 0.264,0.06833 1.15792,0.238684 1.98647,0.378576 2.0056,0.338611 4.09267,1.60582 6.70764,4.072652 3.93946,3.716301 7.26522,8.573133 8.54189,12.474378 0.41581,1.27059 0.8769,2.31016 1.02467,2.31016 0.46506,0 2.59495,-3.930278 2.76986,-5.111181 0.18685,-1.261638 0.8632,-1.980211 1.59834,-1.698118 0.64121,0.246064 4.84633,5.913029 6.54157,8.815629 2.299,3.93649 4.14067,8.79662 5.21164,13.75367 0.10455,0.484 0.32464,0.88 0.48906,0.88 0.77306,0 3.90035,-9.0708 4.6255,-13.41639 0.64436,-3.8613 0.64586,-9.506189 0.003,-12.613005 -0.7152,-3.458416 0.0317,-4.497171 2.35594,-3.276979 1.76214,0.925068 4.74717,4.793801 6.74848,8.746374 0.37875,0.748 0.80198,1.36 0.94058,1.36 0.50688,0 6.76745,-13.284675 7.23856,-15.36 0.25971,-1.144 0.76588,-4.483277 1.12489,-7.420614 0.71219,-5.827652 0.95527,-6.78186 1.81127,-7.11032 0.9702,-0.372301 2.0678,0.785395 5.3061,5.596614 9.3069,13.82712 12.7906,22.220022 14.0526,33.85527 0.4543,4.1893 0.075,7.75836 -1.1987,11.29056 -0.4454,1.23475 -0.739,2.31579 -0.6525,2.40231 0.3081,0.30812 1.7622,-0.90587 2.5982,-2.16917 0.6879,-1.03946 1.0112,-1.26484 1.6985,-1.18422 1.6663,0.19544 3.4108,3.3232 4.9638,8.89957 0.5571,2.00055 0.672,3.34536 0.6903,8.08003 0.012,3.12401 0.056,5.68001 0.099,5.68 0.042,-2e-5 0.8717,-0.72003 1.8434,-1.60003 1.0757,-0.97416 2.0638,-1.6 2.5262,-1.6 1.3501,0 3.749,3.13277 7.7187,10.08 6.8734,12.02904 8.8394,19.68685 8.8727,34.56 0.021,9.40606 -1.1192,16.68302 -3.9614,25.28 -2.0763,6.28049 -5.0895,12.8 -5.9159,12.8 -0.7426,0 -0.7556,0.13751 0.6518,-6.88 1.606,-8.00767 1.7923,-9.76515 2.0014,-18.88 0.3344,-14.57527 -1.0276,-28.47277 -3.913,-39.92768 -1.1913,-4.72986 -5.3333,-14.63232 -6.1203,-14.63232 -0.1976,0 -0.9612,0.756 -1.6969,1.68 -1.3956,1.75288 -1.7812,1.92314 -2.9675,1.31026 -0.3936,-0.20335 -0.9317,-0.46933 -1.1957,-0.59106 -1.1086,-0.51122 -2.012,-4.2646 -3.6965,-15.3592 -0.3074,-2.024 -0.6848,-4.02258 -0.8389,-4.44129 -0.2746,-0.74619 -0.3181,-0.72505 -2.1954,1.06563 -1.9702,1.87921 -2.4151,2.02189 -3.0063,0.96399 -0.1886,-0.33747 -0.5202,-0.7609 -0.737,-0.94096 -0.2168,-0.18005 -0.6006,-1.76737 -0.853,-3.52737 -1.0336,-7.20902 -3.132,-18.72722 -4.0741,-22.362426 -1.3172,-5.082393 -4.6553,-13.841308 -8.7952,-23.077574 l -0.5737,-1.28 -0.2184,5.6 c -0.2414,6.192403 -0.8618,9.013421 -2.99981,13.640838 C 995.98683,98.810256 991.92961,104 990.58366,104 c -0.78762,0 -2.32394,-1.53551 -4.66093,-4.658416 C 984.67908,97.679712 983.54161,96.32 983.39505,96.32 c -0.14659,0 -0.34563,2.412 -0.44237,5.36 -0.26556,8.09407 -1.62668,14.26667 -4.45574,20.20656 -2.10998,4.43019 -5.27786,6.97509 -6.63974,5.33409 -0.2097,-0.25264 -0.65802,-2.37274 -0.99629,-4.71133 -0.71725,-4.95833 -1.55405,-8.36834 -2.88544,-11.75819 -1.21344,-3.08964 -4.52192,-9.47113 -4.91024,-9.47113 -0.16215,0 -0.69431,0.97476 -1.1826,2.16614 -1.08281,2.64205 -2.10982,4.14021 -2.74953,4.0108 -0.26355,-0.0533 -0.72855,-0.75498 -1.03331,-1.55924 -0.79095,-2.08738 -2.95236,-5.29428 -6.67088,-9.8977 -4.13866,-5.123459 -6.66183,-7.896429 -6.94042,-7.627485 -0.12109,0.116883 0.35622,1.988883 1.0607,4.16 2.72896,8.410575 2.35664,11.618915 -2.11484,18.223505 -2.7696,4.09081 -4.09508,7.38629 -5.36781,13.34562 -0.59523,2.7871 -1.39879,4.21836 -2.36835,4.21836 -0.37591,0 -1.028,-0.7818 -1.88096,-2.25506 -1.71799,-2.9674 -7.11888,-10.75054 -8.55952,-12.33502 -1.3392,-1.47292 -1.33975,-1.41755 -0.0327,3.33199 1.16743,4.24223 1.33971,6.67808 0.72403,10.23666 -0.9734,5.62608 -2.91916,9.57071 -7.65555,15.52008 -4.30662,5.40953 -5.69002,8.71225 -5.79072,13.82495 -0.0761,3.8627 -0.44758,4.11339 -3.04867,2.05735 -1.43719,-1.13602 -3.07459,-3.07465 -4.85907,-5.75296 -0.28877,-0.43339 -0.61738,-0.69937 -0.73028,-0.59105 -0.39107,0.37525 -1.48185,4.62253 -2.25849,8.79409 -1.15447,6.20113 -1.52442,12.66074 -1.12762,19.68894 1.39376,24.68507 6.87341,41.48264 18.74224,57.4532 4.76474,6.4114 9.08125,10.99486 18.00612,19.11977 5.08246,4.62691 6.1534,5.9514 5.47398,6.77005 -0.66566,0.80205 -1.69117,0.5023 -4.83094,-1.41202 z m 23.41001,-9.35965 c -18.99632,-2.44323 -34.47488,-13.36214 -41.3223,-29.14964 -2.9713,-6.85071 -4.12932,-12.63526 -4.35338,-21.74633 -0.3111,-12.65157 1.48051,-25.00319 4.87069,-33.57877 4.70605,-11.90423 14.77952,-22.73039 26.56499,-28.54998 4.12349,-2.03615 12.3168,-5.29012 15.1352,-6.01095 3.08621,-0.78932 7.91239,-0.8468 8.96887,-0.10682 1.12233,0.78612 0.35977,1.41117 -1.72163,1.41117 -1.91901,0 -7.51668,1.36993 -11.82244,2.89334 -10.34208,3.65911 -18.79635,9.8031 -25.24665,18.34752 -0.64807,0.85847 -1.12343,1.61572 -1.05636,1.68279 0.067,0.0671 1.62068,-0.57966 3.45248,-1.43716 4.12352,-1.93032 7.23472,-3.06273 11.17053,-4.06585 3.72215,-0.94866 5.77303,-1.01023 6.5104,-0.19544 1.11626,1.23345 0.50327,2.54115 -2.64672,5.64622 -1.24502,1.22728 -2.26368,2.35849 -2.26368,2.5138 0,0.15532 0.36,0.71023 0.8,1.23314 0.98618,1.17201 1.03751,2.74728 0.15296,4.69658 -0.81465,1.79538 -0.79766,2.15695 0.15475,3.2888 0.78951,0.93829 1.45328,2.75758 1.44349,3.95626 -0.0173,2.10938 -2.41257,4.77407 -5.05648,5.62523 -1.77696,0.57206 -1.94134,0.78878 -1.62653,2.14422 0.40157,1.72889 0.34397,4.26884 -0.11753,5.18088 -0.49507,0.97839 -1.45197,1.45874 -3.85834,1.93687 -1.81376,0.36037 -5.47821,2.53284 -8.08739,4.79458 -1.46458,1.26958 -3.89834,4.2614 -4.27728,5.25808 -0.55674,1.46434 0.836,8.3394 1.94182,9.5855 0.14244,0.1605 1.34653,-0.28112 2.75188,-1.00928 2.60169,-1.34803 15.68275,-5.68214 20.0416,-6.64032 2.98524,-0.65623 4.71353,-0.46322 6.23356,0.69617 1.97959,1.50988 2.30096,2.40353 2.30231,6.4019 0,1.9656 0.0886,3.8016 0.19542,4.08 0.10682,0.27839 0.55306,0.50617 0.99165,0.50617 1.4041,0 2.96035,0.98257 3.78502,2.38975 0.98935,1.68818 0.98541,2.20298 -0.0373,4.88391 -0.90486,2.3719 -1.25325,3.09873 -3.88918,8.11336 -1.30324,2.47931 -1.728,3.59417 -1.58493,4.16 0.10749,0.42514 1.28192,2.64498 2.60982,4.93298 1.72448,2.97128 2.93965,4.65173 4.25255,5.88086 l 1.83817,1.72087 4.48,-0.17162 c 5.29152,-0.20271 8.53319,-0.78931 13.78986,-2.49535 11.68134,-3.79113 22.27376,-12.20894 29.16176,-23.17476 1.1293,-1.7978 3.7683,-7.25589 4.1002,-8.48 0.1909,-0.70449 0.1614,-0.74269 -0.2476,-0.32 -1.9591,2.02479 -8.362,9.47762 -8.9855,10.45911 -1.1863,1.86709 -2.0339,2.48635 -3.403,2.48635 -3.081,0 -9.77594,-6.4669 -16.81232,-16.23971 -2.12928,-2.95735 -2.74247,-3.60428 -3.49901,-3.69149 -1.30791,-0.15076 -3.40211,0.73506 -5.65005,2.38989 -3.15491,2.32252 -4.05885,2.44599 -5.85568,0.7999 -2.4279,-2.2242 -4.49072,-10.45687 -4.50112,-17.96405 -0.005,-3.44077 0.0922,-4.21347 0.6935,-5.52685 1.63389,-3.56877 4.15546,-6.00507 9.68896,-9.36133 3.71712,-2.25457 4.76628,-2.708 7.03239,-3.03935 0.97219,-0.14215 2.30761,-0.48854 2.96761,-0.76976 1.14532,-0.488 1.2001,-0.58036 1.2018,-2.027 0.004,-3.65816 0.98809,-4.95433 3.94348,-5.19571 1.68813,-0.13787 2.01479,-0.27063 2.36218,-0.96 0.59392,-1.17867 0.55501,-7.1634 -0.0499,-7.66538 -0.86633,-0.71902 -1.8958,-0.24083 -2.8976,1.34596 -1.20707,1.9119 -3.09049,2.93901 -4.80089,2.61814 -0.63952,-0.11997 -1.88506,-0.71501 -2.76791,-1.3223 -0.88284,-0.6073 -1.79721,-1.03049 -2.0319,-0.94044 -0.23466,0.0901 -0.66515,1.2888 -0.95664,2.66388 -0.91069,4.29627 -1.42195,5.02542 -3.48278,4.96682 -0.74557,-0.0212 -1.55396,-0.62734 -3.79648,-2.8468 -2.85943,-2.82997 -3.75917,-4.05343 -3.76829,-5.12399 -0.0109,-1.2816 -0.47075,-1.51114 -1.88979,-0.94335 -3.89975,1.56037 -5.52688,-0.74201 -3.86532,-5.46944 0.96592,-2.74822 0.97821,-2.72821 -1.52,-2.47579 -1.188,0.12004 -3.744,0.49301 -5.68,0.82882 -10.29286,1.78537 -15.54317,2.30305 -15.992,1.57683 -0.3304,-0.53459 2.06698,-2.84875 4.94659,-4.77488 6.17005,-4.12709 16.41773,-6.51108 25.75757,-5.99217 16.5857,0.92148 30.0566,6.36447 39.6878,16.03605 4.3514,4.36961 7.2229,8.35385 9.9156,13.75804 3.7302,7.4866 5.1818,13.1469 5.4984,21.44171 0.5729,15.0045 -4.08,29.22684 -13.3325,40.75354 -2.7614,3.44021 -8.112,8.76155 -11.0415,10.9812 -8.76469,6.64098 -18.5526,10.72913 -29.36949,12.26689 -3.54291,0.50366 -12.74532,0.57623 -16.23047,0.12798 z m 59.99986,-46.37079 c 0.6662,-2.00568 0.5253,-3.17637 -0.2119,-1.76053 -0.5522,1.06072 -1.0016,3.77564 -0.582,3.51631 0.1458,-0.0901 0.503,-0.88021 0.7939,-1.75578 z M 898.5842,137.21355 c -0.89222,-1.06531 -2.62912,-3.88045 -3.62966,-5.88293 -2.87981,-5.7637 -3.71677,-11.33218 -2.66493,-17.73062 0.57955,-3.52546 1.52672,-5.98751 3.10726,-8.07695 1.06819,-1.41215 1.24263,-1.85045 1.08365,-2.72305 -0.26803,-1.47121 0.5649,-1.38081 1.59309,0.1729 0.93958,1.41981 4.032,10.60621 4.81616,14.3071 1.54083,7.27186 0.6032,17.02266 -1.85299,19.27052 -0.97213,0.88966 -2.02448,1.17415 -2.45258,0.66303 z M 899.85018,126.4 c 0.80551,-6.38358 0.7266,-10.00807 -0.29638,-13.61406 -0.93222,-3.28605 -1.29514,-4.13284 -1.62774,-3.79805 -0.65728,0.66161 -1.36775,8.54579 -1.17978,13.09211 0.22826,5.51968 1.36419,10.9983 2.11741,10.21211 0.15392,-0.16066 0.59782,-2.81211 0.98649,-5.89211 z m 126.49512,-14.8 c -0.52,-0.70949 -1.3336,-3.55105 -1.5348,-5.36 -0.1076,-0.968 -0.043,-3.128 0.1445,-4.8 0.6645,-5.939728 2.4039,-10.425747 5.045,-13.011456 0.748,-0.732304 1.36,-1.632304 1.36,-2 0,-0.367699 0.191,-0.668544 0.4243,-0.668544 1.6348,0 3.4598,4.971786 3.5239,9.6 0.053,3.807661 -0.6603,6.85051 -2.5146,10.73189 -2.0459,4.28249 -5.3058,7.06706 -6.4483,5.50811 z m 3.166,-7.62059 c 1.8686,-3.73222 3.1157,-6.863058 3.4627,-8.693058 0.3373,-1.778387 -0.027,-4.475485 -0.8071,-5.980355 l -0.4013,-0.774007 -0.4987,0.774007 c -1.2893,2.001062 -3.2821,9.979427 -3.633,14.544803 -0.2702,3.5144 0.1673,3.54437 1.8774,0.12861 z"
         id="path2374" />
    </g>
  </g>
</svg>
