<?xml version="1.0" encoding="UTF-8" standalone="no"?>
<svg
   xmlns:dc="http://purl.org/dc/elements/1.1/"
   xmlns:cc="http://creativecommons.org/ns#"
   xmlns:rdf="http://www.w3.org/1999/02/22-rdf-syntax-ns#"
   xmlns:svg="http://www.w3.org/2000/svg"
   xmlns="http://www.w3.org/2000/svg"
   id="svg2981"
   version="1.1"
   viewBox="0 0 174.63783 110.05112"
   height="110.05112mm"
   width="174.63783mm">
  <defs
     id="defs2975" />
  <metadata
     id="metadata2978">
    <rdf:RDF>
      <cc:Work
         rdf:about="">
        <dc:format>image/svg+xml</dc:format>
        <dc:type
           rdf:resource="http://purl.org/dc/dcmitype/StillImage" />
        <dc:title></dc:title>
      </cc:Work>
    </rdf:RDF>
  </metadata>
  <g
     transform="translate(670.158,143.5613)"
     id="layer1">
    <path
       id="path827-3"
       d="m -604.31967,-33.559556 c -0.12779,-0.13105 -0.0582,-0.37513 0.14486,-0.50819 0.11462,-0.0751 0.23334,-0.21884 0.26385,-0.31946 0.13247,-0.43696 0.44608,-0.71861 0.90331,-0.81118 1.12406,-0.2276 8.55911,-0.99939 12.67915,-1.31615 7.05348,-0.54226 10.98151,-0.72191 15.748,-0.72025 2.8062,0 3.61738,-0.0254 4.46617,-0.14586 0.59174,-0.0839 1.03717,-0.18613 1.03717,-0.23805 0,-0.0845 -0.86508,-1.38832 -2.23454,-3.3678 -0.31518,-0.45561 -0.72208,-1.15094 -0.90422,-1.54516 -0.18703,-0.40484 -0.38322,-0.71681 -0.45079,-0.71681 -0.0658,0 -0.6281,0.0556 -1.24955,0.12361 -0.62146,0.068 -1.81571,0.18375 -2.65391,0.25725 -1.31093,0.11497 -1.54365,0.15685 -1.66457,0.29972 -0.17732,0.2095 -0.28636,0.20887 -0.55599,-0.003 -0.11841,-0.0931 -0.28409,-0.16933 -0.3682,-0.16933 -0.21034,0 -0.2727,-0.1314 -0.15317,-0.3228 0.0842,-0.13493 0.0306,-0.3021 -0.33895,-1.054942 -0.67736,-1.38012 -0.87977,-2.260204 -0.90985,-3.956262 -0.0138,-0.76835 -0.0262,-1.421845 -0.0279,-1.452192 -0.009,-0.154464 -2.87745,-0.942261 -3.11375,-0.855081 -0.0578,0.02143 -0.24342,0.266595 -0.41259,0.545068 -0.38875,0.639948 -1.38817,1.857084 -1.6841,2.050998 -0.12375,0.08107 -0.27906,0.126656 -0.34515,0.101309 -0.19336,-0.07422 -0.14875,-1.023435 0.0915,-1.948233 0.24836,-0.95594 0.25059,-0.981869 0.0842,-0.981869 -0.0701,0 -0.45791,0.446511 -0.8617,0.99224 -0.4038,0.54573 -0.95993,1.222005 -1.23584,1.502834 -0.42809,0.435742 -0.50419,0.560228 -0.51914,0.849259 -0.01,0.186267 -0.19396,0.891117 -0.40965,1.566334 -0.47977,1.502171 -0.54912,1.844092 -0.38672,1.906402 0.0653,0.02513 0.5324,-0.109882 1.0381,-0.299826 0.50569,-0.189944 1.01594,-0.333851 1.13392,-0.319802 0.16111,0.01905 0.26535,0.127794 0.41865,0.436033 0.18344,0.368883 0.22688,0.405421 0.42884,0.360363 0.83206,-0.185632 0.97176,-0.169333 1.6555,0.192907 0.40708,0.21569 0.77036,0.34859 0.95281,0.34859 0.16219,0 0.73999,-0.15161 1.28397,-0.33689 1.36991,-0.466597 2.43647,-0.695436 2.55813,-0.548856 0.2422,0.291835 -0.68575,1.349876 -1.57949,1.800936 -1.48047,0.74719 -2.81508,0.68435 -3.67233,-0.1729 l -0.35087,-0.35087 -0.39618,0.11581 c -0.21789,0.0637 -0.59008,0.13118 -0.82712,0.14999 -0.39245,0.0312 -0.45482,0.0103 -0.69852,-0.23338 -0.17061,-0.17061 -0.28687,-0.38802 -0.32073,-0.59974 -0.0325,-0.20293 -0.0992,-0.332101 -0.17164,-0.332101 -0.0945,0 -0.10797,0.107181 -0.0664,0.529171 0.043,0.43643 0.0122,0.65529 -0.17555,1.24883 -0.68519,2.16514 -1.9041,3.19294 -2.6548,2.23856 -0.40193,-0.51096 -0.13094,-1.53271 0.75094,-2.83133 l 0.34607,-0.50959 -0.22063,-0.18979 c -0.15103,-0.12991 -0.2363,-0.30649 -0.27025,-0.559696 l -0.0496,-0.369914 -1.19398,0.0698 c -0.6567,0.03839 -1.34001,0.06268 -1.51845,0.05398 -0.41484,-0.02011 -0.58036,0.07183 -1.69521,0.94287 -1.16694,0.91176 -3.02001,2.55937 -5.59189,4.97192 -2.41649,2.26682 -2.85456,2.64194 -2.96092,2.53561 -0.13031,-0.13034 0.7335,-1.10239 2.71213,-3.05195 2.66341,-2.62429 3.81778,-3.62891 5.34292,-4.64965 0.43151,-0.28882 0.76258,-0.560681 0.73573,-0.604152 -0.0269,-0.04347 -0.18944,-0.05919 -0.36124,-0.03493 -0.55147,0.07787 -4.62674,0.369222 -7.63606,0.545962 -1.60655,0.0944 -3.0353,0.18958 -3.175,0.21164 -0.1397,0.022 -0.73025,0.0567 -1.31233,0.077 -0.58208,0.0204 -2.42993,0.11615 -4.10633,0.21307 -4.2285,0.24439 -6.82692,0.34737 -8.77541,0.34769 h -1.66341 l -0.32626,0.65471 c -0.27136,0.54454 -0.42323,0.73221 -0.90247,1.11514 l -0.57618,0.46043 0.0682,0.89569 c 0.0903,1.186 0.0711,2.33918 -0.0461,2.76286 -0.12743,0.4608 -0.57333,0.96277 -1.1253,1.26682 -0.37963,0.2091 -0.55047,0.25014 -1.04638,0.25131 -0.78575,0.003 -1.37993,-0.21876 -1.44076,-0.53486 -0.0238,-0.12417 -0.1007,-0.46318 -0.17068,-0.75335 -0.07,-0.29014 -0.1515,-1.05214 -0.18116,-1.69333 l -0.0539,-1.16576 -0.64307,-0.30898 c -0.48077,-0.23098 -0.79264,-0.32064 -1.23574,-0.35528 -0.95382,-0.0745 -2.41112,-0.6463 -3.58259,-1.40557 -0.294,-0.19055 -0.57023,-0.32443 -0.61383,-0.2975 -0.0436,0.0269 -0.0792,0.15931 -0.0792,0.29414 0,0.22188 -0.0604,0.27379 -0.63616,0.54703 -0.91999,0.43656 -1.41854,0.62735 -2.3449,0.8973 -1.86796,0.54438 -3.0403,0.69255 -5.48561,0.69326 -2.82654,0 -4.71276,-0.18359 -8.04333,-0.78647 -2.20168,-0.39854 -5.10048,-1.02126 -5.34919,-1.14911 -0.30477,-0.15671 -0.36782,-0.39831 -0.18481,-0.70811 0.11591,-0.19626 0.13081,-0.30567 0.0664,-0.48786 l -0.083,-0.23485 -0.92885,0.0153 c -0.51088,0.008 -2.28139,0.11271 -3.93451,0.23167 -6.35706,0.45744 -9.56733,0.59116 -9.7523,0.40619 -0.1605,-0.1605 0.003,-0.254 0.60828,-0.34928 0.7685,-0.12083 4.04312,-0.39415 7.15436,-0.59711 4.63698,-0.30252 6.24334,-0.43146 6.39651,-0.51342 0.14144,-0.0757 0.13822,-0.12132 -0.058,-0.822114 -0.27922,-0.997083 -0.67765,-2.868057 -0.8377,-3.93372 -0.55512,-3.695832 -0.6133,-8.25246 -0.16039,-12.556252 0.3361,-3.193679 1.04275,-7.257785 1.69519,-9.749604 0.46177,-1.763554 0.45881,-1.582023 0.0246,-1.51429 -0.56582,0.08821 -0.60889,0.111522 -0.84892,0.459475 -0.66167,0.959168 -2.34323,0.88482 -2.82231,-0.124777 -0.0832,-0.175234 -0.1773,-0.539856 -0.20918,-0.81026 -0.0319,-0.270404 -0.0833,-0.516996 -0.11433,-0.548005 -0.031,-0.03101 -0.35242,0.114591 -0.71424,0.323506 -0.36181,0.208788 -0.74958,0.402887 -0.86169,0.431171 -0.30496,0.07691 -0.73885,-0.142214 -0.90048,-0.454793 -0.16081,-0.310938 -0.0975,-0.64344 0.2567,-1.347576 0.27389,-0.544591 0.6455,-1.609381 0.5919,-1.696111 -0.0249,-0.0404 -0.35663,0.07702 -0.73703,0.260985 -1.14006,0.551312 -1.96358,0.420449 -2.19397,-0.348615 -0.10507,-0.350679 -0.10245,-0.358643 0.50654,-1.539002 0.33668,-0.652595 0.59558,-1.203087 0.57534,-1.223327 -0.0204,-0.02037 -0.39315,0.06244 -0.82868,0.183779 -1.05674,0.294402 -2.05552,0.357717 -2.81567,0.178488 -0.70133,-0.165338 -1.35702,-0.506121 -1.58215,-0.822298 -0.0905,-0.12708 -0.29388,-0.273738 -0.45194,-0.325914 -0.30959,-0.102156 -0.44254,-0.294481 -0.27755,-0.401452 0.0562,-0.03641 0.50221,-0.146474 0.99116,-0.244555 0.48895,-0.09808 1.1557,-0.284533 1.48167,-0.414337 1.69023,-0.673021 3.33626,-2.282111 4.23005,-4.13512 0.78399,-1.625362 0.97398,-2.553812 1.03357,-5.051187 0.0522,-2.18522 -0.046,-3.653473 -0.56343,-8.424334 -0.46781,-4.313555 -0.53076,-5.179435 -0.52941,-7.281335 0.003,-2.05912 0.0935,-3.11586 0.40982,-4.699 0.83023,-4.15504 3.1307,-7.52036 6.29906,-9.21477 1.54483,-0.82617 3.93809,-1.43079 6.05264,-1.52911 l 1.09963,-0.0509 0.098,-0.94149 c 0.1066,-1.0245 0.20352,-1.30218 0.4544,-1.30218 0.24278,0 0.31895,0.21217 0.52191,1.45378 0.17675,1.08141 0.27102,1.38343 0.40582,1.30011 0.034,-0.0212 0.0855,-0.63976 0.11433,-1.37491 0.0288,-0.73514 0.091,-1.46658 0.13816,-1.62536 0.13375,-0.45042 0.40286,-0.68495 0.78592,-0.68495 0.56222,0 0.79455,0.39997 0.97018,1.67021 0.0768,0.55568 0.19634,0.33655 0.19634,-0.35999 0,-0.77936 0.16492,-1.16399 0.58447,-1.36308 0.27705,-0.13148 0.33195,-0.1324 0.66889,-0.0114 0.26419,0.095 0.37529,0.10469 0.3964,0.0346 0.0161,-0.0536 0.0512,-0.66898 0.0779,-1.36748 0.10607,-2.77484 0.53478,-4.74556 1.41195,-6.49065 0.41264,-0.82092 1.64759,-2.66512 2.48547,-3.71168 0.95189,-1.1889 2.42152,-2.72097 3.47009,-3.61746 4.18505,-3.57807 9.63425,-5.23116 13.78402,-4.18161 3.04411,0.76994 5.78017,3.00919 6.92645,5.66875 0.91557,2.12431 1.34221,4.79306 1.41325,8.84015 0.0243,1.38536 0.068,2.51749 0.0972,2.51585 0.0291,-0.003 0.14819,-0.0574 0.26461,-0.12401 0.36745,-0.21003 0.8043,-0.15902 1.13662,0.13277 0.64556,0.56679 1.22105,2.31949 1.40875,4.29037 0.167,1.7535 -0.26337,4.24495 -0.89985,5.2092 -0.27347,0.41428 -0.23723,0.47617 0.74382,1.26984 0.932,0.75401 1.71945,1.26939 2.66055,1.7413 0.98322,0.493 1.28746,0.95994 1.18565,1.81959 -0.0798,0.67403 -0.44323,1.29419 -1.19944,2.04693 -1.03536,1.03063 -2.04806,1.47547 -3.08499,1.35511 l -0.48582,-0.0564 -0.0573,0.81503 c -0.1069,1.52074 -0.42276,2.66549 -1.09265,3.96001 -0.49676,0.95997 -0.60712,1.07776 -1.09546,1.16936 -0.62357,0.11694 -0.81992,0.22495 -0.87217,0.47971 -0.17682,0.86223 -0.43876,1.77914 -0.69218,2.423031 -0.1619,0.411321 -0.28165,0.759751 -0.26612,0.774277 0.0156,0.01455 0.16817,0.08438 0.33917,0.155231 0.4359,0.180604 0.61288,0.469556 0.48244,0.787717 -0.0551,0.134329 -0.11183,0.632354 -0.12615,1.106673 -0.0432,1.432983 -0.38761,2.549578 -1.26714,4.108053 -0.67522,1.196446 -1.32276,2.021205 -2.4134,3.073929 -1.67523,1.617028 -3.69681,2.984394 -5.79199,3.917686 -2.71918,1.211262 -3.88684,1.917567 -4.85481,2.936584 -0.97775,1.029308 -2.09069,2.832338 -2.35339,3.812646 -0.15299,0.570812 -0.1446,0.699029 0.0498,0.76073 0.22976,0.07292 0.57364,0.825367 0.6777,1.482936 0.17256,1.090454 -0.014,6.771085 -0.23574,7.174521 -0.13838,0.251857 -0.44773,0.319194 -0.74952,0.163142 -0.32686,-0.169042 -1.87748,-1.781916 -2.57746,-2.680996 -0.68548,-0.880454 -1.4405,-2.009431 -1.9725,-2.949522 -1.42954,-2.526189 -3.60076,-7.417515 -3.94052,-8.877327 -0.12647,-0.543348 -0.003,-0.872834 0.37876,-1.000151 0.13917,-0.04657 0.30559,-0.118533 0.36988,-0.159967 0.29573,-0.19058 1.66264,-3.673316 2.17969,-5.553657 0.83508,-3.036835 0.87212,-5.478251 0.11811,-7.785629 -0.53292,-1.630737 -1.45679,-3.449397 -2.94886,-5.804747 -1.55535,-2.45523 -1.91098,-3.05628 -2.35442,-3.97933 -0.85656,-1.78285 -1.21772,-3.27176 -1.21772,-5.02013 0,-0.96586 0,-0.96845 -0.1905,-0.9085 -0.46908,0.14806 -0.664,0.142 -0.99586,-0.031 -0.42148,-0.21971 -0.49279,-0.22127 -0.71319,-0.0156 -0.28532,0.2662 -0.55803,0.28652 -0.97417,0.0726 -0.44802,-0.23032 -0.83603,-0.86206 -1.11982,-1.82316 -0.10843,-0.36727 -0.22691,-0.61384 -0.29493,-0.61384 -0.17455,0 -1.36088,1.16457 -1.76771,1.7353 -0.61275,0.85961 -1.15101,2.34889 -1.43841,3.9797 -0.18613,1.05633 -0.25918,4.72512 -0.13485,6.77334 0.22402,3.6912 0.65294,6.341981 2.00011,12.361331 1.09572,4.895877 1.34181,6.537749 1.34512,8.974667 0.003,1.856343 -0.0921,2.582624 -0.52676,4.042833 -0.27739,0.931942 -0.22942,1.012349 0.28527,0.478182 0.81831,-0.849233 3.45366,-3.018949 4.9507,-4.075959 1.16989,-0.826029 2.32484,-1.242748 2.62165,-0.945939 0.17016,0.170154 -0.007,0.355177 -0.91466,0.953162 -0.86529,0.570283 -2.8421,1.997551 -6.17117,4.45561 -1.25177,0.924242 -1.57633,1.206526 -1.72683,1.501801 -0.79531,1.560407 -2.19556,3.015403 -3.60553,3.746447 -0.24154,0.125254 -0.4786,0.27522 -0.52676,0.333269 -0.10673,0.128561 -0.24312,1.021318 -0.68998,4.5162 -1.0433,8.159512 -1.21155,10.417492 -1.21293,16.278727 0,3.26443 0.031,4.552474 0.14364,5.826046 0.14825,1.675844 0.36521,3.399157 0.43699,3.470937 0.0222,0.0222 0.31747,0 0.65627,-0.0519 1.77509,-0.26553 3.36005,-0.2083 7.77031,0.28065 2.49357,0.27643 4.43577,0.4354 7.83469,0.64127 1.85129,0.11213 4.55953,0.0786 4.69624,-0.0581 0.0642,-0.0641 0.0516,-0.38373 -0.0432,-1.09919 -0.0947,-0.71445 -0.12917,-1.589165 -0.11829,-2.998389 l 0.0154,-1.989667 -1.42989,-0.05445 c -2.13045,-0.08112 -4.3983,-0.310833 -7.82225,-0.792295 -1.14088,-0.160417 -2.30145,-0.302233 -2.57902,-0.315119 l -0.5047,-0.02355 -0.0518,0.296334 c -0.0285,0.162983 -0.17287,0.508952 -0.3208,0.768852 -0.14796,0.259874 -0.26898,0.557028 -0.26898,0.660348 0,0.296174 -0.24156,0.686937 -0.48091,0.777927 -0.63862,0.242809 -1.29958,-0.573987 -1.16178,-1.435708 0.0639,-0.399494 0.0752,-0.394573 -1.08254,-0.469821 -0.77407,-0.05027 -1.1148,-0.141234 -1.35978,-0.362955 -0.20537,-0.185843 -0.18703,-0.573326 0.037,-0.782003 0.22498,-0.209629 0.97785,-0.227303 2.10072,-0.04937 l 0.71966,0.114036 0.1905,-0.208042 c 0.18246,-0.199285 0.19053,-0.271251 0.19132,-1.706166 0,-1.933945 0.17151,-4.284583 0.54745,-7.551764 0.69773,-6.063377 1.07574,-8.831448 1.23164,-9.019328 0.28546,-0.343959 0.35666,-0.06816 0.41433,1.605121 l 0.0494,1.43346 0.23961,0.06387 c 0.21524,0.05736 0.30403,0.0042 0.87286,-0.523319 0.47763,-0.44286 0.69294,-0.587137 0.87617,-0.587137 0.30737,0 0.50903,0.198649 0.50903,0.501412 0,0.460798 -1.41309,2.058088 -1.91886,2.169001 -0.47482,0.10414 -0.70858,0.232727 -0.74436,0.409469 -0.0201,0.09888 -0.0968,0.922734 -0.17049,1.830784 -0.27684,3.408839 -0.61545,6.533039 -0.98526,9.090475 -0.14052,0.971762 -0.23762,1.813375 -0.21579,1.870287 0.0274,0.07152 0.4277,0.120253 1.2964,0.157877 1.23624,0.05355 3.71063,0.314166 6.12503,0.645107 0.67522,0.09258 1.95157,0.265721 2.83633,0.384836 1.48119,0.199364 3.66535,0.590206 3.74534,0.67019 0.0185,0.01852 0.80277,-0.357241 1.74257,-0.835237 1.08609,-0.552397 2.07899,-0.989674 2.72476,-1.200018 l 1.016,-0.330914 -0.006,-0.633148 c -0.003,-0.348218 -0.0288,-1.295876 -0.0563,-2.105924 l -0.0499,-1.472777 -0.49906,-0.0127 c -0.32665,-0.0085 -0.59965,-0.07141 -0.79036,-0.182404 -0.24606,-0.143219 -0.29528,-0.223017 -0.31679,-0.513635 -0.0327,-0.441193 0.24128,-0.78531 0.85487,-1.073812 0.95147,-0.447357 2.98691,-0.680958 4.85185,-0.556842 1.96969,0.131101 2.65229,0.531178 2.35948,1.382924 -0.20556,0.597879 -0.80069,1.009068 -1.73308,1.197346 l -0.46566,0.09403 0.0222,1.009067 c 0.0359,1.630389 0.20658,3.795078 0.30763,3.901652 0.071,0.0749 0.21947,0.06731 0.61732,-0.03159 0.71448,-0.177562 1.0472,-0.102685 1.40594,0.316442 0.52404,0.612219 0.60093,1.195731 0.25821,1.959424 l -0.22503,0.501412 0.18003,0.320278 c 0.59248,1.054206 0.47614,2.082906 -0.28909,2.555822 -0.3016,0.186431 -0.3838,0.470991 -0.16076,0.556581 0.0697,0.0267 0.95557,-0.0507 1.9685,-0.17203 1.01293,-0.12139 3.02279,-0.33719 4.46635,-0.479562 1.44357,-0.142373 2.65534,-0.289217 2.69277,-0.326311 0.0375,-0.03707 -0.0273,-0.444447 -0.14388,-0.905246 -0.93461,-3.69371 -1.49841,-6.921918 -2.08343,-11.929157 -0.14145,-1.210734 -0.41064,-3.324014 -0.59823,-4.696169 -0.18756,-1.372156 -0.43402,-3.244083 -0.54771,-4.159885 -0.11369,-0.915776 -0.26575,-1.945746 -0.33787,-2.288831 -0.17283,-0.821796 -0.95116,-3.756078 -1.36158,-5.133208 l -0.20846,-0.699453 -0.94949,-0.701622 c -1.36829,-1.011078 -3.99587,-2.804292 -7.44947,-5.083995 -1.65677,-1.093602 -3.07819,-2.088938 -3.15873,-2.211837 -0.13478,-0.20574 -0.13557,-0.234368 -0.01,-0.36023 0.12586,-0.125863 0.17907,-0.12499 0.66924,0.01085 1.44751,0.401003 3.33208,1.317996 5.1045,2.483724 1.86483,1.226502 2.72947,1.936988 4.37486,3.59484 1.04148,1.049417 1.64089,1.592871 1.75683,1.592871 0.0968,0 0.32626,0.150284 0.50996,0.333984 1.50413,1.50413 3.22942,9.23843 3.2209,14.438895 0,0.373327 0.13216,1.631288 0.29507,2.795455 1.07809,7.705063 1.1421,8.269076 1.36205,12.0015 l 0.0536,0.910166 h 0.22468 c 0.35002,0 4.77343,-0.342873 4.98718,-0.38735 0.18844,-0.03924 0.1905,-0.05506 0.1905,-1.465077 0,-2.235729 0.18529,-4.177268 0.67168,-7.038022 0.14083,-0.828305 0.29165,-2.137966 0.34202,-2.970001 0.30202,-4.989327 1.65912,-11.777927 3.25226,-16.268885 0.8812,-2.484067 2.22105,-5.46915 2.72203,-6.064568 0.43786,-0.520356 2.1445,-1.453647 5.33101,-2.915311 2.29635,-1.053333 3.79521,-1.700213 5.24934,-2.265495 1.17951,-0.458549 1.18422,-0.462756 1.05264,-0.936519 -0.0569,-0.204894 -0.10448,-0.886275 -0.1061,-1.519053 l -0.003,-1.147497 -0.7258,-0.333508 c -0.91914,-0.422331 -1.9531,-1.099638 -2.92717,-1.917438 -1.97601,-1.659017 -4.42745,-4.891776 -5.67938,-7.489455 -2.154,-4.469474 -2.60607,-9.763844 -1.07339,-12.571224 0.0161,-0.0293 -0.19161,-0.0789 -0.46141,-0.1101 -1.3368,-0.15483 -2.41292,-1.16578 -2.95897,-2.77974 -0.72726,-2.14963 0.1446,-4.51926 1.97904,-5.37884 0.42709,-0.20013 0.58999,-0.22858 1.27857,-0.22326 0.76128,0.006 0.78711,-5e-5 0.7325,-0.16933 -0.0311,-0.0965 -0.0763,-0.88091 -0.10036,-1.74313 -0.0326,-1.16856 -0.009,-1.83684 0.0932,-2.62467 0.2603,-2.00932 0.43876,-2.91901 0.6236,-3.17904 0.0972,-0.13674 0.21886,-0.45816 0.27032,-0.71427 0.14457,-0.71948 0.49356,-1.74927 0.85548,-2.52439 0.391,-0.83738 1.10876,-1.9439 1.40057,-2.15914 0.30581,-0.22558 0.73388,-0.27085 1.05352,-0.11138 0.14944,0.0745 0.30038,0.11776 0.33549,0.0961 0.0351,-0.0217 0.22704,-0.31634 0.42651,-0.6548 1.03709,-1.75971 2.95198,-3.73081 4.25889,-4.38388 0.62971,-0.31467 0.82891,-0.31686 1.16917,-0.013 0.22786,0.2036 0.26807,0.29736 0.26321,0.61383 -0.003,0.20542 -0.07,0.53414 -0.14865,0.73044 -0.0786,0.19629 -0.12978,0.39632 -0.11372,0.4445 0.0161,0.0482 0.38569,-0.15833 0.8214,-0.45887 1.59182,-1.09794 3.44446,-1.87648 4.68474,-1.96866 0.64072,-0.0476 0.655,-0.0443 0.91017,0.21085 0.29652,0.29654 0.33755,0.63719 0.12599,1.04632 -0.0733,0.14174 -0.11379,0.27712 -0.09,0.30091 0.0238,0.0238 0.39807,-0.0731 0.83175,-0.21527 1.03412,-0.33898 1.61996,-0.43677 2.60323,-0.43452 1.24341,0.003 1.73776,0.298 1.84558,1.10188 l 0.0467,0.3482 0.43251,-0.0698 c 0.23786,-0.0387 0.94684,-0.0701 1.57549,-0.0701 1.09117,0 1.16218,0.0106 1.56633,0.23489 0.61082,0.33894 0.84786,0.72406 0.84196,1.36787 -0.003,0.38582 -0.0616,0.624 -0.23283,0.95557 -0.12547,0.24294 -0.22813,0.46249 -0.22813,0.48792 0,0.0254 0.20479,0.13676 0.45509,0.24747 0.5566,0.24616 1.10387,0.7276 1.35022,1.18782 0.15693,0.29318 0.18455,0.4826 0.18558,1.27256 v 0.92811 l 0.27342,0.0559 c 0.57806,0.11821 0.68792,0.33382 1.21584,2.38567 0.22564,0.87696 0.53986,1.88925 0.69826,2.24954 0.44061,1.00219 0.58867,1.79734 0.53528,2.87517 -0.0246,0.49874 -0.0691,1.00206 -0.0987,1.11847 -0.0474,0.18654 -0.007,0.23644 0.34399,0.42029 0.73345,0.38468 1.50675,1.5063 1.88592,2.73545 0.39328,1.2749 0.31816,2.34604 -0.24477,3.4906 -0.59385,1.20742 -1.33847,1.93984 -2.27983,2.24253 l -0.55388,0.17809 -0.005,2.51502 c -0.006,3.26962 -0.20878,5.02354 -0.89623,7.764358 -0.53615,2.137622 -1.12156,3.685196 -2.19633,5.806228 -1.70622,3.36722 -3.17733,5.183188 -5.04497,6.227631 -0.49866,0.27887 -0.54385,0.326654 -0.49459,0.523002 0.0992,0.395287 0.21135,1.574006 0.21201,2.228267 0,0.414867 0.0385,0.67572 0.10647,0.729457 0.0582,0.04604 0.35349,0.108241 0.65617,0.138244 1.34869,0.133721 3.57124,0.762715 8.55134,2.420091 5.01472,1.668886 7.59076,2.854881 8.24201,3.794654 0.25352,0.365813 0.28119,0.577956 0.10133,0.776711 -0.10901,0.120439 -0.08,0.260456 0.24905,1.204675 1.15541,3.314806 2.4298,9.502272 2.87417,13.954707 0.29144,2.92018 0.33592,3.809815 0.3365,6.731 0,3.008577 -0.0801,4.450265 -0.33343,5.956908 -0.10247,0.609494 -0.10234,0.747395 0,0.994834 0.066,0.157982 0.16007,0.287258 0.20902,0.287258 0.16719,0 0.0893,0.346419 -0.12184,0.542105 -0.53946,0.499983 -2.36474,1.192688 -5.27542,2.002102 -0.71236,0.198093 -1.26481,0.390181 -1.22767,0.426852 0.0372,0.03667 0.98198,0.01297 2.09958,-0.05244 1.1176,-0.06551 3.7465,-0.196586 5.842,-0.291307 5.95662,-0.269187 6.54235,-0.316732 6.9215,-0.561816 l 0.3175,-0.205237 0.0109,-0.654976 c 0.006,-0.360231 0.0426,-1.7027 0.0814,-2.983283 0.0388,-1.280584 0.10571,-3.757084 0.1487,-5.503334 0.043,-1.74625 0.10298,-3.5179 0.13335,-3.937 0.0303,-0.4191 0.14909,-2.9718 0.26387,-5.672666 0.22529,-5.301642 0.2571,-5.748973 0.41844,-5.882852 0.33993,-0.282125 0.46807,0.933873 0.47694,4.526545 0.0108,4.421028 -0.32708,9.859565 -0.82344,13.249142 -0.10906,0.744644 -0.11335,1.024943 -0.0268,1.754849 0.14288,1.20568 0.0566,2.865782 -0.21241,4.087231 -0.13282,0.603038 -0.18383,1.000919 -0.13459,1.050157 0.0436,0.04358 0.18873,0.07612 0.3225,0.07234 0.27263,-0.0077 2.74839,-0.936678 3.94052,-1.478519 0.6227,-0.283024 0.86963,-0.352107 1.24277,-0.347715 0.51589,0.0061 1.60177,0.34716 2.18673,0.686832 l 0.36642,0.212778 0.34126,-0.191823 c 0.34335,-0.192961 1.42341,-0.547873 5.40293,-1.775328 4.76549,-1.469919 7.10044,-2.04978 10.24466,-2.544074 1.44611,-0.227357 1.40068,-0.21217 1.59303,-0.533427 0.16214,-0.270801 0.16214,-0.270854 -0.3258,-4.588801 -0.60548,-5.357971 -0.74409,-6.822122 -0.81397,-8.597477 -0.0584,-1.482063 0.0374,-2.28219 0.27324,-2.28219 0.14502,0 0.16187,0.07525 0.3792,1.693334 0.097,0.721783 0.34258,2.398183 0.54583,3.725333 0.73732,4.814649 1.02124,7.272285 1.08077,9.355667 l 0.0193,0.677333 1.524,0.773615 c 0.8382,0.425477 1.57162,0.81751 1.62983,0.871167 0.18902,0.174229 0.12422,0.421693 -0.127,0.484982 -0.21889,0.05514 -0.52615,0.0026 -2.11873,-0.366104 -0.76586,-0.177033 -0.92109,-0.09181 -0.57721,0.316865 0.79716,0.947367 0.73048,1.67931 -0.19574,2.148681 -0.61529,0.311785 -0.94221,0.346948 -1.21693,0.130863 -0.44291,-0.348403 -0.18928,-0.874475 0.5248,-1.088417 0.18601,-0.05572 0.3573,-0.132212 0.38061,-0.169941 0.0459,-0.07429 -0.1296,-0.334196 -0.69147,-1.024097 -0.39954,-0.49059 -0.44817,-0.761047 -0.18147,-1.009517 0.1856,-0.172932 0.15602,-0.34843 -0.0588,-0.34843 -0.0684,0 -0.3516,0.11467 -0.62928,0.254846 -1.1067,0.558668 -3.44549,1.435762 -5.50164,2.063248 -4.25596,1.298786 -9.15025,2.599796 -10.26584,2.728886 -0.26775,0.03098 -0.48683,0.09073 -0.48683,0.132768 0,0.04204 0.0828,0.188436 0.18399,0.325305 0.1805,0.244131 0.18373,0.299746 0.16994,2.917564 -0.008,1.58366 0.0177,2.66872 0.0641,2.66872 0.043,0 0.87138,-0.18817 1.84089,-0.41815 0.96954,-0.22998 2.46764,-0.57184 3.32912,-0.75967 4.64579,-1.01296 5.999,-1.31329 8.04333,-1.78507 5.68976,-1.313072 8.58142,-2.195801 10.99019,-3.354967 1.08492,-0.522102 1.65346,-0.988563 1.89664,-1.556147 0.0898,-0.20955 0.23188,-0.4572 0.31578,-0.550333 0.0839,-0.09313 0.17827,-0.278077 0.20979,-0.410978 0.0385,-0.162718 0.13895,-0.272467 0.30741,-0.336047 0.13761,-0.05194 0.25019,-0.138006 0.25019,-0.191241 0,-0.05323 -0.092,-0.549698 -0.20449,-1.103259 -0.56431,-2.777331 -0.68657,-3.636963 -1.19087,-8.372475 -0.73284,-6.88176 -0.938,-8.517493 -1.69375,-13.504334 -0.25054,-1.653116 -0.49996,-3.443816 -0.55425,-3.979333 -0.0543,-0.535517 -0.13444,-1.017323 -0.17804,-1.070636 -0.0436,-0.05334 -0.21259,-0.122 -0.37555,-0.152559 -1.02976,-0.193199 -5.82485,-1.952281 -9.47626,-3.476387 -1.2822,-0.535199 -2.38459,-0.973085 -2.44973,-0.973085 -0.0652,0 -0.26066,0.257175 -0.43444,0.5715 -1.07426,1.942862 -3.20035,4.693259 -5.10413,6.602916 -1.4881,1.492673 -2.56535,2.240835 -4.0549,2.816198 -1.20684,0.466143 -1.65232,0.446961 -1.92635,-0.08292 -0.25445,-0.492099 -0.15613,-1.036241 0.75742,-4.191582 0.79195,-2.735369 0.83423,-2.915523 0.71723,-3.05652 -0.15316,-0.184573 -0.28225,-0.148643 -0.90138,0.250931 -0.84365,0.544433 -2.33037,1.267407 -4.77546,2.322274 -2.002,0.86368 -4.79722,1.959108 -5.34139,2.093278 -0.12612,0.03109 -0.26416,0.100409 -0.30673,0.154067 -0.0463,0.05829 -0.0478,0.472202 -0.004,1.028858 0.15643,1.981571 -0.13986,6.579976 -0.6137,9.525 -0.55935,3.476493 -2.14349,9.590961 -3.33555,12.874467 -0.55028,1.515745 -1.8823,4.688416 -2.12291,5.056399 -0.0695,0.106257 -0.16274,0.170683 -0.20727,0.143166 -0.29634,-0.183145 0.33311,-3.594047 1.64367,-8.907092 1.63332,-6.621516 2.37747,-10.224929 2.83726,-13.73894 0.0944,-0.721783 0.27088,-2.074333 0.39211,-3.005666 0.24622,-1.891321 0.47845,-2.955608 0.6985,-3.200929 0.14158,-0.157824 2.17416,-1.176523 4.93086,-2.471235 0.72178,-0.338984 1.92193,-0.909982 2.667,-1.268836 1.43211,-0.689822 3.20378,-1.48246 3.31837,-1.48463 0.0376,0 0.12277,-0.03577 0.18937,-0.07792 0.0978,-0.06191 0.0388,-0.195712 -0.3075,-0.697203 -0.61918,-0.896594 -1.73432,-3.005164 -2.18475,-4.131072 -0.21354,-0.533771 -0.40081,-0.98306 -0.41619,-0.998432 -0.0153,-0.01535 -0.28323,0.03619 -0.59526,0.114591 -0.48998,0.123058 -0.66754,0.128826 -1.30169,0.04231 -2.05545,-0.280432 -4.93176,-1.34911 -6.25375,-2.323518 -1.18459,-0.873125 -2.38813,-2.765557 -2.13992,-3.364759 0.10133,-0.244607 0.39621,-0.416031 0.71564,-0.416031 0.29136,0 0.31314,-0.09401 0.1296,-0.559699 -0.0897,-0.227701 -0.18505,-0.520251 -0.21183,-0.650161 l -0.0487,-0.236194 -0.80931,0.01376 -0.80933,0.01376 -0.38016,-0.370152 c -0.47503,-0.462545 -1.09823,-1.705716 -1.23063,-2.454804 -0.0525,-0.297021 -0.12626,-0.575204 -0.16393,-0.618173 -0.0377,-0.04299 -0.34576,-0.08784 -0.68461,-0.09967 -0.33885,-0.01191 -0.92091,-0.08443 -1.29344,-0.161343 -1.55687,-0.321469 -2.18141,-0.875824 -2.19329,-1.946831 -0.008,-0.684212 0.19174,-1.061876 1.13937,-2.158996 0.42235,-0.48895 0.92496,-1.11628 1.11694,-1.39407 0.75274,-1.08921 1.13847,-2.40292 1.37761,-4.6918 0.41939,-4.0145 1.35363,-7.68347 2.62199,-10.29713 0.29377,-0.60537 0.72858,-1.35615 0.96626,-1.66844 0.23765,-0.31226 0.43169,-0.63611 0.43119,-0.71967 0,-0.0835 -0.0605,-0.34239 -0.1334,-0.57523 -0.0729,-0.23283 -0.13674,-0.74718 -0.14193,-1.143 -0.0111,-0.84487 0.11854,-1.16774 0.58785,-1.46473 l 0.30703,-0.19434 -0.0172,-0.67328 c -0.0512,-1.99168 1.47397,-4.08096 2.78731,-3.81828 0.23362,0.0467 0.28318,0.0148 0.53004,-0.34097 1.21496,-1.75102 2.39408,-2.72939 3.77235,-3.13005 0.69894,-0.2032 1.86158,-0.12991 2.4838,0.15658 0.55644,0.2562 1.15509,0.77737 1.38649,1.20708 0.0887,0.16463 0.20998,0.29933 0.26961,0.29933 0.0596,0 0.44149,-0.18841 0.84858,-0.41868 1.10519,-0.62511 1.92651,-0.8794 2.85683,-0.88445 0.67924,-0.004 0.82177,0.0241 1.31234,0.25569 1.22716,0.57939 1.98818,1.43891 2.33656,2.63898 0.0198,0.068 0.26643,-0.0941 0.64683,-0.42492 0.7906,-0.6876 1.00682,-0.83785 1.72048,-1.1956 1.8855,-0.94519 3.78028,-0.66733 5.10484,0.74862 0.64524,0.68976 0.90104,1.33725 0.9031,2.28602 l 0.003,0.67734 0.58298,0.0645 c 2.24462,0.24849 3.71338,1.36929 4.07646,3.11075 0.10774,0.51663 0.11266,0.72351 0.029,1.22103 -0.17224,1.02431 -0.1823,0.99084 0.34626,1.15073 1.18997,0.35994 2.22433,1.13344 2.69396,2.01456 0.74002,1.38843 0.66596,2.68012 -0.22884,3.99098 l -0.34689,0.50821 0.44373,0.33094 c 0.55793,0.41613 0.81293,0.69247 1.19184,1.29153 0.96804,1.53046 1.01442,3.45372 0.13031,5.40362 -0.27355,0.60333 -0.26551,0.76745 0.0377,0.76745 0.11099,0 0.32901,0.0857 0.48445,0.1905 0.68353,0.46064 0.95179,1.76704 0.60042,2.92388 -0.21092,0.69445 -0.73337,1.51397 -1.20147,1.88473 -0.18365,0.14545 -0.3339,0.2983 -0.3339,0.33965 0,0.0414 0.19216,0.15785 0.42703,0.25889 0.81852,0.35211 1.3194,1.230952 1.24982,2.192898 -0.0469,0.648256 -0.43752,1.413827 -1.09062,2.137463 -0.94522,1.047274 -1.79456,1.515374 -2.78368,1.534133 l -0.54647,0.01032 -0.21661,0.638493 c -0.54994,1.621181 -1.57663,2.456815 -3.18564,2.59281 l -0.62717,0.05302 v 0.457438 c 0,0.251592 -0.0552,0.564198 -0.12266,0.69469 -0.14245,0.275484 -0.68035,0.770361 -0.83733,0.770361 -0.0591,0 -0.23423,0.13081 -0.38922,0.290698 -0.50308,0.519059 -1.00113,0.676063 -2.16445,0.682334 -0.5588,0.0029 -1.17793,0.05347 -1.37584,0.11213 l -0.35983,0.10668 -0.0138,1.457246 c -0.0196,2.082773 -0.0437,3.041808 -0.0808,3.23043 -0.029,0.146897 0.0583,0.180022 0.81425,0.309245 1.81208,0.309695 3.8041,0.914109 6.36148,1.930135 3.06142,1.21629 5.58523,2.385087 5.65108,2.617073 0.12179,0.429075 0.23186,1.154351 0.19598,1.291485 -0.0228,0.0867 0.12427,0.816398 0.32649,1.621578 0.91906,3.65887 1.69463,8.231796 2.15099,12.682299 0.5167,5.039413 0.63547,7.019634 0.62973,10.498667 -0.006,3.62495 -0.0486,4.141443 -0.35208,4.274899 -0.21016,0.09237 -0.23379,0.148723 -0.31626,0.75401 l -0.0565,0.414576 0.5362,-0.05382 c 3.06039,-0.307155 4.67763,-0.399203 10.00895,-0.569701 2.64279,-0.08451 2.8978,-0.105859 3.23787,-0.271092 0.4513,-0.21926 0.7757,-0.140388 0.95417,0.231908 0.10189,0.212592 0.10149,0.277495 -0.003,0.463708 -0.19917,0.355336 -0.51181,0.459555 -0.89447,0.298106 -0.36357,-0.153379 -0.13925,-0.1642 -4.51239,0.217938 -3.97531,0.347398 -5.05457,0.414364 -7.68879,0.476964 l -2.31249,0.05495 -0.52385,0.393488 c -2.48605,1.867244 -7.15401,3.481834 -14.56229,5.036844 -4.40902,0.92549 -7.44173,1.38708 -10.20966,1.55403 -0.99979,0.0603 -1.01849,0.0681 -1.15211,0.48152 -0.0525,0.16234 -0.0615,0.1606 -0.21775,-0.0423 -0.0897,-0.11641 -0.20262,-0.25929 -0.25104,-0.3175 -0.0484,-0.0582 -0.21806,-0.10583 -0.37697,-0.10583 -0.24379,0 -0.37886,0.0897 -0.8645,0.57399 -0.98439,0.98168 -2.21203,1.66264 -3.56468,1.97736 -0.90477,0.21048 -4.22667,0.32105 -5.04526,0.1679 -1.07606,-0.20132 -1.8728,-0.77943 -2.15022,-1.56027 -0.1207,-0.33975 -0.20225,-0.43283 -0.4912,-0.56084 -0.44563,-0.1974 -0.68273,-0.53752 -0.85156,-1.22166 -0.13181,-0.53419 -0.13046,-0.55964 0.0498,-0.93202 0.13157,-0.27181 0.16266,-0.42709 0.10721,-0.53549 -0.14807,-0.28929 -0.18675,-0.72681 -0.0946,-1.06915 0.11999,-0.44567 0.57272,-0.90382 0.89308,-0.90382 0.40899,0 1.13813,0.43717 1.85941,1.1149 0.79071,0.7429 1.28476,1.02947 1.76977,1.02648 0.79851,-0.005 2.28714,-0.77936 2.83824,-1.47659 0.18521,-0.23431 0.33676,-0.45894 0.33676,-0.49924 0,-0.0939 -0.34401,-0.14465 -1.397,-0.2063 -0.46566,-0.0273 -0.99906,-0.0899 -1.18533,-0.13922 -0.4549,-0.12041 -0.86887,-0.447303 -1.04257,-0.823275 -0.0785,-0.169995 -0.18086,-0.340096 -0.22743,-0.378011 -0.10023,-0.08157 -1.39973,-0.03625 -6.858,0.239078 -2.2352,0.112765 -5.64515,0.262361 -7.57767,0.332475 -5.66769,0.205581 -5.88513,0.218943 -7.77224,0.477732 -0.99177,0.136021 -1.83949,0.247301 -1.88384,0.247301 -0.25699,0 0.22289,0.81095 1.29504,2.1885 0.71387,0.91724 1.65325,2.36435 2.05248,3.16183 0.2994,0.59809 0.3819,0.85389 0.3819,1.18425 0,0.37925 -0.0338,0.45487 -0.33867,0.75665 -0.18627,0.18442 -0.33867,0.38436 -0.33867,0.44429 0,0.0599 -0.0983,0.20132 -0.21833,0.31422 -0.20471,0.19246 -0.2721,0.20415 -1.0795,0.18732 -4.72208,-0.0983 -10.29648,0.0337 -15.08517,0.35735 -1.02447,0.0692 -2.96757,0.18238 -4.318,0.25141 -1.35044,0.0691 -2.66489,0.1452 -2.921,0.16923 -7.61397,0.71413 -12.12223,1.02324 -12.29784,0.84317 z m -20.08169,-2.75381 c 0.48387,-0.28808 0.50208,-0.31155 0.49057,-0.63265 -0.007,-0.18338 -0.0209,-0.85807 -0.032,-1.49931 -0.0111,-0.64122 -0.0528,-1.1861 -0.0928,-1.21082 -0.04,-0.0246 -0.33867,0.051 -0.66371,0.1682 -0.32501,0.11724 -0.92009,0.26075 -1.32236,0.3189 l -0.73141,0.10576 0.0535,0.38391 c 0.0294,0.21116 0.077,0.91199 0.10578,1.55744 l 0.0523,1.17353 0.8188,-0.0329 c 0.75724,-0.0304 0.85659,-0.0554 1.32133,-0.33207 z m 79.76596,-1.94165 c 2.4975,-0.42365 2.82993,-0.50337 3.54057,-0.84913 0.61934,-0.30133 1.63978,-0.98843 2.4615,-1.65737 l 0.3252,-0.26474 -0.0209,-1.0476 c -0.0191,-0.94429 0.0853,-2.580265 0.2073,-3.252625 0.0465,-0.256698 0.0425,-0.259741 -1.03982,-0.778483 -0.59761,-0.286438 -1.26441,-0.564727 -1.48182,-0.618464 l -0.39526,-0.09766 -0.84971,0.522181 c -1.32424,0.813753 -2.06492,1.077251 -3.9596,1.408642 -0.0996,0.01746 -0.20505,0.09398 -0.23429,0.170127 -0.13456,0.350732 0.33677,0.484875 2.19348,0.624311 1.38274,0.103822 1.59165,0.196003 1.63576,0.721631 0.0619,0.73702 -1.0659,2.35169 -1.99607,2.85797 -0.83249,0.4531 -1.89577,0.60066 -2.66335,0.36968 -0.55099,-0.16584 -1.08527,-0.55637 -2.11799,-1.54813 -1.11231,-1.0682 -1.50471,-1.2224 -1.50471,-0.59132 0,0.16428 0.11941,0.47345 0.29633,0.76727 0.33608,0.55808 0.37264,0.84584 0.127,0.99925 -0.21307,0.13306 -0.21328,0.28821 0,0.63651 0.13571,0.22256 0.22217,0.27516 0.45226,0.27516 0.3302,0 0.50008,0.1618 0.64553,0.61479 0.19909,0.62013 1.00295,0.9779 2.22059,0.98832 0.36134,0.003 1.32091,-0.10816 2.159,-0.25032 z m -81.86796,-2.46369 c 1.36305,-0.4358 2.92018,-1.29503 3.57134,-1.97067 0.28279,-0.29343 0.28697,-0.30803 0.18042,-0.6309 -0.13502,-0.409127 -0.0812,-0.51115 0.46067,-0.873391 0.23241,-0.155337 0.47133,-0.384545 0.53094,-0.509323 0.16795,-0.351658 0.0127,-0.886539 -0.35534,-1.223645 -0.33258,-0.304694 -0.37719,-0.575416 -0.21249,-1.289738 0.11364,-0.492839 0.0436,-0.688763 -0.24627,-0.688763 -0.1266,0 -0.93366,0.204708 -1.79345,0.454898 -1.70765,0.496887 -2.67592,0.692229 -2.97746,0.600683 -0.51951,-0.157691 -0.71951,-0.666167 -0.4485,-1.140248 0.16198,-0.283342 0.17359,-1.511432 0.0148,-1.572339 -0.20674,-0.07932 -1.52437,0.473789 -3.27453,1.374616 -0.95462,0.491331 -1.78388,0.938768 -1.84277,0.994304 -0.086,0.08112 -0.0868,0.345969 -0.004,1.345142 0.0811,0.980572 0.0809,1.442402 0,2.180087 -0.0572,0.514797 -0.0841,0.968217 -0.0598,1.007637 0.0631,0.10203 1.71817,0.79076 3.29774,1.37232 0.74117,0.27284 1.46507,0.57139 1.60866,0.66341 0.35544,0.22776 0.58889,0.2136 1.55125,-0.0941 z m 49.57127,-3.113514 c 0.47845,-0.09202 1.51762,-0.264213 2.30926,-0.382587 6.46046,-0.966285 9.84015,-1.515798 12.319,-2.003002 1.72318,-0.338667 4.18865,-0.938742 5.07828,-1.235974 0.45003,-0.150363 0.46601,-0.16645 0.53295,-0.53602 0.1959,-1.081537 0.25874,-1.290214 0.46064,-1.530191 l 0.21754,-0.258524 -0.0581,-1.158796 c -0.0625,-1.246426 -0.76679,-8.407427 -1.11307,-11.317288 -0.29594,-2.486713 -0.58995,-4.176897 -1.60949,-9.252558 -0.48885,-2.433743 -0.91633,-4.696883 -0.94996,-5.029174 l -0.0611,-0.604176 -1.397,-0.585443 c -2.03208,-0.851588 -4.4223,-1.706087 -9.90601,-3.541369 -2.67758,-0.896144 -4.91378,-1.646184 -4.96932,-1.666769 -0.0571,-0.02117 -0.21262,0.1837 -0.35825,0.472202 -0.3189,0.631746 -1.4773,2.157042 -2.0996,2.764631 -0.5276,0.515117 -1.37184,0.986658 -2.04888,1.144402 -1.12408,0.261859 -2.97071,-0.07792 -4.49395,-0.826902 -1.72743,-0.849365 -3.16698,-2.806912 -2.70248,-3.674851 0.0503,-0.09406 0.0763,-0.18624 0.0577,-0.204814 -0.0185,-0.01852 -1.11707,0.514985 -2.44102,1.185757 -2.51579,1.274577 -4.67029,2.311347 -7.22436,3.476493 l -1.51511,0.691171 -0.96706,2.914279 c -1.58096,4.764194 -2.09579,6.664034 -3.63471,13.41292 -1.26225,5.535533 -1.27235,5.587921 -1.42079,7.366 -0.0739,0.884767 -0.22563,2.523067 -0.33726,3.640667 -0.11163,1.1176 -0.26435,2.77495 -0.33938,3.683 -0.075,0.90805 -0.15113,1.792393 -0.16915,1.965193 -0.0183,0.17526 0.0103,0.34745 0.0646,0.389413 0.0575,0.04448 0.85852,0.01244 1.96001,-0.07829 3.12441,-0.257492 5.22443,-0.404892 7.70466,-0.540835 1.30387,-0.07144 3.01662,-0.190685 3.80614,-0.26498 0.78949,-0.0743 1.62769,-0.113347 1.86267,-0.08681 l 0.42719,0.04826 0.51692,-1.054417 c 0.42328,-0.863389 0.49612,-1.071695 0.40217,-1.149694 -0.16153,-0.134038 -0.1429,-0.41992 0.0611,-0.939192 0.21831,-0.555598 0.60335,-1.060661 1.61658,-2.120529 l 0.78986,-0.826215 h 0.60883 0.60883 l 0.54113,-1.125352 c 0.9812,-2.040414 2.31246,-4.220898 2.7805,-4.554167 0.21847,-0.155575 0.29065,-0.168566 0.47342,-0.0853 0.20958,0.09549 0.21455,0.116761 0.17606,0.751391 -0.0512,0.844259 -0.61249,2.535396 -1.36322,4.107788 -0.39788,0.833385 -0.52295,1.173639 -0.45212,1.230022 0.0538,0.04286 0.49795,0.16256 0.9869,0.265985 0.48895,0.103399 1.11651,0.280353 1.39459,0.393197 0.46265,0.187722 0.53094,0.19521 0.80433,0.08816 0.33878,-0.132689 0.45898,-0.108453 0.77838,0.15703 l 0.22564,0.187537 0.91736,-0.158433 c 2.30368,-0.397801 4.70096,-0.689822 8.57288,-1.044205 2.30129,-0.210634 4.26566,-0.382984 4.3653,-0.382984 0.0996,0 0.24612,-0.04762 0.32552,-0.105833 0.12467,-0.09141 0.13301,-0.169307 0.0611,-0.5715 -0.0458,-0.256117 -0.14102,-0.999067 -0.21167,-1.651 -0.0706,-0.651934 -0.2445,-2.252134 -0.38637,-3.556 -0.14189,-1.303867 -0.42614,-3.570817 -0.63169,-5.037667 -0.4925,-3.514196 -0.74623,-6.019641 -0.63839,-6.303301 0.0884,-0.232516 0.34383,-0.288846 0.49327,-0.108797 0.26823,0.323189 0.84836,2.531481 1.40649,5.353765 0.75005,3.792564 1.10165,6.379157 1.45418,10.697501 0.0551,0.674476 0.0698,0.71419 0.32123,0.867516 0.18077,0.110251 0.42201,0.160787 0.76848,0.160999 0.46601,0 0.49435,0.01085 0.36746,0.137821 -0.1269,0.126894 -0.12504,0.15793 0.0238,0.402167 0.15798,0.259053 0.2122,0.755068 0.11128,1.018037 -0.0871,0.22696 -0.57314,0.465429 -1.22634,0.601662 -0.91755,0.1914 -0.91609,0.190606 -1.11982,0.620501 -0.22466,0.474081 -0.44125,0.539301 -0.73885,0.222488 -0.30303,-0.322527 -0.29221,-0.916252 0.0243,-1.331118 0.22902,-0.300302 0.30636,-0.684451 0.15645,-0.777108 -0.042,-0.02593 -1.11834,0.0862 -2.39184,0.249237 -4.05627,0.519351 -7.07766,0.874687 -9.38511,1.103763 -1.23402,0.122528 -2.33024,0.257148 -2.43602,0.299164 -0.14253,0.05662 -0.18177,0.126048 -0.1515,0.267917 0.66124,3.096842 0.74559,3.574018 0.78232,4.424786 0.0464,1.074182 0.0684,1.177767 0.23749,1.112917 0.0683,-0.02619 0.51564,-0.122978 0.99412,-0.215 z m -21.46856,-5.48177 c -0.0829,-0.501517 -0.0643,-7.919878 0.0262,-10.44448 0.0442,-1.234016 0.12097,-3.577166 0.17061,-5.207 0.11644,-3.822382 0.23725,-5.946166 0.35031,-6.157383 0.0682,-0.127503 0.11395,-0.144648 0.18811,-0.07054 0.22831,0.228071 0.1524,10.05885 -0.11607,15.033255 -0.16827,3.11822 -0.4404,6.946397 -0.50173,7.057813 -0.0408,0.07411 -0.0826,-0.0026 -0.11734,-0.211667 z m -27.33868,1.038067 c 0.54661,-0.203941 1.14623,-0.424789 1.3325,-0.490776 l 0.33866,-0.119962 -0.0196,-0.588724 c -0.0109,-0.323797 -0.0262,-1.568397 -0.0341,-2.765769 -0.0111,-1.674733 0.0106,-2.207498 0.095,-2.309125 0.0603,-0.07263 0.40513,-0.285829 0.76632,-0.47371 1.00954,-0.525251 1.14088,-0.755809 0.52226,-0.916993 -0.82026,-0.21373 -0.94007,-0.211137 -1.02878,0.02223 -0.18024,0.474001 -1.32493,0.771155 -2.77479,0.720302 -0.67805,-0.02381 -0.89654,-0.06194 -1.01098,-0.176504 -0.0803,-0.08038 -0.11654,-0.17563 -0.0806,-0.211666 0.036,-0.03604 0.70044,-0.08919 1.47662,-0.118163 1.30418,-0.04863 1.97514,-0.151421 2.16434,-0.33155 0.14962,-0.142425 -0.39547,-0.184123 -1.91762,-0.146711 -1.81811,0.04474 -2.62353,0.19685 -3.02421,0.571156 -0.49157,0.459184 -0.30345,0.643281 0.74689,0.730858 0.52385,0.04371 0.69604,0.08948 0.72707,0.193411 0.20749,0.694478 0.55579,4.280694 0.55579,5.722329 0,0.833252 0.0304,1.060159 0.14213,1.060159 0.0161,0 0.47644,-0.166873 1.02304,-0.370814 z m -6.32309,-24.627047 c 0.004,-0.663575 0.036,-1.778 0.0719,-2.4765 0.0589,-1.149429 0.0497,-1.306168 -0.0967,-1.651 -0.22238,-0.523583 -0.40246,-1.31953 -0.40396,-1.78562 -0.003,-0.620791 0.29053,-1.594961 0.7635,-2.542592 1.2759,-2.556325 2.45301,-3.680672 5.83925,-5.577496 2.38144,-1.334003 3.38302,-2.116138 5.85327,-4.570889 1.71514,-1.704367 1.85735,-1.891745 3.33103,-4.388829 0.773,-1.30982 0.89707,-1.568265 0.7974,-1.661213 -0.12764,-0.119063 -2.54646,-0.888841 -5.09225,-1.620599 -3.01927,-0.867862 -4.89395,-1.761362 -4.79129,-2.283622 0.0412,-0.20955 0.18754,-0.26223 1.04484,-0.37613 0.4191,-0.0557 1.147,-0.15301 1.61753,-0.21627 0.47054,-0.0633 1.99454,-0.2317 3.38667,-0.37431 1.39213,-0.14261 3.15979,-0.35988 3.92814,-0.48283 0.76835,-0.12296 1.56845,-0.24615 1.778,-0.27374 l 0.381,-0.0502 0.095,-1.43933 c 0.0938,-1.42113 0.21934,-2.3067 0.54207,-3.8249 0.20252,-0.95277 0.29634,-1.16726 0.56378,-1.2891 0.16383,-0.0747 0.26821,-0.0667 0.48683,0.037 0.25474,0.12086 0.30978,0.11972 0.64995,-0.0135 0.59873,-0.23448 1.33226,-0.76015 2.51307,-1.80089 0.34628,-0.3052 0.60655,-0.60031 0.59266,-0.67202 -0.0148,-0.077 -0.26522,-0.20126 -0.62968,-0.31255 -0.9117,-0.27834 -2.90105,-1.41356 -3.94422,-2.25078 -1.44539,-1.15999 -2.41824,-2.97611 -2.87269,-5.36266 -0.25231,-1.325 -0.24807,-1.31699 -0.69398,-1.31699 -0.20484,0 -0.40933,0.0476 -0.45439,0.10584 -0.0522,0.0674 -0.0539,0.41336 -0.005,0.9525 0.19693,2.15908 -0.20598,4.62113 -0.9335,5.70444 -0.83598,1.24471 -2.10323,0.95245 -2.86658,-0.66114 -0.51038,-1.07884 -0.76091,-2.70708 -0.65445,-4.25305 l 0.0574,-0.83259 h -0.43259 c -0.23794,0 -1.09109,0.0369 -1.89595,0.0819 -0.80484,0.0451 -2.22533,0.12208 -3.15666,0.17114 -2.05397,0.10818 -6.47909,0.42103 -6.62345,0.46823 -0.0722,0.0236 -0.0138,0.22251 0.1905,0.64884 0.33848,0.70628 0.38997,1.16985 0.12994,1.16985 -0.11216,0 -0.32944,-0.2405 -0.68102,-0.75382 -0.54813,-0.80029 -1.20811,-1.48027 -1.57048,-1.61804 -0.38145,-0.14504 -0.56441,-0.0929 -0.89554,0.2552 -1.344,1.41282 -0.59039,5.84565 1.21918,7.17145 0.41468,0.30382 0.4705,0.32065 1.01171,0.30527 0.56131,-0.0159 0.57282,-0.0119 0.57282,0.19886 0,0.3188 -0.23516,0.757 -0.55864,1.04101 -0.39396,0.34591 -0.89379,0.47225 -1.43102,0.36168 -0.23284,-0.0479 -0.44927,-0.0623 -0.48096,-0.0319 -0.0317,0.0304 -0.15598,0.53446 -0.27618,1.12014 -0.36843,1.79533 -0.96985,3.48888 -1.64523,4.63267 -0.14555,0.24654 -0.26463,0.48639 -0.26463,0.53301 0,0.0466 0.18428,0.35925 0.40952,0.69476 1.48325,2.20946 2.61016,4.604284 3.12655,6.64438 0.21543,0.851059 0.22995,1.025658 0.23075,2.770955 0,1.63449 -0.0236,1.976755 -0.19762,2.794 -0.24093,1.130644 -0.81492,2.905548 -1.23053,3.805105 -0.62203,1.346306 -1.75228,2.740105 -2.78458,3.433895 -0.17322,0.116417 -0.3152,0.255879 -0.31551,0.309933 0,0.05403 0.52829,1.177978 1.17469,2.497667 0.64641,1.319662 1.65145,3.376612 2.23341,4.570968 0.58197,1.194355 1.25682,2.527855 1.49963,2.963333 0.64227,1.151837 1.55204,2.524231 1.67452,2.525951 0.0795,0 0.1075,-0.298979 0.11258,-1.205019 z m -2.45208,-41.49577 c -0.055,-0.0663 -0.14798,-0.28665 -0.20656,-0.48964 -0.0855,-0.29644 -0.16809,-0.39827 -0.41952,-0.51739 -0.88593,-0.41973 -1.2264,-2.17027 -0.43717,-2.24763 0.16174,-0.0159 0.33911,0.0386 0.47561,0.14594 0.50993,0.40111 1.16234,3.07382 0.78084,3.19881 -0.0512,0.0167 -0.13816,-0.0238 -0.1932,-0.0901 z m -22.22526,41.92638 c 0.13435,-0.100806 0.40335,-0.334566 0.5978,-0.519483 0.35321,-0.335889 0.62013,-0.380762 0.62013,-0.104272 0,0.209206 0.19386,0.152267 0.74763,-0.219578 0.99671,-0.66929 2.24703,-2.171674 2.91534,-3.50311 0.69037,-1.375383 1.15094,-3.370792 1.22131,-5.291667 0.0806,-2.199401 -0.20775,-4.247832 -1.24629,-8.854334 -1.21716,-5.398876 -1.49881,-7.19201 -1.69696,-10.803756 -0.1638,-2.98606 0.0662,-7.07835 0.51946,-9.23952 0.37224,-1.77506 1.20912,-3.78438 1.96556,-4.71926 0.5165,-0.63834 1.70656,-1.60055 2.40459,-1.94416 l 0.53536,-0.26358 -0.003,-0.39685 c -0.003,-0.63447 -0.0156,-0.64153 -1.11239,-0.58494 -1.18869,0.0613 -2.91595,0.4804 -4.07498,0.98872 -2.56469,1.12477 -4.60105,3.37691 -5.47132,6.05105 -0.60359,1.8547 -0.72596,3.05853 -0.65876,6.48052 0.0506,2.57717 0.17198,4.17414 0.60516,7.961444 0.43013,3.761025 0.50165,4.796578 0.50284,7.281333 0,2.523728 -0.0593,3.151849 -0.45043,4.67495 -0.38669,1.505876 -1.32202,3.311286 -2.32103,4.480083 l -0.55219,0.646033 0.28337,0.250852 c 0.50464,0.446802 0.5719,1.171654 0.20585,2.218769 -0.0884,0.252836 -0.14116,0.479214 -0.11729,0.503079 0.0238,0.02381 0.29736,-0.08686 0.6078,-0.246089 0.93681,-0.480483 1.54715,-0.335545 1.79295,0.42582 0.10604,0.328401 0.0994,0.459555 -0.0656,1.295639 -0.10094,0.511651 -0.16314,0.9507 -0.13819,0.975624 0.0249,0.02487 0.19298,-0.0376 0.37343,-0.139012 0.45011,-0.252995 0.73242,-0.235717 1.03121,0.06308 0.27842,0.278421 0.29361,0.425503 0.1188,1.149508 -0.1447,0.599202 -0.16013,1.173772 -0.0377,1.402583 0.12036,0.224843 0.58351,0.214789 0.89577,-0.01958 z m 121.58755,-1.500902 c 0.95179,-0.717815 2.12191,-1.967891 3.29753,-3.522874 0.56327,-0.745067 1.4505,-1.888067 1.97157,-2.54 1.14437,-1.43174 1.79289,-2.372334 2.335,-3.386667 0.22397,-0.4191 0.63312,-1.137893 0.90919,-1.597316 l 0.50196,-0.835342 -0.17639,-1.319001 -0.1764,-1.319001 -0.34102,-0.337635 c -0.18757,-0.185711 -0.46046,-0.580231 -0.6064,-0.876723 -0.22056,-0.447993 -0.26612,-0.641985 -0.26974,-1.148662 -0.004,-0.518425 0.0325,-0.677016 0.24198,-1.059974 0.1355,-0.247676 0.37222,-0.560837 0.52605,-0.695907 0.15385,-0.13507 0.27972,-0.284956 0.27972,-0.333058 0,-0.0481 -0.14849,-0.221615 -0.32997,-0.385577 -0.44005,-0.397563 -0.60155,-0.764699 -0.60055,-1.36525 0,-0.708845 0.28713,-1.264549 1.05868,-2.057373 0.34862,-0.35822 0.63384,-0.67355 0.63384,-0.700696 0,-0.02717 -0.16624,-0.146791 -0.36939,-0.265854 -0.78454,-0.459766 -1.21404,-1.231344 -1.13138,-2.03237 0.0496,-0.480428 0.3357,-1.124798 0.77107,-1.736568 0.25215,-0.3543 0.25678,-0.37523 0.10279,-0.46567 -0.62185,-0.36517 -0.99128,-1.02023 -0.86317,-1.53058 0.0642,-0.2557 0.15975,-0.26805 0.46101,-0.0595 0.12361,0.0855 0.28524,0.17724 0.35919,0.20373 0.57587,0.20642 1.58092,-1.39613 1.97755,-3.15331 0.19352,-0.85733 0.20286,-1.90772 0.0201,-2.2584 -0.25887,-0.4966 -0.69225,-0.42506 -1.32712,0.21905 -0.25646,0.26016 -0.61548,0.74906 -0.79783,1.08646 -0.37843,0.70019 -0.55851,0.895 -0.75686,0.81888 -0.22371,-0.0858 -0.21215,-0.39216 0.0374,-0.99033 0.0929,-0.22257 0.14848,-0.43765 0.12358,-0.47795 -0.0251,-0.0406 -0.18716,-0.0417 -0.36327,-0.003 -0.65757,0.14608 -4.23487,0.67358 -4.56793,0.67358 -0.29215,0 -0.44132,-0.0737 -0.94234,-0.46575 -0.91067,-0.71255 -1.55276,-1.77501 -1.82919,-3.02675 -0.0632,-0.2862 -0.15256,-0.29099 -0.49898,-0.0268 -0.82352,0.62812 -1.89966,0.81899 -2.66332,0.47239 -0.70821,-0.32145 -1.73022,-1.59949 -2.13358,-2.66812 -0.13303,-0.35242 -0.19603,-0.71543 -0.20574,-1.18533 l -0.014,-0.67733 -0.84346,-0.0535 c -0.98388,-0.0624 -1.45834,-0.22815 -1.81483,-0.63418 -0.33711,-0.38394 -0.37415,-0.57383 -0.31515,-1.61573 l 0.05,-0.88313 -0.27075,0.0688 c -1.49376,0.3796 -2.24078,-0.91546 -1.49204,-2.58667 0.26995,-0.60256 0.27416,-0.62847 0.12049,-0.74084 -0.23717,-0.17343 -0.32792,-0.15176 -1.15734,0.27663 -2.40792,1.24364 -3.73576,3.27932 -4.73853,7.26463 -0.25482,1.01267 -0.75033,3.76436 -0.75033,4.16674 0,0.2064 0.0151,0.20045 0.42587,-0.16896 0.5552,-0.49916 1.09879,-0.6813 2.02946,-0.67998 0.56341,0 0.81577,0.0431 1.16224,0.19502 0.51988,0.22792 1.07992,0.79844 1.16528,1.18714 0.0906,0.41269 -0.0381,0.48519 -0.56957,0.32075 -1.11374,-0.34464 -3.07668,-0.39047 -3.6117,-0.0843 -0.22214,0.12711 -0.28503,0.13206 -0.44164,0.0346 -0.13682,-0.0851 -0.19793,-0.0888 -0.24368,-0.0148 -0.0336,0.0543 -0.12623,0.75319 -0.20587,1.55297 -0.20016,2.00983 -0.55237,3.51243 -1.05355,4.49475 -0.34652,0.67918 -0.54798,0.92974 -1.71952,2.13865 -1.45328,1.499658 -1.58983,1.678728 -1.41174,1.851686 0.0917,0.08901 0.32475,0.09358 1.18496,0.02328 1.19594,-0.09782 2.22184,-0.0085 2.57718,0.224261 0.2214,0.145071 0.29466,0.286412 0.44047,0.84963 0.0482,0.186267 0.18976,0.695616 0.31454,1.131914 0.12478,0.436272 0.29178,1.179222 0.37116,1.651 0.16751,0.995627 0.097,0.958056 1.23711,0.659024 0.37253,-0.09771 1.57268,-0.332713 2.667,-0.522208 3.59974,-0.623305 4.86423,-0.854234 5.17334,-0.944748 0.3819,-0.111812 0.66866,0.01746 0.66866,0.301282 0,0.458761 -1.3181,1.851977 -2.48954,2.63144 -0.84281,0.560757 -1.67529,0.938371 -3.03393,1.376097 -0.54657,0.176107 -0.99356,0.358299 -0.9933,0.404866 0,0.09276 0.60122,0.504163 1.39444,0.955066 1.41615,0.804969 4.69979,1.942889 5.87814,2.037054 0.65953,0.05268 0.78224,0.09107 1.21978,0.381503 0.74036,0.49141 1.48865,1.518814 2.75365,3.78071 0.97883,1.750192 1.54411,3.174074 1.89579,4.775306 0.16807,0.765175 -0.17269,2.73177 -0.82132,4.740301 -0.2282,0.706597 -0.26651,0.98306 -0.13626,0.98306 0.0437,0 0.37709,-0.224473 0.74084,-0.498793 z m -15.40722,-30.490108 c -0.34512,-0.27146 -0.51276,-0.8264 -0.46624,-1.54342 0.0467,-0.71972 0.2336,-1.1398 0.54154,-1.21708 0.36336,-0.0912 0.48477,0.11215 0.39066,0.65423 -0.0973,0.56042 -0.0412,1.17584 0.10726,1.17584 0.1388,0 0.27213,-0.32777 0.41119,-1.01108 0.0611,-0.29999 0.15463,-0.55994 0.20791,-0.57772 0.16328,-0.0544 0.43995,0.50305 0.4403,0.88712 0,0.52509 -0.2971,1.24058 -0.6418,1.54324 -0.34682,0.30453 -0.67882,0.3343 -0.99082,0.0889 z m 24.11807,-0.66646 c -0.0254,-0.0411 0.0295,-0.17095 0.122,-0.28853 0.21722,-0.27612 0.21209,-0.34718 -0.0435,-0.60274 -0.26858,-0.26858 -0.27003,-0.59204 -0.004,-0.85821 0.24413,-0.24413 0.4038,-0.26143 0.60026,-0.065 0.11419,0.1142 0.1321,0.23416 0.0893,0.59825 -0.0895,0.76129 -0.57142,1.52824 -0.76425,1.21621 z m -54.17296,24.11791 c 0.44675,-0.223255 1.5164,-1.076404 2.71446,-2.165085 l 0.36367,-0.330465 -0.0875,-0.450638 c -0.0481,-0.247862 -0.14295,-0.990812 -0.21079,-1.651 -0.16322,-1.588743 -0.0608,-2.127647 0.4441,-2.3368 0.81402,-0.337158 4.42484,-7.21995 5.71112,-10.886228 1.02999,-2.935814 1.38617,-4.411984 1.96733,-8.153484 0.1642,-1.05701 0.34047,-2.12994 0.39169,-2.38432 0.0512,-0.25434 0.0912,-0.60494 0.0888,-0.77909 -0.004,-0.32319 0.13714,-0.49376 0.78211,-0.94244 0.26019,-0.181 1.1625,-1.67762 1.41187,-2.34178 0.27506,-0.73263 0.34277,-1.31469 0.24067,-2.06904 -0.1147,-0.84749 -0.36669,-1.52313 -0.70395,-1.88735 -0.2494,-0.26929 -0.27906,-0.27945 -0.53248,-0.18235 -0.53861,0.20643 -0.71609,-0.30208 -0.31268,-0.89578 0.21217,-0.31223 0.21823,-0.35012 0.12142,-0.76049 -0.056,-0.23751 -0.13743,-1.06053 -0.18085,-1.82888 -0.10056,-1.77911 -0.16168,-2.061 -0.66987,-3.09033 -0.22992,-0.46567 -0.50244,-1.17052 -0.6056,-1.56633 -0.10319,-0.39582 -0.22379,-0.7673 -0.26803,-0.8255 -0.0442,-0.0582 -0.21161,-0.10584 -0.37195,-0.10584 -0.68765,0 -0.89776,-0.38817 -0.81804,-1.5114 0.049,-0.68988 0.0368,-0.78534 -0.13578,-1.06458 -0.23971,-0.38788 -0.51128,-0.52708 -1.33512,-0.68434 -0.78187,-0.14928 -1.03925,-0.31756 -1.20552,-0.78823 -0.1262,-0.35724 -0.12467,-0.37361 0.1415,-1.51828 l 0.0443,-0.1905 -1.17403,0.003 c -0.70882,0 -1.40888,0.0512 -1.76668,0.127 -0.88559,0.18759 -1.1798,0.16632 -1.48331,-0.10729 -0.35126,-0.31668 -0.41645,-0.74829 -0.18121,-1.19965 0.0973,-0.18658 0.1433,-0.35994 0.10234,-0.38526 -0.12819,-0.0792 -1.79273,0.27999 -2.67464,0.57717 -0.46377,0.15629 -1.11628,0.40409 -1.45005,0.5507 -0.74256,0.32613 -1.10803,0.34137 -1.4128,0.0589 -0.31104,-0.28829 -0.30329,-0.73491 0.0217,-1.24735 0.13515,-0.21312 0.28755,-0.41333 0.33867,-0.44492 0.13822,-0.0854 0.11242,-0.21678 -0.0426,-0.21678 -0.20992,0 -2.14681,0.95047 -2.79652,1.37232 -0.51898,0.33697 -1.02674,0.73223 -2.28872,1.78152 -0.50554,0.42034 -0.93522,0.43987 -1.31527,0.0598 -0.23807,-0.23805 -0.25474,-0.29308 -0.21905,-0.72327 0.0212,-0.25606 0.008,-0.48435 -0.0288,-0.50726 -0.092,-0.0569 -1.00804,1.10876 -1.43187,1.82221 -0.38624,0.65014 -0.74459,1.52162 -1.22037,2.96799 -0.40327,1.22595 -0.64878,1.71299 -0.98364,1.95144 -0.3515,0.25029 -0.85428,0.24976 -1.19377,0 -0.141,-0.10425 -0.28649,-0.15706 -0.32338,-0.11737 -0.202,0.21751 -0.48278,1.65499 -0.63034,3.22715 -0.0929,0.98946 -0.12967,1.14906 -0.30959,1.34226 -0.18243,0.19589 -0.25061,0.21455 -0.64058,0.1751 -0.39478,-0.0399 -0.44117,-0.0266 -0.4857,0.13943 -0.0271,0.10094 -0.0497,0.88138 -0.0504,1.73429 0,0.90255 -0.0377,1.61904 -0.0886,1.71413 -0.0679,0.12695 -0.0476,0.21733 0.091,0.40481 0.11976,0.16196 0.16942,0.33595 0.15095,0.52883 -0.0349,0.36536 -0.23458,0.41269 -0.52321,0.12406 -0.18082,-0.18079 -0.29456,-0.21624 -0.69414,-0.21624 -0.61195,0 -0.9629,0.17034 -1.43669,0.69731 -1.05275,1.17091 -0.82036,3.28633 0.56013,5.09936 0.39745,0.522 0.7503,0.76515 1.30442,0.8989 0.7552,0.18232 0.78113,0.35761 0.0918,0.6209 l -0.37148,0.14187 -0.0619,1.07317 c -0.27077,4.69464 1.54475,9.764478 5.28268,14.751821 2.11854,2.826702 4.8765,5.581491 6.02329,6.016333 0.59428,0.225373 0.81124,0.431933 0.9634,0.917337 0.38031,1.213141 0.15888,2.53746 -0.59156,3.537771 -0.11102,0.147981 -0.18214,0.319431 -0.15803,0.381 0.0655,0.167084 1.19311,0.982424 1.72984,1.250711 0.9633,0.481516 2.07286,0.749539 3.14399,0.75946 0.64752,0.0061 0.78354,-0.02143 1.23987,-0.249396 z m -6.03909,-12.02002 c -0.80296,-0.166423 -1.68492,-0.724853 -2.50333,-1.585013 -0.57676,-0.606187 -1.27434,-1.652852 -1.46936,-2.204667 -0.28723,-0.8128 -0.26295,-0.78285 -0.63458,-0.78285 -0.36645,0 -0.51919,-0.162454 -0.34737,-0.36949 0.11517,-0.138774 0.97679,-0.363908 1.6515,-0.431509 0.27445,-0.02749 0.865,-0.08681 1.31234,-0.131842 1.19395,-0.120147 7.01336,-0.41746 9.38588,-0.479478 2.00612,-0.05247 2.36704,-0.01323 1.81078,0.196691 -0.18248,0.06887 -0.25609,0.164598 -0.29787,0.387403 -0.0305,0.162745 -0.17417,0.475007 -0.31919,0.693949 -0.54322,0.820103 -3.26406,2.751032 -5.4787,3.888105 -1.45267,0.745834 -2.33768,0.978826 -3.1101,0.818701 z m 1.44283,-2.200328 c 0.79316,-0.272892 2.1047,-1.004967 3.72975,-2.081901 1.1707,-0.775811 1.47928,-1.016291 1.33109,-1.037325 -0.19505,-0.02768 -8.20952,0.549328 -8.71826,0.627671 -0.15134,0.02328 -0.27517,0.07377 -0.27517,0.11213 0,0.111734 1.79724,1.816735 2.22584,2.11164 0.70786,0.487018 0.95626,0.525992 1.70675,0.267785 z m -0.24959,-9.434382 c -0.59332,-0.26371 -0.97131,-0.99481 -0.98821,-1.91151 -0.018,-0.9788 0.26564,-1.02772 0.85751,-0.14785 0.54787,0.81447 0.76578,0.84064 1.56694,0.1881 0.25649,-0.20895 0.50245,-0.37989 0.54653,-0.37989 0.14343,0 0.1833,0.3103 0.0921,0.71707 -0.18751,0.83667 -0.6327,1.39319 -1.25207,1.56522 -0.40121,0.11142 -0.51149,0.10726 -0.82285,-0.0311 z m -5.28912,-6.93145 c -0.5324,-0.2694 -0.76679,-1.04846 -0.61347,-2.03898 0.12039,-0.77782 0.27419,-0.93906 0.7864,-0.82442 0.64294,0.14391 1.01073,0.73422 1.00753,1.61703 -0.003,0.51311 -0.25961,1.05664 -0.57949,1.22206 -0.30694,0.15875 -0.33321,0.15981 -0.60097,0.0243 z m 0.42079,-1.48772 c 0,-0.4063 -0.15758,-0.87657 -0.27035,-0.80685 -0.0784,0.0484 -0.0385,0.61542 0.0692,0.9847 0.0774,0.26548 0.20114,0.1561 0.20114,-0.17785 z m 11.18857,1.38194 c -0.3624,-0.30493 -0.55981,-0.88437 -0.5533,-1.62422 0.006,-0.72655 0.21201,-1.27238 0.50726,-1.34649 0.10626,-0.0266 0.2277,-0.0272 0.26988,0 0.0422,0.0262 0.099,0.36303 0.12626,0.74882 0.051,0.72147 0.11445,0.99772 0.22918,0.99772 0.1089,0 0.16777,-0.34653 0.16899,-0.99484 0,-0.54927 0.0183,-0.61383 0.16436,-0.61383 0.0897,0 0.24201,0.10023 0.33837,0.22273 0.68858,0.8754 0.16714,2.82527 -0.75557,2.82527 -0.13428,0 -0.35369,-0.0948 -0.49543,-0.21407 z m -14.01133,-3.46406 c -0.12404,-0.32324 0.30673,-1.15805 0.86895,-1.68394 0.73001,-0.68283 1.53423,-0.91146 2.12735,-0.60473 0.37222,0.19249 0.3111,0.34875 -0.19471,0.49768 -0.76133,0.22416 -2.01781,1.11879 -2.40829,1.71469 -0.14687,0.22415 -0.32342,0.25839 -0.3933,0.0763 z m 16.41176,-0.77755 c -0.37296,-0.31758 -1.33323,-0.7565 -2.19617,-1.00383 -0.41627,-0.1193 -0.77341,-0.23347 -0.79362,-0.25371 -0.0993,-0.0994 0.10366,-0.32221 0.42733,-0.46913 0.23923,-0.10859 0.55152,-0.16455 0.92522,-0.16576 0.47337,-0.003 0.64982,0.0425 1.09683,0.27389 0.33721,0.17457 0.63386,0.40841 0.80833,0.63714 0.29067,0.38108 0.47297,0.88062 0.39526,1.08308 -0.0712,0.18563 -0.38166,0.13803 -0.66318,-0.10168 z m 28.2829,23.428376 c 0.0442,-0.04255 0.65194,-0.340731 1.35044,-0.662676 1.36702,-0.630078 2.22057,-1.118393 1.95955,-1.121066 -0.0864,0 -0.39121,0.06032 -0.67733,0.136023 -0.28612,0.07567 -1.11077,0.258524 -1.83256,0.406294 l -1.31233,0.268658 0.0172,0.249872 c 0.0392,0.566526 0.11686,0.800206 0.26593,0.800206 0.0817,0 0.18476,-0.03479 0.229,-0.07731 z m -67.97122,-6.632522 c 0.0458,-0.05821 0.10613,-0.334434 0.13393,-0.613834 0.0278,-0.2794 0.14978,-0.83185 0.27109,-1.22767 0.25292,-0.82518 0.28983,-1.0651 0.16032,-1.04187 -0.98521,0.17671 -5.96665,0.53387 -7.44591,0.53387 -1.28892,0 -0.89799,0.19947 2.07156,1.05691 0.87111,0.25154 1.88581,0.561735 2.25491,0.689344 0.56507,0.195368 2.24353,0.683524 2.41755,0.703104 0.0292,0.0032 0.0907,-0.04165 0.13655,-0.09985 z m -21.86059,-6.561664 c 0.1238,-0.73115 0.47903,-2.38033 0.87995,-4.08517 0.23546,-1.00118 0.4282,-1.88285 0.42836,-1.95927 1.6e-4,-0.0764 -0.15168,-0.32284 -0.33742,-0.54758 -0.46858,-0.56705 -0.88291,-1.44735 -1.15139,-2.44615 -0.19582,-0.72853 -0.22889,-1.02386 -0.23709,-2.11667 -0.007,-0.97343 0.0254,-1.39848 0.14007,-1.82033 0.20428,-0.75155 0.58452,-1.50503 0.99462,-1.97091 0.36978,-0.4201 1.23235,-0.90776 1.60563,-0.90776 0.5036,0 1.09257,0.25742 1.55408,0.67922 0.25365,0.2318 0.50728,0.42145 0.56364,0.42145 0.19857,0 2.33024,-1.49476 3.70348,-2.59691 2.14754,-1.72366 3.73869,-3.1387 5.35665,-4.76375 1.73778,-1.74543 2.81318,-3.00873 4.14872,-4.87367 1.19073,-1.66267 1.58165,-2.07481 1.96622,-2.07304 0.15256,0 0.31927,0.0293 0.37047,0.0635 0.0512,0.0342 0.31195,0.61465 0.57944,1.28987 0.62555,1.57917 1.61502,3.64067 1.74741,3.64067 0.11936,0 0.0657,-1.02669 -0.137,-2.62226 -0.26471,-2.08341 -0.66818,-3.59416 -1.26016,-4.71855 -0.84746,-1.60965 -2.78749,-3.22065 -4.6211,-3.83736 -1.63806,-0.55094 -4.1112,-0.54946 -6.48438,0.004 -2.38197,0.55538 -4.99693,2.08523 -7.29729,4.26916 -1.6651,1.58083 -2.46785,2.48758 -3.4303,3.87471 -1.36713,1.97046 -1.83422,3.13587 -2.26758,5.65767 -0.23403,1.36191 -0.32811,5.67338 -0.15608,7.15174 0.12438,1.06852 0.13877,3.98404 0.0222,4.48733 -0.10279,0.44376 -0.33404,0.48279 -0.80563,0.136 -0.19238,-0.14148 -0.38066,-0.23816 -0.41839,-0.21482 -0.32496,0.20082 -0.006,2.40115 0.57558,3.97349 0.38002,1.02708 1.2088,2.56423 2.09582,3.8872 1.18035,1.76051 1.59646,2.32588 1.71574,2.33122 0.0561,0.003 0.12618,-0.1383 0.15576,-0.31292 z m 19.82592,-9.44034 c 0.70628,-0.77242 1.10675,-3.21376 0.87844,-5.35516 -0.2023,-1.89762 -0.79076,-4.75449 -1.02825,-4.99198 -0.11938,-0.1194 -0.19224,0.0175 -0.49411,0.92769 -0.53808,1.62274 -0.86304,3.74901 -0.86728,5.67481 -0.004,1.6969 0.2035,2.73124 0.70784,3.53298 0.28779,0.45749 0.52213,0.51924 0.80336,0.21166 z m -24.57074,-0.5189 c 0.15277,-0.11168 0.1533,-0.12642 0.0124,-0.34136 -0.18397,-0.28075 -0.30906,-0.21326 -0.30906,0.16676 0,0.31877 0.0551,0.35121 0.29659,0.1746 z m 30.59395,-3.26993 c 0.35423,-2.13995 0.28014,-5.2437 -0.15232,-6.38119 -0.10488,-0.27583 -0.17955,-0.27808 -0.49257,-0.0145 -0.2471,0.20793 -0.24736,0.20918 -0.30377,1.4605 -0.0645,1.43047 0.0399,2.98206 0.27704,4.11763 0.18368,0.87963 0.42141,1.54064 0.51687,1.43713 0.035,-0.038 0.10464,-0.31668 0.15475,-0.61936 z m -31.83067,-0.28115 c -0.0377,-0.19462 -0.0702,-0.40783 -0.0722,-0.47379 -0.003,-0.066 -0.0267,-0.0969 -0.0549,-0.0687 -0.0282,0.0282 -0.0238,0.287 0.01,0.57516 0.0334,0.28813 0.089,0.47826 0.12345,0.42251 0.0344,-0.0558 0.0318,-0.26059 -0.006,-0.45519 z m 14.06345,-1.53429 c 2.83152,-0.40317 5.67965,-0.63632 7.80013,-0.63857 0.89032,0 1.26098,-0.0311 1.31852,-0.10716 0.044,-0.0582 0.12973,-0.37253 0.1904,-0.6985 0.28278,-1.51955 1.25886,-3.86458 1.79705,-4.31744 0.44516,-0.37457 1.0668,-0.19788 0.97594,0.27739 -0.0251,0.1316 0.0326,0.31575 0.15618,0.49786 0.23157,0.34124 0.47866,1.07874 0.6762,2.01819 0.22963,1.09223 0.2137,1.07096 0.78052,1.0414 l 0.48673,-0.0254 0.0547,-1.86266 c 0.0301,-1.02447 0.0778,-2.34792 0.10609,-2.94098 l 0.0514,-1.07828 -0.43182,-0.47686 c -0.90128,-0.99523 -1.61515,-2.33984 -2.06304,-3.88588 -0.10792,-0.37254 -0.22863,-0.67273 -0.26821,-0.66707 -0.0396,0.006 -0.29347,0.42156 -0.56417,0.92427 -1.20256,2.23327 -2.49105,3.91583 -4.67061,6.09904 -2.75413,2.75876 -5.44279,4.76964 -7.56991,5.66163 -0.42349,0.17759 -0.74938,0.35624 -0.72419,0.39699 0.0251,0.0408 0.12919,0.0559 0.23111,0.0336 0.10192,-0.0222 0.85206,-0.1355 1.66698,-0.25152 z"
       style="fill:#010c04;stroke-width:0.08466666" />
  </g>
</svg>
