<svg xmlns="http://www.w3.org/2000/svg" viewBox="0 0 994.7 500">
  <path xmlns="http://www.w3.org/2000/svg" d="M469.3 357.6c0 .5-.1 7.8.5 15.2.6 7.7 7.7 7.3 7.7 7.3s7.1.4 7.7-7.3c.6-7.4.5-14.7.5-15.2s.1-7.8-.5-15.2c-.6-7.7-7.7-7.3-7.7-7.3s-7.1-.4-7.7 7.3c-.6 7.4-.5 14.7-.5 15.2m-67.5-12.4s.2-13.9-9.6-13.9c-9.5 0-10.3 11.5-10.3 13.8s4.6 2.2 4.6 2.2h10.7c5.2 0 4.6-2.1 4.6-2.1m177.7 0s.2-13.9-9.6-13.9c-9.5 0-10.3 11.5-10.3 13.8s4.6 2.2 4.6 2.2h10.7c5.2 0 4.6-2.1 4.6-2.1m216.4 12.4c0-.5.1-7.8-.5-15.2-.6-7.7-7.7-7.3-7.7-7.3s-7.1-.4-7.7 7.3c-.6 7.4-.5 14.7-.5 15.2s-.1 8.5.5 15.9c.4 4.5 2.9 6.2 4.9 6.9 1.4.6 2.6.5 2.6.5s.9.1 2-.3c2.1-.5 5.4-2 5.8-7.1.7-7.4.6-15.4.6-15.9m115.5-25.9v76.6s.2 3.5-5.2 3.5h-18.7c-5.4 0-5.2-3.5-5.2-3.5v-65.7s.6-7.2-4.8-7.2c-6.6 0-8.8 4.9-8.8 7.1v65.8s.2 3.5-5.2 3.5H843.2c-5.4 0-5.2-3.5-5.2-3.5v-100c0-3 4-2.7 4-2.7H864.7s4-.3 4 2.7v8c2.4-.1 4.2-1.2 4.9-1.6 1.9-1.4 9.2-11.7 18.8-11.7 21.2 0 19 28.7 19 28.7m-83 27.4c0 53.1-32.4 54.5-38.1 54.5h-2.6c-1.1 0-2.2-.1-2.9-.1-5.6 0-38-4.8-38-54.4 0-57.1 36.2-55.7 39.9-55.7h1.8c3.7-.1 39.8-1.5 39.9 55.7 0-.1 0-.1 0 0m-89.7-82.8c0 9.9-8.2 18-18.4 18s-18.4-8.1-18.4-18c0-10 8.3-18 18.4-18 10.2-.1 18.4 8 18.4 18m-33.8 32c0-3 4-2.7 4-2.7H731.6s4-.3 4 2.7v100s.2 3.5-5.2 3.5H710.1c-5.4 0-5.2-3.5-5.2-3.5v-100zm-97.3 58.4c-1 3.3-6.2 3.1-6.2 3.1h-41.8c0 8.5.4 17.9 10.2 17.9 7 0 8.3-4.7 8.9-6.9.7-2.8 4.7-2.4 4.7-2.4h17.9c3.9 0 3.7 3 3.7 3s2 33.1-36.4 33.1-40.5-47.8-40.5-47.8-7.6-63.4 40-63.4c48 0 40.6 59.7 39.5 63.4m-177.6 0c-1 3.3-6.2 3.1-6.2 3.1H382c0 8.5.4 17.9 10.2 17.9 7 0 8.3-4.7 8.9-6.9.7-2.8 4.7-2.4 4.7-2.4h17.9c3.9 0 3.7 3 3.7 3s2 33.1-36.4 33.1-40.5-47.8-40.5-47.8-7.6-63.4 40-63.4c47.9 0 40.6 59.7 39.5 63.4m-85.6-32.5s.1 2.7-2 2.7c-1.8 0-23.6-1.6-23.7 14.3v57.2s.2 3.4-5.2 3.4H293.2c-5.4 0-5.2-3.4-5.2-3.4V308.3c0-3 4-2.7 4-2.7H314.7s4-.3 4 2.7v8c1.3-.1 4-.6 6.3-3.2 3.2-3.6 9-10.2 17.3-10.2 1.7 0 2 1 2 2.6v28.7zm601 106.8V210.3l-254.7 27.5v170.5s.2 3.5-5.2 3.5H665.2c-5.4 0-5.2-3.5-5.2-3.5V241.1l-10.7 1.2v166s.2 3.5-5.2 3.5H623.8c-5.4 0-5.2-3.5-5.2-3.5V245.6l-148.8 16.1v54.6c1.3 0 3.9-.5 6.3-3.1 3.4-3.7 10-10.3 17.1-10.3 7.2 0 27.1 5.6 27.1 51.2s-18.7 59.1-27.1 59.1c-4.6 0-9.5.2-14.9-4.6-6.2-5.5-5.9-6.1-7.5-5.9-.3.1-.9.4-.9 1v4.5s.2 3.5-5.2 3.5h-20.4c-5.4 0-5.2-3.5-5.2-3.5V265l-338.8 36.6V441h845.1zM713.9 152.2V212l13.6-1.5v-58.2s.6-7.2-4.8-7.2c-6.5 0-8.8 4.9-8.8 7.1M626 166.9c0 .5-.1 8.5.5 15.9.4 4.5 2.9 6.2 4.9 6.9 1.4.6 2.6.5 2.6.5s.9.1 2-.3c2.1-.5 5.3-2 5.8-7.1.6-7.4.5-15.4.5-15.9s.1-7.8-.5-15.2c-.6-7.7-7.7-7.3-7.7-7.3s-7.1-.4-7.7 7.3c-.5 7.5-.4 14.7-.4 15.2m-502.6-12.1s.2-13.9-9.6-13.9c-9.5 0-10.3 11.5-10.3 13.8 0 2.3 4.6 2.2 4.6 2.2h10.7c5.1.1 4.6-2.1 4.6-2.1m464-68.9c0 9.9-8.2 18-18.4 18s-18.4-8.1-18.4-18c0-10 8.3-18 18.4-18 10.1 0 18.4 8.1 18.4 18M546.5 138s.2 3.3-3.3 3.3h-6.7V218s.2 3.4-5.2 3.4H511c-5.4 0-5.2-3.4-5.2-3.4v-76.7h-6.7c-3.4 0-3.3-3.3-3.3-3.3v-19.7c0-3.1 3-3.1 3-3.1h7V88.9c0-3 4-2.7 4-2.7h22.6s4-.3 4 2.7v26.4h7s3 0 3 3.1V138zm-59.9 73.5s.1 2.3-1 4.7c-3.2 6.2-15 6.8-18 6.8-5.6 0-38 2.5-38-54.6s36.2-55.7 39.9-55.7c3 0 9.3 1.3 12.3 3.7 1 .8 2.9 2.2 3.7 4.2 1 2.4 1 4.7 1 4.7v17.4c0 3.3-2.5 2.2-2.5 2.2s-4.2-2.1-7-2.1c-13.5 0-13.5 24.8-13.5 25.6 0 .8 0 25.6 13.5 25.6 2.8 0 7-2.1 7-2.1s2.5-1.1 2.5 2.2v17.4zm-64.4-70.2V218s.2 3.4-5.2 3.4h-18.6c-5.4 0-5.2-3.4-5.2-3.4v-65.7s.6-7.2-4.8-7.2c-6.6 0-8.8 4.9-8.8 7.1V218s.2 3.4-5.2 3.4H354.1c-5.4 0-5.2-3.4-5.2-3.4V118c0-3 4-2.7 4-2.7H375.6s4-.3 4 2.7v8c2.4-.1 4.3-1.2 4.9-1.6 1.9-1.4 9.2-11.7 18.8-11.7 21 0 18.9 28.6 18.9 28.6m-81.3-55.4c0 9.9-8.2 18-18.4 18s-18.4-8.1-18.4-18c0-10 8.2-18 18.4-18s18.4 8.1 18.4 18M295.8 138s.2 3.3-3.3 3.3h-6.7V218s.2 3.4-5.2 3.4h-20.4c-5.4 0-5.2-3.4-5.2-3.4v-76.7h-6.7c-3.4 0-3.3-3.3-3.3-3.3v-19.7c0-3.1 3-3.1 3-3.1h7V88.9c0-3 4-2.7 4-2.7H281.7s4-.3 4 2.7v26.4h7s3 0 3 3.1V138zm-56.6 83.4h-27.6s-2.9 0-4.7-3.1c-1.6-2.8-9.8-20.5-9.8-20.5s-.8-1.6-2.4-1.6c-1.6 0-2.4 1.6-2.4 1.6s-8.2 17.7-9.8 20.5c-1.7 3.1-4.7 3.1-4.7 3.1h-27.6c-3 0 0-4.8 0-4.8s26.9-45 27.9-47.1c1-2.1 0-4.3 0-4.3s-24-43.2-26.1-46.8c-2.1-3.7 3.7-3.1 3.7-3.1h24.8c4.4 0 5.4 2.8 5.4 2.8s6.2 14.3 7.2 16.5c1.1 2.5 1.8 2.2 1.8 2.2s.6.3 1.8-2.2c1-2.2 7.2-16.5 7.2-16.5s1-2.8 5.4-2.8h24.8s5.8-.6 3.7 3.1c-2.1 3.7-26.3 46.9-26.3 46.9s-1 2.2 0 4.3c1 2.1 27.9 47.1 27.9 47.1s2.8 4.7-.2 4.7m-87.7-45c-1 3.3-6.2 3.1-6.2 3.1h-41.8c0 8.5.4 17.9 10.2 17.9 7 0 8.3-4.7 8.9-6.9.7-2.8 4.7-2.4 4.7-2.4h17.9c3.9 0 3.7 3 3.7 3s2 33-36.4 33S72 176.4 72 176.4 64.4 113 112 113c48 0 40.6 59.7 39.5 63.4M307.2 118c0-3 4-2.7 4-2.7H333.9s4-.3 4 2.7v100s.2 3.4-5.2 3.4h-20.4c-5.4 0-5.2-3.4-5.2-3.4V118zm246.4 0c0-3 4-2.7 4-2.7H580.3s4-.3 4 2.7v100s.2 3.4-5.2 3.4H558.8c-5.4 0-5.2-3.4-5.2-3.4V118zm323.2 76.4V55h-845v230.7l592.7-64.1c-11.3-3.1-31.1-14.3-31.1-53.2 0-57.1 36.2-55.7 39.9-55.7h1.8c3.7 0 39.9-1.4 39.9 55.7 0 31.1-11.1 44.4-21.5 50.1l29.9-3.2V118c0-3 4-2.7 4-2.7H710s4-.3 4 2.7v8c2.4-.1 4.2-1.2 4.9-1.6 1.9-1.4 9.2-11.7 18.8-11.7 21.1 0 18.9 28.7 18.9 28.7v66l120.2-13z"/>
</svg>