<?xml version="1.0" encoding="UTF-8" standalone="no"?>
<!-- Created with Inkscape (http://www.inkscape.org/) -->

<svg
   xmlns:dc="http://purl.org/dc/elements/1.1/"
   xmlns:cc="http://creativecommons.org/ns#"
   xmlns:rdf="http://www.w3.org/1999/02/22-rdf-syntax-ns#"
   xmlns:svg="http://www.w3.org/2000/svg"
   xmlns="http://www.w3.org/2000/svg"
   xmlns:sodipodi="http://sodipodi.sourceforge.net/DTD/sodipodi-0.dtd"
   xmlns:inkscape="http://www.inkscape.org/namespaces/inkscape"
   width="114.10193mm"
   height="56.414082mm"
   viewBox="0 0 114.10193 56.414082"
   version="1.1"
   id="svg2394"
   inkscape:version="0.92.4 (5da689c313, 2019-01-14)"
   sodipodi:docname="xrcomsci-logo.svg">
  <defs
     id="defs2388" />
  <sodipodi:namedview
     id="base"
     pagecolor="#ffffff"
     bordercolor="#666666"
     borderopacity="1.0"
     inkscape:pageopacity="0.0"
     inkscape:pageshadow="2"
     inkscape:zoom="0.35"
     inkscape:cx="-181.51706"
     inkscape:cy="-236.24785"
     inkscape:document-units="mm"
     inkscape:current-layer="layer1"
     showgrid="false"
     fit-margin-top="0"
     fit-margin-left="0"
     fit-margin-right="0"
     fit-margin-bottom="0"
     inkscape:window-width="2560"
     inkscape:window-height="1369"
     inkscape:window-x="0"
     inkscape:window-y="35"
     inkscape:window-maximized="1" />
  <metadata
     id="metadata2391">
    <rdf:RDF>
      <cc:Work
         rdf:about="">
        <dc:format>image/svg+xml</dc:format>
        <dc:type
           rdf:resource="http://purl.org/dc/dcmitype/StillImage" />
        <dc:title></dc:title>
      </cc:Work>
    </rdf:RDF>
  </metadata>
  <g
     inkscape:label="Layer 1"
     inkscape:groupmode="layer"
     id="layer1"
     transform="translate(-21.568056,-29.91201)">
    <g
       id="g2372"
       transform="matrix(0.26458333,0,0,0.26458333,-449.69194,-315.0385)">
      <path
         inkscape:connector-curvature="0"
         id="path2370"
         d="m 1981.7828,1516.8141 c -0.3457,-0.2136 -0.4206,-1.6771 -0.3716,-7.2608 0.1291,-14.738 0.6329,-30.8842 0.9764,-31.2982 0.4133,-0.4979 5.0652,-0.6398 42.8925,-1.3083 28.1149,-0.4969 77.6044,-1.4339 117.12,-2.2174 43.8153,-0.8688 68.0372,-1.2295 68.8511,-1.0252 l 0.8109,0.2035 0.23,17.2062 c 0.1265,9.4634 0.1332,17.4582 0.015,17.7662 -0.1761,0.4584 -0.6156,0.56 -2.421,0.56 h -2.2057 v -1.5716 c 0,-1.362 -0.1313,-1.682 -0.9846,-2.4 -0.5415,-0.4556 -1.2975,-0.8442 -1.68,-0.8635 -0.3825,-0.019 -1.9914,-0.055 -3.5754,-0.08 l -2.88,-0.045 -0.095,-2.3496 c -0.056,-1.3897 0.05,-2.5241 0.2598,-2.7766 0.195,-0.2349 1.3176,-0.5222 2.4947,-0.6385 3.1694,-0.3131 4.4308,-0.7153 5.163,-1.6462 0.8364,-1.0632 0.8376,-2.3534 0,-3.4141 -0.8304,-1.0557 -2.0958,-1.2758 -5.0985,-0.8867 -1.6471,0.2134 -2.5193,0.2046 -2.8,-0.028 -0.4778,-0.3966 -0.5686,-4.2827 -0.1066,-4.5682 0.1655,-0.1023 1.8615,-0.2326 3.7688,-0.2896 4.5836,-0.1368 5.5302,-0.6833 5.5302,-3.1927 0,-0.8495 -0.2328,-1.3084 -0.9846,-1.941 -0.9771,-0.8221 -1.027,-0.8284 -6.581,-0.8284 -3.2265,0 -5.8572,0.1395 -6.2122,0.3294 -0.3386,0.1813 -0.8691,0.7933 -1.1789,1.36 -0.4995,0.9138 -0.5525,1.8467 -0.4678,8.2306 0.1555,11.7258 0.4631,16.1629 1.1751,16.9496 0.3611,0.399 0.4836,0.7749 0.3058,0.9389 -0.3722,0.3432 -9.3635,0.696 -9.5617,0.3752 -0.08,-0.1297 0.6517,-0.4873 1.6265,-0.7946 1.2299,-0.3877 2.2538,-1.0228 3.3456,-2.0751 1.3319,-1.2839 1.5732,-1.6994 1.5732,-2.7097 0,-0.8404 -0.2324,-1.4258 -0.7855,-1.9789 -1.0976,-1.0976 -2.5719,-1.0324 -4.4259,0.1956 -3.1427,2.0817 -6.1593,0.8049 -7.5342,-3.1888 -1.1293,-3.2806 0.3459,-8.0637 3.5234,-11.4235 2.0592,-2.1773 2.7816,-2.3479 4.6634,-1.1014 1.8379,1.2174 2.7546,1.226 3.9434,0.037 1.4523,-1.4524 1.1422,-3.2947 -0.8761,-5.2043 -1.2407,-1.1739 -2.3601,-1.5409 -4.6894,-1.5372 -2.69,0 -4.7685,1.0154 -7.1903,3.4981 -2.9081,2.9813 -5.214,7.8956 -5.6835,12.1128 -0.4068,3.6544 1.2598,8.2216 4.0003,10.962 1.2324,1.2325 1.97,1.6628 3.7679,2.1982 1.2295,0.3662 2.4635,0.6658 2.7421,0.6658 0.2786,0 0.5956,0.144 0.7044,0.32 0.12,0.1942 -0.3443,0.3217 -1.1812,0.3243 -0.7583,0 -4.9788,0.1437 -9.3788,0.3142 -4.4,0.1705 -16.784,0.5993 -27.52,0.9529 -10.736,0.3536 -36.8,1.2185 -57.92,1.9219 -21.12,0.7036 -51.648,1.7068 -67.84,2.2294 -16.192,0.5226 -31.1015,1.0197 -33.1322,1.1046 -2.0307,0.085 -3.887,0.034 -4.1251,-0.1133 z m 175.1762,-7.7098 c 0.5871,-0.5864 0.6546,-1.1829 0.8011,-7.0861 0.1067,-4.2996 0.278,-6.485 0.5145,-6.5635 0.195,-0.065 1.4788,2.1268 2.8529,4.87 1.5069,3.0082 2.8682,5.2987 3.4302,5.7716 1.8606,1.5656 3.7585,1.391 4.8305,-0.4445 0.5528,-0.9466 0.5806,-1.2493 0.2502,-2.7256 -0.4154,-1.8563 -0.2364,-10.8556 0.3141,-15.7829 0.2757,-2.468 0.2497,-3.0882 -0.1625,-3.8853 -1.1109,-2.1483 -4.2186,-1.8561 -5.1983,0.4886 -0.278,0.6653 -0.5968,2.4949 -0.7085,4.0659 -0.1117,1.5709 -0.3509,2.905 -0.5316,2.9647 -0.483,0.1596 -2.6985,-4.5132 -2.9257,-6.1708 -0.2868,-2.0922 -1.6105,-3.1388 -3.6033,-2.8491 -3.8949,0.5664 -4.3174,1.8486 -4.7963,14.5572 -0.1603,4.2557 -0.3738,7.8198 -0.4744,7.9204 -0.1005,0.1006 -0.4791,-0.1937 -0.8412,-0.6541 -0.863,-1.0971 -2.0131,-1.2726 -6.0706,-0.9267 -4.2135,0.3593 -4.3045,0.3034 -4.0445,-2.486 0.2447,-2.6244 0.5765,-2.888 3.6359,-2.888 2.7983,0 4.4455,-0.5946 4.8906,-1.7653 0.507,-1.3334 0.3797,-1.9956 -0.5928,-3.0839 -0.8789,-0.9837 -1.0216,-1.0258 -4.08,-1.2051 l -3.1692,-0.1857 0.075,-2.24 c 0.094,-2.7917 0.3772,-3.04 3.4656,-3.04 3.1298,0 4.1583,-0.2519 5.2703,-1.2907 1.292,-1.2068 1.2834,-2.5837 -0.024,-3.8913 l -0.9727,-0.9727 -3.2673,0.2174 c -2.5633,0.1705 -3.5654,0.1108 -4.6512,-0.277 -2.858,-1.0206 -4.4257,0.6395 -5.3067,5.6195 -0.5254,2.9697 -1.1606,12.9998 -1.1523,18.1948 0.01,5.5698 1.0757,6.5186 6.3426,5.6412 1.7205,-0.2867 3.9149,-0.5212 4.8765,-0.5212 2.4672,0 3.8533,-0.4759 4.8236,-1.6562 l 0.8398,-1.0214 0.2217,0.7788 c 0.5228,1.8367 0.9574,2.5928 1.7429,3.0319 1.0321,0.5769 2.5328,0.3519 3.3947,-0.5089 z m -106.8171,-0.4968 c 0.824,-0.8241 0.8306,-0.8694 0.6412,-4.4 -0.1053,-1.9621 -0.4071,-5.8714 -0.6707,-8.6874 -0.2636,-2.816 -0.6343,-7.1001 -0.8238,-9.5203 -0.1895,-2.4202 -0.4762,-4.7464 -0.637,-5.1693 -0.804,-2.1148 -3.4668,-2.8442 -4.954,-1.357 -0.655,0.655 -2.4331,5.5088 -3.5718,9.7507 -0.1572,0.5853 -0.4163,1.0601 -0.576,1.0552 -0.1596,0 -0.7803,-1.6357 -1.3793,-3.6241 -2.0528,-6.814 -2.9018,-7.9352 -6.0091,-7.9352 -1.7697,0 -2.8299,0.883 -3.3178,2.7632 -0.3135,1.2083 -0.8944,7.3133 -1.7854,18.7641 -0.4788,6.1532 -0.3354,7.5421 0.8655,8.3833 1.1527,0.8073 2.9575,0.6323 3.7401,-0.3626 0.8485,-1.0786 0.8643,-1.1676 1.3015,-7.308 0.4306,-6.0473 0.5459,-6.7769 0.9994,-6.3234 0.1811,0.1811 0.8744,3.0312 1.5407,6.3336 1.3312,6.5975 1.6306,7.168 3.7696,7.1827 1.7129,0.012 2.9376,-1.3606 3.2779,-3.6729 0.3218,-2.1874 1.2203,-4.96 1.6073,-4.96 0.2632,0 0.4562,1.2243 0.8325,5.28 0.3213,3.4634 1.1295,4.6106 3.262,4.6303 0.718,0.01 1.3202,-0.256 1.8872,-0.8229 z m 50.6991,0.3437 c 2.0201,-0.6883 3.7543,-2.2323 4.6372,-4.1284 0.8555,-1.8371 0.9473,-3.458 0.3277,-5.7844 -0.884,-3.319 -1.719,-4.6235 -5.3229,-8.3153 -2.5675,-2.6302 -3.5229,-3.8242 -3.5229,-4.4028 0,-0.9116 1.1155,-2.4802 1.7638,-2.4802 0.2405,0 1.1028,0.576 1.9162,1.28 1.8413,1.5936 3.0034,1.6858 4.3446,0.3446 1.4679,-1.4678 1.0648,-3.8511 -0.9361,-5.5347 -1.4153,-1.1909 -4.4293,-2.2612 -5.8432,-2.075 -3.9249,0.5168 -7.1128,4.1303 -7.1153,8.0651 0,2.9404 0.8505,4.4544 4.8273,8.5749 2.5654,2.658 3.5614,3.9257 3.8515,4.9022 0.4406,1.4835 0.4951,2.6727 0.1463,3.195 -0.4757,0.7124 -1.6525,1.1225 -2.2712,0.7914 -0.9274,-0.4963 -2.5271,-2.4532 -3.3777,-4.1317 -1.1794,-2.3275 -3.3455,-3.0016 -4.8408,-1.5064 -1.0309,1.031 -1.0275,2.6813 0.011,4.9108 0.9023,1.9382 3.9461,5.2855 5.6041,6.1628 1.384,0.7324 3.8727,0.7891 5.8009,0.1321 z m -82.2713,-0.9872 c 3.4699,-1.8886 6.6908,-8.5607 6.7024,-13.8839 0.012,-5.3994 -2.8721,-11.9527 -6.3631,-14.4598 -1.2952,-0.9301 -1.7205,-1.0522 -4.0034,-1.1493 -3.2882,-0.1399 -4.7741,0.4146 -6.7383,2.5145 -2.715,2.9026 -3.9961,6.9466 -3.9961,12.6146 0,5.9938 1.3269,9.8589 4.3253,12.5993 3.283,3.0005 6.702,3.5994 10.0732,1.7646 z m -5.4606,-5.6417 c -1.5631,-1.0528 -2.4826,-2.9188 -2.8937,-5.8719 -0.5722,-4.1111 0.198,-8.7986 1.7885,-10.8838 0.8149,-1.0683 0.9177,-1.1083 2.3442,-0.9122 1.7251,0.2373 2.2527,0.7421 3.6635,3.5047 1.9485,3.8155 1.4193,9.9654 -1.1479,13.3397 -1.2599,1.6561 -2.2094,1.8643 -3.7546,0.8235 z m 64.38,5.1616 c 2.1924,-1.0976 4.0926,-4.1586 3.6576,-5.8919 -0.3086,-1.2293 -1.4383,-2.0719 -2.7781,-2.0719 -0.9947,0 -1.4169,0.2372 -2.5632,1.44 -1.6223,1.7022 -2.7145,1.8628 -4.4853,0.6596 -1.7733,-1.205 -2.348,-2.7028 -2.3404,-6.0996 0.01,-4.0571 0.5239,-5.6065 2.6132,-7.8632 0.9506,-1.0267 2.026,-1.9612 2.3899,-2.0767 0.4034,-0.128 1.2589,0.07 2.1917,0.5066 2.4443,1.1449 4.4656,0.1865 4.4656,-2.1173 0,-3.4387 -5.3901,-5.5195 -9.4069,-3.6314 -1.7042,0.8011 -5.597,4.7444 -6.5707,6.6559 -1.0054,1.9738 -1.611,5.1749 -1.6131,8.5261 0,4.8621 1.2124,7.9483 4.0629,10.3169 2.0124,1.6722 2.7634,2.0419 4.7051,2.3162 2.1325,0.3013 4.2267,0.054 5.6717,-0.6693 z m 42.2863,0.5639 c 1.8221,-0.7614 4.0647,-3.8581 4.0647,-5.6129 0,-0.3441 -0.3728,-1.0688 -0.8285,-1.6103 -0.6544,-0.7777 -1.081,-0.9845 -2.0307,-0.9845 -1.0214,0 -1.404,0.2215 -2.5421,1.4721 -1.1559,1.2701 -1.459,1.4422 -2.2092,1.255 -1.2615,-0.3148 -1.8817,-0.9896 -3.0029,-3.267 -0.9288,-1.8868 -0.9856,-2.1972 -0.823,-4.5033 0.2026,-2.874 1.1331,-5.5864 2.5113,-7.3207 1.3812,-1.7381 2.4554,-2.3514 4.1251,-2.3552 3.6162,-0.01 5.1353,-3.2554 2.4554,-5.2482 -0.7272,-0.5408 -1.3548,-0.6702 -3.2,-0.6602 -2.8402,0.015 -4.4448,0.7761 -6.7932,3.2202 -3.4141,3.5533 -5.0842,8.2878 -4.8931,13.8715 0.1047,3.058 0.2204,3.6117 1.1488,5.4976 1.6813,3.4152 3.8927,5.5922 6.48,6.3792 1.3249,0.403 4.4328,0.3282 5.5374,-0.1333 z m -59.986,-0.9839 c 0.5212,-0.5126 0.7546,-1.1155 0.7667,-1.9804 0.042,-3.0076 -0.4412,-22.1746 -0.59,-23.4019 -0.3546,-2.9242 -2.8428,-4.2172 -4.8282,-2.509 l -0.8978,0.7726 -0.03,5.5474 c -0.017,3.0511 0.1061,8.7875 0.2725,12.7475 0.2434,5.7926 0.4091,7.3875 0.8476,8.1593 1.0592,1.8645 2.9523,2.1466 4.4592,0.6645 z m -57.6842,0.1694 c 2.6106,-1.1857 3.5184,-3.7187 1.9094,-5.3278 -0.8727,-0.8727 -2.2076,-1.0174 -3.8635,-0.4186 -3.3667,1.2175 -6.345,-3.2317 -6.3549,-9.4936 -0.01,-4.5919 1.6472,-6.6576 5.7256,-7.1486 1.7988,-0.2165 2.3156,-0.4161 2.9311,-1.1316 0.9593,-1.1152 0.9524,-2.4788 -0.018,-3.6072 -0.6874,-0.7991 -1.0113,-0.9023 -3.1773,-1.0117 -2.0818,-0.1051 -2.6638,-0.01 -4.2522,0.7207 -3.679,1.6844 -5.6327,4.0367 -6.6745,8.0364 -1.3104,5.0307 0.1695,12.5245 3.1752,16.0788 2.8081,3.3206 7.4061,4.7535 10.5994,3.3032 z m 128.503,-0.059 c 1.221,-0.6534 1.4611,-2.0212 1.1751,-6.6942 -0.2803,-4.5782 -0.1079,-11.2306 0.4038,-15.5913 0.2442,-2.0809 0.215,-2.8559 -0.1397,-3.7049 -0.8435,-2.0188 -3.4267,-2.3038 -4.7466,-0.5236 -1.087,1.4661 -1.3486,4.2221 -1.365,14.3798 -0.014,8.7104 0.044,9.8701 0.5443,10.7841 0.308,0.5633 0.812,1.1709 1.12,1.3503 0.7398,0.4308 2.2029,0.4308 3.0081,-2e-4 z m -168.5281,-28.0337 c -2.64,-0.047 -25.248,-0.3762 -50.24,-0.7317 -62.5482,-0.8898 -84.5492,-1.2408 -92.9031,-1.4822 -6.9024,-0.1994 -7.1513,-0.2293 -7.3855,-0.8865 -0.1333,-0.3741 -0.1337,-6.4401 0,-13.4801 0.6001,-31.7873 1.0035,-48.016 1.1983,-48.2087 0.1161,-0.1147 4.6751,-0.6526 10.1311,-1.1953 25.8333,-2.5695 138.8965,-13.476 139.7004,-13.476 0.7811,0 0.9334,0.1479 1.0711,1.04 0.088,0.572 0.2479,6.944 0.3548,14.16 0.1068,7.216 0.3313,14.4838 0.4989,16.1506 0.1676,1.6669 0.3771,9.0829 0.4657,16.48 0.089,7.3972 0.2378,14.0254 0.3316,14.7294 0.2643,1.9833 1.5157,3.8355 3.114,4.6093 1.8046,0.8736 3.3144,0.8481 5.0703,-0.086 1.229,-0.6534 1.746,-0.7364 3.8077,-0.6114 2.0834,0.1264 2.7502,0.016 5.2655,-0.8742 4.9483,-1.7508 7.2001,-3.347 10.357,-7.3416 4.9075,-6.2098 6.3367,-16.5293 3.7116,-26.8007 -1.0949,-4.2842 -2.6172,-7.276 -4.9165,-9.6626 -2.493,-2.5876 -4.111,-3.2973 -7.5176,-3.2973 -2.9823,0 -4.8661,0.4208 -6.89,1.5389 -0.793,0.4382 -1.5369,0.6607 -1.6915,0.5062 -0.379,-0.3791 -0.7564,-21.817 -0.3844,-21.836 0.1603,-0.01 15.5554,-1.5005 34.2114,-3.3162 18.656,-1.8157 34.0173,-3.2131 34.1362,-3.1051 0.1188,0.1079 0.3119,13.1562 0.429,28.9962 0.2447,33.098 0.4499,40.1676 1.2083,41.6325 0.7413,1.432 2.5931,2.9422 3.911,3.1895 2.4153,0.4531 5.0557,-0.826 6.0966,-2.9535 0.7266,-1.4851 0.705,1.0289 0.3466,-40.32 -0.2635,-30.3927 -0.2531,-31.4216 0.32,-31.7251 0.3258,-0.1726 1.6723,-0.3654 2.9923,-0.4286 l 2.4,-0.1148 0.2191,2.24 c 0.1205,1.232 0.3189,14.264 0.4408,28.96 0.1973,23.7803 0.1635,27.1953 -0.307,31.04 -0.4062,3.3191 -0.4514,4.726 -0.1953,6.0725 0.6375,3.3515 2.5725,5.1275 5.5866,5.1275 3.4629,0 5.6093,-2.6386 5.614,-6.9012 0,-0.8917 0.1573,-2.4628 0.3475,-3.4913 0.4743,-2.5659 0.6099,-36.8665 0.2054,-51.9469 -0.1869,-6.9678 -0.2018,-12.0503 -0.036,-12.2058 0.1565,-0.1465 19.8686,-2.1544 43.8046,-4.4619 76.1696,-7.343 71.1859,-6.9041 71.769,-6.321 0.4669,0.4668 0.4779,2.7894 0.1263,26.5199 -0.6621,44.69 -1.0722,65.6802 -1.2876,65.9051 -0.2125,0.2218 -122.6633,1.7918 -186.3708,2.3895 -16.542,0.1552 -23.0476,0.3173 -23.2654,0.5797 -0.1662,0.2003 -0.3448,1.5094 -0.3969,2.9091 l -0.095,2.5448 -5.28,0.013 c -2.904,0.01 -7.44,-0.026 -10.08,-0.072 z m 64.6087,-10.1338 c 3.1316,-1.5478 6.5087,-5.0526 8.1028,-8.4092 0.9681,-2.0386 1.1063,-2.6154 0.9831,-4.1018 -0.27,-3.2554 -2.6001,-5.1789 -5.9384,-4.902 -2.0516,0.1701 -3.0798,0.8601 -4.4541,2.9893 -1.5371,2.3814 -2.9797,3.9642 -3.8009,4.1703 -1.398,0.3509 -4.2461,-0.7613 -5.7175,-2.2327 -1.5829,-1.583 -4.0985,-6.3605 -3.9585,-7.5181 l 0.095,-0.7842 8.96,-0.048 c 8.2936,-0.044 9.0671,-0.097 10.4,-0.7042 1.8382,-0.8376 5.2074,-4.3491 5.749,-5.9919 0.9981,-3.0267 -0.3744,-11.5686 -2.578,-16.0447 -2.2489,-4.5682 -7.6804,-8.8437 -12.0178,-9.4602 -4.0698,-0.5784 -8.3215,0.5813 -11.8226,3.2247 -2.1221,1.6022 -5.2144,5.7076 -6.8602,9.108 -2.4655,5.0937 -3.6929,11.877 -3.4291,18.9517 0.1807,4.8465 0.4938,6.0776 2.6315,10.3462 3.4703,6.9296 7.3618,10.26 14.0654,12.0374 4.0526,1.0745 6.4605,0.9162 9.5905,-0.6307 z m -13.3554,-32.42 c -1.1545,-1.1546 3.0099,-8.0159 5.4883,-9.0425 0.7898,-0.3272 1.1671,-0.2704 2.6962,0.4059 1.386,0.6129 1.9586,1.0946 2.5978,2.1852 0.8734,1.4905 1.9503,5.5029 1.6717,6.229 -0.1329,0.3463 -1.4057,0.4357 -6.2039,0.4357 -3.3202,0 -6.1328,-0.096 -6.2501,-0.2133 z m 156.5076,30.6219 c 1.5516,-1.1482 2.2255,-2.8998 2.4657,-6.4086 0.1144,-1.672 0.411,-4.264 0.6591,-5.76 0.9321,-5.6204 1.1368,-9.3614 0.8165,-14.9192 -0.5122,-8.8886 -1.7047,-13.3151 -4.3054,-15.982 -3.1633,-3.2439 -7.7184,-3.5648 -13.2685,-0.9346 -1.2935,0.6129 -2.4815,1.0342 -2.64,0.9362 -0.1586,-0.098 -0.2883,-0.7599 -0.2883,-1.4709 0,-3.5597 -3.1225,-5.9555 -6.8503,-5.2562 -1.4398,0.2701 -2.9054,1.5018 -3.7924,3.187 -0.7717,1.4662 -0.9214,4.6022 -1.3839,28.9997 -0.2418,12.7557 -0.095,14.3331 1.5082,16.1585 2.5664,2.923 7.0121,2.5249 8.878,-0.795 0.7212,-1.2833 0.7375,-1.5224 0.8527,-12.5759 0.065,-6.1972 0.2068,-11.9299 0.316,-12.7393 0.1941,-1.4396 0.2591,-1.5104 2.9751,-3.2429 4.4906,-2.8646 5.5634,-3.2866 5.9295,-2.3329 1.0208,2.6604 1.0325,14.0491 0.02,19.2075 -0.3522,1.7935 -0.5744,4.4577 -0.5891,7.062 -0.022,4.0068 0.012,4.2356 0.8242,5.4644 1.1714,1.772 2.5262,2.399 4.9123,2.2735 1.4175,-0.075 2.1924,-0.3026 2.9609,-0.8713 z m -224.8809,-0.065 c 1.9358,-0.5917 6.4862,-3.0797 8.3432,-4.5618 2.1359,-1.7046 3.3311,-3.3549 3.8395,-5.3014 1.0455,-4.0025 -2.4422,-7.5384 -6.5677,-6.6585 -1.084,0.2312 -1.972,0.7855 -3.5514,2.2168 -1.1582,1.0497 -2.9005,2.2599 -3.8717,2.6894 -1.5833,0.7002 -1.8539,0.7353 -2.6188,0.3396 -1.4961,-0.7739 -4.5211,-4.2405 -5.3646,-6.1478 -1.1437,-2.5862 -0.8805,-2.7818 3.6023,-2.6778 9.4275,0.2189 11.2828,0.1046 16.1092,-0.9923 2.7363,-0.6219 4.4607,-3.1501 4.4729,-6.5583 0.01,-2.5201 -1.4199,-9.6217 -2.4732,-12.2911 -1.2624,-3.1992 -3.4961,-7.0562 -4.9465,-8.5414 -1.6857,-1.7262 -3.76,-2.6019 -7.1432,-3.0158 -5.7144,-0.6989 -9.78,0.7072 -13.8698,4.797 -4.0033,4.0033 -5.8922,7.3365 -7.9215,13.9781 -0.7797,2.5521 -0.8769,3.382 -0.8966,7.6621 -0.022,4.7311 -0.01,4.849 1.1606,8.2149 2.1515,6.212 4.4118,9.7627 8.2965,13.0326 4.7217,3.9745 8.9462,5.1774 13.4008,3.8157 z m -10.145,-31.8424 c -0.3415,-0.8778 1.8252,-4.4796 3.8842,-6.4567 l 2.0882,-2.0052 1.5263,0.2209 c 0.8394,0.1215 1.7175,0.3737 1.9512,0.5605 1.043,0.8333 3.1169,6.2494 2.8723,7.5013 -0.099,0.5076 -0.6578,0.5584 -6.1419,0.5584 -4.3535,0 -6.0738,-0.1056 -6.1803,-0.3792 z m 155.9122,31.254 c 1.1168,-0.4204 2.7092,-2.314 3.0788,-3.6612 0.2487,-0.9063 0.278,-3.5929 0.098,-8.9736 -0.1414,-4.224 -0.1957,-9.408 -0.1205,-11.52 0.075,-2.112 0.1367,-7.44 0.1367,-11.84 0,-6.973 -0.075,-8.194 -0.583,-9.5109 -1.7638,-4.5712 -7.8296,-4.9823 -10.008,-0.6782 -0.6377,1.2601 -0.6788,1.9407 -0.8304,13.7574 -0.088,6.8374 -0.065,15.9597 0.05,20.2717 0.1862,6.9561 0.2843,8.0057 0.8701,9.3095 1.2855,2.8609 4.2259,4.0056 7.3082,2.8453 z m -187.4919,-0.513 c 1.4065,-0.6674 2.5835,-2.0775 2.9879,-3.5796 0.1823,-0.6769 0.3423,-6.4241 0.3715,-13.3455 l 0.051,-12.1567 2.533,-2.5982 c 1.3931,-1.429 3.0228,-2.862 3.6215,-3.1845 0.973,-0.524 1.2598,-0.5423 2.7006,-0.173 2.1741,0.5571 3.9515,0.2158 5.3724,-1.0318 3.6967,-3.2457 2.2401,-8.1523 -3.0073,-10.1304 -2.6626,-1.0037 -6.5779,-0.8091 -9.0302,0.4489 -1.8702,0.9594 -2.2543,0.8294 -2.2781,-0.771 -0.02,-1.3241 -1.1375,-3.3804 -2.3333,-4.2924 -2.0819,-1.5879 -4.8804,-1.4966 -6.8391,0.2232 -2.1771,1.9115 -2.0991,1.0599 -2.1899,23.9092 -0.045,11.352 0.047,21.3539 0.2055,22.2265 0.1581,0.8726 0.6096,2.0614 1.0032,2.6419 1.4066,2.0741 4.5328,2.904 6.831,1.8134 z m 220.0366,-0.7537 c 2.7387,-1.0286 5.3221,-3.0922 7.0654,-5.6436 2.948,-4.3145 4.1452,-9.6043 4.1923,-18.5245 0.029,-5.4237 -0.02,-5.9188 -0.8361,-8.48 -1.115,-3.5005 -3.7557,-7.9287 -5.837,-9.7884 -5.7159,-5.1073 -6.3565,-5.428 -10.3379,-5.175 -4.4568,0.2831 -9.2163,3.4563 -12.0442,8.0297 -2.2036,3.5638 -3.0119,5.8665 -3.9243,11.1792 -1.0096,5.8791 -1.1255,10.6396 -0.3327,13.6745 1.8201,6.9683 6.9484,13.0011 12.8584,15.1266 2.146,0.7718 6.5935,0.579 9.1961,-0.3985 z m -7.9883,-12.2481 c -3.2015,-3.2509 -3.7986,-6.2298 -2.6777,-13.36 0.7069,-4.4974 2.0528,-8.0814 3.5404,-9.4276 1.1048,-0.9999 2.5665,-0.7251 3.8628,0.7261 2.552,2.857 3.7068,6.8359 3.3541,11.5568 -0.6492,8.6903 -2.1569,12.1847 -5.2573,12.1847 -0.9853,0 -1.4263,-0.2625 -2.8223,-1.68 z m -23.2244,-38.6596 c 1.2318,-0.4645 2.9018,-2.1181 3.6959,-3.6599 0.8146,-1.5816 0.8738,-4.8789 0.1188,-6.6286 -0.7011,-1.6251 -2.2883,-3.3646 -3.7509,-4.1107 -3.2727,-1.6697 -7.402,0.1901 -9.1271,4.1107 -1.1941,2.7137 -0.4782,6.7337 1.533,8.6082 1.8379,1.7132 5.3591,2.4988 7.5303,1.6803 z m -114.6635,39.4525 c -0.9305,-0.7519 -1.0457,-1.9538 -1.1247,-11.7335 -0.052,-6.3918 0.025,-8.3313 0.3317,-8.4336 0.2194,-0.073 1.7801,-1.0565 3.4682,-2.1851 2.7964,-1.8696 3.1281,-2.0132 3.7293,-1.614 1.3177,0.8749 2.7598,6.7392 2.7598,11.2227 0,4.9638 -0.9022,7.9315 -3.1993,10.524 -2.2238,2.5098 -4.5394,3.3714 -5.965,2.2195 z m -195.8884,-47.9411 c -0.4619,-0.3377 -0.4726,-2.4806 -0.1189,-23.6915 0.2139,-12.8262 0.5267,-32.1763 0.695,-43.0003 0.4432,-28.4831 0.5865,-35.2566 0.7493,-35.4194 0.08,-0.08 0.411,0 0.7361,0.1737 0.3706,0.1997 13.7242,0.4484 35.7912,0.6665 108.6608,1.074 291.1778,3.006 322.24,3.4109 10.5915,0.1381 16.1449,0.3245 16.4287,0.5515 0.3557,0.2844 0.3903,5.5478 0.2031,30.9198 -0.1241,16.8174 -0.3192,30.68 -0.4336,30.8059 -0.1144,0.1259 -4.8138,0.6694 -10.4431,1.2079 -5.6293,0.5384 -16.8865,1.6234 -25.0159,2.4111 -8.1294,0.7877 -15.3822,1.4321 -16.1173,1.4321 -1.2916,0 -1.33,-0.029 -1.143,-0.88 0.1064,-0.484 0.3439,-2.968 0.5279,-5.52 0.184,-2.552 0.4714,-6.296 0.6388,-8.32 0.4613,-5.5797 0.3847,-11.5194 -0.1848,-14.3335 -0.9214,-4.5517 -3.3897,-8.5375 -6.0768,-9.8126 -3.0367,-1.4411 -7.8266,-1.3103 -11.7862,0.3217 -1.0768,0.4438 -2.092,0.8378 -2.2561,0.8757 -0.1641,0.038 -0.6175,-0.5876 -1.0077,-1.3898 -1.9843,-4.0797 -6.4145,-5.0024 -9.2023,-1.9166 -0.6255,0.6923 -1.2827,1.807 -1.4603,2.477 -0.1941,0.7318 -0.3418,7.7337 -0.37,17.5381 -0.041,14.1573 0.026,16.7228 0.5018,19.36 0.3017,1.672 0.5684,3.3993 0.5927,3.8385 l 0.044,0.7985 -5.749,0.5565 c -3.1619,0.3061 -5.8531,0.4508 -5.9805,0.3215 -0.1273,-0.1292 0.3381,-1.099 1.0343,-2.155 1.7818,-2.7028 3.7015,-6.7007 4.3022,-8.96 0.6848,-2.5753 0.9743,-9.923 0.5081,-12.8975 -0.4983,-3.1794 -3.6499,-13.0704 -5.0558,-15.8671 -1.5143,-3.0124 -4.8127,-6.289 -7.6824,-7.6319 -2.0159,-0.9434 -2.1943,-0.9697 -5.3313,-0.7883 -6.1812,0.3574 -8.6148,1.6652 -12.4733,6.7028 -4.1884,5.4683 -5.5173,10.3207 -5.2372,19.122 0.3542,11.1271 2.5687,17.3199 7.9236,22.1585 1.2183,1.1008 2.2165,2.0929 2.2182,2.2046 0,0.3216 10.3344,-0.6961 -95.5169,9.4112 -23.056,2.2015 -59.848,5.7189 -81.76,7.8164 -34.4217,3.2949 -79.1325,7.4857 -82.9925,7.7788 -0.6778,0.052 -1.4609,-0.073 -1.7402,-0.2777 z m 199.0772,-24.1127 c 4.1132,-1.4152 7.679,-5.1254 8.8868,-9.2468 0.7344,-2.5065 -0.5503,-5.3739 -2.9754,-6.6409 -0.4753,-0.2483 -1.5357,-0.4514 -2.3565,-0.4514 -2.1498,0 -3.7874,1.0325 -5.157,3.2514 -0.6194,1.0035 -1.3429,1.9078 -1.6077,2.0094 -0.6741,0.2587 -3.4402,-1.8488 -4.5321,-3.4531 -1.7182,-2.5242 -2.1252,-4.149 -2.0963,-8.3677 0.032,-4.6197 0.8172,-9.2901 1.9615,-11.6626 0.9127,-1.8922 2.9723,-4.15 4.512,-4.9463 0.8651,-0.4473 1.1126,-0.4501 2.3147,-0.026 1.7816,0.6286 3.0622,0.5895 4.675,-0.1428 l 1.3294,-0.6037 1.1846,1.0851 c 1.4062,1.288 2.8138,1.7321 5.4976,1.7345 1.2317,0 2.079,0.1531 2.24,0.4018 0.1424,0.22 0.3509,5.08 0.4634,10.8 0.1125,5.72 0.3646,12.8467 0.5602,15.8371 0.3107,4.7502 0.4586,5.6477 1.1709,7.1035 1.7129,3.5009 5.6647,4.3507 8.4656,1.8202 1.986,-1.7942 2.0561,-2.2986 1.6379,-11.7778 -0.2025,-4.5886 -0.4021,-11.9419 -0.4437,-16.3404 l -0.075,-7.9975 1.6124,-0.1993 c 2.8247,-0.3494 4.4931,-1.619 5.2865,-4.0231 1.0794,-3.2707 -1.7123,-7.1427 -5.1499,-7.1427 -0.6276,0 -1.2974,-0.1564 -1.4885,-0.3475 -0.2361,-0.2361 -0.2936,-2.0607 -0.1792,-5.6927 0.1537,-4.8832 0.1123,-5.4715 -0.4785,-6.8072 -1.9813,-4.4789 -7.756,-4.5719 -10.0822,-0.1624 -0.6274,1.1894 -0.7142,1.9208 -0.822,6.9298 -0.068,3.1625 -0.2634,5.7741 -0.4487,6 -0.2056,0.2505 -1.1807,0.4026 -2.6091,0.407 -1.5439,0 -2.7129,0.2032 -3.6183,0.6143 l -1.3374,0.6072 -1.147,-1.114 c -0.6309,-0.6127 -1.9731,-1.4976 -2.9826,-1.9664 -1.5299,-0.7104 -2.2618,-0.8481 -4.3955,-0.8268 -3.0548,0.03 -4.8913,0.6657 -8.1079,2.804 -5.2851,3.5136 -8.6201,8.8214 -9.9932,15.9048 -2.4046,12.4043 -0.6813,20.9847 5.4611,27.1918 2.3398,2.3645 5.4882,4.6069 7.6634,5.4581 1.9433,0.7605 4.9151,0.7518 7.1611,-0.021 z m -154.5917,-1.2323 c 2.4537,-1.208 4.1531,-2.9585 5.3087,-5.4684 2.0832,-4.5251 -0.1473,-8.8156 -4.5833,-8.8156 -1.9925,0 -3.4742,0.8006 -4.7981,2.5923 -0.7497,1.0146 -1.2257,1.3375 -2.1715,1.4733 -2.6547,0.3808 -4.8081,-0.952 -6.2867,-3.8911 -1.3024,-2.5889 -2.1399,-5.4073 -1.7288,-5.8184 0.2045,-0.2046 3.6475,-0.3999 8.9398,-0.5073 4.7339,-0.096 9.1831,-0.3194 9.8871,-0.4963 1.6362,-0.4113 3.4093,-2.2499 3.9679,-4.1146 0.6224,-2.0771 0.5641,-8.6114 -0.1,-11.1807 -1.5229,-5.8955 -4.2707,-11.7776 -6.5806,-14.0876 -0.7962,-0.7961 -2.6714,-2.082 -4.167,-2.8575 -2.3691,-1.2283 -3.0408,-1.4285 -5.2137,-1.5543 -2.3683,-0.1371 -2.615,-0.085 -4.8833,1.0363 -2.979,1.4723 -6.747,4.4386 -8.5392,6.7224 -2.0021,2.5513 -4.3471,7.3292 -4.8789,9.9407 -1.0081,4.9508 -1.1997,9.0724 -0.6534,14.0576 0.6344,5.7887 1.5932,9.2456 3.8227,13.7824 1.9206,3.9083 3.5879,5.8671 6.7255,7.9016 3.1264,2.0273 5.1099,2.5144 9.807,2.4087 3.8009,-0.085 4.1453,-0.1486 6.1255,-1.1235 z m -14.8395,-31.7757 c -1.1224,-0.6936 1.4141,-6.8076 3.7855,-9.1246 3.5962,-3.5138 5.2695,-2.4616 7.6392,4.8039 0.9332,2.8614 1.063,3.5625 0.7202,3.8908 -0.4458,0.4269 -11.5159,0.8187 -12.1449,0.4299 z m 30.6067,32.0719 c 1.655,-0.7538 3.1253,-2.409 5.3855,-6.0629 1.0037,-1.6225 2.8673,-4.3518 4.1413,-6.0651 1.2741,-1.7132 2.7477,-3.7987 3.2748,-4.6344 0.5271,-0.8357 1.1426,-1.5197 1.3679,-1.52 0.5061,0 4.3477,5.8668 5.4311,8.2953 0.4378,0.9813 1.0609,2.5457 1.3847,3.4765 0.7887,2.2672 1.6974,3.4739 3.1889,4.2348 2.6016,1.3273 5.847,0.3906 7.254,-2.0937 1.8385,-3.2462 0.2874,-8.0696 -5.6578,-17.5935 -1.5381,-2.464 -3.141,-5.0854 -3.5621,-5.8252 l -0.7656,-1.3453 1.3224,-2.6547 c 0.7273,-1.4602 2.2886,-3.9465 3.4696,-5.5252 2.3651,-3.1617 3.8405,-5.8461 4.1655,-7.5784 0.497,-2.6488 -1.3034,-5.581 -3.9053,-6.3606 -2.7811,-0.8332 -4.9608,0.3208 -7.1261,3.7728 -2.0747,3.3077 -5.2242,7.6872 -5.6642,7.8763 -0.2102,0.09 -1.5789,-1.4846 -3.1105,-3.5792 -6.2473,-8.5439 -7.0805,-9.4179 -9.3941,-9.8552 -2.3937,-0.4524 -5.0961,1.0219 -6.0477,3.2994 -1.0305,2.4664 -0.34,4.6473 2.6684,8.4278 3.836,4.8207 9.1261,12.4718 8.9466,12.9395 -0.2668,0.6954 -4.5009,6.9519 -6.9352,10.248 -1.1699,1.584 -3.2539,4.68 -4.6313,6.88 -3.3558,5.3604 -3.5986,7.3124 -1.2349,9.9287 1.7107,1.8935 3.775,2.3432 6.0341,1.3143 z m 180.1578,0.2442 c 1.6933,-0.4264 3.5933,-2.2071 3.857,-3.615 0.1022,-0.5457 0.2494,-9.6322 0.3271,-20.1922 0.078,-10.56 0.1659,-19.9341 0.1959,-20.8314 0.146,-4.3686 -4.814,-6.9831 -8.418,-4.4372 -2.8375,2.0045 -3.124,3.8152 -3.3146,20.9486 -0.1731,15.5604 0.1513,23.3916 1.0412,25.1352 0.8124,1.5919 1.624,2.3289 3.1724,2.8812 1.5146,0.5401 1.4437,0.5376 3.139,0.1108 z m -69.2041,-2.0813 c 2.1601,-1.3873 2.8645,-3.5431 2.9656,-9.0766 0.034,-1.8531 0.2323,-7.6893 0.4409,-12.9693 0.417,-10.5495 0.2811,-13.9892 -0.6763,-17.12 -0.8657,-2.831 -1.57,-4.1115 -3.0168,-5.4847 -1.9818,-1.8811 -3.1436,-2.3418 -5.9237,-2.3489 -2.3825,-0.01 -2.576,0.054 -6.4202,1.9936 -2.18,1.1 -4.1346,2 -4.3434,2 -0.2388,0 -0.3824,-0.5644 -0.3869,-1.52 0,-0.836 -0.275,-2.1102 -0.6026,-2.8316 -2.0369,-4.4851 -8.8067,-3.9273 -10.236,0.8433 -0.5347,1.7848 -0.5813,39.284 -0.051,41.2683 1.4736,5.517 7.5293,6.8519 10.502,2.315 0.5026,-0.7671 0.5421,-1.8936 0.442,-12.6074 l -0.11,-11.765 2.463,-2.3313 c 2.5898,-2.4514 5.8443,-4.7313 6.7538,-4.7313 0.497,0 0.5207,0.6816 0.3089,8.88 -0.1261,4.884 -0.3457,11.6593 -0.4879,15.0563 -0.2937,7.014 -0.1255,8.1608 1.4155,9.6544 2.0642,2.0007 4.613,2.2844 6.9633,0.7752 z m -61.7637,0.18 c 1.3103,-0.3639 2.9433,-1.5991 3.5072,-2.6529 0.817,-1.5264 0.8709,-3.2555 0.3914,-12.533 -0.4478,-8.6652 -0.414,-20.5817 0.063,-22.2805 0.09,-0.3205 0.6461,-0.6005 1.4466,-0.7285 3.2586,-0.5211 5.456,-2.74 5.4985,-5.552 0.046,-3.0849 -2.0463,-5.2487 -5.5742,-5.7632 l -1.7227,-0.2513 0.102,-4.7922 c 0.096,-4.4929 0.056,-4.8821 -0.64,-6.2297 -1.7086,-3.31 -5.7072,-4.1325 -8.5324,-1.7553 -1.4894,1.2533 -1.9464,2.8689 -2.1489,7.5965 -0.2592,6.0517 -0.012,5.5618 -2.9373,5.8173 -3.3865,0.2957 -4.3346,0.6481 -5.6442,2.0977 -1.7624,1.9507 -1.9268,4.5276 -0.4304,6.7481 1.1919,1.7685 2.5591,2.3513 5.9418,2.5327 l 2.9907,0.1604 0.096,12.48 c 0.1048,13.6137 0.5023,20.7339 1.2361,22.1446 0.668,1.2842 1.8789,2.3233 3.2962,2.8286 1.511,0.5388 1.5866,0.5421 3.0604,0.1327 z m 23.2259,-1.0773 c 0.4752,-0.2483 1.2427,-0.8603 1.7055,-1.36 1.5647,-1.6897 1.6771,-2.6558 1.4454,-12.4241 -0.1238,-5.2159 -0.055,-13.581 0.164,-20.0045 0.3762,-11.024 0.3758,-11.042 -0.3098,-12.3731 -0.3776,-0.7331 -1.1402,-1.656 -1.6946,-2.0509 -1.2122,-0.8631 -3.611,-1.1557 -5.1931,-0.6336 -1.4264,0.4708 -2.9686,2.1927 -3.3793,3.7734 -0.2647,1.0186 -0.9219,15.1948 -1.0498,22.6442 -0.097,5.6625 0.3607,18.3189 0.6947,19.2003 1.1287,2.9783 4.9751,4.6085 7.617,3.2283 z m 109.7544,-52.5256 c 6.1279,-2.5598 5.3216,-11.7079 -1.0788,-12.2386 -3.7717,-0.3128 -6.9723,1.6955 -7.7736,4.8777 -1.284,5.0991 3.916,9.423 8.8524,7.3609 z m -109.556,-1.4106 c 2.725,-1.3191 4.2841,-3.4476 4.5725,-6.2424 0.2124,-2.0572 -0.2914,-3.6968 -1.5904,-5.1763 -3.7959,-4.3234 -10.6061,-2.9436 -12.2152,2.4748 -2.0642,6.9507 3.0724,11.9263 9.2331,8.9439 z m 171.3848,53.0271 c 0,-0.044 -0.1001,-1.664 -0.2212,-3.6 -0.3565,-5.6985 -0.1193,-22.3363 0.3246,-22.7627 0.2076,-0.1994 1.9794,-1.1869 3.9374,-2.1943 2.4786,-1.2753 3.7605,-1.7679 4.2205,-1.6219 1.4957,0.4747 1.5632,4.631 0.3306,20.3534 -0.3547,4.5247 -0.3397,5.1179 0.1664,6.56 0.9319,2.6552 1.0995,2.4919 -2.9974,2.9194 -3.6046,0.3761 -5.7591,0.5055 -5.7609,0.3461 z m -36.7281,-6.4934 c -2.5642,-2.1949 -3.9518,-6.3909 -4.4159,-13.3532 -0.4032,-6.0494 0.81,-10.5247 3.6851,-13.5934 0.9459,-1.0097 1.5193,-1.36 2.2261,-1.36 2.6523,0 3.5049,1.2623 5.7276,8.48 1.8225,5.9185 2.1402,8.1904 1.6924,12.1047 -0.2704,2.3632 -0.5495,3.2516 -1.7086,5.4375 -1.5354,2.8954 -2.1966,3.4059 -4.4201,3.4131 -1.2157,0 -1.6858,-0.1865 -2.7866,-1.1287 z"
         style="fill:#010c04;stroke-width:0.31999999"
         sodipodi:nodetypes="cccccccscscscccccccccccccscsccccccccsscccccccccccsccsscsccccscccccccccccccccccscccccsccccccccsccccccccsscscccscccccscccscccccccssccccccccccccccccccccscccccccccccsccccccscccccccscscccccccccccccccccccccccccccccccccccccccccccccccccccsccccccccccccscccscsccsccccccccsccscscscsccccccccccccccccccccccccccccccccscccsccccsccscccccccccccccccsccccccccccscccccccccccscccccscccccccccccccccccccccccccccccccccccccccccsccsccccccccccscccccscscccscsscsccccccccccccccccccccccccscccccccsccccccccccccsccccccccsscccccccccccccccccccsccccccccccccccccccccccccccccsccccccccccccccccccccccccccccsccccccccccsccccccccscccccccccccccccccccccccscccccccccccccccccccccccccccccccccccsccccc" />
    </g>
  </g>
</svg>
